<?xml version="1.0" encoding="UTF-8"?>
<!--Generator: Apple Native CoreSVG 149-->
<!DOCTYPE svg
PUBLIC "-//W3C//DTD SVG 1.1//EN"
       "http://www.w3.org/Graphics/SVG/1.1/DTD/svg11.dtd">
<svg version="1.1" xmlns="http://www.w3.org/2000/svg" xmlns:xlink="http://www.w3.org/1999/xlink" width="3300" height="2200">
 <!--glyph: "uni1010BF.medium", point size: 100.0, font version: "17.0d9e1", template writer version: "59"-->
 <g id="Notes">
  <rect height="2200" id="artboard" style="fill:white;opacity:1" width="3300" x="0" y="0"/>
  <line style="fill:none;stroke:black;opacity:1;stroke-width:0.5;" x1="263" x2="3036" y1="292" y2="292"/>
  <text style="stroke:none;fill:black;font-family:sans-serif;font-size:13;font-weight:bold;" transform="matrix(1 0 0 1 263 322)">Weight/Scale Variations</text>
  <text style="stroke:none;fill:black;font-family:sans-serif;font-size:13;text-anchor:middle;" transform="matrix(1 0 0 1 559.711 322)">Ultralight</text>
  <text style="stroke:none;fill:black;font-family:sans-serif;font-size:13;text-anchor:middle;" transform="matrix(1 0 0 1 856.422 322)">Thin</text>
  <text style="stroke:none;fill:black;font-family:sans-serif;font-size:13;text-anchor:middle;" transform="matrix(1 0 0 1 1153.13 322)">Light</text>
  <text style="stroke:none;fill:black;font-family:sans-serif;font-size:13;text-anchor:middle;" transform="matrix(1 0 0 1 1449.84 322)">Regular</text>
  <text style="stroke:none;fill:black;font-family:sans-serif;font-size:13;text-anchor:middle;" transform="matrix(1 0 0 1 1746.56 322)">Medium</text>
  <text style="stroke:none;fill:black;font-family:sans-serif;font-size:13;text-anchor:middle;" transform="matrix(1 0 0 1 2043.27 322)">Semibold</text>
  <text style="stroke:none;fill:black;font-family:sans-serif;font-size:13;text-anchor:middle;" transform="matrix(1 0 0 1 2339.98 322)">Bold</text>
  <text style="stroke:none;fill:black;font-family:sans-serif;font-size:13;text-anchor:middle;" transform="matrix(1 0 0 1 2636.69 322)">Heavy</text>
  <text style="stroke:none;fill:black;font-family:sans-serif;font-size:13;text-anchor:middle;" transform="matrix(1 0 0 1 2933.4 322)">Black</text>
  <line style="fill:none;stroke:black;opacity:1;stroke-width:0.5;" x1="263" x2="3036" y1="1903" y2="1903"/>
  <g transform="matrix(1 0 0 1 263 1933)">
   <path d="M9.24805 0.830078Q10.8691 0.830078 12.2949 0.214844Q13.7207-0.400391 14.8096-1.49414Q15.8984-2.58789 16.5186-4.01367Q17.1387-5.43945 17.1387-7.05078Q17.1387-8.66211 16.5186-10.0879Q15.8984-11.5137 14.8047-12.6074Q13.7109-13.7012 12.2852-14.3164Q10.8594-14.9316 9.23828-14.9316Q7.62695-14.9316 6.20117-14.3164Q4.77539-13.7012 3.69141-12.6074Q2.60742-11.5137 1.9873-10.0879Q1.36719-8.66211 1.36719-7.05078Q1.36719-5.43945 1.9873-4.01367Q2.60742-2.58789 3.69629-1.49414Q4.78516-0.400391 6.21094 0.214844Q7.63672 0.830078 9.24805 0.830078ZM9.24805-0.654297Q7.91992-0.654297 6.7627-1.14746Q5.60547-1.64062 4.73145-2.51953Q3.85742-3.39844 3.36426-4.56055Q2.87109-5.72266 2.87109-7.05078Q2.87109-8.37891 3.35938-9.54102Q3.84766-10.7031 4.72168-11.582Q5.5957-12.4609 6.75293-12.9541Q7.91016-13.4473 9.23828-13.4473Q10.5762-13.4473 11.7334-12.9541Q12.8906-12.4609 13.7695-11.582Q14.6484-10.7031 15.1465-9.54102Q15.6445-8.37891 15.6445-7.05078Q15.6445-5.72266 15.1514-4.56055Q14.6582-3.39844 13.7842-2.51953Q12.9102-1.64062 11.748-1.14746Q10.5859-0.654297 9.24805-0.654297ZM5.83984-7.04102Q5.83984-6.71875 6.04492-6.51855Q6.25-6.31836 6.5918-6.31836L8.50586-6.31836L8.50586-4.39453Q8.50586-4.0625 8.70605-3.85742Q8.90625-3.65234 9.22852-3.65234Q9.56055-3.65234 9.76562-3.85742Q9.9707-4.0625 9.9707-4.39453L9.9707-6.31836L11.8945-6.31836Q12.2266-6.31836 12.4316-6.51855Q12.6367-6.71875 12.6367-7.04102Q12.6367-7.37305 12.4316-7.57812Q12.2266-7.7832 11.8945-7.7832L9.9707-7.7832L9.9707-9.69727Q9.9707-10.0391 9.76562-10.2441Q9.56055-10.4492 9.22852-10.4492Q8.90625-10.4492 8.70605-10.2441Q8.50586-10.0391 8.50586-9.69727L8.50586-7.7832L6.5918-7.7832Q6.25-7.7832 6.04492-7.57812Q5.83984-7.37305 5.83984-7.04102Z"/>
  </g>
  <g transform="matrix(1 0 0 1 281.867 1933)">
   <path d="M11.709 2.91016Q13.75 2.91016 15.5518 2.12891Q17.3535 1.34766 18.7305-0.0292969Q20.1074-1.40625 20.8887-3.20801Q21.6699-5.00977 21.6699-7.05078Q21.6699-9.0918 20.8887-10.8936Q20.1074-12.6953 18.7305-14.0723Q17.3535-15.4492 15.5469-16.2305Q13.7402-17.0117 11.6992-17.0117Q9.6582-17.0117 7.85645-16.2305Q6.05469-15.4492 4.68262-14.0723Q3.31055-12.6953 2.5293-10.8936Q1.74805-9.0918 1.74805-7.05078Q1.74805-5.00977 2.5293-3.20801Q3.31055-1.40625 4.6875-0.0292969Q6.06445 1.34766 7.86621 2.12891Q9.66797 2.91016 11.709 2.91016ZM11.709 1.25Q9.98047 1.25 8.47656 0.605469Q6.97266-0.0390625 5.83496-1.17676Q4.69727-2.31445 4.05762-3.81836Q3.41797-5.32227 3.41797-7.05078Q3.41797-8.7793 4.05762-10.2832Q4.69727-11.7871 5.83008-12.9297Q6.96289-14.0723 8.4668-14.7119Q9.9707-15.3516 11.6992-15.3516Q13.4277-15.3516 14.9316-14.7119Q16.4355-14.0723 17.5781-12.9297Q18.7207-11.7871 19.3652-10.2832Q20.0098-8.7793 20.0098-7.05078Q20.0098-5.32227 19.3701-3.81836Q18.7305-2.31445 17.5928-1.17676Q16.4551-0.0390625 14.9463 0.605469Q13.4375 1.25 11.709 1.25ZM7.39258-7.04102Q7.39258-6.68945 7.62695-6.46484Q7.86133-6.24023 8.23242-6.24023L10.8789-6.24023L10.8789-3.57422Q10.8789-3.21289 11.1035-2.9834Q11.3281-2.75391 11.6797-2.75391Q12.0508-2.75391 12.2852-2.9834Q12.5195-3.21289 12.5195-3.57422L12.5195-6.24023L15.1758-6.24023Q15.5371-6.24023 15.7715-6.46484Q16.0059-6.68945 16.0059-7.04102Q16.0059-7.41211 15.7715-7.6416Q15.5371-7.87109 15.1758-7.87109L12.5195-7.87109L12.5195-10.5176Q12.5195-10.8984 12.2852-11.1279Q12.0508-11.3574 11.6797-11.3574Q11.3281-11.3574 11.1035-11.1279Q10.8789-10.8984 10.8789-10.5176L10.8789-7.87109L8.23242-7.87109Q7.85156-7.87109 7.62207-7.6416Q7.39258-7.41211 7.39258-7.04102Z"/>
  </g>
  <g transform="matrix(1 0 0 1 305.646 1933)">
   <path d="M14.9707 5.66406Q17.0605 5.66406 18.96 5.01465Q20.8594 4.36523 22.4512 3.19336Q24.043 2.02148 25.2197 0.429688Q26.3965-1.16211 27.0459-3.06641Q27.6953-4.9707 27.6953-7.05078Q27.6953-9.14062 27.0459-11.04Q26.3965-12.9395 25.2197-14.5312Q24.043-16.123 22.4512-17.2998Q20.8594-18.4766 18.9551-19.126Q17.0508-19.7754 14.9609-19.7754Q12.8711-19.7754 10.9717-19.126Q9.07227-18.4766 7.48535-17.2998Q5.89844-16.123 4.72168-14.5312Q3.54492-12.9395 2.90039-11.04Q2.25586-9.14062 2.25586-7.05078Q2.25586-4.9707 2.90527-3.06641Q3.55469-1.16211 4.72656 0.429688Q5.89844 2.02148 7.49023 3.19336Q9.08203 4.36523 10.9814 5.01465Q12.8809 5.66406 14.9707 5.66406ZM14.9707 3.84766Q13.1641 3.84766 11.5283 3.2959Q9.89258 2.74414 8.53516 1.74805Q7.17773 0.751953 6.17676-0.610352Q5.17578-1.97266 4.62891-3.6084Q4.08203-5.24414 4.08203-7.05078Q4.08203-8.86719 4.62891-10.5029Q5.17578-12.1387 6.17188-13.501Q7.16797-14.8633 8.52539-15.8594Q9.88281-16.8555 11.5186-17.4023Q13.1543-17.9492 14.9609-17.9492Q16.7773-17.9492 18.4131-17.4023Q20.0488-16.8555 21.4111-15.8594Q22.7734-14.8633 23.7695-13.501Q24.7656-12.1387 25.3174-10.5029Q25.8691-8.86719 25.8691-7.05078Q25.8789-5.24414 25.332-3.6084Q24.7852-1.97266 23.7842-0.610352Q22.7832 0.751953 21.4209 1.74805Q20.0586 2.74414 18.4229 3.2959Q16.7871 3.84766 14.9707 3.84766ZM9.45312-7.04102Q9.45312-6.66016 9.71191-6.41113Q9.9707-6.16211 10.3711-6.16211L14.0625-6.16211L14.0625-2.46094Q14.0625-2.06055 14.3115-1.80664Q14.5605-1.55273 14.9414-1.55273Q15.3516-1.55273 15.6055-1.80664Q15.8594-2.06055 15.8594-2.46094L15.8594-6.16211L19.5605-6.16211Q19.9609-6.16211 20.2148-6.41113Q20.4688-6.66016 20.4688-7.04102Q20.4688-7.45117 20.2148-7.70508Q19.9609-7.95898 19.5605-7.95898L15.8594-7.95898L15.8594-11.6504Q15.8594-12.0605 15.6055-12.3145Q15.3516-12.5684 14.9414-12.5684Q14.5605-12.5684 14.3115-12.3096Q14.0625-12.0508 14.0625-11.6504L14.0625-7.95898L10.3711-7.95898Q9.96094-7.95898 9.70703-7.70508Q9.45312-7.45117 9.45312-7.04102Z"/>
  </g>
  <text style="stroke:none;fill:black;font-family:sans-serif;font-size:13;font-weight:bold;" transform="matrix(1 0 0 1 263 1953)">Design Variations</text>
  <text style="stroke:none;fill:black;font-family:sans-serif;font-size:13;" transform="matrix(1 0 0 1 263 1971)">Symbols are supported in up to nine weights and three scales.</text>
  <text style="stroke:none;fill:black;font-family:sans-serif;font-size:13;" transform="matrix(1 0 0 1 263 1989)">For optimal layout with text and other symbols, vertically align</text>
  <text style="stroke:none;fill:black;font-family:sans-serif;font-size:13;" transform="matrix(1 0 0 1 263 2007)">symbols with the adjacent text.</text>
  <line style="fill:none;stroke:#00AEEF;stroke-width:0.5;opacity:1.0;" x1="776" x2="776" y1="1919" y2="1933"/>
  <g transform="matrix(1 0 0 1 776 1933)">
   <path d="M3.31055 0.15625Q3.70117 0.15625 3.91602-0.00976562Q4.13086-0.175781 4.26758-0.585938L5.52734-4.0332L11.2891-4.0332L12.5488-0.585938Q12.6855-0.175781 12.9004-0.00976562Q13.1152 0.15625 13.4961 0.15625Q13.8867 0.15625 14.1162-0.0585938Q14.3457-0.273438 14.3457-0.644531Q14.3457-0.869141 14.2383-1.17188L9.6582-13.3691Q9.48242-13.8184 9.17969-14.043Q8.87695-14.2676 8.4082-14.2676Q7.5-14.2676 7.17773-13.3789L2.59766-1.16211Q2.49023-0.859375 2.49023-0.634766Q2.49023-0.263672 2.70996-0.0537109Q2.92969 0.15625 3.31055 0.15625ZM6.00586-5.51758L8.37891-12.0898L8.42773-12.0898L10.8008-5.51758Z"/>
  </g>
  <line style="fill:none;stroke:#00AEEF;stroke-width:0.5;opacity:1.0;" x1="793.197" x2="793.197" y1="1919" y2="1933"/>
  <text style="stroke:none;fill:black;font-family:sans-serif;font-size:13;font-weight:bold;" transform="matrix(1 0 0 1 776 1953)">Margins</text>
  <text style="stroke:none;fill:black;font-family:sans-serif;font-size:13;" transform="matrix(1 0 0 1 776 1971)">Leading and trailing margins on the left and right side of each symbol</text>
  <text style="stroke:none;fill:black;font-family:sans-serif;font-size:13;" transform="matrix(1 0 0 1 776 1989)">can be adjusted by modifying the x-location of the margin guidelines.</text>
  <text style="stroke:none;fill:black;font-family:sans-serif;font-size:13;" transform="matrix(1 0 0 1 776 2007)">Modifications are automatically applied proportionally to all</text>
  <text style="stroke:none;fill:black;font-family:sans-serif;font-size:13;" transform="matrix(1 0 0 1 776 2025)">scales and weights.</text>
  <g transform="matrix(1 0 0 1 1289 1933)">
   <path d="M2.8418 1.86523L4.54102 3.57422Q5.18555 4.22852 5.90332 4.17969Q6.62109 4.13086 7.31445 3.35938L18.0078-8.42773L17.041-9.4043L6.42578 2.27539Q6.16211 2.57812 5.89355 2.61719Q5.625 2.65625 5.27344 2.30469L4.10156 1.14258Q3.75 0.791016 3.79395 0.522461Q3.83789 0.253906 4.14062-0.0195312L15.6152-10.8203L14.6387-11.7871L3.04688-0.898438Q2.30469-0.214844 2.25098 0.498047Q2.19727 1.21094 2.8418 1.86523ZM9.25781-16.3281Q8.94531-16.0254 8.90625-15.6348Q8.86719-15.2441 9.04297-14.9512Q9.21875-14.6777 9.55566-14.541Q9.89258-14.4043 10.3809-14.5215Q11.4746-14.7754 12.5977-14.7314Q13.7207-14.6875 14.7949-13.9844L14.209-12.5293Q13.9551-11.9043 14.0674-11.4404Q14.1797-10.9766 14.5801-10.5664L16.875-8.25195Q17.2363-7.88086 17.5781-7.82227Q17.9199-7.76367 18.3398-7.8418L19.4043-8.03711L20.0684-7.36328L20.0293-6.80664Q20-6.43555 20.1221-6.12305Q20.2441-5.81055 20.6055-5.44922L21.3672-4.70703Q21.7285-4.3457 22.1533-4.33105Q22.5781-4.31641 22.9297-4.66797L25.8398-7.58789Q26.1914-7.93945 26.1816-8.35449Q26.1719-8.76953 25.8105-9.13086L25.0391-9.89258Q24.6875-10.2539 24.3799-10.3857Q24.0723-10.5176 23.7109-10.4883L23.1348-10.4395L22.4902-11.0742L22.7344-12.1973Q22.832-12.6172 22.6953-12.9834Q22.5586-13.3496 22.1191-13.7891L19.9219-15.9766Q18.6719-17.2168 17.2607-17.8369Q15.8496-18.457 14.4189-18.4814Q12.9883-18.5059 11.665-17.959Q10.3418-17.4121 9.25781-16.3281ZM10.752-15.957Q11.6602-16.6211 12.7002-16.9043Q13.7402-17.1875 14.8047-17.085Q15.8691-16.9824 16.8701-16.5137Q17.8711-16.0449 18.7012-15.2051L21.1328-12.793Q21.3086-12.6172 21.3525-12.4512Q21.3965-12.2852 21.3379-12.0312L21.0156-10.5469L22.5195-9.0625L23.5059-9.12109Q23.6914-9.13086 23.7891-9.09668Q23.8867-9.0625 24.0332-8.91602L24.6094-8.33984L22.168-5.89844L21.5918-6.47461Q21.4453-6.62109 21.4062-6.71875Q21.3672-6.81641 21.377-7.01172L21.4453-7.98828L19.9512-9.47266L18.4277-9.21875Q18.1836-9.16992 18.042-9.2041Q17.9004-9.23828 17.7148-9.41406L15.7129-11.416Q15.5176-11.5918 15.4932-11.7529Q15.4688-11.9141 15.5859-12.1875L16.4648-14.2773Q15.293-15.3711 13.8281-15.791Q12.3633-16.2109 10.8398-15.7617Q10.7227-15.7324 10.6885-15.8057Q10.6543-15.8789 10.752-15.957Z"/>
  </g>
  <text style="stroke:none;fill:black;font-family:sans-serif;font-size:13;font-weight:bold;" transform="matrix(1 0 0 1 1289 1953)">Exporting</text>
  <text style="stroke:none;fill:black;font-family:sans-serif;font-size:13;" transform="matrix(1 0 0 1 1289 1971)">Symbols should be outlined when exporting to ensure the</text>
  <text style="stroke:none;fill:black;font-family:sans-serif;font-size:13;" transform="matrix(1 0 0 1 1289 1989)">design is preserved when submitting to Xcode.</text>
  <text id="template-version" style="stroke:none;fill:black;font-family:sans-serif;font-size:13;text-anchor:end;" transform="matrix(1 0 0 1 3036 1933)">Template v.3.0</text>
  <text style="stroke:none;fill:black;font-family:sans-serif;font-size:13;text-anchor:end;" transform="matrix(1 0 0 1 3036 1951)">Requires Xcode 13 or greater</text>
  <text id="descriptive-name" style="stroke:none;fill:black;font-family:sans-serif;font-size:13;text-anchor:end;" transform="matrix(1 0 0 1 3036 1969)">Generated from magazine.fill</text>
  <text style="stroke:none;fill:black;font-family:sans-serif;font-size:13;text-anchor:end;" transform="matrix(1 0 0 1 3036 1987)">Typeset at 100 points</text>
  <text style="stroke:none;fill:black;font-family:sans-serif;font-size:13;" transform="matrix(1 0 0 1 263 726)">Small</text>
  <text style="stroke:none;fill:black;font-family:sans-serif;font-size:13;" transform="matrix(1 0 0 1 263 1156)">Medium</text>
  <text style="stroke:none;fill:black;font-family:sans-serif;font-size:13;" transform="matrix(1 0 0 1 263 1586)">Large</text>
 </g>
 <g id="Guides">
  <g id="H-reference" style="fill:#27AAE1;stroke:none;" transform="matrix(1 0 0 1 339 696)">
   <path d="M0.993347 0L3.6377 0L29.3282-67.1326L30.0301-67.1326L30.0301-70.459L28.1227-70.459ZM11.6882-24.4797L46.9818-24.4797L46.2311-26.7288L12.4382-26.7288ZM55.1193 0L57.7637 0L30.6381-70.459L29.4327-70.459L29.4327-67.1326Z"/>
  </g>
  <line id="Baseline-S" style="fill:none;stroke:#27AAE1;opacity:1;stroke-width:0.5;" x1="263" x2="3036" y1="696" y2="696"/>
  <line id="Capline-S" style="fill:none;stroke:#27AAE1;opacity:1;stroke-width:0.5;" x1="263" x2="3036" y1="625.541" y2="625.541"/>
  <g id="H-reference" style="fill:#27AAE1;stroke:none;" transform="matrix(1 0 0 1 339 1126)">
   <path d="M0.993347 0L3.6377 0L29.3282-67.1326L30.0301-67.1326L30.0301-70.459L28.1227-70.459ZM11.6882-24.4797L46.9818-24.4797L46.2311-26.7288L12.4382-26.7288ZM55.1193 0L57.7637 0L30.6381-70.459L29.4327-70.459L29.4327-67.1326Z"/>
  </g>
  <line id="Baseline-M" style="fill:none;stroke:#27AAE1;opacity:1;stroke-width:0.5;" x1="263" x2="3036" y1="1126" y2="1126"/>
  <line id="Capline-M" style="fill:none;stroke:#27AAE1;opacity:1;stroke-width:0.5;" x1="263" x2="3036" y1="1055.54" y2="1055.54"/>
  <g id="H-reference" style="fill:#27AAE1;stroke:none;" transform="matrix(1 0 0 1 339 1556)">
   <path d="M0.993347 0L3.6377 0L29.3282-67.1326L30.0301-67.1326L30.0301-70.459L28.1227-70.459ZM11.6882-24.4797L46.9818-24.4797L46.2311-26.7288L12.4382-26.7288ZM55.1193 0L57.7637 0L30.6381-70.459L29.4327-70.459L29.4327-67.1326Z"/>
  </g>
  <line id="Baseline-L" style="fill:none;stroke:#27AAE1;opacity:1;stroke-width:0.5;" x1="263" x2="3036" y1="1556" y2="1556"/>
  <line id="Capline-L" style="fill:none;stroke:#27AAE1;opacity:1;stroke-width:0.5;" x1="263" x2="3036" y1="1485.54" y2="1485.54"/>
  <line id="left-margin-Regular-M" style="fill:none;stroke:#00AEEF;stroke-width:0.5;opacity:1.0;" x1="1394.64" x2="1394.64" y1="1030.79" y2="1150.12"/>
  <line id="right-margin-Regular-M" style="fill:none;stroke:#00AEEF;stroke-width:0.5;opacity:1.0;" x1="1505.04" x2="1505.04" y1="1030.79" y2="1150.12"/>
 </g>
 <g id="Symbols">
  <g id="Black-L" transform="matrix(1 0 0 1 2856.72 1556)">
   <path d="M16.0645 20.2148Q16.0645 25.1953 17.749 28.418Q19.4336 31.6406 23.584 33.8379Q29.1016 36.5723 36.1084 38.5742Q43.1152 40.5762 51.3428 41.6504Q59.5703 42.7246 68.6523 42.7246Q76.2695 42.7246 84.0332 42.1143Q91.7969 41.5039 99.2188 40.2588Q106.641 39.0137 113.281 37.1338Q119.922 35.2539 125.293 32.7148Q129.932 30.5664 132.544 28.125Q135.156 25.6836 136.23 22.3389Q137.305 18.9941 137.305 14.0137L137.305-80.6641Q137.305-100.342 118.311-100.342L112.451-100.342L112.451-101.367Q112.451-107.227 109.082-110.156Q105.713-113.086 100.342-113.086Q98.291-113.086 96.0938-112.72Q93.8965-112.354 91.5039-111.572Q82.1777-108.643 73.0713-106.274Q63.9648-103.906 54.3701-102.515Q44.7754-101.123 33.9844-101.123L29.834-101.123Q23.0469-101.123 19.5557-97.6807Q16.0645-94.2383 16.0645-87.9395ZM42.4805-46.5332L42.4805-69.043Q42.4805-70.6543 44.1406-70.8008Q54.7363-71.3867 64.6973-72.9004Q74.6582-74.4141 85.1074-78.5156Q85.6934-78.7598 86.4746-78.418Q87.2559-78.0762 87.2559-76.9043L87.2559-53.6621Q87.2559-52.5879 86.2793-52.2461Q80.2246-49.7559 73.2178-48.1689Q66.2109-46.582 58.8135-45.7764Q51.416-44.9707 44.1406-44.9219Q43.5059-44.9219 42.9932-45.3369Q42.4805-45.752 42.4805-46.5332ZM74.5117 24.3652Q79.9805 23.7793 84.6191 22.7783Q89.2578 21.7773 93.0908 20.459Q96.9238 19.1406 100 17.5537Q103.076 15.9668 105.469 14.1602Q109.375 11.1816 110.938 7.83691Q112.5 4.49219 112.5-0.732422L112.5-82.4219L116.992-82.4219Q119.385-82.4219 119.385-80.0781L119.385 10.8887Q119.385 13.5254 118.53 15.1855Q117.676 16.8457 114.893 17.9688Q111.914 19.2383 108.716 20.2637Q105.518 21.2891 102.173 22.0459Q98.8281 22.8027 95.3857 23.3398Q91.9434 23.877 88.4277 24.0723Q85.1562 24.3652 81.665 24.4141Q78.1738 24.4629 74.5117 24.3652Z"/>
  </g>
  <g id="Heavy-L" transform="matrix(1 0 0 1 2561.59 1556)">
   <path d="M16.0645 20.2957Q16.0645 24.9649 17.6224 27.9396Q19.1803 30.9143 23.1346 32.9391Q28.7216 35.5698 35.6766 37.4737Q42.6315 39.3776 50.6859 40.3885Q58.7402 41.3994 67.569 41.4108Q74.9443 41.4108 82.5005 40.8119Q90.0566 40.213 97.3171 38.9969Q104.578 37.7808 111.097 35.9238Q117.617 34.0668 122.896 31.5506Q127.258 29.5059 129.697 27.2144Q132.137 24.9229 133.13 21.7972Q134.124 18.6714 134.124 14.0137L134.124-81.3095Q134.124-99.5117 116.547-99.5117L110.63-99.5117L110.63-100.837Q110.63-106.362 107.549-109.084Q104.469-111.806 99.4659-111.806Q97.5998-111.806 95.5521-111.458Q93.5043-111.109 91.2506-110.374Q81.8321-107.398 72.6105-105.064Q63.3888-102.731 53.7075-101.391Q44.0262-100.051 33.2237-100.051L28.9696-100.051Q22.6433-100.051 19.3539-96.8048Q16.0645-93.5585 16.0645-87.6862ZM41.2933-47.4091L41.2933-69.6304Q41.2933-71.2303 42.9192-71.3654Q53.5721-71.8941 63.6082-73.5054Q73.6443-75.1167 83.9783-79.0688Q84.5642-79.3015 85.3397-78.9711Q86.1153-78.6407 86.1153-77.4803L86.1153-54.538Q86.1153-53.4866 85.1501-53.1334Q79.1527-50.6775 72.1516-49.0791Q65.1505-47.4808 57.7068-46.6637Q50.2632-45.8466 42.9192-45.8321Q42.2958-45.8321 41.7946-46.2299Q41.2933-46.6278 41.2933-47.4091ZM66.1217 25.0801Q72.4777 24.5743 78.1364 23.5157Q83.7952 22.4571 88.6425 20.9431Q93.4898 19.429 97.4361 17.5137Q101.382 15.5983 104.351 13.3301Q107.842 10.6743 109.255 7.65228Q110.667 4.63028 110.667-0.271606L110.667-83.7814L115.54-83.7814Q118.382-83.7814 118.382-80.8388L118.382 11.4876Q118.382 14.1708 117.545 15.7734Q116.708 17.3759 113.959 18.5104Q110.623 19.9646 106.872 21.1338Q103.12 22.303 99.1131 23.1579Q95.1057 24.0128 90.9718 24.5728Q86.8378 25.1328 82.6767 25.2823Q78.6331 25.4944 74.5026 25.4337Q70.372 25.3731 66.1217 25.0801Z"/>
  </g>
  <g id="Bold-L" transform="matrix(1 0 0 1 2266.66 1556)">
   <path d="M16.0645 20.3857Q16.0645 24.707 17.4805 27.4048Q18.8965 30.1025 22.6318 31.9336Q28.2959 34.4482 35.1929 36.2427Q42.0898 38.0371 49.9512 38.9771Q57.8125 39.917 66.3574 39.9414Q73.4619 39.9414 80.7861 39.3555Q88.1104 38.7695 95.1904 37.5854Q102.271 36.4014 108.655 34.5703Q115.039 32.7393 120.215 30.249Q124.268 28.3203 126.514 26.1963Q128.76 24.0723 129.663 21.1914Q130.566 18.3105 130.566 14.0137L130.566-82.0312Q130.566-98.584 114.575-98.584L108.594-98.584L108.594-100.244Q108.594-105.396 105.835-107.886Q103.076-110.376 98.4863-110.376Q96.8262-110.376 94.9463-110.046Q93.0664-109.717 90.9668-109.033Q81.4453-106.006 72.0947-103.711Q62.7441-101.416 52.9663-100.134Q43.1885-98.8525 32.373-98.8525L28.0029-98.8525Q22.1924-98.8525 19.1284-95.8252Q16.0645-92.7979 16.0645-87.4023ZM39.9658-48.3887L39.9658-70.2881Q39.9658-71.875 41.5527-71.9971Q52.2705-72.4609 62.3901-74.1821Q72.5098-75.9033 82.7148-79.6875Q83.3008-79.9072 84.0698-79.5898Q84.8389-79.2725 84.8389-78.125L84.8389-55.5176Q84.8389-54.4922 83.8867-54.126Q77.9541-51.709 70.9595-50.0977Q63.9648-48.4863 56.4697-47.6562Q48.9746-46.8262 41.5527-46.8506Q40.9424-46.8506 40.4541-47.229Q39.9658-47.6074 39.9658-48.3887ZM56.7383 25.8789Q64.0869 25.4639 70.8862 24.3408Q77.6855 23.2178 83.667 21.4844Q89.6484 19.751 94.5679 17.4683Q99.4873 15.1855 103.101 12.4023Q106.128 10.1074 107.373 7.44629Q108.618 4.78516 108.618 0.244141L108.618-85.3027L113.916-85.3027Q117.261-85.3027 117.261-81.6895L117.261 12.1582Q117.261 14.8926 116.443 16.4307Q115.625 17.9688 112.915 19.1162Q109.18 20.7764 104.81 22.1069Q100.439 23.4375 95.6909 24.4019Q90.9424 25.3662 86.0352 25.9521Q81.1279 26.5381 76.2451 26.6357Q71.3379 26.7578 66.4917 26.5747Q61.6455 26.3916 56.7383 25.8789Z"/>
  </g>
  <g id="Semibold-L" transform="matrix(1 0 0 1 1971.18 1556)">
   <path d="M16.0645 20.4483Q16.0645 24.5293 17.3828 27.0359Q18.7012 29.5425 22.2855 31.2401Q28.0029 33.6754 34.8598 35.3943Q41.7168 37.1132 49.4446 38.0039Q57.1724 38.8947 65.522 38.9282Q72.4396 38.9282 79.604 38.3511Q86.7683 37.7739 93.7241 36.6123Q100.68 35.4507 106.971 33.6372Q113.261 31.8237 118.366 29.3518Q122.206 27.5024 124.319 25.494Q126.431 23.4856 127.272 20.7737Q128.114 18.0618 128.114 14.0137L128.114-82.5287Q128.114-97.9439 113.216-97.9439L107.19-97.9439L107.19-99.8352Q107.19-104.729 104.653-107.059Q102.116-109.389 97.8111-109.389Q96.2929-109.389 94.5286-109.073Q92.7643-108.757 90.7715-108.109Q81.179-105.046 71.7396-102.778Q62.3001-100.51 52.4555-99.268Q42.6109-98.0263 31.7863-98.0263L27.3361-98.0263Q21.8811-98.0263 18.9728-95.15Q16.0645-92.2737 16.0645-87.207ZM39.0503-49.0639L39.0503-70.7413Q39.0503-72.319 40.6105-72.4327Q51.3733-72.8523 61.5505-74.649Q71.7278-76.4458 81.8436-80.114Q82.4295-80.3246 83.1944-80.0163Q83.9592-79.7081 83.9592-78.569L83.9592-56.1928Q83.9592-55.1857 83.0154-54.8103Q77.1278-52.42 70.1374-50.7999Q63.147-49.1798 55.6164-48.3406Q48.0858-47.5014 40.6105-47.5525Q40.0093-47.5525 39.5298-47.9176Q39.0503-48.2826 39.0503-49.0639ZM50.2686 26.4297Q58.3015 26.0773 65.8875 24.9096Q73.4734 23.7419 80.2368 21.8575Q87.0003 19.973 92.5907 17.437Q98.1812 14.901 102.238 11.7622Q104.946 9.71603 106.076 7.304Q107.205 4.89197 107.205 0.59967L107.205-86.3518L112.796-86.3518Q116.488-86.3518 116.488-82.2762L116.488 12.6205Q116.488 15.39 115.683 16.8839Q114.879 18.3777 112.195 19.5335Q108.184 21.3364 103.387 22.7779Q98.5909 24.2195 93.3315 25.2594Q88.0722 26.2993 82.6317 26.9032Q77.1912 27.507 71.8102 27.5688Q66.3078 27.6291 60.9684 27.3613Q55.629 27.0935 50.2686 26.4297Z"/>
  </g>
  <g id="Medium-L" transform="matrix(1 0 0 1 1675.4 1556)">
   <path d="M16.0645 20.4948Q16.0645 24.3942 17.3084 26.7563Q18.5524 29.1183 22.0222 30.7152Q27.7802 33.0887 34.6069 34.7504Q41.4337 36.412 49.0604 37.2662Q56.6872 38.1203 64.8888 38.1599Q71.6652 38.1599 78.7079 37.5896Q85.7506 37.0193 92.6121 35.8746Q99.4736 34.7298 105.694 32.93Q111.914 31.1302 116.965 28.6705Q120.643 26.8829 122.654 24.9619Q124.666 23.0408 125.46 20.4571Q126.254 17.8734 126.254 14.0137L126.254-82.9063Q126.254-97.4586 112.184-97.4586L106.125-97.4586L106.125-99.5255Q106.125-104.224 103.757-106.433Q101.389-108.642 97.2984-108.642Q95.8885-108.642 94.212-108.335Q92.5354-108.029 90.6227-107.408Q80.9769-104.318 71.4699-102.07Q61.9629-99.8222 52.0679-98.6107Q42.173-97.3991 31.3416-97.3991L26.8311-97.3991Q21.6454-97.3991 18.8549-94.6377Q16.0645-91.8762 16.0645-87.0583ZM38.3568-49.5766L38.3568-71.0854Q38.3568-72.6562 39.8964-72.7631Q50.692-73.1483 60.9135-75.0023Q71.1349-76.8562 81.1836-80.4375Q81.7696-80.6419 82.5306-80.3402Q83.2916-80.0385 83.2916-78.9062L83.2916-56.7055Q83.2916-55.7106 82.3555-55.3291Q76.5007-52.9587 69.5141-51.3317Q62.5275-49.7047 54.9698-48.8594Q47.4121-48.0141 39.8964-48.085Q39.3021-48.085 38.8294-48.4402Q38.3568-48.7953 38.3568-49.5766ZM45.3629 26.8478Q53.9146 26.5419 62.0968 25.3407Q70.2789 24.1394 77.6356 22.1405Q84.9922 20.1416 91.0912 17.4137Q97.1901 14.6858 101.585 11.277Q104.05 9.42001 105.092 7.19643Q106.134 4.97284 106.134 0.868988L106.134-87.1468L111.947-87.1468Q115.901-87.1468 115.901-82.7209L115.901 12.9707Q115.901 15.7677 115.107 17.2276Q114.313 18.6874 111.649 19.8509Q107.43 21.7606 102.309 23.2864Q97.1893 24.8123 91.5424 25.9094Q85.8955 27.0065 80.0507 27.6237Q74.2058 28.241 68.4479 28.2761Q62.4939 28.289 56.7806 27.9575Q51.0674 27.626 45.3629 26.8478Z"/>
  </g>
  <g id="Regular-L" transform="matrix(1 0 0 1 1379.9 1556)">
   <path d="M16.0645 20.5566Q16.0645 24.2188 17.2119 26.3916Q18.3594 28.5645 21.6797 30.0293Q27.4902 32.3242 34.2773 33.9111Q41.0645 35.498 48.5596 36.3037Q56.0547 37.1094 64.0625 37.1582Q70.6543 37.1582 77.5391 36.5967Q84.4238 36.0352 91.1621 34.9121Q97.9004 33.7891 104.028 32.0068Q110.156 30.2246 115.137 27.7832Q118.604 26.0742 120.483 24.2676Q122.363 22.4609 123.096 20.0439Q123.828 17.627 123.828 14.0137L123.828-83.3984Q123.828-96.8262 110.84-96.8262L104.736-96.8262L104.736-99.1211Q104.736-103.564 102.588-105.615Q100.439-107.666 96.6309-107.666Q95.3613-107.666 93.7988-107.373Q92.2363-107.08 90.4297-106.494Q80.7129-103.369 71.1182-101.147Q61.5234-98.9258 51.5625-97.7539Q41.6016-96.582 30.7617-96.582L26.1719-96.582Q21.3379-96.582 18.7012-93.9697Q16.0645-91.3574 16.0645-86.8652ZM37.4512-50.2441L37.4512-71.5332Q37.4512-73.0957 38.9648-73.1934Q49.8047-73.5352 60.083-75.4639Q70.3613-77.3926 80.3223-80.8594Q80.9082-81.0547 81.665-80.7617Q82.4219-80.4688 82.4219-79.3457L82.4219-57.373Q82.4219-56.3965 81.4941-56.0059Q75.6836-53.6621 68.7012-52.0264Q61.7188-50.3906 54.126-49.5361Q46.5332-48.6816 38.9648-48.7793Q38.3789-48.7793 37.915-49.1211Q37.4512-49.4629 37.4512-50.2441ZM38.9648 27.3926Q48.1934 27.1484 57.1533 25.9033Q66.1133 24.6582 74.2432 22.5098Q82.373 20.3613 89.1357 17.3828Q95.8984 14.4043 100.732 10.6445Q102.881 9.0332 103.809 7.05566Q104.736 5.07812 104.736 1.2207L104.736-88.1836L110.84-88.1836Q115.137-88.1836 115.137-83.3008L115.137 13.4277Q115.137 16.2598 114.355 17.6758Q113.574 19.0918 110.938 20.2637Q106.445 22.3145 100.903 23.9502Q95.3613 25.5859 89.209 26.7578Q83.0566 27.9297 76.6846 28.5645Q70.3125 29.1992 64.0625 29.1992Q57.5195 29.1504 51.3184 28.7354Q45.1172 28.3203 38.9648 27.3926Z"/>
  </g>
  <g id="Light-L" transform="matrix(1 0 0 1 1084.94 1556)">
   <path d="M16.0645 20.4353Q16.0645 24.0372 17.2348 25.9148Q18.4052 27.7924 21.4676 28.9696Q27.8381 31.1584 34.7389 32.5336Q41.6397 33.9088 48.6504 34.5406Q55.661 35.1723 62.3825 35.2211Q68.9133 35.2058 75.8286 34.6291Q82.7438 34.0523 89.4592 32.9292Q96.1746 31.8062 102.121 30.077Q108.067 28.3478 112.609 26.0422Q115.622 24.485 117.297 22.8447Q118.973 21.2044 119.645 19.0372Q120.316 16.8701 120.316 13.681L120.316-84.655Q120.316-96.1151 109.175-96.1151L102.89-96.1151L102.89-98.1522Q102.89-102.248 100.885-103.988Q98.8808-105.729 95.6169-105.729Q94.529-105.729 93.1633-105.466Q91.7976-105.203 90.2931-104.739Q80.304-101.614 70.24-99.4976Q60.1761-97.3816 49.9729-96.3158Q39.7697-95.2499 29.3541-95.2499L25.3998-95.2499Q20.8839-95.2499 18.4742-92.8345Q16.0645-90.419 16.0645-86.0931ZM36.1649-50.8041L36.1649-72.1085Q36.1649-73.6862 37.6785-73.7534Q48.2758-73.9594 58.8116-75.7969Q69.3474-77.6344 79.2328-80.7991Q79.8035-80.9639 80.5527-80.6786Q81.3019-80.3932 81.3019-79.2854L81.3019-57.7057Q81.3019-56.7291 80.3894-56.3385Q74.6391-54.0253 67.5735-52.4273Q60.508-50.8293 52.8469-50.0355Q45.1859-49.2416 37.6785-49.3851Q37.0926-49.3851 36.6287-49.7192Q36.1649-50.0534 36.1649-50.8041ZM35.2409 26.8173Q44.4244 26.6335 53.6343 25.5474Q62.8441 24.4614 71.3524 22.4567Q79.8607 20.4521 86.9865 17.5037Q94.1124 14.5554 99.1432 10.614Q101.231 9.01794 102.06 7.23724Q102.89 5.45654 102.89 2.00806L102.89-89.5157L109.205-89.5157Q113.669-89.5157 113.669-84.5268L113.669 13.2004Q113.669 16.0324 112.812 17.5243Q111.954 19.0163 109.348 20.2484Q105.128 22.2542 99.6166 23.8594Q94.1048 25.4646 87.8616 26.614Q81.6185 27.7634 75.1255 28.3905Q68.6325 29.0176 62.3825 29.0329Q55.0217 28.9688 48.2529 28.4401Q41.4841 27.9114 35.2409 26.8173Z"/>
  </g>
  <g id="Thin-L" transform="matrix(1 0 0 1 790.554 1556)">
   <path d="M16.0645 20.2751Q16.0645 23.7968 17.2646 25.2842Q18.4647 26.7715 21.1876 27.5688Q28.299 29.6173 35.3497 30.7121Q42.4004 31.8069 48.7705 32.2083Q55.1407 32.6096 60.1601 32.6584Q66.6115 32.6233 73.5664 32.0267Q80.5214 31.4301 87.207 30.307Q93.8927 29.184 99.5987 27.5246Q105.305 25.8652 109.266 23.7404Q111.678 22.3831 113.084 20.9633Q114.489 19.5435 115.081 17.7063Q115.672 15.8691 115.672 13.2401L115.672-86.3159Q115.672-95.1736 106.973-95.1736L100.447-95.1736L100.447-96.8712Q100.447-100.506 98.6328-101.836Q96.8185-103.166 94.2757-103.166Q93.428-103.166 92.3225-102.943Q91.217-102.721 90.1131-102.416Q79.7638-99.2912 69.0792-97.3156Q58.3946-95.34 47.8714-94.4141Q37.3482-93.4883 27.4925-93.4883L24.379-93.4883Q20.2835-93.4883 18.174-91.333Q16.0645-89.1777 16.0645-85.0723ZM34.4627-51.545L34.4627-72.8691Q34.4627-74.4667 35.9764-74.4942Q46.254-74.5193 57.1301-76.2371Q68.0061-77.9549 77.7908-80.719Q78.3417-80.8441 79.081-80.5687Q79.8203-80.2933 79.8203-79.2053L79.8203-58.1467Q79.8203-57.1701 78.9276-56.7795Q73.2582-54.5059 66.0824-52.9579Q58.9066-51.4099 51.1555-50.6962Q43.4044-49.9825 35.9764-50.1854Q35.3905-50.1854 34.9266-50.5096Q34.4627-50.8339 34.4627-51.545ZM30.3169 26.0567Q39.4402 25.9529 48.9799 25.0771Q58.5197 24.2012 67.5285 22.3866Q76.5373 20.5719 84.1438 17.664Q91.7503 14.756 97.0413 10.5743Q99.0486 8.99811 99.7478 7.47757Q100.447 5.95703 100.447 3.04871L100.447-91.2773L107.043-91.2773Q111.726-91.2773 111.726-86.1481L111.726 12.9005Q111.726 15.7326 110.77 17.3244Q109.813 18.9163 107.246 20.2286Q103.387 22.1741 97.9153 23.7392Q92.4438 25.3044 86.0806 26.4236Q79.7173 27.5429 73.0637 28.1601Q66.4101 28.7773 60.1601 28.8124Q51.7189 28.7285 44.1994 28.0499Q36.6798 27.3712 30.3169 26.0567Z"/>
  </g>
  <g id="Ultralight-L" transform="matrix(1 0 0 1 495.032 1556)">
   <path d="M16.0645 20.1935Q16.0645 23.674 17.2802 24.9615Q18.4959 26.2489 21.0442 26.8509Q28.5347 28.8277 35.6625 29.7787Q42.7902 30.7297 48.8319 31.0135Q54.8737 31.2973 59.0218 31.3461Q65.432 31.3004 72.4075 30.6934Q79.3831 30.0865 86.0535 28.9635Q92.7238 27.8404 98.3067 26.2173Q103.889 24.5941 107.553 22.5609Q109.658 21.3058 110.925 19.9989Q112.192 18.692 112.742 17.0242Q113.293 15.3564 113.293 13.015L113.293-87.1674Q113.293-94.6922 105.845-94.6922L99.1966-94.6922L99.1966-96.2151Q99.1966-99.614 97.4792-100.734Q95.7619-101.854 93.5883-101.854Q92.8635-101.854 91.8915-101.652Q90.9195-101.45 90.0208-101.227Q79.4868-98.1018 68.4845-96.1979Q57.4821-94.294 46.7945-93.4399Q36.1069-92.5858 26.5388-92.5858L23.8564-92.5858Q19.9753-92.5858 18.0199-90.564Q16.0645-88.5422 16.0645-84.5497ZM33.5915-51.9241L33.5915-73.259Q33.5915-74.8665 35.1051-74.8734Q45.2187-74.807 56.2687-76.4629Q67.3187-78.1189 77.0531-80.6778Q77.5932-80.7823 78.3276-80.5119Q79.0619-80.2414 79.0619-79.1641L79.0619-58.3717Q79.0619-57.3952 78.1792-57.0045Q72.5502-54.7516 65.3179-53.2295Q58.0856-51.7075 50.2888-51.0345Q42.4919-50.3616 35.1051-50.5959Q34.5192-50.5959 34.0553-50.9148Q33.5915-51.2337 33.5915-51.9241ZM27.7939 25.6668Q36.8866 25.6042 46.5958 24.836Q56.3049 24.0677 65.5701 22.3507Q74.8352 20.6337 82.6878 17.746Q90.5403 14.8582 95.9641 10.5537Q97.9309 8.98743 98.5638 7.6004Q99.1966 6.21338 99.1966 3.582L99.1966-92.1799L105.936-92.1799Q110.732-92.1799 110.732-86.9789L110.732 12.7464Q110.732 15.5785 109.724 17.2215Q108.715 18.8644 106.169 20.2179Q102.495 22.1329 97.0436 23.6778Q91.5924 25.2228 85.1677 26.3264Q78.743 27.43 72.0074 28.0422Q65.2718 28.6545 59.0218 28.6995Q50.0267 28.6057 42.1227 27.85Q34.2186 27.0943 27.7939 25.6668Z"/>
  </g>
  <g id="Black-M" transform="matrix(1 0 0 1 2873.22 1126)">
   <path d="M12.4512 7.61719Q12.4512 11.7676 13.8672 14.3555Q15.2832 16.9434 18.6035 18.7012Q25.1953 21.9727 34.2529 23.8281Q43.3105 25.6836 53.5645 25.6836Q59.668 25.6836 65.8691 25.1709Q72.0703 24.6582 77.9541 23.6816Q83.8379 22.7051 89.0381 21.2402Q94.2383 19.7754 98.291 17.8223Q103.809 15.2344 105.859 12.0117Q107.91 8.78906 107.91 2.83203L107.91-70.3613Q107.91-86.1328 92.627-86.1328L88.0859-86.1328L88.0859-86.6211Q88.0859-91.3086 85.2783-93.6523Q82.4707-95.9961 78.125-95.9961Q76.5137-95.9961 74.7314-95.7275Q72.9492-95.459 71.0938-94.8242Q60.2539-91.4551 49.5361-89.1113Q38.8184-86.7676 26.5137-86.7676L23.584-86.7676Q18.0664-86.7676 15.2588-84.0088Q12.4512-81.25 12.4512-76.0254ZM33.4961-43.4082L33.4961-61.1328Q33.4961-62.4023 34.8145-62.5Q42.9199-62.9883 50.6592-64.0381Q58.3984-65.0879 66.5527-68.2617Q66.9922-68.457 67.6025-68.2129Q68.2129-67.9688 68.2129-67.041L68.2129-48.877Q68.2129-48.0469 67.4805-47.7539Q62.7441-45.8496 57.2754-44.6289Q51.8066-43.4082 46.0938-42.8223Q40.3809-42.2363 34.8145-42.1875Q33.4961-42.1875 33.4961-43.4082ZM63.6719 10.1562Q67.1387 9.61914 69.9463 8.95996Q72.7539 8.30078 74.9756 7.49512Q77.1973 6.68945 78.9551 5.76172Q80.7129 4.83398 82.1289 3.75977Q85.5469 1.17188 86.8408-1.63574Q88.1348-4.44336 88.1348-8.59375L88.1348-71.0938L91.3574-71.0938Q92.8711-71.0938 92.8711-69.7754L92.8711-0.0976562Q92.8711 1.95312 92.1631 3.2959Q91.4551 4.63867 89.3066 5.51758Q86.7676 6.5918 84.082 7.39746Q81.3965 8.20312 78.5889 8.76465Q75.7812 9.32617 72.9004 9.66797Q70.7031 9.91211 68.3594 10.0098Q66.0156 10.1074 63.6719 10.1562Z"/>
  </g>
  <g id="Heavy-M" transform="matrix(1 0 0 1 2577.68 1126)">
   <path d="M12.4512 7.73239Q12.4512 11.5715 13.7405 13.9866Q15.0299 16.4017 18.1999 18.0557Q24.7231 21.2006 33.6536 23.0042Q42.5842 24.8077 52.8618 24.8077Q58.7341 24.8077 64.7339 24.3179Q70.7336 23.8281 76.4618 22.8748Q82.1899 21.9215 87.3093 20.4681Q92.4286 19.0147 96.4935 17.0502Q101.746 14.5775 103.652 11.5509Q105.559 8.52432 105.559 2.90146L105.559-70.7069Q105.559-85.4759 91.2552-85.4759L86.7027-85.4759L86.7027-86.3098Q86.7027-90.744 84.1431-92.955Q81.5834-95.166 77.5024-95.166Q76.0063-95.166 74.3336-94.8975Q72.6608-94.6289 70.8748-94.0292Q59.977-90.6021 49.2535-88.3045Q38.53-86.0069 26.0757-86.0069L22.9156-86.0069Q17.7666-86.0069 15.1089-83.3981Q12.4512-80.7892 12.4512-75.9445ZM32.6202-44.146L32.6202-61.5822Q32.6202-62.8403 33.9043-62.9379Q42.1021-63.3804 49.8585-64.5512Q57.6149-65.7219 65.6883-68.8148Q66.1278-69.0102 66.7324-68.766Q67.337-68.5219 67.337-67.6056L67.337-49.6605Q67.337-48.8533 66.6161-48.5603Q61.9263-46.6675 56.4804-45.4296Q51.0345-44.1917 45.2927-43.5829Q39.5508-42.9741 33.9043-42.9367Q32.6202-42.9367 32.6202-44.146ZM56.2614 10.9741Q60.6155 10.5179 64.3684 9.76677Q68.1213 9.01566 71.2532 7.98492Q74.3851 6.95419 76.915 5.69229Q79.4449 4.43039 81.3797 2.95334Q84.3941 0.675964 85.5671-1.85471Q86.7401-4.38538 86.7401-8.3168L86.7401-72.1306L90.2969-72.1306Q92.2142-72.1306 92.2142-70.2591L92.2142 0.536346Q92.2142 2.62146 91.5409 3.90091Q90.8676 5.18036 88.7306 6.05927Q85.6499 7.37534 82.1865 8.36563Q78.7231 9.35593 75.0397 9.9865Q71.3562 10.6171 67.6338 10.878Q64.872 11.0649 62.0209 11.076Q59.1698 11.087 56.2614 10.9741Z"/>
  </g>
  <g id="Bold-M" transform="matrix(1 0 0 1 2282.29 1126)">
   <path d="M12.4512 7.86133Q12.4512 11.3525 13.5986 13.5742Q14.7461 15.7959 17.749 17.334Q24.1943 20.3369 32.9834 22.0825Q41.7725 23.8281 52.0752 23.8281Q57.6904 23.8281 63.4644 23.3643Q69.2383 22.9004 74.7925 21.9727Q80.3467 21.0449 85.376 19.6045Q90.4053 18.1641 94.4824 16.1865Q99.4385 13.8428 101.184 11.0352Q102.93 8.22754 102.93 2.97852L102.93-71.0938Q102.93-84.7412 89.7217-84.7412L85.1562-84.7412L85.1562-85.9619Q85.1562-90.1123 82.8735-92.1753Q80.5908-94.2383 76.8066-94.2383Q75.4395-94.2383 73.8892-93.9697Q72.3389-93.7012 70.6299-93.1396Q59.668-89.6484 48.938-87.4023Q38.208-85.1562 25.5859-85.1562L22.168-85.1562Q17.4316-85.1562 14.9414-82.7148Q12.4512-80.2734 12.4512-75.8545ZM31.6406-44.9707L31.6406-62.085Q31.6406-63.3301 32.8857-63.4277Q41.1865-63.8184 48.9624-65.1245Q56.7383-66.4307 64.7217-69.4336Q65.1611-69.6289 65.7593-69.3848Q66.3574-69.1406 66.3574-68.2373L66.3574-50.5371Q66.3574-49.7559 65.6494-49.4629Q61.0107-47.583 55.5908-46.3257Q50.1709-45.0684 44.397-44.4336Q38.623-43.7988 32.8857-43.7744Q31.6406-43.7744 31.6406-44.9707ZM47.9736 11.8896Q53.3203 11.5234 58.1299 10.6689Q62.9395 9.81445 67.0898 8.53271Q71.2402 7.25098 74.6338 5.61523Q78.0273 3.97949 80.542 2.05078Q83.1055 0.12207 84.1431-2.09961Q85.1807-4.32129 85.1807-8.00781L85.1807-73.291L89.1113-73.291Q91.4795-73.291 91.4795-70.8008L91.4795 1.24512Q91.4795 3.36914 90.8447 4.57764Q90.21 5.78613 88.0859 6.66504Q84.3994 8.25195 80.0659 9.44824Q75.7324 10.6445 71.0693 11.3525Q66.4062 12.0605 61.7432 12.2314Q58.3496 12.3535 54.9316 12.2681Q51.5137 12.1826 47.9736 11.8896Z"/>
  </g>
  <g id="Semibold-M" transform="matrix(1 0 0 1 1986.48 1126)">
   <path d="M12.4512 7.94983Q12.4512 11.2015 13.501 13.29Q14.5508 15.3786 17.4377 16.8365Q23.8297 19.7418 32.5211 21.4474Q41.2125 23.1529 51.5327 23.1529Q56.9702 23.1529 62.5889 22.7066Q68.2076 22.2603 73.6416 21.3505Q79.0756 20.4407 84.0427 19.009Q89.0099 17.5774 93.0962 15.5914Q97.8477 13.3362 99.4823 10.6796Q101.117 8.02307 101.117 3.03192L101.117-71.36Q101.117-84.2346 88.6642-84.2346L84.0897-84.2346L84.0897-85.7216Q84.0897-89.6767 81.9981-91.6374Q79.9065-93.5982 76.3268-93.5982Q75.0481-93.5982 73.5825-93.3296Q72.1169-93.0611 70.4613-92.5262Q59.4543-88.9908 48.7202-86.7802Q37.986-84.5695 25.248-84.5695L21.6522-84.5695Q17.2005-84.5695 14.8258-82.2437Q12.4512-79.9179 12.4512-75.7919ZM30.9654-45.5399L30.9654-62.4313Q30.9654-63.6681 32.1838-63.7657Q40.5556-64.1205 48.3448-65.5201Q56.134-66.9197 64.0549-69.8601Q64.4943-70.0554 65.0883-69.8112Q65.6822-69.5671 65.6822-68.6729L65.6822-51.1414Q65.6822-50.3777 64.9826-50.0847Q60.3798-48.214 54.9778-46.9433Q49.5758-45.6726 43.7794-45.0203Q37.9829-44.368 32.1838-44.352Q30.9654-44.352 30.9654-45.5399ZM42.2592 12.5206Q48.2903 12.2169 53.8284 11.2911Q59.3666 10.3653 64.2193 8.91037Q69.072 7.45544 73.061 5.56183Q77.05 3.66821 79.9644 1.42899Q82.2166-0.260162 83.1612-2.2686Q84.1057-4.27704 84.1057-7.79419L84.1057-74.0906L88.2935-74.0906Q90.9729-74.0906 90.9729-71.1739L90.9729 1.73416Q90.9729 3.88489 90.3648 5.04417Q89.7568 6.20346 87.6419 7.08237Q83.5373 8.8562 78.6041 10.1948Q73.671 11.5334 68.3323 12.2948Q62.9936 13.0562 57.682 13.1645Q53.8528 13.2423 50.0439 13.0901Q46.2349 12.9379 42.2592 12.5206Z"/>
  </g>
  <g id="Medium-M" transform="matrix(1 0 0 1 1690.46 1126)">
   <path d="M12.4512 8.01773Q12.4512 11.087 13.4266 13.0741Q14.402 15.0612 17.202 16.4589Q23.5535 19.2902 32.1709 20.9652Q40.7883 22.6402 51.1223 22.6402Q56.4247 22.6402 61.9251 22.2076Q67.4255 21.7751 72.7688 20.8786Q78.112 19.9821 83.0322 18.5574Q87.9524 17.1326 92.0448 15.1398Q96.6415 12.9524 98.1918 10.4103Q99.7421 7.86819 99.7421 3.07236L99.7421-71.5622Q99.7421-83.8509 87.8624-83.8509L83.2809-83.8509L83.2809-85.54Q83.2809-89.3463 81.3343-91.2296Q79.3877-93.1129 75.9628-93.1129Q74.752-93.1129 73.3501-92.8444Q71.9482-92.5758 70.3331-92.0616Q59.2926-88.4918 48.555-86.3083Q37.8174-84.1248 24.9924-84.1248L21.2616-84.1248Q17.0258-84.1248 14.7385-81.8867Q12.4512-79.6486 12.4512-75.7454ZM30.4527-45.9709L30.4527-62.6945Q30.4527-63.9236 31.6513-64.0213Q40.0772-64.3494 47.8764-65.8195Q55.6755-67.2897 63.5498-70.1836Q63.9893-70.3789 64.5794-70.1347Q65.1695-69.8906 65.1695-69.0033L65.1695-51.5999Q65.1695-50.8499 64.4775-50.5569Q59.9014-48.6923 54.5128-47.4117Q49.1241-46.1311 43.3109-45.4651Q37.4977-44.799 31.6513-44.7899Q30.4527-44.7899 30.4527-45.9709ZM37.9265 12.999Q44.4763 12.7419 50.5672 11.7626Q56.6582 10.7834 62.043 9.19685Q67.4278 7.61032 71.8681 5.52139Q76.3084 3.43246 79.5265 0.956726Q81.543-0.550079 82.4165-2.39677Q83.2901-4.24347 83.2901-7.63245L83.2901-74.6971L87.674-74.6971Q90.5891-74.6971 90.5891-71.4569L90.5891 2.10419Q90.5891 4.27551 90.0013 5.39818Q89.4135 6.52084 87.3047 7.39975Q82.8835 9.31473 77.4956 10.7609Q72.1077 12.207 66.2571 13.0089Q60.4065 13.8107 54.6021 13.8718Q50.4433 13.916 46.3379 13.7135Q42.2325 13.5109 37.9265 12.999Z"/>
  </g>
  <g id="Regular-M" transform="matrix(1 0 0 1 1394.64 1126)">
   <path d="M12.4512 8.10547Q12.4512 10.9375 13.3301 12.793Q14.209 14.6484 16.8945 15.9668Q23.1934 18.7012 31.7139 20.3369Q40.2344 21.9727 50.5859 21.9727Q55.7129 21.9727 61.0596 21.5576Q66.4062 21.1426 71.6309 20.2637Q76.8555 19.3848 81.7139 17.9688Q86.5723 16.5527 90.6738 14.5508Q95.0684 12.4512 96.5088 10.0586Q97.9492 7.66602 97.9492 3.125L97.9492-71.8262Q97.9492-83.3496 86.8164-83.3496L82.2266-83.3496L82.2266-85.3027Q82.2266-88.916 80.4688-90.6982Q78.7109-92.4805 75.4883-92.4805Q74.3652-92.4805 73.0469-92.2119Q71.7285-91.9434 70.166-91.4551Q59.082-87.8418 48.3398-85.6934Q37.5977-83.5449 24.6582-83.5449L20.752-83.5449Q16.7969-83.5449 14.624-81.4209Q12.4512-79.2969 12.4512-75.6836ZM29.7852-46.5332L29.7852-63.0371Q29.7852-64.2578 30.957-64.3555Q39.4531-64.6484 47.2656-66.2109Q55.0781-67.7734 62.8906-70.6055Q63.3301-70.8008 63.916-70.5566Q64.502-70.3125 64.502-69.4336L64.502-52.1973Q64.502-51.4648 63.8184-51.1719Q59.2773-49.3164 53.9062-48.0225Q48.5352-46.7285 42.7002-46.0449Q36.8652-45.3613 30.957-45.3613Q29.7852-45.3613 29.7852-46.5332ZM32.2754 13.623Q39.502 13.4277 46.3135 12.3779Q53.125 11.3281 59.2041 9.57031Q65.2832 7.8125 70.3125 5.46875Q75.3418 3.125 78.9551 0.341797Q80.6641-0.927734 81.4453-2.56348Q82.2266-4.19922 82.2266-7.42188L82.2266-75.4883L86.8652-75.4883Q90.0879-75.4883 90.0879-71.8262L90.0879 2.58789Q90.0879 4.78516 89.5264 5.85938Q88.9648 6.93359 86.8652 7.8125Q82.0312 9.91211 76.0498 11.499Q70.0684 13.0859 63.5498 13.9404Q57.0312 14.7949 50.5859 14.7949Q45.9961 14.7949 41.5039 14.5264Q37.0117 14.2578 32.2754 13.623Z"/>
  </g>
  <g id="Light-M" transform="matrix(1 0 0 1 1099.51 1126)">
   <path d="M12.4512 7.98416Q12.4512 10.7712 13.353 12.3615Q14.2548 13.9519 16.713 15.0131Q23.7534 17.6117 32.0999 18.9144Q40.4465 20.2171 49.0875 20.2316Q54.1687 20.2171 59.5306 19.7868Q64.8926 19.3565 70.1019 18.4853Q75.3113 17.614 80.0034 16.2434Q84.6954 14.8727 88.4033 13.0066Q92.1921 11.1038 93.4963 8.95348Q94.8006 6.80313 94.8006 2.83737L94.8006-72.9614Q94.8006-82.7293 85.3333-82.7293L80.5618-82.7293L80.5618-84.4398Q80.5618-87.7502 78.9402-89.2448Q77.3186-90.7394 74.5651-90.7394Q73.6237-90.7394 72.4792-90.509Q71.3348-90.2786 70.0447-89.8811Q58.6128-86.2679 47.1893-84.3086Q35.7658-82.3494 23.3864-82.3494L20.0554-82.3494Q16.3879-82.3494 14.4196-80.3993Q12.4512-78.4492 12.4512-74.987ZM28.6194-47.0482L28.6194-63.5521Q28.6194-64.7873 29.7913-64.8399Q38.0905-65.0421 46.1376-66.5138Q54.1847-67.9855 61.9064-70.5597Q62.3459-70.7253 62.9246-70.4887Q63.5033-70.2522 63.5033-69.3878L63.5033-52.5002Q63.5033-51.7525 62.8197-51.4595Q58.3237-49.6346 52.8847-48.3784Q47.4457-47.1222 41.5424-46.4916Q35.6392-45.8611 29.7913-45.9061Q28.6194-45.9061 28.6194-47.0482ZM28.9452 13.1081Q36.1267 12.9585 43.1576 12.0525Q50.1884 11.1465 56.6082 9.51729Q63.028 7.88803 68.3826 5.58205Q73.7373 3.27606 77.5322 0.311279Q79.1962-0.942993 79.879-2.39716Q80.5618-3.85132 80.5618-6.71082L80.5618-76.6838L85.3821-76.6838Q88.7558-76.6838 88.7558-72.9156L88.7558 2.39105Q88.7558 4.58832 88.1264 5.72319Q87.4969 6.85806 85.4424 7.78198Q80.9265 9.85184 74.8997 11.4006Q68.8728 12.9494 62.2028 13.789Q55.5328 14.6286 49.0875 14.6439Q43.7561 14.6286 38.7566 14.2616Q33.757 13.8947 28.9452 13.1081Z"/>
  </g>
  <g id="Thin-M" transform="matrix(1 0 0 1 804.878 1126)">
   <path d="M12.4512 7.82394Q12.4512 10.5507 13.3827 11.7908Q14.3143 13.031 16.4726 13.752Q24.4942 16.1697 32.6103 17.0322Q40.7265 17.8947 47.1054 17.9298Q52.1271 17.8947 57.5089 17.4446Q62.8906 16.9945 68.0801 16.1331Q73.2697 15.2718 77.7412 13.961Q82.2128 12.6503 85.4004 10.965Q88.3888 9.32236 89.513 7.49245Q90.6372 5.66254 90.6372 2.45743L90.6372-74.4629Q90.6372-81.9084 83.371-81.9084L78.3592-81.9084L78.3592-83.2993Q78.3592-86.2091 76.918-87.3234Q75.4768-88.4377 73.3437-88.4377Q72.6425-88.4377 71.7285-88.2568Q70.8145-88.076 69.8845-87.7991Q57.9926-84.1858 45.6684-82.4768Q33.3443-80.7678 21.7049-80.7678L19.1345-80.7678Q15.8478-80.7678 14.1495-79.0482Q12.4512-77.3285 12.4512-74.0662ZM27.0782-47.7287L27.0782-64.2326Q27.0782-65.4884 28.2501-65.4808Q36.2892-65.5624 44.6465-66.914Q53.0037-68.2655 60.6056-70.5002Q61.0451-70.6253 61.6135-70.3987Q62.1819-70.1721 62.1819-69.3283L62.1819-52.9007Q62.1819-52.1324 61.4983-51.8394Q57.0625-50.0549 51.5331-48.8487Q46.0037-47.6425 40.0108-47.0821Q34.0179-46.5218 28.2501-46.627Q27.0782-46.627 27.0782-47.7287ZM24.5415 12.4275Q31.6628 12.3383 38.9839 11.6222Q46.3051 10.9062 53.175 9.4471Q60.0449 7.98798 65.8302 5.73235Q71.6156 3.47672 75.6508 0.271606Q77.2537-0.96283 77.8065-2.17667Q78.3592-3.3905 78.3592-5.76935L78.3592-78.2654L83.4198-78.2654Q86.9942-78.2654 86.9942-74.3576L86.9942 2.13089Q86.9942 4.32816 86.2743 5.54314Q85.5545 6.75812 83.5609 7.74231Q79.4647 9.77173 73.378 11.2705Q67.2913 12.7693 60.421 13.5887Q53.5507 14.4081 47.1054 14.4432Q40.7928 14.4081 35.1231 13.9111Q29.4533 13.414 24.5415 12.4275Z"/>
  </g>
  <g id="Ultralight-M" transform="matrix(1 0 0 1 509.234 1126)">
   <path d="M12.4512 7.74231Q12.4512 10.4378 13.3984 11.4986Q14.3456 12.5595 16.3498 13.1058Q24.8734 15.432 32.8716 16.0686Q40.8699 16.7053 46.0907 16.7503Q51.0811 16.7053 56.4732 16.2449Q61.8652 15.7845 67.0444 14.9281Q72.2237 14.0717 76.5827 12.7918Q80.9418 11.512 83.8623 9.91898Q86.4403 8.40988 87.4722 6.74362Q88.504 5.07736 88.504 2.26212L88.504-75.2319Q88.504-81.488 82.3662-81.488L77.2316-81.488L77.2316-82.7141Q77.2316-85.4195 75.8823-86.3388Q74.5331-87.2581 72.718-87.2581Q72.1405-87.2581 71.344-87.1033Q70.5475-86.9484 69.8029-86.7325Q57.6744-83.1192 44.8887-81.5384Q32.103-79.9576 20.8435-79.9576L18.663-79.9576Q15.5708-79.9576 14.011-78.3558Q12.4512-76.754 12.4512-73.5947ZM26.2886-48.0774L26.2886-64.5813Q26.2886-65.847 27.4605-65.8089Q35.3661-65.8295 43.8824-67.1192Q52.3987-68.409 59.9388-70.4689Q60.3783-70.5734 60.9417-70.3522Q61.5051-70.1309 61.5051-69.297L61.5051-53.1052Q61.5051-52.3277 60.8215-52.0348Q56.4163-50.2701 50.8411-49.0898Q45.266-47.9095 39.2265-47.3846Q33.1871-46.8597 27.4605-46.9963Q26.2886-46.9963 26.2886-48.0774ZM22.2855 12.0789Q29.3755 12.0201 36.8454 11.4017Q44.3153 10.7834 51.4164 9.41162Q58.5175 8.03986 64.5229 5.8094Q70.5284 3.57895 74.6864 0.251007Q76.2596-0.973511 76.7456-2.06413Q77.2316-3.15475 77.2316-5.28793L77.2316-79.0756L82.415-79.0756Q86.0916-79.0756 86.0916-75.0954L86.0916 1.99738Q86.0916 4.19464 85.326 5.45044Q84.5604 6.70624 82.5966 7.72171Q78.7163 9.73053 72.5986 11.2038Q66.481 12.677 59.5085 13.4861Q52.536 14.2952 46.0907 14.341Q39.2754 14.2952 33.2619 13.7318Q27.2484 13.1683 22.2855 12.0789Z"/>
  </g>
  <g id="Black-S" transform="matrix(1 0 0 1 2885.96 696)">
   <path d="M9.76562-1.70898Q9.76562 1.61133 10.9131 3.68652Q12.0605 5.76172 14.6973 7.17773Q19.9219 9.76562 27.0508 11.2061Q34.1797 12.6465 42.0898 12.6465Q48.584 12.6465 55.1025 11.9385Q61.6211 11.2305 67.4316 9.86328Q73.2422 8.49609 77.4414 6.49414Q81.7871 4.44336 83.4473 1.85547Q85.1074-0.732422 85.1074-5.46875L85.1074-62.6953Q85.1074-75.293 72.9004-75.293L69.3359-75.293L69.3359-75.5371Q69.3359-79.2969 67.0898-81.1523Q64.8438-83.0078 61.377-83.0078Q58.5938-83.0078 55.7617-82.0801Q50.0977-80.3223 44.5068-78.8818Q38.916-77.4414 33.0811-76.6113Q27.2461-75.7812 20.8496-75.7812L18.6523-75.7812Q14.209-75.7812 11.9873-73.584Q9.76562-71.3867 9.76562-67.1875ZM26.4648-41.4551L26.4648-55.4199Q26.4648-56.3965 27.4902-56.4941Q33.7891-56.8848 39.8682-57.666Q45.9473-58.4473 52.3438-60.9375Q52.7344-61.084 53.1982-60.8887Q53.6621-60.6934 53.6621-59.9609L53.6621-45.7031Q53.6621-45.0684 53.0762-44.8242Q47.5098-42.5781 40.7471-41.5527Q33.9844-40.5273 27.4902-40.4785Q26.4648-40.4785 26.4648-41.4551ZM51.9531 0.0488281Q55.2734-0.537109 57.5928-1.2207Q59.9121-1.9043 61.5723-2.70996Q63.2324-3.51562 64.502-4.44336Q67.2852-6.5918 68.335-8.8623Q69.3848-11.1328 69.3848-14.4043L69.3848-63.0859L71.8262-63.0859Q72.9004-63.0859 72.9004-62.207L72.9004-7.91016Q72.9004-6.34766 72.3389-5.24902Q71.7773-4.15039 70.0684-3.4668Q68.2617-2.73438 66.3818-2.14844Q64.502-1.5625 62.5732-1.14746Q60.6445-0.732422 58.6426-0.439453Q57.0801-0.244141 55.3711-0.146484Q53.6621-0.0488281 51.9531 0.0488281Z"/>
  </g>
  <g id="Heavy-S" transform="matrix(1 0 0 1 2590.06 696)">
   <path d="M9.76562-1.59378Q9.76562 1.47324 10.8036 3.43323Q11.8416 5.39322 14.3745 6.73981Q19.4496 9.23538 26.4919 10.6758Q33.5342 12.1162 41.6862 12.1162Q47.9156 12.1162 54.2152 11.4429Q60.5148 10.7697 66.2102 9.42535Q71.9055 8.08105 76.1971 6.03333Q80.3925 4.05121 81.9431 1.60179Q83.4938-0.847626 83.4938-5.36499L83.4938-62.8563Q83.4938-74.8093 71.9208-74.8093L68.3678-74.8093L68.3678-75.3761Q68.3678-78.9627 66.312-80.7373Q64.2563-82.5119 60.9505-82.5119Q58.3862-82.5119 55.6007-81.5964Q49.9245-79.8149 44.3798-78.3745Q38.8351-76.9341 33.0002-76.104Q27.1652-75.2739 20.6306-75.2739L18.1686-75.2739Q14.0129-75.2739 11.8893-73.1861Q9.76562-71.0983 9.76562-67.2104ZM25.8537-42.0197L25.8537-55.7426Q25.8537-56.7078 26.8562-56.8054Q33.2703-57.1732 39.3322-58.0639Q45.3941-58.9546 51.7326-61.4212Q52.1118-61.5677 52.5757-61.3724Q53.0396-61.1771 53.0396-60.4568L53.0396-46.3371Q53.0396-45.7138 52.4651-45.4697Q46.9452-43.235 40.2054-42.1635Q33.4656-41.0919 26.8562-41.0545Q25.8537-41.0545 25.8537-42.0197ZM46.0411 0.809479Q50.3639 0.315857 53.7262-0.55809Q57.0885-1.43204 59.6478-2.59476Q62.207-3.75748 64.0411-5.12314Q66.4902-7.00684 67.4477-9.0641Q68.4052-11.1214 68.4052-14.2662L68.4052-63.8237L71.0999-63.8237Q72.5082-63.8237 72.5082-62.4718L72.5082-7.34558Q72.5082-5.73654 71.9814-4.71306Q71.4546-3.68958 69.7571-3.00598Q67.4438-2.04315 64.9067-1.30157Q62.3695-0.559998 59.7092-0.0873566Q57.0488 0.385284 54.3327 0.621033Q52.3666 0.758362 50.2945 0.798416Q48.2224 0.83847 46.0411 0.809479Z"/>
  </g>
  <g id="Bold-S" transform="matrix(1 0 0 1 2294.25 696)">
   <path d="M9.76562-1.46484Q9.76562 1.31836 10.6812 3.14941Q11.5967 4.98047 14.0137 6.25Q18.9209 8.64258 25.8667 10.083Q32.8125 11.5234 41.2354 11.5234Q47.168 11.5234 53.2227 10.8887Q59.2773 10.2539 64.8438 8.93555Q70.4102 7.61719 74.8047 5.51758Q78.833 3.61328 80.2612 1.31836Q81.6895-0.976562 81.6895-5.24902L81.6895-63.0371Q81.6895-74.2676 70.8252-74.2676L67.2852-74.2676L67.2852-75.1953Q67.2852-78.5889 65.4419-80.2734Q63.5986-81.958 60.4736-81.958Q58.1543-81.958 55.4199-81.0547Q49.7314-79.248 44.2383-77.8076Q38.7451-76.3672 32.9102-75.5371Q27.0752-74.707 20.3857-74.707L17.627-74.707Q13.7939-74.707 11.7798-72.7417Q9.76562-70.7764 9.76562-67.2363ZM25.1709-42.6514L25.1709-56.1035Q25.1709-57.0557 26.1475-57.1533Q32.6904-57.4951 38.7329-58.5083Q44.7754-59.5215 51.0498-61.9629Q51.416-62.1094 51.8799-61.9141Q52.3438-61.7188 52.3438-61.0107L52.3438-47.0459Q52.3438-46.4355 51.7822-46.1914Q46.3135-43.9697 39.5996-42.8467Q32.8857-41.7236 26.1475-41.6992Q25.1709-41.6992 25.1709-42.6514ZM39.4287 1.66016Q44.873 1.26953 49.4019 0.183105Q53.9307-0.90332 57.4951-2.46582Q61.0596-4.02832 63.5254-5.88379Q65.6006-7.4707 66.4551-9.28955Q67.3096-11.1084 67.3096-14.1113L67.3096-64.6484L70.2881-64.6484Q72.0703-64.6484 72.0703-62.7686L72.0703-6.71387Q72.0703-5.05371 71.582-4.11377Q71.0938-3.17383 69.4092-2.49023Q66.5283-1.26953 63.2568-0.354004Q59.9854 0.561523 56.5063 1.09863Q53.0273 1.63574 49.5117 1.80664Q47.0947 1.87988 44.6167 1.85547Q42.1387 1.83105 39.4287 1.66016Z"/>
  </g>
  <g id="Semibold-S" transform="matrix(1 0 0 1 1998.16 696)">
   <path d="M9.76562-1.37634Q9.76562 1.21155 10.5968 2.95372Q11.4281 4.69589 13.765 5.91202Q18.5562 8.23364 25.4356 9.67407Q32.3151 11.1145 40.9241 11.1145Q46.6522 11.1145 52.5383 10.5064Q58.4244 9.89838 63.9019 8.59795Q69.3794 7.29752 73.8449 5.16205Q77.758 3.31116 79.1016 1.12305Q80.4451-1.06506 80.4451-5.16891L80.4451-63.1615Q80.4451-73.8945 70.0699-73.8945L66.539-73.8945L66.539-75.071Q66.539-78.331 64.8422-79.9534Q63.1454-81.5758 60.1448-81.5758Q57.9941-81.5758 55.2956-80.6816Q49.5979-78.8567 44.1402-77.4162Q38.6826-75.9758 32.8476-75.1457Q27.0126-74.3156 20.2171-74.3156L17.2539-74.3156Q13.6429-74.3156 11.7043-72.435Q9.76562-70.5544 9.76562-67.2539ZM24.7002-43.087L24.7002-56.3522Q24.7002-57.296 25.6584-57.3936Q32.2906-57.7171 38.3198-58.815Q44.3489-59.9129 50.5791-62.336Q50.9361-62.4825 51.4-62.2871Q51.8639-62.0918 51.8639-61.393L51.8639-47.5349Q51.8639-46.933 51.3115-46.6888Q45.8778-44.4763 39.1819-43.3178Q32.486-42.1593 25.6584-42.1432Q24.7002-42.1432 24.7002-43.087ZM34.8694 2.24686Q41.0873 1.92719 46.4203 0.694275Q51.7532-0.538635 56.0108-2.37694Q60.2684-4.21524 63.1699-6.40793Q64.9872-7.79037 65.7707-9.44481Q66.5543-11.0992 66.5543-14.0045L66.5543-65.2176L69.7281-65.2176Q71.7682-65.2176 71.7682-62.973L71.7682-6.27823Q71.7682-4.58298 71.3066-3.70064Q70.845-2.8183 69.1689-2.1347Q65.8974-0.736237 62.1193 0.299072Q58.3412 1.33438 54.298 1.91612Q50.2548 2.49786 46.1876 2.62451Q43.4601 2.65274 40.7021 2.58408Q37.944 2.51541 34.8694 2.24686Z"/>
  </g>
  <g id="Medium-S" transform="matrix(1 0 0 1 1701.92 696)">
   <path d="M9.76562-1.30844Q9.76562 1.13068 10.5328 2.80571Q11.2999 4.48074 13.5765 5.65643Q18.28 7.92389 25.1087 9.36432Q31.9374 10.8047 40.6883 10.8047Q46.2616 10.8047 52.0195 10.2169Q57.7774 9.62906 63.1874 8.34198Q68.5974 7.0549 73.1171 4.89273Q76.9424 3.08228 78.2223 0.974655Q79.5021-1.13297 79.5021-5.10864L79.5021-63.2561Q79.5021-73.6115 69.4969-73.6115L65.9729-73.6115L65.9729-74.9763Q65.9729-78.1357 64.3875-79.7108Q62.8021-81.2859 59.8953-81.2859Q57.8728-81.2859 55.201-80.3986Q49.4972-78.5606 44.0666-77.1202Q38.636-75.6798 32.8011-74.8497Q26.9661-74.0196 20.089-74.0196L16.9708-74.0196Q13.5284-74.0196 11.647-72.2027Q9.76562-70.3857 9.76562-67.2676ZM24.3431-43.4174L24.3431-56.5407Q24.3431-57.4776 25.2884-57.5752Q31.987-57.8857 38.0062-59.0473Q44.0254-60.2089 50.222-62.619Q50.5722-62.7655 51.0361-62.5702Q51.4999-62.3749 51.4999-61.6829L51.4999-47.905Q51.4999-47.3106 50.9544-47.0665Q45.5475-44.8601 38.8649-43.6749Q32.1823-42.4896 25.2884-42.4805Q24.3431-42.4805 24.3431-43.4174ZM31.4133 2.69165Q38.2164 2.42615 44.1593 1.08185Q50.1022-0.262451 54.8855-2.30942Q59.6687-4.35638 62.9005-6.80542Q64.5226-8.03299 65.2519-9.56306Q65.9813-11.0931 65.9813-13.9236L65.9813-65.6487L69.3039-65.6487Q71.5393-65.6487 71.5393-63.1279L71.5393-5.94788Q71.5393-4.22592 71.0979-3.38745Q70.6566-2.54898 68.9873-1.86539Q65.419-0.331879 61.2568 0.794601Q57.0946 1.92108 52.6234 2.53639Q48.1522 3.1517 43.6676 3.24402Q40.7036 3.23944 37.7335 3.13683Q34.7633 3.03421 31.4133 2.69165Z"/>
  </g>
  <g id="Regular-S" transform="matrix(1 0 0 1 1405.83 696)">
   <path d="M9.76562-1.2207Q9.76562 1.02539 10.4492 2.6123Q11.1328 4.19922 13.3301 5.32227Q17.9199 7.51953 24.6826 8.95996Q31.4453 10.4004 40.3809 10.4004Q45.752 10.4004 51.3428 9.83887Q56.9336 9.27734 62.2559 8.00781Q67.5781 6.73828 72.168 4.54102Q75.8789 2.7832 77.0752 0.78125Q78.2715-1.2207 78.2715-5.0293L78.2715-63.3789Q78.2715-73.2422 68.75-73.2422L65.2344-73.2422L65.2344-74.8535Q65.2344-77.8809 63.7939-79.3945Q62.3535-80.9082 59.5703-80.9082Q57.7148-80.9082 55.0781-80.0293Q49.3652-78.1738 43.9697-76.7334Q38.5742-75.293 32.7393-74.4629Q26.9043-73.6328 19.9219-73.6328L16.6016-73.6328Q13.3789-73.6328 11.5723-71.8994Q9.76562-70.166 9.76562-67.2852ZM23.877-43.8477L23.877-56.7871Q23.877-57.7148 24.8047-57.8125Q31.5918-58.1055 37.5977-59.3506Q43.6035-60.5957 49.7559-62.9883Q50.0977-63.1348 50.5615-62.9395Q51.0254-62.7441 51.0254-62.0605L51.0254-48.3887Q51.0254-47.8027 50.4883-47.5586Q45.1172-45.3613 38.4521-44.1406Q31.7871-42.9199 24.8047-42.9199Q23.877-42.9199 23.877-43.8477ZM26.9043 3.27148Q34.4727 3.07617 41.2109 1.58691Q47.9492 0.0976562 53.418-2.22168Q58.8867-4.54102 62.5488-7.32422Q63.916-8.34961 64.5752-9.7168Q65.2344-11.084 65.2344-13.8184L65.2344-66.2109L68.75-66.2109Q71.2402-66.2109 71.2402-63.3301L71.2402-5.51758Q71.2402-3.75977 70.8252-2.97852Q70.4102-2.19727 68.75-1.51367Q64.7949 0.195312 60.1318 1.44043Q55.4688 2.68555 50.4395 3.34473Q45.4102 4.00391 40.3809 4.05273Q37.1094 4.00391 33.8623 3.85742Q30.6152 3.71094 26.9043 3.27148Z"/>
  </g>
  <g id="Light-S" transform="matrix(1 0 0 1 1110.51 696)">
   <path d="M9.76562-1.32675Q9.76562 0.874329 10.4645 2.22664Q11.1633 3.57895 13.179 4.4899Q18.4044 6.56586 25.0156 7.71103Q31.6269 8.8562 39.0488 8.87146Q44.3748 8.8562 49.9958 8.27217Q55.6168 7.68814 60.833 6.44875Q66.0492 5.20935 70.1546 3.16391Q73.336 1.58768 74.411-0.194931Q75.486-1.97754 75.486-5.28641L75.486-64.3631Q75.486-72.6822 67.4332-72.6822L63.7665-72.6822L63.7665-74.0967Q63.7665-76.8364 62.4393-78.1078Q61.1122-79.3793 58.7677-79.3793Q57.2304-79.3793 54.9568-78.6369Q49.0471-76.7815 43.2732-75.4242Q37.4992-74.0669 31.4678-73.32Q25.4364-72.5731 18.8019-72.5731L15.9813-72.5731Q13.0157-72.5731 11.3907-70.9911Q9.76562-69.4092 9.76562-66.6649ZM22.863-44.3016L22.863-57.2411Q22.863-58.1841 23.7907-58.2512Q30.381-58.4381 36.591-59.6153Q42.8009-60.7925 48.893-62.9425Q49.2195-63.0592 49.6834-62.8716Q50.1472-62.6839 50.1472-62.0148L50.1472-48.6458Q50.1472-48.0598 49.6101-47.8157Q44.3001-45.6642 37.4912-44.5042Q30.6824-43.3441 23.7907-43.4044Q22.863-43.4044 22.863-44.3016ZM23.9677 2.81754Q31.4758 2.66724 38.5548 1.36719Q45.6337 0.0671387 51.5263-2.14615Q57.4188-4.35944 61.2923-7.35474Q62.6144-8.36487 63.1905-9.57298Q63.7665-10.7811 63.7665-13.1828L63.7665-67.2707L67.4484-67.2707Q70.0592-67.2707 70.0592-64.299L70.0592-5.6839Q70.0592-3.94135 69.5915-3.09944Q69.1238-2.25754 67.4934-1.52893Q63.826 0.13504 59.1251 1.34964Q54.4243 2.56424 49.2588 3.21579Q44.0933 3.86734 39.0488 3.91617Q35.1265 3.86734 31.4255 3.63007Q27.7245 3.39279 23.9677 2.81754Z"/>
  </g>
  <g id="Thin-S" transform="matrix(1 0 0 1 815.638 696)">
   <path d="M9.76562-1.46713Q9.76562 0.673676 10.4843 1.71585Q11.203 2.75803 12.9784 3.38898Q19.0453 5.30472 25.4562 6.05965Q31.8672 6.81458 37.2871 6.84967Q42.5529 6.81458 48.214 6.20041Q53.875 5.58624 58.9512 4.3869Q64.0274 3.18756 67.4927 1.34201Q69.973 0.00610352 70.8881-1.48621Q71.8033-2.97852 71.8033-5.62668L71.8033-65.6639Q71.8033-71.9414 65.6914-71.9414L61.824-71.9414L61.824-73.0957Q61.824-75.4555 60.6476-76.4065Q59.4711-77.3575 57.7072-77.3575Q56.5903-77.3575 54.7966-76.7952Q48.6267-74.9397 42.3523-73.6927Q36.0779-72.4457 29.7859-71.809Q23.494-71.1723 17.3203-71.1723L15.1604-71.1723Q12.5351-71.1723 11.1504-69.7903Q9.76562-68.4082 9.76562-65.844ZM21.5218-44.902L21.5218-57.8415Q21.5218-58.8043 22.4495-58.8318Q28.7796-58.8791 35.26-59.9659Q41.7404-61.0527 47.7524-62.883Q48.0583-62.9593 48.5222-62.7815Q48.9861-62.6038 48.9861-61.9553L48.9861-48.9861Q48.9861-48.4001 48.4489-48.156Q43.219-46.0648 36.2198-44.9844Q29.2206-43.9041 22.4495-44.0453Q21.5218-44.0453 21.5218-44.902ZM20.0844 2.2171Q27.5124 2.12708 35.0414 1.07727Q42.5705 0.0274658 49.0234-2.04582Q55.4764-4.11911 59.6313-7.39441Q60.8925-8.3847 61.3583-9.38263Q61.824-10.3806 61.824-12.3421L61.824-68.6714L65.7265-68.6714Q68.4982-68.6714 68.4982-65.58L68.4982-5.90439Q68.4982-4.18167 67.96-3.25966Q67.4217-2.33765 65.8325-1.54877Q62.545 0.0549316 57.7942 1.22948Q53.0434 2.40402 47.6974 3.04565Q42.3515 3.68729 37.2871 3.73611Q32.5043 3.68729 28.2024 3.32985Q23.9006 2.97241 20.0844 2.2171Z"/>
  </g>
  <g id="Ultralight-S" transform="matrix(1 0 0 1 519.87 696)">
   <path d="M9.76562-1.53885Q9.76562 0.571442 10.4946 1.45454Q11.2236 2.33765 12.8761 2.8244Q19.3733 4.65851 25.6817 5.21355Q31.9901 5.76859 36.3846 5.81436Q41.6199 5.76859 47.3015 5.13878Q52.9831 4.50897 57.9876 3.33061Q62.9921 2.15225 66.1285 0.408936Q68.2503-0.804138 69.083-2.14767Q69.9158-3.49121 69.9158-5.80139L69.9158-66.3307Q69.9158-71.5622 64.7995-71.5622L60.8299-71.5622L60.8299-72.583Q60.8299-74.7475 59.7298-75.5348Q58.6296-76.3222 57.1632-76.3222Q56.2614-76.3222 54.715-75.8514Q48.4116-73.996 41.8808-72.8054Q35.35-71.6148 28.9249-71.0346Q22.4998-70.4544 16.5619-70.4544L14.74-70.4544Q12.2894-70.4544 11.0275-69.175Q9.76562-67.8955 9.76562-65.4236ZM20.8344-45.2103L20.8344-58.1497Q20.8344-59.1225 21.7621-59.1293Q27.9587-59.1042 34.5776-60.1452Q41.1964-61.1862 47.1672-62.8517Q47.464-62.9074 47.9279-62.735Q48.3917-62.5626 48.3917-61.924L48.3917-49.1608Q48.3917-48.5748 47.8546-48.3307Q42.6651-46.2692 35.5686-45.2305Q28.4721-44.1917 21.7621-44.3733Q20.8344-44.3733 20.8344-45.2103ZM18.0946 1.90887Q25.4814 1.85013 33.2417 0.928497Q41.0019 0.00686646 47.7421-1.99471Q54.4823-3.99628 58.7799-7.41501Q60.0105-8.39539 60.4202-9.28574Q60.8299-10.1761 60.8299-11.911L60.8299-69.3893L64.8445-69.3893Q67.6979-69.3893 67.6979-66.2361L67.6979-6.0173Q67.6979-4.3045 67.1242-3.34167Q66.5504-2.37885 64.9811-1.55945Q61.8889 0.0137329 57.1121 1.16806Q52.3354 2.32239 46.8975 2.95868Q41.4597 3.59497 36.3846 3.6438Q31.1607 3.59497 26.5514 3.17612Q21.9421 2.75726 18.0946 1.90887Z"/>
  </g>
 </g>
</svg>
