<?xml version="1.0" encoding="UTF-8"?>
<!--Generator: Apple Native CoreSVG 149-->
<!DOCTYPE svg
PUBLIC "-//W3C//DTD SVG 1.1//EN"
       "http://www.w3.org/Graphics/SVG/1.1/DTD/svg11.dtd">
<svg version="1.1" xmlns="http://www.w3.org/2000/svg" xmlns:xlink="http://www.w3.org/1999/xlink" width="3300" height="2200">
 <!--glyph: "uni100BE7.medium", point size: 100.0, font version: "17.0d9e1", template writer version: "59"-->
 <style>.hierarchical-0:secondary {fill:#4D4D4D}
.hierarchical-1:primary {fill:#212121}

.SFSymbolsPreview212121 {fill:#212121;opacity:1.0}
.SFSymbolsPreview4D4D4D {fill:#4D4D4D;opacity:1.0}
</style>
 <g id="Notes">
  <rect height="2200" id="artboard" style="fill:white;opacity:1" width="3300" x="0" y="0"/>
  <line style="fill:none;stroke:black;opacity:1;stroke-width:0.5;" x1="263" x2="3036" y1="292" y2="292"/>
  <text style="stroke:none;fill:black;font-family:sans-serif;font-size:13;font-weight:bold;" transform="matrix(1 0 0 1 263 322)">Weight/Scale Variations</text>
  <text style="stroke:none;fill:black;font-family:sans-serif;font-size:13;text-anchor:middle;" transform="matrix(1 0 0 1 559.711 322)">Ultralight</text>
  <text style="stroke:none;fill:black;font-family:sans-serif;font-size:13;text-anchor:middle;" transform="matrix(1 0 0 1 856.422 322)">Thin</text>
  <text style="stroke:none;fill:black;font-family:sans-serif;font-size:13;text-anchor:middle;" transform="matrix(1 0 0 1 1153.13 322)">Light</text>
  <text style="stroke:none;fill:black;font-family:sans-serif;font-size:13;text-anchor:middle;" transform="matrix(1 0 0 1 1449.84 322)">Regular</text>
  <text style="stroke:none;fill:black;font-family:sans-serif;font-size:13;text-anchor:middle;" transform="matrix(1 0 0 1 1746.56 322)">Medium</text>
  <text style="stroke:none;fill:black;font-family:sans-serif;font-size:13;text-anchor:middle;" transform="matrix(1 0 0 1 2043.27 322)">Semibold</text>
  <text style="stroke:none;fill:black;font-family:sans-serif;font-size:13;text-anchor:middle;" transform="matrix(1 0 0 1 2339.98 322)">Bold</text>
  <text style="stroke:none;fill:black;font-family:sans-serif;font-size:13;text-anchor:middle;" transform="matrix(1 0 0 1 2636.69 322)">Heavy</text>
  <text style="stroke:none;fill:black;font-family:sans-serif;font-size:13;text-anchor:middle;" transform="matrix(1 0 0 1 2933.4 322)">Black</text>
  <line style="fill:none;stroke:black;opacity:1;stroke-width:0.5;" x1="263" x2="3036" y1="1903" y2="1903"/>
  <g transform="matrix(1 0 0 1 263 1933)">
   <path d="M9.24805 0.830078Q10.8691 0.830078 12.2949 0.214844Q13.7207-0.400391 14.8096-1.49414Q15.8984-2.58789 16.5186-4.01367Q17.1387-5.43945 17.1387-7.05078Q17.1387-8.66211 16.5186-10.0879Q15.8984-11.5137 14.8047-12.6074Q13.7109-13.7012 12.2852-14.3164Q10.8594-14.9316 9.23828-14.9316Q7.62695-14.9316 6.20117-14.3164Q4.77539-13.7012 3.69141-12.6074Q2.60742-11.5137 1.9873-10.0879Q1.36719-8.66211 1.36719-7.05078Q1.36719-5.43945 1.9873-4.01367Q2.60742-2.58789 3.69629-1.49414Q4.78516-0.400391 6.21094 0.214844Q7.63672 0.830078 9.24805 0.830078ZM9.24805-0.654297Q7.91992-0.654297 6.7627-1.14746Q5.60547-1.64062 4.73145-2.51953Q3.85742-3.39844 3.36426-4.56055Q2.87109-5.72266 2.87109-7.05078Q2.87109-8.37891 3.35938-9.54102Q3.84766-10.7031 4.72168-11.582Q5.5957-12.4609 6.75293-12.9541Q7.91016-13.4473 9.23828-13.4473Q10.5762-13.4473 11.7334-12.9541Q12.8906-12.4609 13.7695-11.582Q14.6484-10.7031 15.1465-9.54102Q15.6445-8.37891 15.6445-7.05078Q15.6445-5.72266 15.1514-4.56055Q14.6582-3.39844 13.7842-2.51953Q12.9102-1.64062 11.748-1.14746Q10.5859-0.654297 9.24805-0.654297ZM5.83984-7.04102Q5.83984-6.71875 6.04492-6.51855Q6.25-6.31836 6.5918-6.31836L8.50586-6.31836L8.50586-4.39453Q8.50586-4.0625 8.70605-3.85742Q8.90625-3.65234 9.22852-3.65234Q9.56055-3.65234 9.76562-3.85742Q9.9707-4.0625 9.9707-4.39453L9.9707-6.31836L11.8945-6.31836Q12.2266-6.31836 12.4316-6.51855Q12.6367-6.71875 12.6367-7.04102Q12.6367-7.37305 12.4316-7.57812Q12.2266-7.7832 11.8945-7.7832L9.9707-7.7832L9.9707-9.69727Q9.9707-10.0391 9.76562-10.2441Q9.56055-10.4492 9.22852-10.4492Q8.90625-10.4492 8.70605-10.2441Q8.50586-10.0391 8.50586-9.69727L8.50586-7.7832L6.5918-7.7832Q6.25-7.7832 6.04492-7.57812Q5.83984-7.37305 5.83984-7.04102Z"/>
  </g>
  <g transform="matrix(1 0 0 1 281.867 1933)">
   <path d="M11.709 2.91016Q13.75 2.91016 15.5518 2.12891Q17.3535 1.34766 18.7305-0.0292969Q20.1074-1.40625 20.8887-3.20801Q21.6699-5.00977 21.6699-7.05078Q21.6699-9.0918 20.8887-10.8936Q20.1074-12.6953 18.7305-14.0723Q17.3535-15.4492 15.5469-16.2305Q13.7402-17.0117 11.6992-17.0117Q9.6582-17.0117 7.85645-16.2305Q6.05469-15.4492 4.68262-14.0723Q3.31055-12.6953 2.5293-10.8936Q1.74805-9.0918 1.74805-7.05078Q1.74805-5.00977 2.5293-3.20801Q3.31055-1.40625 4.6875-0.0292969Q6.06445 1.34766 7.86621 2.12891Q9.66797 2.91016 11.709 2.91016ZM11.709 1.25Q9.98047 1.25 8.47656 0.605469Q6.97266-0.0390625 5.83496-1.17676Q4.69727-2.31445 4.05762-3.81836Q3.41797-5.32227 3.41797-7.05078Q3.41797-8.7793 4.05762-10.2832Q4.69727-11.7871 5.83008-12.9297Q6.96289-14.0723 8.4668-14.7119Q9.9707-15.3516 11.6992-15.3516Q13.4277-15.3516 14.9316-14.7119Q16.4355-14.0723 17.5781-12.9297Q18.7207-11.7871 19.3652-10.2832Q20.0098-8.7793 20.0098-7.05078Q20.0098-5.32227 19.3701-3.81836Q18.7305-2.31445 17.5928-1.17676Q16.4551-0.0390625 14.9463 0.605469Q13.4375 1.25 11.709 1.25ZM7.39258-7.04102Q7.39258-6.68945 7.62695-6.46484Q7.86133-6.24023 8.23242-6.24023L10.8789-6.24023L10.8789-3.57422Q10.8789-3.21289 11.1035-2.9834Q11.3281-2.75391 11.6797-2.75391Q12.0508-2.75391 12.2852-2.9834Q12.5195-3.21289 12.5195-3.57422L12.5195-6.24023L15.1758-6.24023Q15.5371-6.24023 15.7715-6.46484Q16.0059-6.68945 16.0059-7.04102Q16.0059-7.41211 15.7715-7.6416Q15.5371-7.87109 15.1758-7.87109L12.5195-7.87109L12.5195-10.5176Q12.5195-10.8984 12.2852-11.1279Q12.0508-11.3574 11.6797-11.3574Q11.3281-11.3574 11.1035-11.1279Q10.8789-10.8984 10.8789-10.5176L10.8789-7.87109L8.23242-7.87109Q7.85156-7.87109 7.62207-7.6416Q7.39258-7.41211 7.39258-7.04102Z"/>
  </g>
  <g transform="matrix(1 0 0 1 305.646 1933)">
   <path d="M14.9707 5.66406Q17.0605 5.66406 18.96 5.01465Q20.8594 4.36523 22.4512 3.19336Q24.043 2.02148 25.2197 0.429688Q26.3965-1.16211 27.0459-3.06641Q27.6953-4.9707 27.6953-7.05078Q27.6953-9.14062 27.0459-11.04Q26.3965-12.9395 25.2197-14.5312Q24.043-16.123 22.4512-17.2998Q20.8594-18.4766 18.9551-19.126Q17.0508-19.7754 14.9609-19.7754Q12.8711-19.7754 10.9717-19.126Q9.07227-18.4766 7.48535-17.2998Q5.89844-16.123 4.72168-14.5312Q3.54492-12.9395 2.90039-11.04Q2.25586-9.14062 2.25586-7.05078Q2.25586-4.9707 2.90527-3.06641Q3.55469-1.16211 4.72656 0.429688Q5.89844 2.02148 7.49023 3.19336Q9.08203 4.36523 10.9814 5.01465Q12.8809 5.66406 14.9707 5.66406ZM14.9707 3.84766Q13.1641 3.84766 11.5283 3.2959Q9.89258 2.74414 8.53516 1.74805Q7.17773 0.751953 6.17676-0.610352Q5.17578-1.97266 4.62891-3.6084Q4.08203-5.24414 4.08203-7.05078Q4.08203-8.86719 4.62891-10.5029Q5.17578-12.1387 6.17188-13.501Q7.16797-14.8633 8.52539-15.8594Q9.88281-16.8555 11.5186-17.4023Q13.1543-17.9492 14.9609-17.9492Q16.7773-17.9492 18.4131-17.4023Q20.0488-16.8555 21.4111-15.8594Q22.7734-14.8633 23.7695-13.501Q24.7656-12.1387 25.3174-10.5029Q25.8691-8.86719 25.8691-7.05078Q25.8789-5.24414 25.332-3.6084Q24.7852-1.97266 23.7842-0.610352Q22.7832 0.751953 21.4209 1.74805Q20.0586 2.74414 18.4229 3.2959Q16.7871 3.84766 14.9707 3.84766ZM9.45312-7.04102Q9.45312-6.66016 9.71191-6.41113Q9.9707-6.16211 10.3711-6.16211L14.0625-6.16211L14.0625-2.46094Q14.0625-2.06055 14.3115-1.80664Q14.5605-1.55273 14.9414-1.55273Q15.3516-1.55273 15.6055-1.80664Q15.8594-2.06055 15.8594-2.46094L15.8594-6.16211L19.5605-6.16211Q19.9609-6.16211 20.2148-6.41113Q20.4688-6.66016 20.4688-7.04102Q20.4688-7.45117 20.2148-7.70508Q19.9609-7.95898 19.5605-7.95898L15.8594-7.95898L15.8594-11.6504Q15.8594-12.0605 15.6055-12.3145Q15.3516-12.5684 14.9414-12.5684Q14.5605-12.5684 14.3115-12.3096Q14.0625-12.0508 14.0625-11.6504L14.0625-7.95898L10.3711-7.95898Q9.96094-7.95898 9.70703-7.70508Q9.45312-7.45117 9.45312-7.04102Z"/>
  </g>
  <text style="stroke:none;fill:black;font-family:sans-serif;font-size:13;font-weight:bold;" transform="matrix(1 0 0 1 263 1953)">Design Variations</text>
  <text style="stroke:none;fill:black;font-family:sans-serif;font-size:13;" transform="matrix(1 0 0 1 263 1971)">Symbols are supported in up to nine weights and three scales.</text>
  <text style="stroke:none;fill:black;font-family:sans-serif;font-size:13;" transform="matrix(1 0 0 1 263 1989)">For optimal layout with text and other symbols, vertically align</text>
  <text style="stroke:none;fill:black;font-family:sans-serif;font-size:13;" transform="matrix(1 0 0 1 263 2007)">symbols with the adjacent text.</text>
  <line style="fill:none;stroke:#00AEEF;stroke-width:0.5;opacity:1.0;" x1="776" x2="776" y1="1919" y2="1933"/>
  <g transform="matrix(1 0 0 1 776 1933)">
   <path d="M3.31055 0.15625Q3.70117 0.15625 3.91602-0.00976562Q4.13086-0.175781 4.26758-0.585938L5.52734-4.0332L11.2891-4.0332L12.5488-0.585938Q12.6855-0.175781 12.9004-0.00976562Q13.1152 0.15625 13.4961 0.15625Q13.8867 0.15625 14.1162-0.0585938Q14.3457-0.273438 14.3457-0.644531Q14.3457-0.869141 14.2383-1.17188L9.6582-13.3691Q9.48242-13.8184 9.17969-14.043Q8.87695-14.2676 8.4082-14.2676Q7.5-14.2676 7.17773-13.3789L2.59766-1.16211Q2.49023-0.859375 2.49023-0.634766Q2.49023-0.263672 2.70996-0.0537109Q2.92969 0.15625 3.31055 0.15625ZM6.00586-5.51758L8.37891-12.0898L8.42773-12.0898L10.8008-5.51758Z"/>
  </g>
  <line style="fill:none;stroke:#00AEEF;stroke-width:0.5;opacity:1.0;" x1="793.197" x2="793.197" y1="1919" y2="1933"/>
  <text style="stroke:none;fill:black;font-family:sans-serif;font-size:13;font-weight:bold;" transform="matrix(1 0 0 1 776 1953)">Margins</text>
  <text style="stroke:none;fill:black;font-family:sans-serif;font-size:13;" transform="matrix(1 0 0 1 776 1971)">Leading and trailing margins on the left and right side of each symbol</text>
  <text style="stroke:none;fill:black;font-family:sans-serif;font-size:13;" transform="matrix(1 0 0 1 776 1989)">can be adjusted by modifying the x-location of the margin guidelines.</text>
  <text style="stroke:none;fill:black;font-family:sans-serif;font-size:13;" transform="matrix(1 0 0 1 776 2007)">Modifications are automatically applied proportionally to all</text>
  <text style="stroke:none;fill:black;font-family:sans-serif;font-size:13;" transform="matrix(1 0 0 1 776 2025)">scales and weights.</text>
  <g transform="matrix(1 0 0 1 1289 1933)">
   <path d="M2.8418 1.86523L4.54102 3.57422Q5.18555 4.22852 5.90332 4.17969Q6.62109 4.13086 7.31445 3.35938L18.0078-8.42773L17.041-9.4043L6.42578 2.27539Q6.16211 2.57812 5.89355 2.61719Q5.625 2.65625 5.27344 2.30469L4.10156 1.14258Q3.75 0.791016 3.79395 0.522461Q3.83789 0.253906 4.14062-0.0195312L15.6152-10.8203L14.6387-11.7871L3.04688-0.898438Q2.30469-0.214844 2.25098 0.498047Q2.19727 1.21094 2.8418 1.86523ZM9.25781-16.3281Q8.94531-16.0254 8.90625-15.6348Q8.86719-15.2441 9.04297-14.9512Q9.21875-14.6777 9.55566-14.541Q9.89258-14.4043 10.3809-14.5215Q11.4746-14.7754 12.5977-14.7314Q13.7207-14.6875 14.7949-13.9844L14.209-12.5293Q13.9551-11.9043 14.0674-11.4404Q14.1797-10.9766 14.5801-10.5664L16.875-8.25195Q17.2363-7.88086 17.5781-7.82227Q17.9199-7.76367 18.3398-7.8418L19.4043-8.03711L20.0684-7.36328L20.0293-6.80664Q20-6.43555 20.1221-6.12305Q20.2441-5.81055 20.6055-5.44922L21.3672-4.70703Q21.7285-4.3457 22.1533-4.33105Q22.5781-4.31641 22.9297-4.66797L25.8398-7.58789Q26.1914-7.93945 26.1816-8.35449Q26.1719-8.76953 25.8105-9.13086L25.0391-9.89258Q24.6875-10.2539 24.3799-10.3857Q24.0723-10.5176 23.7109-10.4883L23.1348-10.4395L22.4902-11.0742L22.7344-12.1973Q22.832-12.6172 22.6953-12.9834Q22.5586-13.3496 22.1191-13.7891L19.9219-15.9766Q18.6719-17.2168 17.2607-17.8369Q15.8496-18.457 14.4189-18.4814Q12.9883-18.5059 11.665-17.959Q10.3418-17.4121 9.25781-16.3281ZM10.752-15.957Q11.6602-16.6211 12.7002-16.9043Q13.7402-17.1875 14.8047-17.085Q15.8691-16.9824 16.8701-16.5137Q17.8711-16.0449 18.7012-15.2051L21.1328-12.793Q21.3086-12.6172 21.3525-12.4512Q21.3965-12.2852 21.3379-12.0312L21.0156-10.5469L22.5195-9.0625L23.5059-9.12109Q23.6914-9.13086 23.7891-9.09668Q23.8867-9.0625 24.0332-8.91602L24.6094-8.33984L22.168-5.89844L21.5918-6.47461Q21.4453-6.62109 21.4062-6.71875Q21.3672-6.81641 21.377-7.01172L21.4453-7.98828L19.9512-9.47266L18.4277-9.21875Q18.1836-9.16992 18.042-9.2041Q17.9004-9.23828 17.7148-9.41406L15.7129-11.416Q15.5176-11.5918 15.4932-11.7529Q15.4688-11.9141 15.5859-12.1875L16.4648-14.2773Q15.293-15.3711 13.8281-15.791Q12.3633-16.2109 10.8398-15.7617Q10.7227-15.7324 10.6885-15.8057Q10.6543-15.8789 10.752-15.957Z"/>
  </g>
  <text style="stroke:none;fill:black;font-family:sans-serif;font-size:13;font-weight:bold;" transform="matrix(1 0 0 1 1289 1953)">Exporting</text>
  <text style="stroke:none;fill:black;font-family:sans-serif;font-size:13;" transform="matrix(1 0 0 1 1289 1971)">Symbols should be outlined when exporting to ensure the</text>
  <text style="stroke:none;fill:black;font-family:sans-serif;font-size:13;" transform="matrix(1 0 0 1 1289 1989)">design is preserved when submitting to Xcode.</text>
  <text id="template-version" style="stroke:none;fill:black;font-family:sans-serif;font-size:13;text-anchor:end;" transform="matrix(1 0 0 1 3036 1933)">Template v.3.0</text>
  <text style="stroke:none;fill:black;font-family:sans-serif;font-size:13;text-anchor:end;" transform="matrix(1 0 0 1 3036 1951)">Requires Xcode 13 or greater</text>
  <text id="descriptive-name" style="stroke:none;fill:black;font-family:sans-serif;font-size:13;text-anchor:end;" transform="matrix(1 0 0 1 3036 1969)">Generated from person.fill.checkmark</text>
  <text style="stroke:none;fill:black;font-family:sans-serif;font-size:13;text-anchor:end;" transform="matrix(1 0 0 1 3036 1987)">Typeset at 100 points</text>
  <text style="stroke:none;fill:black;font-family:sans-serif;font-size:13;" transform="matrix(1 0 0 1 263 726)">Small</text>
  <text style="stroke:none;fill:black;font-family:sans-serif;font-size:13;" transform="matrix(1 0 0 1 263 1156)">Medium</text>
  <text style="stroke:none;fill:black;font-family:sans-serif;font-size:13;" transform="matrix(1 0 0 1 263 1586)">Large</text>
 </g>
 <g id="Guides">
  <g id="H-reference" style="fill:#27AAE1;stroke:none;" transform="matrix(1 0 0 1 339 696)">
   <path d="M0.993347 0L3.6377 0L29.3282-67.1326L30.0301-67.1326L30.0301-70.459L28.1227-70.459ZM11.6882-24.4797L46.9818-24.4797L46.2311-26.7288L12.4382-26.7288ZM55.1193 0L57.7637 0L30.6381-70.459L29.4327-70.459L29.4327-67.1326Z"/>
  </g>
  <line id="Baseline-S" style="fill:none;stroke:#27AAE1;opacity:1;stroke-width:0.5;" x1="263" x2="3036" y1="696" y2="696"/>
  <line id="Capline-S" style="fill:none;stroke:#27AAE1;opacity:1;stroke-width:0.5;" x1="263" x2="3036" y1="625.541" y2="625.541"/>
  <g id="H-reference" style="fill:#27AAE1;stroke:none;" transform="matrix(1 0 0 1 339 1126)">
   <path d="M0.993347 0L3.6377 0L29.3282-67.1326L30.0301-67.1326L30.0301-70.459L28.1227-70.459ZM11.6882-24.4797L46.9818-24.4797L46.2311-26.7288L12.4382-26.7288ZM55.1193 0L57.7637 0L30.6381-70.459L29.4327-70.459L29.4327-67.1326Z"/>
  </g>
  <line id="Baseline-M" style="fill:none;stroke:#27AAE1;opacity:1;stroke-width:0.5;" x1="263" x2="3036" y1="1126" y2="1126"/>
  <line id="Capline-M" style="fill:none;stroke:#27AAE1;opacity:1;stroke-width:0.5;" x1="263" x2="3036" y1="1055.54" y2="1055.54"/>
  <g id="H-reference" style="fill:#27AAE1;stroke:none;" transform="matrix(1 0 0 1 339 1556)">
   <path d="M0.993347 0L3.6377 0L29.3282-67.1326L30.0301-67.1326L30.0301-70.459L28.1227-70.459ZM11.6882-24.4797L46.9818-24.4797L46.2311-26.7288L12.4382-26.7288ZM55.1193 0L57.7637 0L30.6381-70.459L29.4327-70.459L29.4327-67.1326Z"/>
  </g>
  <line id="Baseline-L" style="fill:none;stroke:#27AAE1;opacity:1;stroke-width:0.5;" x1="263" x2="3036" y1="1556" y2="1556"/>
  <line id="Capline-L" style="fill:none;stroke:#27AAE1;opacity:1;stroke-width:0.5;" x1="263" x2="3036" y1="1485.54" y2="1485.54"/>
  <line id="left-margin-Regular-M" style="fill:none;stroke:#00AEEF;stroke-width:0.5;opacity:1.0;" x1="1377.6" x2="1377.6" y1="1030.79" y2="1150.12"/>
  <line id="right-margin-Regular-M" style="fill:none;stroke:#00AEEF;stroke-width:0.5;opacity:1.0;" x1="1522.09" x2="1522.09" y1="1030.79" y2="1150.12"/>
 </g>
 <g id="Symbols">
  <g id="Black-L" transform="matrix(1 0 0 1 2840.07 1556)">
   <path class="hierarchical-0:secondary SFSymbolsPreview4D4D4D" d="M29.3457 23.9258L110.791 23.9258Q117.041 23.9258 120.557 21.0449Q124.072 18.1641 124.072 13.0371Q124.072 8.25195 121.606 3.00293Q119.141-2.24609 114.478-7.20215Q109.814-12.1582 103.198-16.1377Q96.582-20.1172 88.2324-22.4854Q79.8828-24.8535 70.0684-24.8535Q60.2539-24.8535 51.9043-22.4854Q43.5547-20.1172 36.9385-16.1377Q30.3223-12.1582 25.6592-7.20215Q20.9961-2.24609 18.5303 3.00293Q16.0645 8.25195 16.0645 13.0371Q16.0645 18.1641 19.5801 21.0449Q23.0957 23.9258 29.3457 23.9258ZM70.0684-35.6934Q77.3438-35.6934 83.2764-39.5264Q89.209-43.3594 92.7246-49.8291Q96.2402-56.2988 96.2402-64.2578Q96.2402-69.9707 94.1895-75.0488Q92.1387-80.127 88.5498-83.9844Q84.9609-87.8418 80.2246-90.0391Q75.4883-92.2363 70.0684-92.2363Q64.6484-92.2363 59.9121-90.0391Q55.1758-87.8418 51.5625-83.96Q47.9492-80.0781 45.8984-75Q43.8477-69.9219 43.8965-64.209Q43.8965-56.25 47.4121-49.8047Q50.9277-43.3594 56.8604-39.5264Q62.793-35.6934 70.0684-35.6934Z"/>
   <path class="hierarchical-1:primary SFSymbolsPreview212121" d="M135.645-30.6152Q140.332-30.6152 143.018-34.7656L168.799-73.9746Q169.678-75.293 170.142-76.6113Q170.605-77.9297 170.605-79.1504Q170.605-82.373 168.188-84.4727Q165.771-86.5723 162.598-86.5723Q158.398-86.5723 155.713-82.1289L135.596-49.5117L126.562-60.2539Q125.293-61.7676 123.853-62.5Q122.412-63.2324 120.557-63.2324Q117.383-63.2324 115.063-61.0107Q112.744-58.7891 112.744-55.5664Q112.744-52.6855 115.039-49.9512L128.076-34.5703Q129.639-32.7148 131.494-31.665Q133.35-30.6152 135.645-30.6152Z"/>
  </g>
  <g id="Heavy-L" transform="matrix(1 0 0 1 2543.38 1556)">
   <path class="hierarchical-0:secondary SFSymbolsPreview4D4D4D" d="M28.6621 23.5352L110.938 23.5352Q116.846 23.5352 120.19 20.8008Q123.535 18.0664 123.535 13.2812Q123.535 8.49609 121.094 3.22266Q118.652-2.05078 114.014-7.03125Q109.375-12.0117 102.808-16.0156Q96.2402-20.0195 87.915-22.3877Q79.5898-24.7559 69.7754-24.7559Q60.0098-24.7559 51.6846-22.3877Q43.3594-20.0195 36.7676-16.0156Q30.1758-12.0117 25.5615-7.03125Q20.9473-2.05078 18.5059 3.22266Q16.0645 8.49609 16.0645 13.2812Q16.0645 18.0664 19.4092 20.8008Q22.7539 23.5352 28.6621 23.5352ZM69.8242-35.6934Q76.9531-35.6934 82.8369-39.502Q88.7207-43.3105 92.2119-49.7314Q95.7031-56.1523 95.7031-64.0625Q95.7031-69.7754 93.6768-74.8291Q91.6504-79.8828 88.0859-83.6914Q84.5215-87.5 79.834-89.6729Q75.1465-91.8457 69.8242-91.8457Q64.4531-91.8457 59.7656-89.6729Q55.0781-87.5 51.5137-83.667Q47.9492-79.834 45.8984-74.7803Q43.8477-69.7266 43.8965-64.0137Q43.8965-56.1035 47.3877-49.707Q50.8789-43.3105 56.7627-39.502Q62.6465-35.6934 69.8242-35.6934Z"/>
   <path class="hierarchical-1:primary SFSymbolsPreview212121" d="M135.449-31.0059Q139.697-31.0059 142.139-34.7656L168.896-75.7812Q169.678-77.002 170.117-78.1982Q170.557-79.3945 170.557-80.5664Q170.557-83.4473 168.384-85.3027Q166.211-87.1582 163.428-87.1582Q159.668-87.1582 157.275-83.2031L135.352-47.9004L125.195-60.2051Q124.023-61.6211 122.705-62.3047Q121.387-62.9883 119.727-62.9883Q116.846-62.9883 114.795-60.9863Q112.744-58.9844 112.744-56.1035Q112.744-53.5156 114.795-51.0254L128.613-34.6191Q130.029-32.9102 131.714-31.958Q133.398-31.0059 135.449-31.0059Z"/>
  </g>
  <g id="Bold-L" transform="matrix(1 0 0 1 2246.69 1556)">
   <path class="hierarchical-0:secondary SFSymbolsPreview4D4D4D" d="M27.8809 23.0469L111.133 23.0469Q116.65 23.0469 119.775 20.5322Q122.9 18.0176 122.9 13.5742Q122.9 8.74023 120.508 3.44238Q118.115-1.85547 113.525-6.86035Q108.936-11.8652 102.393-15.8936Q95.8496-19.9219 87.5732-22.29Q79.2969-24.6582 69.4824-24.6582Q59.7168-24.6582 51.416-22.29Q43.1152-19.9219 36.5967-15.8936Q30.0781-11.8652 25.4883-6.86035Q20.8984-1.85547 18.4814 3.44238Q16.0645 8.74023 16.0645 13.5742Q16.0645 18.0176 19.2139 20.5322Q22.3633 23.0469 27.8809 23.0469ZM69.5312-35.7422Q76.5625-35.7422 82.373-39.502Q88.1836-43.2617 91.6504-49.6338Q95.1172-56.0059 95.1172-63.916Q95.1172-69.6289 93.0908-74.6094Q91.0645-79.5898 87.5488-83.3496Q84.0332-87.1094 79.3945-89.2334Q74.7559-91.3574 69.5312-91.3574Q64.3066-91.3574 59.668-89.2334Q55.0293-87.1094 51.4893-83.3252Q47.9492-79.541 45.9229-74.5361Q43.8965-69.5312 43.9453-63.8184Q43.9453-55.957 47.4121-49.6094Q50.8789-43.2617 56.6895-39.502Q62.5-35.7422 69.5312-35.7422Z"/>
   <path class="hierarchical-1:primary SFSymbolsPreview212121" d="M135.254-31.4453Q138.965-31.4453 141.113-34.7656L168.994-77.832Q169.629-78.9062 170.068-80.0049Q170.508-81.1035 170.508-82.1289Q170.508-84.6191 168.628-86.2305Q166.748-87.8418 164.307-87.8418Q161.133-87.8418 158.984-84.4238L135.107-46.1426L123.73-60.1074Q122.607-61.5234 121.411-62.1094Q120.215-62.6953 118.75-62.6953Q116.309-62.6953 114.526-60.9619Q112.744-59.2285 112.744-56.7383Q112.744-54.4434 114.551-52.2461L129.199-34.668Q130.469-33.1055 131.958-32.2754Q133.447-31.4453 135.254-31.4453Z"/>
  </g>
  <g id="Semibold-L" transform="matrix(1 0 0 1 1950 1556)">
   <path class="hierarchical-0:secondary SFSymbolsPreview4D4D4D" d="M27.2949 22.7051L111.23 22.7051Q116.504 22.7051 119.482 20.3125Q122.461 17.9199 122.461 13.7207Q122.461 8.93555 120.093 3.61328Q117.725-1.70898 113.159-6.71387Q108.594-11.7188 102.1-15.7715Q95.6055-19.8242 87.3291-22.2168Q79.0527-24.6094 69.2871-24.6094Q59.4727-24.6094 51.2207-22.2168Q42.9688-19.8242 36.4502-15.7715Q29.9316-11.7188 25.3906-6.71387Q20.8496-1.70898 18.457 3.61328Q16.0645 8.93555 16.0645 13.7207Q16.0645 17.9199 19.0674 20.3125Q22.0703 22.7051 27.2949 22.7051ZM69.2871-35.7422Q76.2207-35.7422 82.0068-39.4775Q87.793-43.2129 91.2598-49.5361Q94.7266-55.8594 94.7266-63.7695Q94.7266-69.4824 92.7002-74.4385Q90.6738-79.3945 87.1582-83.1299Q83.6426-86.8652 79.0771-88.9404Q74.5117-91.0156 69.2871-91.0156Q64.1602-91.0156 59.5459-88.916Q54.9316-86.8164 51.416-83.0566Q47.9004-79.2969 45.8984-74.3164Q43.8965-69.3359 43.9453-63.623Q43.9453-55.8105 47.3877-49.5117Q50.8301-43.2129 56.5918-39.4775Q62.3535-35.7422 69.2871-35.7422Z"/>
   <path class="hierarchical-1:primary SFSymbolsPreview212121" d="M135.107-31.7383Q138.428-31.7383 140.43-34.7656L169.043-79.248Q169.629-80.1758 170.044-81.2012Q170.459-82.2266 170.459-83.2031Q170.459-85.4492 168.774-86.8652Q167.09-88.2812 164.941-88.2812Q162.109-88.2812 160.156-85.2051L134.912-44.873L122.656-60.0586Q121.631-61.377 120.532-61.9141Q119.434-62.4512 118.115-62.4512Q115.869-62.4512 114.307-60.9131Q112.744-59.375 112.744-57.1289Q112.744-55.0293 114.355-53.0273L129.59-34.7168Q130.762-33.2031 132.104-32.4707Q133.447-31.7383 135.107-31.7383Z"/>
  </g>
  <g id="Medium-L" transform="matrix(1 0 0 1 1653.3 1556)">
   <path class="hierarchical-0:secondary SFSymbolsPreview4D4D4D" d="M26.9043 22.4609L111.328 22.4609Q116.406 22.4609 119.287 20.166Q122.168 17.8711 122.168 13.8672Q122.168 9.0332 119.8 3.71094Q117.432-1.61133 112.891-6.61621Q108.35-11.6211 101.855-15.6982Q95.3613-19.7754 87.1094-22.1436Q78.8574-24.5117 69.0918-24.5117Q59.3262-24.5117 51.0742-22.1436Q42.8223-19.7754 36.3525-15.6982Q29.8828-11.6211 25.3662-6.61621Q20.8496-1.61133 18.457 3.71094Q16.0645 9.0332 16.0645 13.8672Q16.0645 17.8711 18.9697 20.166Q21.875 22.4609 26.9043 22.4609ZM69.1406-35.791Q76.0254-35.791 81.7627-39.4775Q87.5-43.1641 90.9424-49.4629Q94.3848-55.7617 94.3848-63.6719Q94.3848-69.3848 92.3828-74.3164Q90.3809-79.248 86.8896-82.9346Q83.3984-86.6211 78.833-88.6963Q74.2676-90.7715 69.1406-90.7715Q64.0625-90.7715 59.4727-88.6963Q54.8828-86.6211 51.3916-82.8857Q47.9004-79.1504 45.9229-74.1943Q43.9453-69.2383 43.9453-63.5254Q43.9453-55.7129 47.3877-49.4385Q50.8301-43.1641 56.543-39.4775Q62.2559-35.791 69.1406-35.791Z"/>
   <path class="hierarchical-1:primary SFSymbolsPreview212121" d="M135.01-31.9824Q138.037-31.9824 139.893-34.7656L169.092-80.3223Q169.58-81.2012 170.02-82.1533Q170.459-83.1055 170.459-84.0332Q170.459-86.0352 168.921-87.3291Q167.383-88.623 165.381-88.623Q162.842-88.623 161.084-85.8398L134.814-43.9453L121.875-60.0098Q120.898-61.3281 119.849-61.8164Q118.799-62.3047 117.578-62.3047Q115.576-62.3047 114.16-60.9131Q112.744-59.5215 112.744-57.4707Q112.744-55.5176 114.209-53.6621L129.883-34.7168Q131.006-33.3008 132.227-32.6416Q133.447-31.9824 135.01-31.9824Z"/>
  </g>
  <g id="Regular-L" transform="matrix(1 0 0 1 1356.61 1556)">
   <path class="hierarchical-0:secondary SFSymbolsPreview4D4D4D" d="M26.3672 22.168L111.426 22.168Q116.26 22.168 118.994 19.9951Q121.729 17.8223 121.729 14.0625Q121.729 9.22852 119.385 3.88184Q117.041-1.46484 112.524-6.49414Q108.008-11.5234 101.562-15.6006Q95.1172-19.6777 86.8896-22.0703Q78.6621-24.4629 68.8965-24.4629Q59.1309-24.4629 50.9033-22.0703Q42.6758-19.6777 36.2305-15.6006Q29.7852-11.5234 25.293-6.49414Q20.8008-1.46484 18.4326 3.88184Q16.0645 9.22852 16.0645 14.0625Q16.0645 17.8223 18.8232 19.9951Q21.582 22.168 26.3672 22.168ZM68.9453-35.791Q75.7324-35.791 81.4209-39.4531Q87.1094-43.1152 90.5518-49.3896Q93.9941-55.6641 93.9941-63.5254Q93.9941-69.2383 91.9922-74.1455Q89.9902-79.0527 86.5234-82.7148Q83.0566-86.377 78.54-88.4277Q74.0234-90.4785 68.9453-90.4785Q63.916-90.4785 59.375-88.4033Q54.834-86.3281 51.3672-82.6416Q47.9004-78.9551 45.9229-74.0234Q43.9453-69.0918 43.9453-63.3789Q43.9453-55.6152 47.3633-49.3652Q50.7812-43.1152 56.4697-39.4531Q62.1582-35.791 68.9453-35.791Z"/>
   <path class="hierarchical-1:primary SFSymbolsPreview212121" d="M134.863-32.2754Q137.549-32.2754 139.209-34.7656L169.141-81.6895Q169.58-82.4707 169.995-83.3496Q170.41-84.2285 170.41-85.1074Q170.41-86.8652 169.067-87.9639Q167.725-89.0625 166.016-89.0625Q163.818-89.0625 162.256-86.6699L134.619-42.7246L120.85-59.9609Q119.922-61.2305 118.97-61.6699Q118.018-62.1094 116.943-62.1094Q115.186-62.1094 113.965-60.8887Q112.744-59.668 112.744-57.8613Q112.744-56.1523 114.014-54.4922L130.273-34.7656Q131.299-33.4473 132.397-32.8613Q133.496-32.2754 134.863-32.2754Z"/>
  </g>
  <g id="Light-L" transform="matrix(1 0 0 1 1059.85 1556)">
   <path class="hierarchical-0:secondary SFSymbolsPreview4D4D4D" d="M25.7324 21.8262L111.572 21.8262Q116.064 21.8262 118.652 19.7021Q121.24 17.5781 121.24 14.0625Q121.24 9.22852 118.896 3.90625Q116.553-1.41602 112.085-6.4209Q107.617-11.4258 101.196-15.4785Q94.7754-19.5312 86.5723-21.9238Q78.3691-24.3164 68.6523-24.3164Q58.9355-24.3164 50.7568-21.9238Q42.5781-19.5312 36.1572-15.4785Q29.7363-11.4258 25.2441-6.4209Q20.752-1.41602 18.4082 3.90625Q16.0645 9.22852 16.0645 14.0625Q16.0645 17.5781 18.6768 19.7021Q21.2891 21.8262 25.7324 21.8262ZM68.75-35.6445Q75.5859-35.6445 81.2012-39.2822Q86.8164-42.9199 90.1855-49.1455Q93.5547-55.3711 93.5547-63.1836Q93.5547-68.7988 91.6016-73.6572Q89.6484-78.5156 86.2305-82.1777Q82.8125-85.8398 78.3203-87.915Q73.8281-89.9902 68.75-89.9902Q63.6719-89.9902 59.1797-87.915Q54.6875-85.8398 51.2695-82.1533Q47.8516-78.4668 45.8984-73.584Q43.9453-68.7012 43.9941-63.0859Q43.9941-55.3711 47.3389-49.1455Q50.6836-42.9199 56.2988-39.2822Q61.9141-35.6445 68.75-35.6445Z"/>
   <path class="hierarchical-1:primary SFSymbolsPreview212121" d="M134.766-32.4707Q136.768-32.4707 138.086-34.3262L169.58-83.4473Q169.922-83.9844 170.215-84.668Q170.508-85.3516 170.508-85.9863Q170.508-87.3047 169.482-88.1836Q168.457-89.0625 167.139-89.0625Q165.479-89.0625 164.209-87.207L134.57-40.625L118.994-59.4238Q118.311-60.4004 117.578-60.7422Q116.846-61.084 115.967-61.084Q114.648-61.084 113.696-60.1318Q112.744-59.1797 112.744-57.8125Q112.744-56.4941 113.77-55.1758L131.299-34.3262Q132.08-33.3496 132.886-32.9102Q133.691-32.4707 134.766-32.4707Z"/>
  </g>
  <g id="Thin-L" transform="matrix(1 0 0 1 763.079 1556)">
   <path class="hierarchical-0:secondary SFSymbolsPreview4D4D4D" d="M24.9023 21.3379L111.768 21.3379Q115.771 21.3379 118.188 19.3115Q120.605 17.2852 120.605 14.0137Q120.605 9.22852 118.286 3.95508Q115.967-1.31836 111.523-6.32324Q107.08-11.3281 100.684-15.3564Q94.2871-19.3848 86.1328-21.7773Q77.9785-24.1699 68.3105-24.1699Q58.6914-24.1699 50.5371-21.7773Q42.3828-19.3848 36.0107-15.3564Q29.6387-11.3281 25.1953-6.32324Q20.752-1.31836 18.4082 3.95508Q16.0645 9.22852 16.0645 14.0137Q16.0645 17.2852 18.4814 19.3115Q20.8984 21.3379 24.9023 21.3379ZM68.5059-35.498Q75.3906-35.498 80.9326-39.0869Q86.4746-42.6758 89.6973-48.8525Q92.9199-55.0293 92.9199-62.7441Q92.9199-68.1641 91.04-72.998Q89.1602-77.832 85.8154-81.5186Q82.4707-85.2051 78.0273-87.3047Q73.584-89.4043 68.5059-89.4043Q63.3789-89.4043 58.9355-87.3047Q54.4922-85.2051 51.123-81.4941Q47.7539-77.7832 45.874-72.9736Q43.9941-68.1641 44.043-62.6953Q44.043-55.0293 47.2656-48.8525Q50.4883-42.6758 56.0303-39.0869Q61.5723-35.498 68.5059-35.498Z"/>
   <path class="hierarchical-1:primary SFSymbolsPreview212121" d="M134.668-32.7148Q135.693-32.7148 136.621-33.7402L170.166-85.7422Q170.312-86.0352 170.459-86.4258Q170.605-86.8164 170.605-87.1582Q170.605-87.9395 169.995-88.501Q169.385-89.0625 168.652-89.0625Q167.676-89.0625 166.846-87.9883L134.57-37.8418L116.504-58.7891Q116.162-59.2773 115.698-59.4727Q115.234-59.668 114.697-59.668Q113.965-59.668 113.354-59.1309Q112.744-58.5938 112.744-57.7148Q112.744-56.9824 113.428-56.0547L132.666-33.7402Q133.105-33.2031 133.545-32.959Q133.984-32.7148 134.668-32.7148Z"/>
  </g>
  <g id="Ultralight-L" transform="matrix(1 0 0 1 466.338 1556)">
   <path class="hierarchical-0:secondary SFSymbolsPreview4D4D4D" d="M24.4629 21.0938L111.865 21.0938Q115.625 21.0938 117.944 19.1162Q120.264 17.1387 120.264 14.0137Q120.264 9.22852 117.944 3.97949Q115.625-1.26953 111.206-6.25Q106.787-11.2305 100.415-15.2588Q94.043-19.2871 85.9131-21.6797Q77.7832-24.0723 68.1641-24.0723Q58.5449-24.0723 50.4395-21.6797Q42.334-19.2871 35.9619-15.2588Q29.5898-11.2305 25.1465-6.25Q20.7031-1.26953 18.3838 3.97949Q16.0645 9.22852 16.0645 14.0137Q16.0645 17.1387 18.3838 19.1162Q20.7031 21.0938 24.4629 21.0938ZM68.3594-35.4004Q75.293-35.4004 80.7861-38.9893Q86.2793-42.5781 89.4531-48.7061Q92.627-54.834 92.627-62.5488Q92.627-67.8711 90.7715-72.6562Q88.916-77.4414 85.5957-81.1279Q82.2754-84.8145 77.8564-86.9385Q73.4375-89.0625 68.3594-89.0625Q63.2324-89.0625 58.8135-86.9629Q54.3945-84.8633 51.0498-81.1523Q47.7051-77.4414 45.8496-72.6562Q43.9941-67.8711 44.0918-62.5Q44.0918-54.834 47.2656-48.7061Q50.4395-42.5781 55.9326-38.9893Q61.4258-35.4004 68.3594-35.4004Z"/>
   <path class="hierarchical-1:primary SFSymbolsPreview212121" d="M134.57-32.8125Q135.156-32.8125 135.84-33.4473L170.459-86.9141Q170.557-87.0605 170.63-87.3291Q170.703-87.5977 170.703-87.7441Q170.703-88.2324 170.288-88.6475Q169.873-89.0625 169.434-89.0625Q168.799-89.0625 168.164-88.3301L134.521-36.4258L115.283-58.3984Q115.039-58.6914 114.746-58.8379Q114.453-58.9844 114.014-58.9844Q113.574-58.9844 113.159-58.6182Q112.744-58.252 112.744-57.666Q112.744-57.1777 113.232-56.4941L133.35-33.4473Q133.594-33.1055 133.862-32.959Q134.131-32.8125 134.57-32.8125Z"/>
  </g>
  <g id="Black-M" transform="matrix(1 0 0 1 2861.01 1126)">
   <path class="hierarchical-0:secondary SFSymbolsPreview4D4D4D" d="M23.1445 10.8398L85.791 10.8398Q90.8203 10.8398 93.6279 8.49609Q96.4355 6.15234 96.4355 2.00195Q96.4355-2.63672 93.457-7.73926Q90.4785-12.8418 84.9365-17.2607Q79.3945-21.6797 71.6797-24.4385Q63.9648-27.1973 54.4434-27.1973Q44.9707-27.1973 37.2314-24.4385Q29.4922-21.6797 23.9502-17.2607Q18.4082-12.8418 15.4297-7.73926Q12.4512-2.63672 12.4512 2.00195Q12.4512 6.15234 15.2832 8.49609Q18.1152 10.8398 23.1445 10.8398ZM54.4434-35.5469Q60.2051-35.5469 64.8438-38.5254Q69.4824-41.5039 72.1924-46.5332Q74.9023-51.5625 74.9023-57.7637Q74.9023-63.623 72.168-68.6035Q69.4336-73.584 64.7949-76.5869Q60.1562-79.5898 54.4434-79.5898Q48.7793-79.5898 44.1162-76.5869Q39.4531-73.584 36.7188-68.6035Q33.9844-63.623 34.0332-57.7148Q34.0332-51.5625 36.7432-46.5332Q39.4531-41.5039 44.0674-38.5254Q48.6816-35.5469 54.4434-35.5469Z"/>
   <path class="hierarchical-1:primary SFSymbolsPreview212121" d="M105.273-31.3965Q109.082-31.3965 111.279-34.7168L130.908-64.3066Q131.641-65.332 131.982-66.3818Q132.324-67.4316 132.324-68.3594Q132.324-71.0449 130.322-72.7783Q128.32-74.5117 125.732-74.5117Q122.266-74.5117 120.02-70.8496L105.273-46.9238L98.6328-54.4922Q97.6562-55.6152 96.5088-56.2256Q95.3613-56.8359 93.8965-56.8359Q91.2598-56.8359 89.3311-54.9805Q87.4023-53.125 87.4023-50.4883Q87.4023-48.1934 89.2578-45.9961L99.1699-34.5215Q100.439-33.1055 101.929-32.251Q103.418-31.3965 105.273-31.3965Z"/>
  </g>
  <g id="Heavy-M" transform="matrix(1 0 0 1 2564.34 1126)">
   <path class="hierarchical-0:secondary SFSymbolsPreview4D4D4D" d="M22.6074 10.498L85.8887 10.498Q90.6738 10.498 93.335 8.30078Q95.9961 6.10352 95.9961 2.24609Q95.9961-2.44141 93.042-7.56836Q90.0879-12.6953 84.5947-17.1387Q79.1016-21.582 71.4355-24.3652Q63.7695-27.1484 54.248-27.1484Q44.7754-27.1484 37.0605-24.3652Q29.3457-21.582 23.8525-17.1387Q18.3594-12.6953 15.4053-7.56836Q12.4512-2.44141 12.4512 2.24609Q12.4512 6.10352 15.1367 8.30078Q17.8223 10.498 22.6074 10.498ZM54.248-35.5957Q59.8633-35.5957 64.4531-38.5498Q69.043-41.5039 71.7529-46.4844Q74.4629-51.4648 74.4629-57.666Q74.4629-63.5742 71.7529-68.4814Q69.043-73.3887 64.4287-76.3428Q59.8145-79.2969 54.248-79.2969Q48.6816-79.2969 44.0674-76.3428Q39.4531-73.3887 36.7188-68.457Q33.9844-63.5254 34.0332-57.6172Q34.0332-51.4648 36.7432-46.4844Q39.4531-41.5039 44.0186-38.5498Q48.584-35.5957 54.248-35.5957Z"/>
   <path class="hierarchical-1:primary SFSymbolsPreview212121" d="M105.127-31.7383Q108.594-31.7383 110.645-34.8145L130.908-65.7227Q131.543-66.6504 131.909-67.6514Q132.275-68.6523 132.275-69.5312Q132.275-71.9727 130.444-73.5352Q128.613-75.0977 126.27-75.0977Q123.145-75.0977 121.094-71.7773L105.078-45.8008L97.7051-54.541Q96.7773-55.6641 95.7031-56.2256Q94.6289-56.7871 93.2617-56.7871Q90.8691-56.7871 89.1357-55.1025Q87.4023-53.418 87.4023-51.0254Q87.4023-48.9258 89.0625-46.875L99.4629-34.668Q100.635-33.3008 102.026-32.5195Q103.418-31.7383 105.127-31.7383Z"/>
  </g>
  <g id="Bold-M" transform="matrix(1 0 0 1 2267.66 1126)">
   <path class="hierarchical-0:secondary SFSymbolsPreview4D4D4D" d="M21.9727 10.1562L86.0352 10.1562Q90.5273 10.1562 93.042 8.12988Q95.5566 6.10352 95.5566 2.49023Q95.5566-2.19727 92.627-7.34863Q89.6973-12.5 84.2529-16.9922Q78.8086-21.4844 71.167-24.292Q63.5254-27.0996 54.0039-27.0996Q44.5312-27.0996 36.8652-24.292Q29.1992-21.4844 23.7305-16.9922Q18.2617-12.5 15.3564-7.34863Q12.4512-2.19727 12.4512 2.49023Q12.4512 6.10352 14.9902 8.12988Q17.5293 10.1562 21.9727 10.1562ZM54.0039-35.6445Q59.5215-35.6445 64.0625-38.5742Q68.6035-41.5039 71.3135-46.46Q74.0234-51.416 74.0234-57.5684Q74.0234-63.4766 71.2891-68.3594Q68.5547-73.2422 64.0137-76.0986Q59.4727-78.9551 54.0039-78.9551Q48.584-78.9551 44.0186-76.0742Q39.4531-73.1934 36.7432-68.3105Q34.0332-63.4277 34.0332-57.4707Q34.0332-51.3672 36.7432-46.4355Q39.4531-41.5039 43.9941-38.5742Q48.5352-35.6445 54.0039-35.6445Z"/>
   <path class="hierarchical-1:primary SFSymbolsPreview212121" d="M104.932-32.1289Q108.105-32.1289 109.912-34.9121L130.908-67.2852Q131.494-68.1641 131.836-69.0918Q132.178-70.0195 132.178-70.8984Q132.178-73.0469 130.566-74.3896Q128.955-75.7324 126.904-75.7324Q124.17-75.7324 122.363-72.8027L104.834-44.5801L96.7285-54.5898Q95.8008-55.7617 94.7998-56.2744Q93.7988-56.7871 92.5293-56.7871Q90.4297-56.7871 88.916-55.2734Q87.4023-53.7598 87.4023-51.6602Q87.4023-49.7559 88.916-47.9004L99.8047-34.8145Q100.928-33.5449 102.173-32.8369Q103.418-32.1289 104.932-32.1289Z"/>
  </g>
  <g id="Semibold-M" transform="matrix(1 0 0 1 1970.98 1126)">
   <path class="hierarchical-0:secondary SFSymbolsPreview4D4D4D" d="M21.5332 9.91211L86.1328 9.91211Q90.3809 9.91211 92.7979 7.9834Q95.2148 6.05469 95.2148 2.68555Q95.2148-2.00195 92.3096-7.17773Q89.4043-12.3535 84.0088-16.8945Q78.6133-21.4355 70.9717-24.2432Q63.3301-27.0508 53.8086-27.0508Q44.3359-27.0508 36.6943-24.2432Q29.0527-21.4355 23.6328-16.8945Q18.2129-12.3535 15.332-7.17773Q12.4512-2.00195 12.4512 2.68555Q12.4512 6.05469 14.8682 7.9834Q17.2852 9.91211 21.5332 9.91211ZM53.8574-35.6934Q59.2285-35.6934 63.7451-38.5742Q68.2617-41.4551 70.9717-46.3867Q73.6816-51.3184 73.6816-57.4707Q73.6816-63.4277 70.9473-68.2617Q68.2129-73.0957 63.7207-75.9033Q59.2285-78.7109 53.8574-78.7109Q48.4863-78.7109 43.9697-75.8545Q39.4531-72.998 36.7432-68.1641Q34.0332-63.3301 34.0332-57.373Q34.0332-51.3184 36.7432-46.3867Q39.4531-41.4551 43.9453-38.5742Q48.4375-35.6934 53.8574-35.6934Z"/>
   <path class="hierarchical-1:primary SFSymbolsPreview212121" d="M104.785-32.373Q107.715-32.373 109.424-34.9609L130.859-68.3594Q131.396-69.1406 131.763-70.0439Q132.129-70.9473 132.129-71.7773Q132.129-73.7305 130.664-74.9512Q129.199-76.1719 127.344-76.1719Q124.854-76.1719 123.193-73.5352L104.688-43.75L95.9961-54.6387Q95.0684-55.7617 94.1406-56.25Q93.2129-56.7383 92.041-56.7383Q90.1367-56.7383 88.7695-55.3711Q87.4023-54.0039 87.4023-52.0508Q87.4023-50.293 88.7695-48.584L100.049-34.9121Q101.074-33.6914 102.222-33.0322Q103.369-32.373 104.785-32.373Z"/>
  </g>
  <g id="Medium-M" transform="matrix(1 0 0 1 1674.29 1126)">
   <path class="hierarchical-0:secondary SFSymbolsPreview4D4D4D" d="M21.2402 9.7168L86.1816 9.7168Q90.2832 9.7168 92.627 7.88574Q94.9707 6.05469 94.9707 2.7832Q94.9707-1.85547 92.0898-7.08008Q89.209-12.3047 83.8135-16.8213Q78.418-21.3379 70.8008-24.1943Q63.1836-27.0508 53.6621-27.0508Q44.1895-27.0508 36.5723-24.1943Q28.9551-21.3379 23.5596-16.8213Q18.1641-12.3047 15.3076-7.08008Q12.4512-1.85547 12.4512 2.7832Q12.4512 6.05469 14.7705 7.88574Q17.0898 9.7168 21.2402 9.7168ZM53.7109-35.6934Q59.0332-35.6934 63.5254-38.5742Q68.0176-41.4551 70.7275-46.3623Q73.4375-51.2695 73.4375-57.4219Q73.4375-63.3789 70.7031-68.1885Q67.9688-72.998 63.501-75.7812Q59.0332-78.5645 53.7109-78.5645Q48.4375-78.5645 43.9453-75.7324Q39.4531-72.9004 36.7432-68.0908Q34.0332-63.2812 34.0332-57.3242Q34.0332-51.2207 36.7432-46.3379Q39.4531-41.4551 43.9209-38.5742Q48.3887-35.6934 53.7109-35.6934Z"/>
   <path class="hierarchical-1:primary SFSymbolsPreview212121" d="M104.736-32.6172Q107.422-32.6172 109.033-35.0586L130.859-69.1895Q131.348-69.9219 131.714-70.7764Q132.08-71.6309 132.08-72.4609Q132.08-74.2676 130.713-75.3906Q129.346-76.5137 127.637-76.5137Q125.342-76.5137 123.828-74.0723L104.541-43.0664L95.459-54.6387Q94.5801-55.8105 93.6768-56.2744Q92.7734-56.7383 91.6504-56.7383Q89.8926-56.7383 88.6475-55.4443Q87.4023-54.1504 87.4023-52.3926Q87.4023-50.7324 88.6719-49.0723L100.195-35.0098Q101.221-33.7891 102.295-33.2031Q103.369-32.6172 104.736-32.6172Z"/>
  </g>
  <g id="Regular-M" transform="matrix(1 0 0 1 1377.6 1126)">
   <path class="hierarchical-0:secondary SFSymbolsPreview4D4D4D" d="M20.8008 9.47266L86.2793 9.47266Q90.1855 9.47266 92.4072 7.73926Q94.6289 6.00586 94.6289 2.97852Q94.6289-1.70898 91.7725-6.93359Q88.916-12.1582 83.5693-16.7236Q78.2227-21.2891 70.6299-24.1455Q63.0371-27.002 53.5156-27.002Q44.043-27.002 36.4502-24.1455Q28.8574-21.2891 23.4863-16.7236Q18.1152-12.1582 15.2832-6.93359Q12.4512-1.70898 12.4512 2.97852Q12.4512 6.00586 14.6729 7.73926Q16.8945 9.47266 20.8008 9.47266ZM53.5645-35.7422Q58.7891-35.7422 63.2324-38.5986Q67.6758-41.4551 70.3857-46.3379Q73.0957-51.2207 73.0957-57.3242Q73.0957-63.3301 70.3857-68.0908Q67.6758-72.8516 63.2324-75.5859Q58.7891-78.3203 53.5645-78.3203Q48.3398-78.3203 43.8965-75.5371Q39.4531-72.7539 36.7432-67.9688Q34.0332-63.1836 34.0332-57.2266Q34.0332-51.1719 36.7432-46.3135Q39.4531-41.4551 43.8965-38.5986Q48.3398-35.7422 53.5645-35.7422Z"/>
   <path class="hierarchical-1:primary SFSymbolsPreview212121" d="M104.59-32.8613Q107.08-32.8613 108.545-35.1074L130.859-70.2637Q131.299-70.9473 131.665-71.7529Q132.031-72.5586 132.031-73.3887Q132.031-75 130.811-75.9766Q129.59-76.9531 128.076-76.9531Q126.025-76.9531 124.658-74.7559L104.395-42.2363L94.7754-54.6875Q93.8965-55.8594 93.042-56.2744Q92.1875-56.6895 91.1621-56.6895Q89.5996-56.6895 88.501-55.542Q87.4023-54.3945 87.4023-52.7832Q87.4023-51.2695 88.5254-49.7559L100.439-35.1074Q101.367-33.9355 102.368-33.3984Q103.369-32.8613 104.59-32.8613Z"/>
  </g>
  <g id="Light-M" transform="matrix(1 0 0 1 1080.85 1126)">
   <path class="hierarchical-0:secondary SFSymbolsPreview4D4D4D" d="M20.2148 9.13086L86.4258 9.13086Q89.9902 9.13086 92.0898 7.4707Q94.1895 5.81055 94.1895 2.97852Q94.1895-1.70898 91.3574-6.90918Q88.5254-12.1094 83.2031-16.6504Q77.8809-21.1914 70.3125-24.0234Q62.7441-26.8555 53.3203-26.8555Q43.8965-26.8555 36.3281-24.0234Q28.7598-21.1914 23.4131-16.6504Q18.0664-12.1094 15.2588-6.90918Q12.4512-1.70898 12.4512 2.97852Q12.4512 5.81055 14.5508 7.4707Q16.6504 9.13086 20.2148 9.13086ZM53.3691-35.6445Q58.6426-35.6445 63.0371-38.4766Q67.4316-41.3086 70.0684-46.1426Q72.7051-50.9766 72.7051-57.0312Q72.7051-62.8906 70.0439-67.627Q67.3828-72.3633 63.0127-75.1221Q58.6426-77.8809 53.3691-77.8809Q48.1445-77.8809 43.75-75.0977Q39.3555-72.3145 36.6943-67.5537Q34.0332-62.793 34.082-56.9824Q34.082-50.9277 36.7188-46.1182Q39.3555-41.3086 43.7256-38.4766Q48.0957-35.6445 53.3691-35.6445Z"/>
   <path class="hierarchical-1:primary SFSymbolsPreview212121" d="M104.492-33.0078Q106.348-33.0078 107.568-34.7168L131.25-71.8262Q131.592-72.3145 131.86-72.9248Q132.129-73.5352 132.129-74.1699Q132.129-75.3906 131.177-76.1719Q130.225-76.9531 129.053-76.9531Q127.539-76.9531 126.416-75.293L104.346-40.3809L93.1152-54.248Q92.4316-55.127 91.7725-55.4199Q91.1133-55.7129 90.332-55.7129Q89.1113-55.7129 88.2568-54.8584Q87.4023-54.0039 87.4023-52.7344Q87.4023-51.6113 88.2812-50.3418L101.367-34.7168Q102.051-33.8379 102.808-33.4229Q103.564-33.0078 104.492-33.0078Z"/>
  </g>
  <g id="Thin-M" transform="matrix(1 0 0 1 784.093 1126)">
   <path class="hierarchical-0:secondary SFSymbolsPreview4D4D4D" d="M19.4824 8.69141L86.5723 8.69141Q89.7461 8.69141 91.6748 7.12891Q93.6035 5.56641 93.6035 2.92969Q93.6035-1.70898 90.7959-6.86035Q87.9883-12.0117 82.6904-16.5283Q77.3926-21.0449 69.8975-23.877Q62.4023-26.709 53.0273-26.709Q43.6523-26.709 36.1572-23.877Q28.6621-21.0449 23.3643-16.5283Q18.0664-12.0117 15.2588-6.86035Q12.4512-1.70898 12.4512 2.92969Q12.4512 5.56641 14.3799 7.12891Q16.3086 8.69141 19.4824 8.69141ZM53.125-35.4492Q58.4961-35.4492 62.793-38.2568Q67.0898-41.0645 69.6289-45.8496Q72.168-50.6348 72.168-56.6406Q72.168-62.3047 69.6045-67.0166Q67.041-71.7285 62.7197-74.5361Q58.3984-77.3438 53.125-77.3438Q47.9004-77.3438 43.5547-74.5117Q39.209-71.6797 36.6455-66.9678Q34.082-62.2559 34.082-56.6406Q34.082-50.6348 36.6211-45.8496Q39.1602-41.0645 43.4814-38.2568Q47.8027-35.4492 53.125-35.4492Z"/>
   <path class="hierarchical-1:primary SFSymbolsPreview212121" d="M104.395-33.252Q105.42-33.252 106.201-34.1797L131.787-73.877Q131.934-74.1699 132.08-74.5361Q132.227-74.9023 132.227-75.1953Q132.227-75.9277 131.665-76.4404Q131.104-76.9531 130.42-76.9531Q129.492-76.9531 128.76-75.9277L104.346-37.8906L90.8691-53.6133Q90.5273-54.1016 90.1123-54.2969Q89.6973-54.4922 89.209-54.4922Q88.4766-54.4922 87.9395-53.9795Q87.4023-53.4668 87.4023-52.6855Q87.4023-52.002 87.9883-51.1719L102.539-34.1797Q102.93-33.6914 103.369-33.4717Q103.809-33.252 104.395-33.252Z"/>
  </g>
  <g id="Ultralight-M" transform="matrix(1 0 0 1 487.356 1126)">
   <path class="hierarchical-0:secondary SFSymbolsPreview4D4D4D" d="M19.0918 8.49609L86.6699 8.49609Q89.6484 8.49609 91.4795 6.95801Q93.3105 5.41992 93.3105 2.92969Q93.3105-1.70898 90.5273-6.83594Q87.7441-11.9629 82.4707-16.4551Q77.1973-20.9473 69.7021-23.7793Q62.207-26.6113 52.8809-26.6113Q43.5547-26.6113 36.0596-23.7793Q28.5645-20.9473 23.291-16.4551Q18.0176-11.9629 15.2344-6.83594Q12.4512-1.70898 12.4512 2.92969Q12.4512 5.41992 14.2822 6.95801Q16.1133 8.49609 19.0918 8.49609ZM53.0273-35.4004Q58.3984-35.4004 62.6465-38.1836Q66.8945-40.9668 69.3848-45.7275Q71.875-50.4883 71.875-56.3965Q71.875-62.0117 69.3604-66.6992Q66.8457-71.3867 62.5732-74.2188Q58.3008-77.0508 53.0273-77.0508Q47.7539-77.0508 43.4326-74.2188Q39.1113-71.3867 36.5967-66.6992Q34.082-62.0117 34.1309-56.4453Q34.1309-50.4883 36.6211-45.7275Q39.1113-40.9668 43.3838-38.1836Q47.6562-35.4004 53.0273-35.4004Z"/>
   <path class="hierarchical-1:primary SFSymbolsPreview212121" d="M104.346-33.3496Q104.932-33.3496 105.566-33.9355L132.031-74.9512Q132.129-75.0977 132.202-75.3174Q132.275-75.5371 132.275-75.7324Q132.275-76.1719 131.909-76.5625Q131.543-76.9531 131.055-76.9531Q130.518-76.9531 129.932-76.3184L104.297-36.6211L89.7461-53.3203Q89.5508-53.6133 89.2578-53.7109Q88.9648-53.8086 88.623-53.8086Q88.1348-53.8086 87.7686-53.4912Q87.4023-53.1738 87.4023-52.6367Q87.4023-52.2461 87.8418-51.5625L103.174-33.9355Q103.418-33.5938 103.687-33.4717Q103.955-33.3496 104.346-33.3496Z"/>
  </g>
  <g id="Black-S" transform="matrix(1 0 0 1 2876.69 696)">
   <path class="hierarchical-0:secondary SFSymbolsPreview4D4D4D" d="M18.2617 0.927734L67.1875 0.927734Q71.1914 0.927734 73.4375-0.952148Q75.6836-2.83203 75.6836-6.15234Q75.6836-9.76562 73.3398-13.7451Q70.9961-17.7246 66.6504-21.1914Q62.3047-24.6582 56.2256-26.8066Q50.1465-28.9551 42.7246-28.9551Q35.3027-28.9551 29.2236-26.8066Q23.1445-24.6582 18.7988-21.1914Q14.4531-17.7246 12.1094-13.7451Q9.76562-9.76562 9.76562-6.15234Q9.76562-2.83203 12.0117-0.952148Q14.2578 0.927734 18.2617 0.927734ZM42.7246-35.4492Q47.2656-35.4492 50.9033-37.793Q54.541-40.1367 56.665-44.0918Q58.7891-48.0469 58.7891-52.8809Q58.7891-57.4707 56.6406-61.377Q54.4922-65.2832 50.8545-67.6758Q47.2168-70.0684 42.7246-70.0684Q38.2324-70.0684 34.5703-67.6758Q30.9082-65.2832 28.7842-61.377Q26.6602-57.4707 26.6602-52.8809Q26.709-48.0469 28.8086-44.0918Q30.9082-40.1367 34.5459-37.793Q38.1836-35.4492 42.7246-35.4492Z"/>
   <path class="hierarchical-1:primary SFSymbolsPreview212121" d="M82.5195-32.1289Q85.5469-32.1289 87.3047-34.7656L102.588-57.666Q103.174-58.4961 103.418-59.3262Q103.662-60.1562 103.662-60.8887Q103.662-63.0371 102.075-64.4287Q100.488-65.8203 98.3887-65.8203Q95.6055-65.8203 93.7988-62.8906L82.5195-44.6289L77.4414-50.293Q76.6602-51.123 75.7568-51.6113Q74.8535-52.0996 73.6816-52.0996Q71.582-52.0996 70.0195-50.6348Q68.457-49.1699 68.457-47.0215Q68.457-45.166 69.9707-43.4082L77.6367-34.6191Q78.6133-33.4961 79.8096-32.8125Q81.0059-32.1289 82.5195-32.1289Z"/>
  </g>
  <g id="Heavy-S" transform="matrix(1 0 0 1 2580.01 696)">
   <path class="hierarchical-0:secondary SFSymbolsPreview4D4D4D" d="M17.8711 0.683594L67.2852 0.683594Q71.0938 0.683594 73.2422-1.07422Q75.3906-2.83203 75.3906-5.95703Q75.3906-9.57031 73.0713-13.5742Q70.752-17.5781 66.4307-21.0938Q62.1094-24.6094 56.0547-26.7822Q50-28.9551 42.5781-28.9551Q35.1074-28.9551 29.0771-26.7822Q23.0469-24.6094 18.7256-21.0938Q14.4043-17.5781 12.085-13.5742Q9.76562-9.57031 9.76562-5.95703Q9.76562-2.83203 11.9141-1.07422Q14.0625 0.683594 17.8711 0.683594ZM42.5781-35.498Q47.0215-35.498 50.6104-37.8174Q54.1992-40.1367 56.3477-44.0674Q58.4961-47.998 58.4961-52.832Q58.4961-57.4707 56.3477-61.3281Q54.1992-65.1855 50.5859-67.5293Q46.9727-69.873 42.5781-69.873Q38.1836-69.873 34.5459-67.5293Q30.9082-65.1855 28.7842-61.3037Q26.6602-57.4219 26.6602-52.832Q26.709-47.998 28.8086-44.0674Q30.9082-40.1367 34.5215-37.8174Q38.1348-35.498 42.5781-35.498Z"/>
   <path class="hierarchical-1:primary SFSymbolsPreview212121" d="M82.373-32.4219Q85.2051-32.4219 86.8652-34.9121L102.539-58.6914Q103.076-59.4727 103.345-60.2539Q103.613-61.0352 103.613-61.8164Q103.613-63.7695 102.124-65.0391Q100.635-66.3086 98.7305-66.3086Q96.1914-66.3086 94.5312-63.623L82.3242-43.9453L76.8555-50.3906Q76.0742-51.2695 75.2197-51.7334Q74.3652-52.1973 73.2422-52.1973Q71.2891-52.1973 69.873-50.8301Q68.457-49.4629 68.457-47.5098Q68.457-45.752 69.8242-44.0918L77.7832-34.8145Q78.7109-33.6914 79.834-33.0566Q80.957-32.4219 82.373-32.4219Z"/>
  </g>
  <g id="Bold-S" transform="matrix(1 0 0 1 2283.34 696)">
   <path class="hierarchical-0:secondary SFSymbolsPreview4D4D4D" d="M17.4316 0.439453L67.3828 0.439453Q70.9961 0.439453 73.0225-1.19629Q75.0488-2.83203 75.0488-5.71289Q75.0488-9.375 72.7539-13.4277Q70.459-17.4805 66.1865-20.9961Q61.9141-24.5117 55.8838-26.709Q49.8535-28.9062 42.3828-28.9062Q34.9609-28.9062 28.9307-26.709Q22.9004-24.5117 18.6279-20.9961Q14.3555-17.4805 12.0605-13.4277Q9.76562-9.375 9.76562-5.71289Q9.76562-2.83203 11.792-1.19629Q13.8184 0.439453 17.4316 0.439453ZM42.3828-35.5957Q46.7285-35.5957 50.293-37.8906Q53.8574-40.1855 56.0059-44.0918Q58.1543-47.998 58.1543-52.7832Q58.1543-57.4707 56.0059-61.3037Q53.8574-65.1367 50.2686-67.3828Q46.6797-69.6289 42.3828-69.6289Q38.1348-69.6289 34.5459-67.3584Q30.957-65.0879 28.8086-61.2549Q26.6602-57.4219 26.6602-52.7344Q26.709-47.9492 28.833-44.0674Q30.957-40.1855 34.5215-37.8906Q38.0859-35.5957 42.3828-35.5957Z"/>
   <path class="hierarchical-1:primary SFSymbolsPreview212121" d="M82.2754-32.7148Q84.8633-32.7148 86.4258-35.0586L102.441-59.8145Q102.93-60.5469 103.223-61.3037Q103.516-62.0605 103.516-62.8418Q103.516-64.6484 102.173-65.7715Q100.83-66.8945 99.1211-66.8945Q96.8262-66.8945 95.3125-64.4531L82.1777-43.1641L76.2695-50.5371Q75.4883-51.4648 74.6338-51.8799Q73.7793-52.2949 72.7539-52.2949Q70.9961-52.2949 69.7266-51.0498Q68.457-49.8047 68.457-48.0469Q68.457-46.3867 69.7266-44.873L77.9297-35.0098Q78.8574-33.8867 79.9072-33.3008Q80.957-32.7148 82.2754-32.7148Z"/>
  </g>
  <g id="Semibold-S" transform="matrix(1 0 0 1 1986.65 696)">
   <path class="hierarchical-0:secondary SFSymbolsPreview4D4D4D" d="M17.0898 0.244141L67.4316 0.244141Q70.8984 0.244141 72.8516-1.29395Q74.8047-2.83203 74.8047-5.56641Q74.8047-9.22852 72.5098-13.2812Q70.2148-17.334 65.9668-20.8984Q61.7188-24.4629 55.7129-26.6846Q49.707-28.9062 42.2363-28.9062Q34.8145-28.9062 28.8086-26.6846Q22.8027-24.4629 18.5547-20.8984Q14.3066-17.334 12.0361-13.2812Q9.76562-9.22852 9.76562-5.56641Q9.76562-2.83203 11.6943-1.29395Q13.623 0.244141 17.0898 0.244141ZM42.2363-35.5957Q46.4844-35.5957 50.0488-37.8906Q53.6133-40.1855 55.7617-44.0674Q57.9102-47.9492 57.9102-52.7344Q57.9102-57.4707 55.7617-61.2549Q53.6133-65.0391 50.0488-67.2607Q46.4844-69.4824 42.2363-69.4824Q38.0859-69.4824 34.5215-67.2363Q30.957-64.9902 28.8086-61.1816Q26.6602-57.373 26.6602-52.6855Q26.6602-47.9004 28.8086-44.043Q30.957-40.1855 34.4971-37.8906Q38.0371-35.5957 42.2363-35.5957Z"/>
   <path class="hierarchical-1:primary SFSymbolsPreview212121" d="M82.1289-32.9102Q84.6191-32.9102 86.084-35.1562L102.393-60.5469Q102.832-61.2793 103.149-62.0117Q103.467-62.7441 103.467-63.5254Q103.467-65.1855 102.222-66.2109Q100.977-67.2363 99.3652-67.2363Q97.2168-67.2363 95.8496-64.9902L82.0312-42.5781L75.8301-50.5859Q75.0488-51.5625 74.2188-51.9531Q73.3887-52.3438 72.4121-52.3438Q70.8008-52.3438 69.6289-51.1963Q68.457-50.0488 68.457-48.3887Q68.457-46.8262 69.5801-45.4102L78.0273-35.1074Q78.9062-33.9844 79.9072-33.4473Q80.9082-32.9102 82.1289-32.9102Z"/>
  </g>
  <g id="Medium-S" transform="matrix(1 0 0 1 1689.96 696)">
   <path class="hierarchical-0:secondary SFSymbolsPreview4D4D4D" d="M16.8457 0.146484L67.4805 0.146484Q70.8496 0.146484 72.7295-1.34277Q74.6094-2.83203 74.6094-5.41992Q74.6094-9.13086 72.3389-13.208Q70.0684-17.2852 65.8447-20.8496Q61.6211-24.4141 55.6152-26.6357Q49.6094-28.8574 42.1875-28.8574Q34.7168-28.8574 28.7354-26.6357Q22.7539-24.4141 18.5303-20.8496Q14.3066-17.2852 12.0361-13.208Q9.76562-9.13086 9.76562-5.41992Q9.76562-2.83203 11.6211-1.34277Q13.4766 0.146484 16.8457 0.146484ZM42.1875-35.6445Q46.3379-35.6445 49.8779-37.915Q53.418-40.1855 55.5664-44.0674Q57.7148-47.9492 57.7148-52.7344Q57.7148-57.4707 55.5664-61.2305Q53.418-64.9902 49.8779-67.1631Q46.3379-69.3359 42.1875-69.3359Q38.0371-69.3359 34.4971-67.1387Q30.957-64.9414 28.8086-61.1572Q26.6602-57.373 26.6602-52.6367Q26.6602-47.9004 28.8086-44.043Q30.957-40.1855 34.4971-37.915Q38.0371-35.6445 42.1875-35.6445Z"/>
   <path class="hierarchical-1:primary SFSymbolsPreview212121" d="M82.0801-33.1055Q84.4238-33.1055 85.8398-35.2539L102.344-61.1328Q102.783-61.8164 103.101-62.5488Q103.418-63.2812 103.418-64.0625Q103.418-65.625 102.222-66.5771Q101.025-67.5293 99.5605-67.5293Q97.5586-67.5293 96.2891-65.4297L81.9336-42.1875L75.4883-50.6348Q74.707-51.6602 73.9014-52.0508Q73.0957-52.4414 72.168-52.4414Q70.6055-52.4414 69.5312-51.3184Q68.457-50.1953 68.457-48.6816Q68.457-47.168 69.5312-45.8008L78.125-35.2051Q78.9551-34.082 79.9316-33.5938Q80.9082-33.1055 82.0801-33.1055Z"/>
  </g>
  <g id="Regular-S" transform="matrix(1 0 0 1 1393.28 696)">
   <path class="hierarchical-0:secondary SFSymbolsPreview4D4D4D" d="M16.5527-0.0488281L67.5293-0.0488281Q70.752-0.0488281 72.5586-1.44043Q74.3652-2.83203 74.3652-5.27344Q74.3652-8.98438 72.1191-13.0859Q69.873-17.1875 65.6738-20.7764Q61.4746-24.3652 55.4932-26.6113Q49.5117-28.8574 42.041-28.8574Q34.5703-28.8574 28.6133-26.6113Q22.6562-24.3652 18.457-20.7764Q14.2578-17.1875 12.0117-13.0859Q9.76562-8.98438 9.76562-5.27344Q9.76562-2.83203 11.5479-1.44043Q13.3301-0.0488281 16.5527-0.0488281ZM42.041-35.6934Q46.1426-35.6934 49.6582-37.9395Q53.1738-40.1855 55.3223-44.043Q57.4707-47.9004 57.4707-52.6855Q57.4707-57.4707 55.3223-61.2061Q53.1738-64.9414 49.6582-67.0654Q46.1426-69.1895 42.041-69.1895Q37.9883-69.1895 34.4727-67.0166Q30.957-64.8438 28.8086-61.084Q26.6602-57.3242 26.6602-52.5879Q26.6602-47.8516 28.8086-44.0186Q30.957-40.1855 34.4727-37.9395Q37.9883-35.6934 42.041-35.6934Z"/>
   <path class="hierarchical-1:primary SFSymbolsPreview212121" d="M81.9824-33.3008Q84.1797-33.3008 85.498-35.3516L102.295-61.9141Q102.686-62.5488 103.027-63.2568Q103.369-63.9648 103.369-64.7461Q103.369-66.2109 102.271-67.0654Q101.172-67.9199 99.8047-67.9199Q97.998-67.9199 96.8262-65.9668L81.7871-41.6504L75.0488-50.7324Q74.2676-51.7578 73.4863-52.124Q72.7051-52.4902 71.8262-52.4902Q70.4102-52.4902 69.4336-51.4648Q68.457-50.4395 68.457-49.0234Q68.457-47.6074 69.4336-46.3379L78.2227-35.3516Q79.0527-34.2285 79.9561-33.7646Q80.8594-33.3008 81.9824-33.3008Z"/>
  </g>
  <g id="Light-S" transform="matrix(1 0 0 1 1096.53 696)">
   <path class="hierarchical-0:secondary SFSymbolsPreview4D4D4D" d="M16.0645-0.341797L67.627-0.341797Q70.6055-0.341797 72.29-1.68457Q73.9746-3.02734 73.9746-5.27344Q73.9746-8.98438 71.7529-13.0615Q69.5312-17.1387 65.332-20.7031Q61.1328-24.2676 55.2002-26.5137Q49.2676-28.7598 41.8457-28.7598Q34.4238-28.7598 28.4912-26.5137Q22.5586-24.2676 18.3838-20.7031Q14.209-17.1387 11.9873-13.0615Q9.76562-8.98438 9.76562-5.27344Q9.76562-3.02734 11.4502-1.68457Q13.1348-0.341797 16.0645-0.341797ZM41.8945-35.5957Q46.0449-35.5957 49.4873-37.8174Q52.9297-40.0391 55.0293-43.8477Q57.1289-47.6562 57.1289-52.4414Q57.1289-57.0801 55.0293-60.791Q52.9297-64.502 49.4629-66.6504Q45.9961-68.7988 41.8945-68.7988Q37.793-68.7988 34.3262-66.626Q30.8594-64.4531 28.7598-60.7178Q26.6602-56.9824 26.709-52.3438Q26.709-47.6562 28.7842-43.8477Q30.8594-40.0391 34.3262-37.8174Q37.793-35.5957 41.8945-35.5957Z"/>
   <path class="hierarchical-1:primary SFSymbolsPreview212121" d="M81.8848-33.4473Q83.5449-33.4473 84.6191-35.0098L102.637-63.2812Q102.93-63.7695 103.198-64.3066Q103.467-64.8438 103.467-65.4297Q103.467-66.5527 102.612-67.2363Q101.758-67.9199 100.684-67.9199Q99.3164-67.9199 98.3887-66.4062L81.7383-39.9902L73.584-50.293Q72.9492-51.0742 72.3633-51.3672Q71.7773-51.6602 71.0938-51.6602Q69.9707-51.6602 69.2139-50.8789Q68.457-50.0977 68.457-48.9746Q68.457-47.9004 69.2383-46.875L79.0039-35.0098Q79.6387-34.1309 80.3223-33.7891Q81.0059-33.4473 81.8848-33.4473Z"/>
  </g>
  <g id="Thin-S" transform="matrix(1 0 0 1 799.767 696)">
   <path class="hierarchical-0:secondary SFSymbolsPreview4D4D4D" d="M15.3809-0.732422L67.8223-0.732422Q70.4102-0.732422 71.9238-2.00195Q73.4375-3.27148 73.4375-5.32227Q73.4375-8.98438 71.2402-13.0371Q69.043-17.0898 64.8926-20.6299Q60.7422-24.1699 54.8584-26.3672Q48.9746-28.5645 41.6016-28.5645Q34.2773-28.5645 28.3691-26.3672Q22.4609-24.1699 18.335-20.6299Q14.209-17.0898 11.9873-13.0371Q9.76562-8.98438 9.76562-5.32227Q9.76562-3.27148 11.3037-2.00195Q12.8418-0.732422 15.3809-0.732422ZM41.6992-35.4492Q45.8496-35.4492 49.2432-37.6465Q52.6367-39.8438 54.6387-43.6035Q56.6406-47.3633 56.6406-52.0996Q56.6406-56.543 54.6143-60.2295Q52.5879-63.916 49.1943-66.1133Q45.8008-68.3105 41.6992-68.3105Q37.5488-68.3105 34.1553-66.1133Q30.7617-63.916 28.7354-60.2051Q26.709-56.4941 26.709-52.0508Q26.709-47.3633 28.7354-43.6035Q30.7617-39.8438 34.1553-37.6465Q37.5488-35.4492 41.6992-35.4492Z"/>
   <path class="hierarchical-1:primary SFSymbolsPreview212121" d="M81.7871-33.5938Q82.7148-33.5938 83.4473-34.5215L103.125-65.1367Q103.271-65.3809 103.418-65.6982Q103.564-66.0156 103.564-66.3574Q103.564-67.041 103.027-67.4805Q102.49-67.9199 101.855-67.9199Q101.074-67.9199 100.391-67.041L81.7383-37.793L71.582-49.7559Q71.2402-50.1953 70.874-50.3662Q70.5078-50.5371 70.0684-50.5371Q69.4336-50.5371 68.9453-50.0732Q68.457-49.6094 68.457-48.9258Q68.457-48.291 68.9941-47.5586L80.0781-34.5215Q80.4688-34.0332 80.8594-33.8135Q81.25-33.5938 81.7871-33.5938Z"/>
  </g>
  <g id="Ultralight-S" transform="matrix(1 0 0 1 503.03 696)">
   <path class="hierarchical-0:secondary SFSymbolsPreview4D4D4D" d="M15.0391-0.927734L67.8711-0.927734Q70.3125-0.927734 71.7529-2.14844Q73.1934-3.36914 73.1934-5.32227Q73.1934-8.98438 71.0205-13.0127Q68.8477-17.041 64.6729-20.5566Q60.498-24.0723 54.6631-26.2939Q48.8281-28.5156 41.5039-28.5156Q34.1797-28.5156 28.2959-26.2939Q22.4121-24.0723 18.2861-20.5566Q14.1602-17.041 11.9629-13.0127Q9.76562-8.98438 9.76562-5.32227Q9.76562-3.36914 11.2305-2.14844Q12.6953-0.927734 15.0391-0.927734ZM41.6016-35.3516Q45.8008-35.3516 49.1455-37.5488Q52.4902-39.7461 54.4434-43.4814Q56.3965-47.2168 56.3965-51.9043Q56.3965-56.2988 54.4189-59.9609Q52.4414-63.623 49.0723-65.8447Q45.7031-68.0664 41.6016-68.0664Q37.4512-68.0664 34.0576-65.8691Q30.6641-63.6719 28.6865-59.9854Q26.709-56.2988 26.7578-51.9043Q26.7578-47.2168 28.7109-43.4814Q30.6641-39.7461 34.0332-37.5488Q37.4023-35.3516 41.6016-35.3516Z"/>
   <path class="hierarchical-1:primary SFSymbolsPreview212121" d="M81.7383-33.6914Q82.3242-33.6914 82.8613-34.2773L103.369-66.0645Q103.467-66.2109 103.54-66.4307Q103.613-66.6504 103.613-66.8457Q103.613-67.2363 103.247-67.5781Q102.881-67.9199 102.49-67.9199Q101.953-67.9199 101.465-67.334L81.6895-36.6699L70.6055-49.4629Q70.3613-49.7559 70.1172-49.8779Q69.873-50 69.5801-50Q69.1406-50 68.7988-49.6826Q68.457-49.3652 68.457-48.877Q68.457-48.4863 68.8477-47.9492L80.6152-34.2773Q80.8594-33.9844 81.1035-33.8379Q81.3477-33.6914 81.7383-33.6914Z"/>
  </g>
 </g>
</svg>
