<?xml version="1.0" encoding="UTF-8"?>
<!--Generator: Apple Native CoreSVG 149-->
<!DOCTYPE svg
PUBLIC "-//W3C//DTD SVG 1.1//EN"
       "http://www.w3.org/Graphics/SVG/1.1/DTD/svg11.dtd">
<svg version="1.1" xmlns="http://www.w3.org/2000/svg" xmlns:xlink="http://www.w3.org/1999/xlink" width="3300" height="2200">
 <!--glyph: "uni100228.medium", point size: 100.0, font version: "17.0d9e1", template writer version: "59"-->
 <style>.hierarchical-0:secondary {fill:#4D4D4D}
.hierarchical-1:primary {fill:#212121}

.SFSymbolsPreview212121 {fill:#212121;opacity:1.0}
.SFSymbolsPreview4D4D4D {fill:#4D4D4D;opacity:1.0}
</style>
 <g id="Notes">
  <rect height="2200" id="artboard" style="fill:white;opacity:1" width="3300" x="0" y="0"/>
  <line style="fill:none;stroke:black;opacity:1;stroke-width:0.5;" x1="263" x2="3036" y1="292" y2="292"/>
  <text style="stroke:none;fill:black;font-family:sans-serif;font-size:13;font-weight:bold;" transform="matrix(1 0 0 1 263 322)">Weight/Scale Variations</text>
  <text style="stroke:none;fill:black;font-family:sans-serif;font-size:13;text-anchor:middle;" transform="matrix(1 0 0 1 559.711 322)">Ultralight</text>
  <text style="stroke:none;fill:black;font-family:sans-serif;font-size:13;text-anchor:middle;" transform="matrix(1 0 0 1 856.422 322)">Thin</text>
  <text style="stroke:none;fill:black;font-family:sans-serif;font-size:13;text-anchor:middle;" transform="matrix(1 0 0 1 1153.13 322)">Light</text>
  <text style="stroke:none;fill:black;font-family:sans-serif;font-size:13;text-anchor:middle;" transform="matrix(1 0 0 1 1449.84 322)">Regular</text>
  <text style="stroke:none;fill:black;font-family:sans-serif;font-size:13;text-anchor:middle;" transform="matrix(1 0 0 1 1746.56 322)">Medium</text>
  <text style="stroke:none;fill:black;font-family:sans-serif;font-size:13;text-anchor:middle;" transform="matrix(1 0 0 1 2043.27 322)">Semibold</text>
  <text style="stroke:none;fill:black;font-family:sans-serif;font-size:13;text-anchor:middle;" transform="matrix(1 0 0 1 2339.98 322)">Bold</text>
  <text style="stroke:none;fill:black;font-family:sans-serif;font-size:13;text-anchor:middle;" transform="matrix(1 0 0 1 2636.69 322)">Heavy</text>
  <text style="stroke:none;fill:black;font-family:sans-serif;font-size:13;text-anchor:middle;" transform="matrix(1 0 0 1 2933.4 322)">Black</text>
  <line style="fill:none;stroke:black;opacity:1;stroke-width:0.5;" x1="263" x2="3036" y1="1903" y2="1903"/>
  <g transform="matrix(1 0 0 1 263 1933)">
   <path d="M9.24805 0.830078Q10.8691 0.830078 12.2949 0.214844Q13.7207-0.400391 14.8096-1.49414Q15.8984-2.58789 16.5186-4.01367Q17.1387-5.43945 17.1387-7.05078Q17.1387-8.66211 16.5186-10.0879Q15.8984-11.5137 14.8047-12.6074Q13.7109-13.7012 12.2852-14.3164Q10.8594-14.9316 9.23828-14.9316Q7.62695-14.9316 6.20117-14.3164Q4.77539-13.7012 3.69141-12.6074Q2.60742-11.5137 1.9873-10.0879Q1.36719-8.66211 1.36719-7.05078Q1.36719-5.43945 1.9873-4.01367Q2.60742-2.58789 3.69629-1.49414Q4.78516-0.400391 6.21094 0.214844Q7.63672 0.830078 9.24805 0.830078ZM9.24805-0.654297Q7.91992-0.654297 6.7627-1.14746Q5.60547-1.64062 4.73145-2.51953Q3.85742-3.39844 3.36426-4.56055Q2.87109-5.72266 2.87109-7.05078Q2.87109-8.37891 3.35938-9.54102Q3.84766-10.7031 4.72168-11.582Q5.5957-12.4609 6.75293-12.9541Q7.91016-13.4473 9.23828-13.4473Q10.5762-13.4473 11.7334-12.9541Q12.8906-12.4609 13.7695-11.582Q14.6484-10.7031 15.1465-9.54102Q15.6445-8.37891 15.6445-7.05078Q15.6445-5.72266 15.1514-4.56055Q14.6582-3.39844 13.7842-2.51953Q12.9102-1.64062 11.748-1.14746Q10.5859-0.654297 9.24805-0.654297ZM5.83984-7.04102Q5.83984-6.71875 6.04492-6.51855Q6.25-6.31836 6.5918-6.31836L8.50586-6.31836L8.50586-4.39453Q8.50586-4.0625 8.70605-3.85742Q8.90625-3.65234 9.22852-3.65234Q9.56055-3.65234 9.76562-3.85742Q9.9707-4.0625 9.9707-4.39453L9.9707-6.31836L11.8945-6.31836Q12.2266-6.31836 12.4316-6.51855Q12.6367-6.71875 12.6367-7.04102Q12.6367-7.37305 12.4316-7.57812Q12.2266-7.7832 11.8945-7.7832L9.9707-7.7832L9.9707-9.69727Q9.9707-10.0391 9.76562-10.2441Q9.56055-10.4492 9.22852-10.4492Q8.90625-10.4492 8.70605-10.2441Q8.50586-10.0391 8.50586-9.69727L8.50586-7.7832L6.5918-7.7832Q6.25-7.7832 6.04492-7.57812Q5.83984-7.37305 5.83984-7.04102Z"/>
  </g>
  <g transform="matrix(1 0 0 1 281.867 1933)">
   <path d="M11.709 2.91016Q13.75 2.91016 15.5518 2.12891Q17.3535 1.34766 18.7305-0.0292969Q20.1074-1.40625 20.8887-3.20801Q21.6699-5.00977 21.6699-7.05078Q21.6699-9.0918 20.8887-10.8936Q20.1074-12.6953 18.7305-14.0723Q17.3535-15.4492 15.5469-16.2305Q13.7402-17.0117 11.6992-17.0117Q9.6582-17.0117 7.85645-16.2305Q6.05469-15.4492 4.68262-14.0723Q3.31055-12.6953 2.5293-10.8936Q1.74805-9.0918 1.74805-7.05078Q1.74805-5.00977 2.5293-3.20801Q3.31055-1.40625 4.6875-0.0292969Q6.06445 1.34766 7.86621 2.12891Q9.66797 2.91016 11.709 2.91016ZM11.709 1.25Q9.98047 1.25 8.47656 0.605469Q6.97266-0.0390625 5.83496-1.17676Q4.69727-2.31445 4.05762-3.81836Q3.41797-5.32227 3.41797-7.05078Q3.41797-8.7793 4.05762-10.2832Q4.69727-11.7871 5.83008-12.9297Q6.96289-14.0723 8.4668-14.7119Q9.9707-15.3516 11.6992-15.3516Q13.4277-15.3516 14.9316-14.7119Q16.4355-14.0723 17.5781-12.9297Q18.7207-11.7871 19.3652-10.2832Q20.0098-8.7793 20.0098-7.05078Q20.0098-5.32227 19.3701-3.81836Q18.7305-2.31445 17.5928-1.17676Q16.4551-0.0390625 14.9463 0.605469Q13.4375 1.25 11.709 1.25ZM7.39258-7.04102Q7.39258-6.68945 7.62695-6.46484Q7.86133-6.24023 8.23242-6.24023L10.8789-6.24023L10.8789-3.57422Q10.8789-3.21289 11.1035-2.9834Q11.3281-2.75391 11.6797-2.75391Q12.0508-2.75391 12.2852-2.9834Q12.5195-3.21289 12.5195-3.57422L12.5195-6.24023L15.1758-6.24023Q15.5371-6.24023 15.7715-6.46484Q16.0059-6.68945 16.0059-7.04102Q16.0059-7.41211 15.7715-7.6416Q15.5371-7.87109 15.1758-7.87109L12.5195-7.87109L12.5195-10.5176Q12.5195-10.8984 12.2852-11.1279Q12.0508-11.3574 11.6797-11.3574Q11.3281-11.3574 11.1035-11.1279Q10.8789-10.8984 10.8789-10.5176L10.8789-7.87109L8.23242-7.87109Q7.85156-7.87109 7.62207-7.6416Q7.39258-7.41211 7.39258-7.04102Z"/>
  </g>
  <g transform="matrix(1 0 0 1 305.646 1933)">
   <path d="M14.9707 5.66406Q17.0605 5.66406 18.96 5.01465Q20.8594 4.36523 22.4512 3.19336Q24.043 2.02148 25.2197 0.429688Q26.3965-1.16211 27.0459-3.06641Q27.6953-4.9707 27.6953-7.05078Q27.6953-9.14062 27.0459-11.04Q26.3965-12.9395 25.2197-14.5312Q24.043-16.123 22.4512-17.2998Q20.8594-18.4766 18.9551-19.126Q17.0508-19.7754 14.9609-19.7754Q12.8711-19.7754 10.9717-19.126Q9.07227-18.4766 7.48535-17.2998Q5.89844-16.123 4.72168-14.5312Q3.54492-12.9395 2.90039-11.04Q2.25586-9.14062 2.25586-7.05078Q2.25586-4.9707 2.90527-3.06641Q3.55469-1.16211 4.72656 0.429688Q5.89844 2.02148 7.49023 3.19336Q9.08203 4.36523 10.9814 5.01465Q12.8809 5.66406 14.9707 5.66406ZM14.9707 3.84766Q13.1641 3.84766 11.5283 3.2959Q9.89258 2.74414 8.53516 1.74805Q7.17773 0.751953 6.17676-0.610352Q5.17578-1.97266 4.62891-3.6084Q4.08203-5.24414 4.08203-7.05078Q4.08203-8.86719 4.62891-10.5029Q5.17578-12.1387 6.17188-13.501Q7.16797-14.8633 8.52539-15.8594Q9.88281-16.8555 11.5186-17.4023Q13.1543-17.9492 14.9609-17.9492Q16.7773-17.9492 18.4131-17.4023Q20.0488-16.8555 21.4111-15.8594Q22.7734-14.8633 23.7695-13.501Q24.7656-12.1387 25.3174-10.5029Q25.8691-8.86719 25.8691-7.05078Q25.8789-5.24414 25.332-3.6084Q24.7852-1.97266 23.7842-0.610352Q22.7832 0.751953 21.4209 1.74805Q20.0586 2.74414 18.4229 3.2959Q16.7871 3.84766 14.9707 3.84766ZM9.45312-7.04102Q9.45312-6.66016 9.71191-6.41113Q9.9707-6.16211 10.3711-6.16211L14.0625-6.16211L14.0625-2.46094Q14.0625-2.06055 14.3115-1.80664Q14.5605-1.55273 14.9414-1.55273Q15.3516-1.55273 15.6055-1.80664Q15.8594-2.06055 15.8594-2.46094L15.8594-6.16211L19.5605-6.16211Q19.9609-6.16211 20.2148-6.41113Q20.4688-6.66016 20.4688-7.04102Q20.4688-7.45117 20.2148-7.70508Q19.9609-7.95898 19.5605-7.95898L15.8594-7.95898L15.8594-11.6504Q15.8594-12.0605 15.6055-12.3145Q15.3516-12.5684 14.9414-12.5684Q14.5605-12.5684 14.3115-12.3096Q14.0625-12.0508 14.0625-11.6504L14.0625-7.95898L10.3711-7.95898Q9.96094-7.95898 9.70703-7.70508Q9.45312-7.45117 9.45312-7.04102Z"/>
  </g>
  <text style="stroke:none;fill:black;font-family:sans-serif;font-size:13;font-weight:bold;" transform="matrix(1 0 0 1 263 1953)">Design Variations</text>
  <text style="stroke:none;fill:black;font-family:sans-serif;font-size:13;" transform="matrix(1 0 0 1 263 1971)">Symbols are supported in up to nine weights and three scales.</text>
  <text style="stroke:none;fill:black;font-family:sans-serif;font-size:13;" transform="matrix(1 0 0 1 263 1989)">For optimal layout with text and other symbols, vertically align</text>
  <text style="stroke:none;fill:black;font-family:sans-serif;font-size:13;" transform="matrix(1 0 0 1 263 2007)">symbols with the adjacent text.</text>
  <line style="fill:none;stroke:#00AEEF;stroke-width:0.5;opacity:1.0;" x1="776" x2="776" y1="1919" y2="1933"/>
  <g transform="matrix(1 0 0 1 776 1933)">
   <path d="M3.31055 0.15625Q3.70117 0.15625 3.91602-0.00976562Q4.13086-0.175781 4.26758-0.585938L5.52734-4.0332L11.2891-4.0332L12.5488-0.585938Q12.6855-0.175781 12.9004-0.00976562Q13.1152 0.15625 13.4961 0.15625Q13.8867 0.15625 14.1162-0.0585938Q14.3457-0.273438 14.3457-0.644531Q14.3457-0.869141 14.2383-1.17188L9.6582-13.3691Q9.48242-13.8184 9.17969-14.043Q8.87695-14.2676 8.4082-14.2676Q7.5-14.2676 7.17773-13.3789L2.59766-1.16211Q2.49023-0.859375 2.49023-0.634766Q2.49023-0.263672 2.70996-0.0537109Q2.92969 0.15625 3.31055 0.15625ZM6.00586-5.51758L8.37891-12.0898L8.42773-12.0898L10.8008-5.51758Z"/>
  </g>
  <line style="fill:none;stroke:#00AEEF;stroke-width:0.5;opacity:1.0;" x1="793.197" x2="793.197" y1="1919" y2="1933"/>
  <text style="stroke:none;fill:black;font-family:sans-serif;font-size:13;font-weight:bold;" transform="matrix(1 0 0 1 776 1953)">Margins</text>
  <text style="stroke:none;fill:black;font-family:sans-serif;font-size:13;" transform="matrix(1 0 0 1 776 1971)">Leading and trailing margins on the left and right side of each symbol</text>
  <text style="stroke:none;fill:black;font-family:sans-serif;font-size:13;" transform="matrix(1 0 0 1 776 1989)">can be adjusted by modifying the x-location of the margin guidelines.</text>
  <text style="stroke:none;fill:black;font-family:sans-serif;font-size:13;" transform="matrix(1 0 0 1 776 2007)">Modifications are automatically applied proportionally to all</text>
  <text style="stroke:none;fill:black;font-family:sans-serif;font-size:13;" transform="matrix(1 0 0 1 776 2025)">scales and weights.</text>
  <g transform="matrix(1 0 0 1 1289 1933)">
   <path d="M2.8418 1.86523L4.54102 3.57422Q5.18555 4.22852 5.90332 4.17969Q6.62109 4.13086 7.31445 3.35938L18.0078-8.42773L17.041-9.4043L6.42578 2.27539Q6.16211 2.57812 5.89355 2.61719Q5.625 2.65625 5.27344 2.30469L4.10156 1.14258Q3.75 0.791016 3.79395 0.522461Q3.83789 0.253906 4.14062-0.0195312L15.6152-10.8203L14.6387-11.7871L3.04688-0.898438Q2.30469-0.214844 2.25098 0.498047Q2.19727 1.21094 2.8418 1.86523ZM9.25781-16.3281Q8.94531-16.0254 8.90625-15.6348Q8.86719-15.2441 9.04297-14.9512Q9.21875-14.6777 9.55566-14.541Q9.89258-14.4043 10.3809-14.5215Q11.4746-14.7754 12.5977-14.7314Q13.7207-14.6875 14.7949-13.9844L14.209-12.5293Q13.9551-11.9043 14.0674-11.4404Q14.1797-10.9766 14.5801-10.5664L16.875-8.25195Q17.2363-7.88086 17.5781-7.82227Q17.9199-7.76367 18.3398-7.8418L19.4043-8.03711L20.0684-7.36328L20.0293-6.80664Q20-6.43555 20.1221-6.12305Q20.2441-5.81055 20.6055-5.44922L21.3672-4.70703Q21.7285-4.3457 22.1533-4.33105Q22.5781-4.31641 22.9297-4.66797L25.8398-7.58789Q26.1914-7.93945 26.1816-8.35449Q26.1719-8.76953 25.8105-9.13086L25.0391-9.89258Q24.6875-10.2539 24.3799-10.3857Q24.0723-10.5176 23.7109-10.4883L23.1348-10.4395L22.4902-11.0742L22.7344-12.1973Q22.832-12.6172 22.6953-12.9834Q22.5586-13.3496 22.1191-13.7891L19.9219-15.9766Q18.6719-17.2168 17.2607-17.8369Q15.8496-18.457 14.4189-18.4814Q12.9883-18.5059 11.665-17.959Q10.3418-17.4121 9.25781-16.3281ZM10.752-15.957Q11.6602-16.6211 12.7002-16.9043Q13.7402-17.1875 14.8047-17.085Q15.8691-16.9824 16.8701-16.5137Q17.8711-16.0449 18.7012-15.2051L21.1328-12.793Q21.3086-12.6172 21.3525-12.4512Q21.3965-12.2852 21.3379-12.0312L21.0156-10.5469L22.5195-9.0625L23.5059-9.12109Q23.6914-9.13086 23.7891-9.09668Q23.8867-9.0625 24.0332-8.91602L24.6094-8.33984L22.168-5.89844L21.5918-6.47461Q21.4453-6.62109 21.4062-6.71875Q21.3672-6.81641 21.377-7.01172L21.4453-7.98828L19.9512-9.47266L18.4277-9.21875Q18.1836-9.16992 18.042-9.2041Q17.9004-9.23828 17.7148-9.41406L15.7129-11.416Q15.5176-11.5918 15.4932-11.7529Q15.4688-11.9141 15.5859-12.1875L16.4648-14.2773Q15.293-15.3711 13.8281-15.791Q12.3633-16.2109 10.8398-15.7617Q10.7227-15.7324 10.6885-15.8057Q10.6543-15.8789 10.752-15.957Z"/>
  </g>
  <text style="stroke:none;fill:black;font-family:sans-serif;font-size:13;font-weight:bold;" transform="matrix(1 0 0 1 1289 1953)">Exporting</text>
  <text style="stroke:none;fill:black;font-family:sans-serif;font-size:13;" transform="matrix(1 0 0 1 1289 1971)">Symbols should be outlined when exporting to ensure the</text>
  <text style="stroke:none;fill:black;font-family:sans-serif;font-size:13;" transform="matrix(1 0 0 1 1289 1989)">design is preserved when submitting to Xcode.</text>
  <text id="template-version" style="stroke:none;fill:black;font-family:sans-serif;font-size:13;text-anchor:end;" transform="matrix(1 0 0 1 3036 1933)">Template v.3.0</text>
  <text style="stroke:none;fill:black;font-family:sans-serif;font-size:13;text-anchor:end;" transform="matrix(1 0 0 1 3036 1951)">Requires Xcode 13 or greater</text>
  <text id="descriptive-name" style="stroke:none;fill:black;font-family:sans-serif;font-size:13;text-anchor:end;" transform="matrix(1 0 0 1 3036 1969)">Generated from tray.and.arrow.down.fill</text>
  <text style="stroke:none;fill:black;font-family:sans-serif;font-size:13;text-anchor:end;" transform="matrix(1 0 0 1 3036 1987)">Typeset at 100 points</text>
  <text style="stroke:none;fill:black;font-family:sans-serif;font-size:13;" transform="matrix(1 0 0 1 263 726)">Small</text>
  <text style="stroke:none;fill:black;font-family:sans-serif;font-size:13;" transform="matrix(1 0 0 1 263 1156)">Medium</text>
  <text style="stroke:none;fill:black;font-family:sans-serif;font-size:13;" transform="matrix(1 0 0 1 263 1586)">Large</text>
 </g>
 <g id="Guides">
  <g id="H-reference" style="fill:#27AAE1;stroke:none;" transform="matrix(1 0 0 1 339 696)">
   <path d="M0.993347 0L3.6377 0L29.3282-67.1326L30.0301-67.1326L30.0301-70.459L28.1227-70.459ZM11.6882-24.4797L46.9818-24.4797L46.2311-26.7288L12.4382-26.7288ZM55.1193 0L57.7637 0L30.6381-70.459L29.4327-70.459L29.4327-67.1326Z"/>
  </g>
  <line id="Baseline-S" style="fill:none;stroke:#27AAE1;opacity:1;stroke-width:0.5;" x1="263" x2="3036" y1="696" y2="696"/>
  <line id="Capline-S" style="fill:none;stroke:#27AAE1;opacity:1;stroke-width:0.5;" x1="263" x2="3036" y1="625.541" y2="625.541"/>
  <g id="H-reference" style="fill:#27AAE1;stroke:none;" transform="matrix(1 0 0 1 339 1126)">
   <path d="M0.993347 0L3.6377 0L29.3282-67.1326L30.0301-67.1326L30.0301-70.459L28.1227-70.459ZM11.6882-24.4797L46.9818-24.4797L46.2311-26.7288L12.4382-26.7288ZM55.1193 0L57.7637 0L30.6381-70.459L29.4327-70.459L29.4327-67.1326Z"/>
  </g>
  <line id="Baseline-M" style="fill:none;stroke:#27AAE1;opacity:1;stroke-width:0.5;" x1="263" x2="3036" y1="1126" y2="1126"/>
  <line id="Capline-M" style="fill:none;stroke:#27AAE1;opacity:1;stroke-width:0.5;" x1="263" x2="3036" y1="1055.54" y2="1055.54"/>
  <g id="H-reference" style="fill:#27AAE1;stroke:none;" transform="matrix(1 0 0 1 339 1556)">
   <path d="M0.993347 0L3.6377 0L29.3282-67.1326L30.0301-67.1326L30.0301-70.459L28.1227-70.459ZM11.6882-24.4797L46.9818-24.4797L46.2311-26.7288L12.4382-26.7288ZM55.1193 0L57.7637 0L30.6381-70.459L29.4327-70.459L29.4327-67.1326Z"/>
  </g>
  <line id="Baseline-L" style="fill:none;stroke:#27AAE1;opacity:1;stroke-width:0.5;" x1="263" x2="3036" y1="1556" y2="1556"/>
  <line id="Capline-L" style="fill:none;stroke:#27AAE1;opacity:1;stroke-width:0.5;" x1="263" x2="3036" y1="1485.54" y2="1485.54"/>
  <line id="left-margin-Regular-M" style="fill:none;stroke:#00AEEF;stroke-width:0.5;opacity:1.0;" x1="1379.82" x2="1379.82" y1="1030.79" y2="1150.12"/>
  <line id="right-margin-Regular-M" style="fill:none;stroke:#00AEEF;stroke-width:0.5;opacity:1.0;" x1="1519.86" x2="1519.86" y1="1030.79" y2="1150.12"/>
 </g>
 <g id="Symbols">
  <g id="Black-L" transform="matrix(1 0 0 1 2841.51 1556)">
   <path class="hierarchical-0:secondary SFSymbolsPreview4D4D4D" d="M39.9902 33.1055L143.799 33.1055Q155.225 33.1055 161.475 26.9043Q167.725 20.7031 167.725 9.32617L167.725-23.4863Q167.725-27.7344 167.383-30.7617Q167.041-33.7891 166.187-36.3525Q165.332-38.916 163.672-41.8457L145.557-73.3398Q141.895-79.7852 138.135-83.3496Q134.375-86.9141 129.712-88.3301Q125.049-89.7461 118.604-89.7461L112.109-89.7461L112.109-74.6094L118.896-74.6094Q121.68-74.6094 124.121-72.9248Q126.562-71.2402 127.979-68.7988L146.289-34.6191Q147.168-33.252 146.704-32.4707Q146.24-31.6895 144.336-31.6895L111.035-31.6895Q107.764-31.6895 106.421-30.249Q105.078-28.8086 105.078-26.8066L105.078-26.6113Q105.078-23.5352 103.54-20.4834Q102.002-17.4316 99.0723-15.3809Q96.1426-13.3301 91.8945-13.3301Q87.6465-13.3301 84.6924-15.3809Q81.7383-17.4316 80.2246-20.4834Q78.7109-23.5352 78.7109-26.6113L78.7109-26.8066Q78.7109-28.8086 77.3438-30.249Q75.9766-31.6895 72.7539-31.6895L39.4531-31.6895Q37.5488-31.6895 37.1094-32.4951Q36.6699-33.3008 37.5-34.6191L55.8105-68.7988Q57.1777-71.2402 59.6191-72.9248Q62.0605-74.6094 64.8926-74.6094L71.6797-74.6094L71.6797-89.7461L65.1367-89.7461Q58.6914-89.7461 54.0283-88.3301Q49.3652-86.9141 45.6299-83.3496Q41.8945-79.7852 38.1836-73.3398L20.0684-41.8457Q18.457-38.916 17.5781-36.3525Q16.6992-33.7891 16.3818-30.7617Q16.0645-27.7344 16.0645-23.4863L16.0645 9.32617Q16.0645 20.7031 22.3145 26.9043Q28.5645 33.1055 39.9902 33.1055Z"/>
   <path class="hierarchical-1:primary SFSymbolsPreview212121" d="M91.8945-31.2012Q93.7012-31.2012 95.4834-31.9092Q97.2656-32.6172 99.0234-34.3262L119.58-53.9551Q120.654-55.0781 121.265-56.2988Q121.875-57.5195 121.875-59.1797Q121.875-62.4023 119.556-64.4043Q117.236-66.4062 114.355-66.4062Q110.986-66.4062 108.691-63.916L102.393-57.2266L99.9023-52.2949L100.684-61.4746L100.684-106.982Q100.684-110.449 98.1445-113.062Q95.6055-115.674 91.8945-115.674Q88.1348-115.674 85.5957-113.062Q83.0566-110.449 83.0566-106.982L83.0566-61.4746L83.8379-52.2949L81.3477-57.2266L75.0977-63.916Q72.7539-66.4062 69.3848-66.4062Q66.5039-66.4062 64.209-64.4043Q61.9141-62.4023 61.9141-59.1797Q61.9141-57.5195 62.5-56.2988Q63.0859-55.0781 64.209-53.9551L84.7168-34.3262Q86.4746-32.6172 88.2812-31.9092Q90.0879-31.2012 91.8945-31.2012Z"/>
  </g>
  <g id="Heavy-L" transform="matrix(1 0 0 1 2545.23 1556)">
   <path class="hierarchical-0:secondary SFSymbolsPreview4D4D4D" d="M38.826 32.518L144.076 32.518Q155.04 32.518 160.944 26.6567Q166.849 20.7954 166.849 9.90219L166.849-23.7862Q166.849-27.6421 166.518-30.3871Q166.188-33.1322 165.368-35.442Q164.548-37.7518 162.981-40.3709L143.724-71.2074Q140.12-77.1233 136.562-80.5264Q133.003-83.9294 128.611-85.3569Q124.219-86.7844 118.062-86.7844L111.003-86.7844L111.003-73.4222L118.459-73.4222Q121.426-73.4222 124.046-71.6053Q126.666-69.7884 128.301-67.2318L147.833-34.0889Q148.897-32.5493 148.427-31.7333Q147.958-30.9174 145.972-30.9174L110.943-30.9174Q107.89-30.9174 106.599-29.4712Q105.309-28.0251 105.309-26.046L105.309-25.8278Q105.309-22.4861 103.661-19.273Q102.013-16.0599 98.9223-13.9343Q95.8313-11.8088 91.4566-11.8088Q87.0705-11.8088 83.9664-13.9343Q80.8624-16.0599 79.2336-19.273Q77.6047-22.4861 77.6047-25.8278L77.6047-26.046Q77.6047-28.0251 76.2894-29.4712Q74.9741-30.9174 71.9704-30.9174L36.9522-30.9174Q34.9442-30.9174 34.5104-31.7692Q34.0767-32.621 35.0685-34.0889L54.612-67.2318Q56.1981-69.7884 58.8238-71.6053Q61.4494-73.4222 64.4547-73.4222L71.9215-73.4222L71.9215-86.7844L64.814-86.7844Q58.6571-86.7844 54.2591-85.3569Q49.8611-83.9294 46.3215-80.5264Q42.7818-77.1233 39.1518-71.2074L19.8837-40.3709Q18.3647-37.7518 17.5262-35.442Q16.6878-33.1322 16.3761-30.3871Q16.0645-27.6421 16.0645-23.7862L16.0645 9.90219Q16.0645 20.8069 21.9688 26.6624Q27.8732 32.518 38.826 32.518Z"/>
   <path class="hierarchical-1:primary SFSymbolsPreview212121" d="M91.4566-30.9479Q93.0328-30.9479 94.5671-31.5636Q96.1014-32.1793 97.6288-33.6693L118.485-53.6903Q119.456-54.686 119.997-55.78Q120.538-56.8741 120.538-58.3496Q120.538-61.1923 118.501-62.9753Q116.464-64.7583 113.872-64.7583Q110.883-64.7583 108.852-62.5565L101.62-54.8988L98.5077-49.8749L99.1737-59.0775L99.1737-107.466Q99.1737-110.519 96.9345-112.803Q94.6953-115.086 91.4566-115.086Q88.1691-115.086 85.9299-112.803Q83.6906-110.519 83.6906-107.466L83.6906-59.0775L84.3681-49.8749L81.2439-54.8988L74.0486-62.5565Q71.9818-64.7583 68.9812-64.7583Q66.3773-64.7583 64.3703-62.9753Q62.3634-61.1923 62.3634-58.3496Q62.3634-56.8741 62.886-55.78Q63.4087-54.686 64.4165-53.6903L85.2356-33.6693Q86.7744-32.1793 88.3274-31.5636Q89.8804-30.9479 91.4566-30.9479Z"/>
  </g>
  <g id="Bold-L" transform="matrix(1 0 0 1 2249.01 1556)">
   <path class="hierarchical-0:secondary SFSymbolsPreview4D4D4D" d="M37.5244 31.8604L144.385 31.8604Q154.834 31.8604 160.352 26.3794Q165.869 20.8984 165.869 10.5469L165.869-24.1211Q165.869-27.5391 165.552-29.9683Q165.234-32.3975 164.453-34.4238Q163.672-36.4502 162.207-38.7207L141.675-68.8232Q138.135-74.1455 134.802-77.3682Q131.47-80.5908 127.38-82.0312Q123.291-83.4717 117.456-83.4717L109.766-83.4717L109.766-72.0947L117.969-72.0947Q121.143-72.0947 123.962-70.1294Q126.782-68.1641 128.662-65.4785L149.561-33.4961Q150.83-31.7627 150.354-30.9082Q149.878-30.0537 147.803-30.0537L110.84-30.0537Q108.032-30.0537 106.799-28.6011Q105.566-27.1484 105.566-25.1953L105.566-24.9512Q105.566-21.3135 103.796-17.9199Q102.026-14.5264 98.7549-12.3169Q95.4834-10.1074 90.9668-10.1074Q86.4258-10.1074 83.1543-12.3169Q79.8828-14.5264 78.125-17.9199Q76.3672-21.3135 76.3672-24.9512L76.3672-25.1953Q76.3672-27.1484 75.1099-28.6011Q73.8525-30.0537 71.0938-30.0537L34.1553-30.0537Q32.0312-30.0537 31.604-30.957Q31.1768-31.8604 32.3486-33.4961L53.2715-65.4785Q55.1025-68.1641 57.9346-70.1294Q60.7666-72.0947 63.9648-72.0947L72.1924-72.0947L72.1924-83.4717L64.4531-83.4717Q58.6182-83.4717 54.5166-82.0312Q50.415-80.5908 47.0947-77.3682Q43.7744-74.1455 40.2344-68.8232L19.6777-38.7207Q18.2617-36.4502 17.4683-34.4238Q16.6748-32.3975 16.3696-29.9683Q16.0645-27.5391 16.0645-24.1211L16.0645 10.5469Q16.0645 20.9229 21.582 26.3916Q27.0996 31.8604 37.5244 31.8604Z"/>
   <path class="hierarchical-1:primary SFSymbolsPreview212121" d="M90.9668-30.6641Q92.2852-30.6641 93.5425-31.1768Q94.7998-31.6895 96.0693-32.9346L117.261-53.3936Q118.115-54.248 118.579-55.2002Q119.043-56.1523 119.043-57.4219Q119.043-59.8389 117.322-61.377Q115.601-62.915 113.33-62.915Q110.767-62.915 109.033-61.0352L100.757-52.2949L96.9482-47.168L97.4854-56.3965L97.4854-108.008Q97.4854-110.596 95.5811-112.512Q93.6768-114.429 90.9668-114.429Q88.208-114.429 86.3037-112.512Q84.3994-110.596 84.3994-108.008L84.3994-56.3965L84.9609-47.168L81.1279-52.2949L72.876-61.0352Q71.1182-62.915 68.5303-62.915Q66.2354-62.915 64.5508-61.377Q62.8662-59.8389 62.8662-57.4219Q62.8662-56.1523 63.3179-55.2002Q63.7695-54.248 64.6484-53.3936L85.8154-32.9346Q87.1094-31.6895 88.3789-31.1768Q89.6484-30.6641 90.9668-30.6641Z"/>
  </g>
  <g id="Semibold-L" transform="matrix(1 0 0 1 1952.64 1556)">
   <path class="hierarchical-0:secondary SFSymbolsPreview4D4D4D" d="M36.6272 31.4072L144.598 31.4072Q154.692 31.4072 159.943 26.1883Q165.194 20.9694 165.194 10.9909L165.194-24.3523Q165.194-27.4681 164.885-29.6795Q164.577-31.8909 163.822-33.7219Q163.068-35.553 161.674-37.5832L140.262-67.1791Q136.766-72.0924 133.589-75.1907Q130.412-78.289 126.532-79.7382Q122.651-81.1874 117.039-81.1874L108.913-81.1874L108.913-71.1792L117.631-71.1792Q120.947-71.1792 123.905-69.1116Q126.862-67.0441 128.911-64.27L150.751-33.0872Q152.163-31.2202 151.683-30.3394Q151.202-29.4586 149.065-29.4586L110.769-29.4586Q108.13-29.4586 106.937-28.0014Q105.744-26.5442 105.744-24.6086L105.744-24.3469Q105.744-20.5048 103.89-16.9868Q102.036-13.4689 98.6393-11.2015Q95.2431-8.93402 90.6288-8.93402Q85.9818-8.93402 82.5947-11.2015Q79.2076-13.4689 77.3609-16.9868Q75.5142-20.5048 75.5142-24.3469L75.5142-24.6086Q75.5142-26.5442 74.297-28.0014Q73.0797-29.4586 70.4895-29.4586L32.2266-29.4586Q30.0224-29.4586 29.5998-30.3974Q29.1771-31.3362 30.4733-33.0872L52.3476-64.27Q54.3472-67.0441 57.3215-69.1116Q60.2959-71.1792 63.6269-71.1792L72.3793-71.1792L72.3793-81.1874L64.2044-81.1874Q58.5915-81.1874 54.6944-79.7382Q50.7973-78.289 47.628-75.1907Q44.4588-72.0924 40.9805-67.1791L19.5358-37.5832Q18.1908-35.553 17.4282-33.7219Q16.6656-31.8909 16.3651-29.6795Q16.0645-27.4681 16.0645-24.3523L16.0645 10.9909Q16.0645 21.003 21.3154 26.2051Q26.5663 31.4072 36.6272 31.4072Z"/>
   <path class="hierarchical-1:primary SFSymbolsPreview212121" d="M90.6288-30.4688Q91.7694-30.4688 92.836-30.9101Q93.9026-31.3515 94.9944-32.428L116.416-53.1891Q117.191-53.9459 117.602-54.8004Q118.012-55.6549 118.012-56.7818Q118.012-58.9058 116.509-60.2749Q115.005-61.644 112.957-61.644Q110.686-61.644 109.158-59.9861L100.162-50.4997L95.8733-45.3018L96.3211-54.5479L96.3211-108.381Q96.3211-110.649 94.648-112.312Q92.9749-113.976 90.6288-113.976Q88.2347-113.976 86.5616-112.312Q84.8885-110.649 84.8885-108.381L84.8885-54.5479L85.3699-45.3018L81.0478-50.4997L72.0673-59.9861Q70.5231-61.644 68.219-61.644Q66.1377-61.644 64.6751-60.2749Q63.2126-58.9058 63.2126-56.7818Q63.2126-55.6549 63.6154-54.8004Q64.0182-53.9459 64.8087-53.1891L86.2152-32.428Q87.3405-31.3515 88.4144-30.9101Q89.4882-30.4688 90.6288-30.4688Z"/>
  </g>
  <g id="Medium-L" transform="matrix(1 0 0 1 1656.18 1556)">
   <path class="hierarchical-0:secondary SFSymbolsPreview4D4D4D" d="M35.9459 31.0631L144.76 31.0631Q154.584 31.0631 159.632 26.0433Q164.681 21.0236 164.681 11.3281L164.681-24.527Q164.681-27.4139 164.38-29.4605Q164.078-31.5071 163.343-33.1894Q162.609-34.8717 161.269-36.721L139.191-65.9325Q135.728-70.536 132.669-73.5401Q129.61-76.5442 125.888-78.0003Q122.166-79.4563 116.721-79.4563L108.266-79.4563L108.266-70.4857L117.375-70.4857Q120.798-70.4857 123.861-68.3403Q126.923-66.1949 129.099-63.3537L151.654-32.7774Q153.174-30.8098 152.69-29.9084Q152.206-29.007 150.021-29.007L110.715-29.007Q108.204-29.007 107.042-27.5463Q105.879-26.0857 105.879-24.1638L105.879-23.8884Q105.879-19.8914 103.96-16.2792Q102.042-12.6671 98.5516-10.3561Q95.0615-8.0452 90.3732-8.0452Q85.6445-8.0452 82.1697-10.3561Q78.6949-12.6671 76.7811-16.2792Q74.8672-19.8914 74.8672-23.8884L74.8672-24.1638Q74.8672-26.0857 73.6801-27.5463Q72.493-29.007 70.031-29.007L30.7648-29.007Q28.4996-29.007 28.0804-29.9728Q27.6611-30.9387 29.052-32.7774L51.6464-63.3537Q53.7743-66.1949 56.8565-68.3403Q59.9388-70.4857 63.3713-70.4857L72.5204-70.4857L72.5204-79.4563L64.016-79.4563Q58.5716-79.4563 54.8294-78.0003Q51.0872-76.5442 48.0324-73.5401Q44.9776-70.536 41.5466-65.9325L19.4275-36.721Q18.1366-34.8717 17.3981-33.1894Q16.6595-31.5071 16.362-29.4605Q16.0645-27.4139 16.0645-24.527L16.0645 11.3281Q16.0645 21.0632 21.1132 26.0632Q26.162 31.0631 35.9459 31.0631Z"/>
   <path class="hierarchical-1:primary SFSymbolsPreview212121" d="M90.3732-30.32Q91.3788-30.32 92.3-30.7079Q93.2213-31.0959 94.1788-32.0442L115.776-53.0342Q116.49-53.717 116.86-54.4971Q117.23-55.2773 117.23-56.2965Q117.23-58.1985 115.892-59.4395Q114.554-60.6804 112.674-60.6804Q110.626-60.6804 109.252-59.1911L99.7101-49.1386L95.0577-43.8866L95.4384-53.1464L95.4384-108.664Q95.4384-110.69 93.9404-112.161Q92.4423-113.632 90.3732-113.632Q88.2545-113.632 86.7565-112.161Q85.2585-110.69 85.2585-108.664L85.2585-53.1464L85.6796-43.8866L80.9875-49.1386L71.4539-59.1911Q70.0714-60.6804 67.9832-60.6804Q66.0637-60.6804 64.7697-59.4395Q63.4758-58.1985 63.4758-56.2965Q63.4758-55.2773 63.8412-54.4971Q64.2067-53.717 64.93-53.0342L86.5189-32.0442Q87.5153-31.0959 88.4411-30.7079Q89.3669-30.32 90.3732-30.32Z"/>
  </g>
  <g id="Regular-L" transform="matrix(1 0 0 1 1359.81 1556)">
   <path class="hierarchical-0:secondary SFSymbolsPreview4D4D4D" d="M35.0586 30.6152L144.971 30.6152Q154.443 30.6152 159.229 25.8545Q164.014 21.0938 164.014 11.7676L164.014-24.7559Q164.014-27.3438 163.721-29.1748Q163.428-31.0059 162.72-32.4951Q162.012-33.9844 160.742-35.5957L137.793-64.3066Q134.375-68.5059 131.47-71.3867Q128.564-74.2676 125.049-75.7324Q121.533-77.1973 116.309-77.1973L107.422-77.1973L107.422-69.5801L117.041-69.5801Q120.605-69.5801 123.804-67.334Q127.002-65.0879 129.346-62.1582L152.832-32.373Q154.492-30.2734 154.004-29.3457Q153.516-28.418 151.27-28.418L110.645-28.418Q108.301-28.418 107.178-26.9531Q106.055-25.4883 106.055-23.584L106.055-23.291Q106.055-19.0918 104.053-15.3564Q102.051-11.6211 98.4375-9.25293Q94.8242-6.88477 90.0391-6.88477Q85.2051-6.88477 81.6162-9.25293Q78.0273-11.6211 76.0254-15.3564Q74.0234-19.0918 74.0234-23.291L74.0234-23.584Q74.0234-25.4883 72.876-26.9531Q71.7285-28.418 69.4336-28.418L28.8574-28.418Q26.5137-28.418 26.0986-29.4189Q25.6836-30.4199 27.1973-32.373L50.7324-62.1582Q53.0273-65.0879 56.25-67.334Q59.4727-69.5801 63.0371-69.5801L72.7051-69.5801L72.7051-77.1973L63.7695-77.1973Q58.5449-77.1973 55.0049-75.7324Q51.4648-74.2676 48.5596-71.3867Q45.6543-68.5059 42.2852-64.3066L19.2871-35.5957Q18.0664-33.9844 17.3584-32.4951Q16.6504-31.0059 16.3574-29.1748Q16.0645-27.3438 16.0645-24.7559L16.0645 11.7676Q16.0645 21.1426 20.8496 25.8789Q25.6348 30.6152 35.0586 30.6152Z"/>
   <path class="hierarchical-1:primary SFSymbolsPreview212121" d="M90.0391-30.127Q90.8691-30.127 91.6016-30.4443Q92.334-30.7617 93.1152-31.543L114.941-52.832Q115.576-53.418 115.894-54.1016Q116.211-54.7852 116.211-55.6641Q116.211-57.2754 115.088-58.3496Q113.965-59.4238 112.305-59.4238Q110.547-59.4238 109.375-58.1543L99.1211-47.3633L93.9941-42.041L94.2871-51.3184L94.2871-109.033Q94.2871-110.742 93.0176-111.963Q91.748-113.184 90.0391-113.184Q88.2812-113.184 87.0117-111.963Q85.7422-110.742 85.7422-109.033L85.7422-51.3184L86.084-42.041L80.9082-47.3633L70.6543-58.1543Q69.4824-59.4238 67.6758-59.4238Q65.9668-59.4238 64.8926-58.3496Q63.8184-57.2754 63.8184-55.6641Q63.8184-54.7852 64.1357-54.1016Q64.4531-53.418 65.0879-52.832L86.9141-31.543Q87.7441-30.7617 88.4766-30.4443Q89.209-30.127 90.0391-30.127Z"/>
  </g>
  <g id="Light-L" transform="matrix(1 0 0 1 1063.54 1556)">
   <path class="hierarchical-0:secondary SFSymbolsPreview4D4D4D" d="M34.0294 29.7981L145.122 29.7981Q154.034 29.7981 158.577 25.2415Q163.12 20.6848 163.12 11.9186L163.12-23.5748Q163.12-25.7843 162.865-27.3354Q162.611-28.8864 162.008-30.1487Q161.406-31.411 160.318-32.7957L135.764-63.974Q132.74-67.7338 130.145-70.1454Q127.551-72.5571 124.36-73.7118Q121.17-74.8665 116.415-74.8665L108.028-74.8665L108.028-68.9598L117.147-68.9598Q120.908-68.9598 123.91-67.0692Q126.911-65.1787 129.24-62.2643L154.315-30.2689Q155.597-28.6087 155.23-27.8095Q154.863-27.0103 153.101-27.0103L110.069-27.0103Q108.15-27.0103 107.223-25.8408Q106.297-24.6712 106.297-23.024L106.297-22.6555Q106.297-18.0779 104.158-14.1987Q102.02-10.3195 98.2407-7.95135Q94.4611-5.58319 89.6004-5.58319Q84.6901-5.58319 80.9273-7.95135Q77.1645-10.3195 75.0263-14.1987Q72.8882-18.0779 72.8882-22.6555L72.8882-23.024Q72.8882-24.6712 71.9452-25.8408Q71.0022-27.0103 69.1154-27.0103L26.1177-27.0103Q24.2889-27.0103 23.9647-27.8599Q23.6404-28.7094 24.836-30.2689L49.9451-62.2643Q52.24-65.1787 55.2586-67.0692Q58.2771-68.9598 62.0384-68.9598L71.2517-68.9598L71.2517-74.8665L62.7708-74.8665Q58.0154-74.8665 54.8084-73.7118Q51.6014-72.5571 49.0063-70.1454Q46.4111-67.7338 43.4204-63.974L18.8332-32.7957Q17.7788-31.411 17.1768-30.1487Q16.5749-28.8864 16.3197-27.3354Q16.0645-25.7843 16.0645-23.5748L16.0645 11.9186Q16.0645 20.7642 20.6074 25.2811Q25.1503 29.7981 34.0294 29.7981Z"/>
   <path class="hierarchical-1:primary SFSymbolsPreview212121" d="M89.6004-30.0362Q90.2184-30.0362 90.7917-30.278Q91.3651-30.5199 91.9342-31.1043L114.503-53.3615Q114.986-53.8116 115.235-54.3362Q115.485-54.8607 115.485-55.5275Q115.485-56.7604 114.611-57.6077Q113.737-58.4549 112.486-58.4549Q111.153-58.4549 110.207-57.4432L98.9548-45.8496L92.6468-39.3921L92.849-48.4123L92.849-108.276Q92.849-109.592 91.8823-110.532Q90.9157-111.473 89.6004-111.473Q88.2355-111.473 87.2688-110.532Q86.3022-109.592 86.3022-108.276L86.3022-48.4123L86.5379-39.3616L80.1819-45.8496L68.9133-57.4432Q67.9688-58.4549 66.6008-58.4549Q65.3008-58.4549 64.4764-57.6077Q63.652-56.7604 63.652-55.5275Q63.652-54.8607 63.8935-54.3362Q64.135-53.8116 64.6187-53.3615L87.2169-31.1043Q87.8197-30.5199 88.3934-30.278Q88.9671-30.0362 89.6004-30.0362Z"/>
  </g>
  <g id="Thin-L" transform="matrix(1 0 0 1 767.42 1556)">
   <path class="hierarchical-0:secondary SFSymbolsPreview4D4D4D" d="M32.6683 28.717L145.322 28.717Q153.494 28.717 157.717 24.4308Q161.939 20.1447 161.939 12.1193L161.939-22.0139Q161.939-23.7228 161.734-24.9035Q161.53-26.0841 161.068-27.0462Q160.606-28.0083 159.758-29.0924L133.083-63.533Q130.579-66.713 128.394-68.504Q126.209-70.295 123.449-71.0392Q120.689-71.7834 116.555-71.7834L108.828-71.7834L108.828-68.1389L117.287-68.1389Q121.309-68.1389 124.05-66.7187Q126.791-65.2985 129.099-62.4046L156.277-27.4864Q157.059-26.4061 156.852-25.7774Q156.644-25.1488 155.523-25.1488L109.309-25.1488Q107.949-25.1488 107.283-24.3694Q106.617-23.5901 106.617-22.2832L106.617-21.8147Q106.617-16.7366 104.299-12.6671Q101.981-8.59756 97.9805-6.2294Q93.9804-3.86124 89.0198-3.86124Q84.0096-3.86124 80.0167-6.2294Q76.0239-8.59756 73.7053-12.6671Q71.3867-16.7366 71.3867-21.8147L71.3867-22.2832Q71.3867-23.5901 70.7138-24.3694Q70.0409-25.1488 68.6951-25.1488L22.4945-25.1488Q21.3463-25.1488 21.1418-25.798Q20.9373-26.4473 21.7133-27.4864L48.9044-62.4046Q51.1993-65.2985 53.9474-66.7187Q56.6956-68.1389 60.717-68.1389L69.3306-68.1389L69.3306-71.7834L61.4494-71.7834Q57.3143-71.7834 54.5479-71.0392Q51.7815-70.295 49.5968-68.504Q47.4121-66.713 44.9219-63.533L18.2327-29.0924Q17.3988-28.0083 16.9369-27.0462Q16.4749-26.0841 16.2697-24.9035Q16.0645-23.7228 16.0645-22.0139L16.0645 12.1193Q16.0645 20.2637 20.2873 24.4904Q24.5102 28.717 32.6683 28.717Z"/>
   <path class="hierarchical-1:primary SFSymbolsPreview212121" d="M89.0198-29.9164Q89.3578-29.9164 89.7209-30.0579Q90.0841-30.1994 90.3732-30.5237L113.922-54.0627Q114.205-54.332 114.364-54.6463Q114.523-54.9606 114.523-55.3474Q114.523-56.0799 113.98-56.6269Q113.438-57.1739 112.727-57.1739Q111.953-57.1739 111.308-56.5018L98.7343-43.8477L90.8653-35.8887L90.9477-44.5686L90.9477-107.275Q90.9477-108.07 90.3812-108.641Q89.8148-109.211 89.0198-109.211Q88.176-109.211 87.6095-108.641Q87.043-108.07 87.043-107.275L87.043-44.5686L87.1384-35.8185L79.2206-43.8477L66.6115-56.5018Q65.9668-57.1739 65.1794-57.1739Q64.4203-57.1739 63.9259-56.6269Q63.4315-56.0799 63.4315-55.3474Q63.4315-54.9606 63.5731-54.6463Q63.7146-54.332 63.9984-54.0627L87.6175-30.5237Q87.9196-30.1994 88.2832-30.0579Q88.6467-29.9164 89.0198-29.9164Z"/>
  </g>
  <g id="Ultralight-L" transform="matrix(1 0 0 1 471.012 1556)">
   <path class="hierarchical-0:secondary SFSymbolsPreview4D4D4D" d="M31.971 28.1631L145.425 28.1631Q153.217 28.1631 157.276 24.0154Q161.334 19.8677 161.334 12.2215L161.334-21.2135Q161.334-22.6662 161.155-23.6572Q160.976-24.6483 160.585-25.4566Q160.195-26.265 159.47-27.195L131.708-63.308Q129.471-66.1903 127.496-67.6632Q125.522-69.136 122.983-69.6701Q120.444-70.2042 116.627-70.2042L109.238-70.2042L109.238-67.7185L117.359-67.7185Q121.513-67.7185 124.121-66.5394Q126.73-65.3603 129.028-62.4763L157.282-26.0612Q157.807-25.2785 157.682-24.7368Q157.557-24.1951 156.764-24.1951L108.919-24.1951Q107.847-24.1951 107.314-23.6156Q106.781-23.0362 106.781-21.904L106.781-21.3837Q106.781-16.0492 104.37-11.8824Q101.96-7.71561 97.8474-5.34744Q93.7347-2.97928 88.7222-2.97928Q83.6609-2.97928 79.5498-5.34744Q75.4387-7.71561 73.0282-11.8824Q70.6177-16.0492 70.6177-21.3837L70.6177-21.904Q70.6177-23.0362 70.0832-23.6156Q69.5488-24.1951 68.4799-24.1951L20.6383-24.1951Q19.8387-24.1951 19.696-24.7417Q19.5534-25.2884 20.1134-26.0612L48.3711-62.4763Q50.666-65.3603 53.2757-66.5394Q55.8853-67.7185 60.0403-67.7185L68.3456-67.7185L68.3456-70.2042L60.7727-70.2042Q56.9557-70.2042 54.4147-69.6701Q51.8738-69.136 49.8993-67.6632Q47.9248-66.1903 45.6909-63.308L17.9245-27.195Q17.2035-26.265 16.8133-25.4566Q16.423-24.6483 16.2437-23.6572Q16.0645-22.6662 16.0645-21.2135L16.0645 12.2215Q16.0645 20.0073 20.1229 24.0852Q24.1814 28.1631 31.971 28.1631Z"/>
   <path class="hierarchical-1:primary SFSymbolsPreview212121" d="M88.7222-29.8546Q88.9168-29.8546 89.1724-29.945Q89.4279-30.0354 89.5729-30.2261L113.625-54.4212Q113.805-54.599 113.918-54.8058Q114.031-55.0125 114.031-55.2551Q114.031-55.7312 113.657-56.1245Q113.284-56.5178 112.849-56.5178Q112.363-56.5178 111.873-56.0204L98.6214-42.8223L89.9529-34.0942L89.9734-42.5995L89.9734-106.763Q89.9734-107.291 89.6118-107.672Q89.2502-108.052 88.7222-108.052Q88.1447-108.052 87.7834-107.672Q87.4222-107.291 87.4222-106.763L87.4222-42.5995L87.4466-34.0034L78.7285-42.8223L65.432-56.0204Q64.9414-56.5178 64.4516-56.5178Q63.9687-56.5178 63.6436-56.1245Q63.3186-55.7312 63.3186-55.2551Q63.3186-55.0125 63.409-54.8058Q63.4995-54.599 63.6803-54.4212L87.822-30.2261Q87.9715-30.0354 88.2271-29.945Q88.4827-29.8546 88.7222-29.8546Z"/>
  </g>
  <g id="Black-M" transform="matrix(1 0 0 1 2861.96 1126)">
   <path class="hierarchical-0:secondary SFSymbolsPreview4D4D4D" d="M31.5918 17.9688L111.279 17.9688Q120.312 17.9688 125.366 12.9395Q130.42 7.91016 130.42-1.17188L130.42-25.4395Q130.42-28.9551 130.176-31.4697Q129.932-33.9844 129.248-36.1084Q128.564-38.2324 127.295-40.6738L113.721-66.4551Q110.938-71.7773 107.959-74.5117Q104.98-77.2461 101.245-78.2471Q97.5098-79.248 92.4316-79.248L88.0371-79.248L88.0371-66.5527L92.5293-66.5527Q94.6289-66.5527 96.2891-65.4785Q97.9492-64.4043 98.8281-62.6465L112.549-34.5215Q112.939-33.7402 112.622-33.2031Q112.305-32.666 111.084-32.666L85.9375-32.666Q83.3496-32.666 82.3242-31.6406Q81.2988-30.6152 81.2988-29.1992L81.2988-29.0039Q81.2988-26.709 80.1758-24.4385Q79.0527-22.168 76.8555-20.6299Q74.6582-19.0918 71.4355-19.0918Q68.2129-19.0918 66.0156-20.6299Q63.8184-22.168 62.6953-24.4385Q61.5723-26.709 61.5723-29.0039L61.5723-29.1992Q61.5723-30.6152 60.5469-31.6406Q59.5215-32.666 56.9336-32.666L31.7871-32.666Q30.5664-32.666 30.249-33.2031Q29.9316-33.7402 30.3223-34.5215L44.043-62.6465Q44.9219-64.4043 46.582-65.4785Q48.2422-66.5527 50.3418-66.5527L54.834-66.5527L54.834-79.248L50.4395-79.248Q45.3613-79.248 41.626-78.2471Q37.8906-77.2461 34.9121-74.5117Q31.9336-71.7773 29.1504-66.4551L15.5762-40.6738Q14.3066-38.2324 13.623-36.1084Q12.9395-33.9844 12.6953-31.4697Q12.4512-28.9551 12.4512-25.4395L12.4512-1.17188Q12.4512 7.91016 17.5049 12.9395Q22.5586 17.9688 31.5918 17.9688Z"/>
   <path class="hierarchical-1:primary SFSymbolsPreview212121" d="M71.4355-32.3242Q72.9492-32.3242 74.5117-32.9102Q76.0742-33.4961 77.5391-34.9609L93.457-50.1465Q95.3125-52.0508 95.3125-54.4922Q95.3125-57.1289 93.3594-58.7891Q91.4062-60.4492 89.0625-60.4492Q86.3281-60.4492 84.375-58.3984L79.9805-53.7598L78.1738-49.6582L78.8574-56.6406L78.8574-90.1367Q78.8574-93.1152 76.7334-95.3125Q74.6094-97.5098 71.4355-97.5098Q68.2617-97.5098 66.1377-95.3125Q64.0137-93.1152 64.0137-90.1367L64.0137-56.6406L64.6973-49.6582L62.8906-53.7598L58.4961-58.3984Q56.543-60.4492 53.7598-60.4492Q51.4648-60.4492 49.5117-58.7891Q47.5586-57.1289 47.5586-54.4922Q47.5586-52.0508 49.4141-50.1465L65.332-34.9609Q66.7969-33.4961 68.3594-32.9102Q69.9219-32.3242 71.4355-32.3242Z"/>
  </g>
  <g id="Heavy-M" transform="matrix(1 0 0 1 2565.59 1126)">
   <path class="hierarchical-0:secondary SFSymbolsPreview4D4D4D" d="M30.6931 17.5652L111.51 17.5652Q120.232 17.5652 124.992 12.8242Q129.752 8.08334 129.752-0.630188L129.752-25.9926Q129.752-29.1969 129.507-31.4926Q129.263-33.7883 128.597-35.7166Q127.93-37.645 126.707-39.8209L112.361-64.4501Q109.554-69.3459 106.709-72.0226Q103.863-74.6994 100.317-75.7751Q96.772-76.8509 91.8785-76.8509L86.8271-76.8509L86.8271-65.5273L92.0799-65.5273Q94.3176-65.5273 96.1967-64.2456Q98.0759-62.9639 99.1737-61.0909L113.747-34.4521Q114.391-33.4061 114.045-32.8114Q113.699-32.2166 112.294-32.2166L85.9718-32.2166Q83.5106-32.2166 82.497-31.1222Q81.4835-30.0278 81.4835-28.5652L81.4835-28.3699Q81.4835-25.914 80.2738-23.5107Q79.0642-21.1075 76.746-19.5004Q74.4278-17.8932 71.1014-17.8932Q67.775-17.8932 65.4568-19.5004Q63.1386-21.1075 61.9347-23.5107Q60.7307-25.914 60.7307-28.3699L60.7307-28.5652Q60.7307-30.0278 59.7111-31.1222Q58.6914-32.2166 56.2309-32.2166L29.9316-32.2166Q28.5034-32.2166 28.1689-32.8285Q27.8343-33.4404 28.4668-34.4521L43.029-61.0909Q44.1269-62.9639 46.0117-64.2456Q47.8966-65.5273 50.1228-65.5273L55.3871-65.5273L55.3871-76.8509L50.3357-76.8509Q45.4308-76.8509 41.8911-75.7751Q38.3514-74.6994 35.5-72.0226Q32.6485-69.3459 29.8531-64.4501L15.4953-39.8209Q14.2723-37.645 13.6059-35.7166Q12.9395-33.7883 12.6953-31.4926Q12.4512-29.1969 12.4512-25.9926L12.4512-0.630188Q12.4512 8.09479 17.2169 12.83Q21.9826 17.5652 30.6931 17.5652Z"/>
   <path class="hierarchical-1:primary SFSymbolsPreview212121" d="M71.1014-32.0938Q72.4304-32.0938 73.7854-32.605Q75.1404-33.1161 76.4328-34.4078L92.4889-49.7665Q94.1719-51.4977 94.1719-53.6972Q94.1719-56.0684 92.4435-57.5615Q90.715-59.0546 88.5666-59.0546Q86.0863-59.0546 84.3521-57.2113L79.2542-51.812L77.0905-47.8607L77.6932-54.9232L77.6932-90.7822Q77.6932-93.4151 75.7938-95.3587Q73.8945-97.3022 71.1014-97.3022Q68.3075-97.3022 66.4143-95.3587Q64.521-93.4151 64.521-90.7822L64.521-54.9232L65.1123-47.8607L62.9486-51.812L57.8506-57.2113Q56.1165-59.0546 53.5866-59.0546Q51.4763-59.0546 49.7536-57.5615Q48.0309-56.0684 48.0309-53.6972Q48.0309-51.4977 49.7139-49.7665L65.77-34.4078Q67.0616-33.1161 68.417-32.605Q69.7723-32.0938 71.1014-32.0938Z"/>
  </g>
  <g id="Bold-M" transform="matrix(1 0 0 1 2269.25 1126)">
   <path class="hierarchical-0:secondary SFSymbolsPreview4D4D4D" d="M29.6875 17.1143L111.768 17.1143Q120.142 17.1143 124.573 12.6953Q129.004 8.27637 129.004-0.0244141L129.004-26.6113Q129.004-29.4678 128.76-31.5186Q128.516-33.5693 127.869-35.2783Q127.222-36.9873 126.05-38.8672L110.84-62.207Q108.008-66.626 105.31-69.2383Q102.612-71.8506 99.2798-73.0103Q95.9473-74.1699 91.2598-74.1699L85.4736-74.1699L85.4736-64.3799L91.5771-64.3799Q93.9697-64.3799 96.0938-62.8662Q98.2178-61.3525 99.5605-59.3506L115.088-34.375Q116.016-33.0322 115.637-32.373Q115.259-31.7139 113.647-31.7139L86.0107-31.7139Q83.6914-31.7139 82.6904-30.542Q81.6895-29.3701 81.6895-27.8564L81.6895-27.6611Q81.6895-25.0244 80.3833-22.4731Q79.0771-19.9219 76.6235-18.2373Q74.1699-16.5527 70.7275-16.5527Q67.2852-16.5527 64.8315-18.2373Q62.3779-19.9219 61.084-22.4731Q59.79-25.0244 59.79-27.6611L59.79-27.8564Q59.79-29.3701 58.7769-30.542Q57.7637-31.7139 55.4443-31.7139L27.8564-31.7139Q26.1963-31.7139 25.8423-32.4097Q25.4883-33.1055 26.3916-34.375L41.8945-59.3506Q43.2373-61.3525 45.3735-62.8662Q47.5098-64.3799 49.8779-64.3799L56.0059-64.3799L56.0059-74.1699L50.2197-74.1699Q45.5078-74.1699 42.1875-73.0103Q38.8672-71.8506 36.1572-69.2383Q33.4473-66.626 30.6396-62.207L15.4053-38.8672Q14.2334-36.9873 13.5864-35.2783Q12.9395-33.5693 12.6953-31.5186Q12.4512-29.4678 12.4512-26.6113L12.4512-0.0244141Q12.4512 8.30078 16.8945 12.7075Q21.3379 17.1143 29.6875 17.1143Z"/>
   <path class="hierarchical-1:primary SFSymbolsPreview212121" d="M70.7275-31.8359Q71.8506-31.8359 72.9736-32.2632Q74.0967-32.6904 75.1953-33.7891L91.4062-49.3408Q92.8955-50.8789 92.8955-52.8076Q92.8955-54.8828 91.4185-56.189Q89.9414-57.4951 88.0127-57.4951Q85.8154-57.4951 84.3262-55.8838L78.4424-49.6338L75.8789-45.8496L76.3916-53.0029L76.3916-91.5039Q76.3916-93.75 74.7437-95.4102Q73.0957-97.0703 70.7275-97.0703Q68.3594-97.0703 66.7236-95.4102Q65.0879-93.75 65.0879-91.5039L65.0879-53.0029L65.5762-45.8496L63.0127-49.6338L57.1289-55.8838Q55.6396-57.4951 53.3936-57.4951Q51.4893-57.4951 50.0244-56.189Q48.5596-54.8828 48.5596-52.8076Q48.5596-50.8789 50.0488-49.3408L66.2598-33.7891Q67.3584-32.6904 68.4814-32.2632Q69.6045-31.8359 70.7275-31.8359Z"/>
  </g>
  <g id="Semibold-M" transform="matrix(1 0 0 1 1972.8 1126)">
   <path class="hierarchical-0:secondary SFSymbolsPreview4D4D4D" d="M28.994 16.803L111.945 16.803Q120.079 16.803 124.284 12.6064Q128.488 8.40988 128.488 0.392914L128.488-27.0378Q128.488-29.6547 128.244-31.5365Q128-33.4183 127.366-34.9762Q126.733-36.5341 125.597-38.2095L109.791-60.6606Q106.941-64.7507 104.346-67.3187Q101.75-69.8868 98.5645-71.104Q95.3789-72.3213 90.8333-72.3213L84.5406-72.3213L84.5406-63.5887L91.2308-63.5887Q93.7294-63.5887 96.0224-61.9152Q98.3154-60.2417 99.8268-58.1505L116.012-34.3216Q117.136-32.7744 116.735-32.0709Q116.334-31.3675 114.581-31.3675L86.0374-31.3675Q83.8158-31.3675 82.8236-30.1422Q81.8314-28.9169 81.8314-27.3674L81.8314-27.1721Q81.8314-24.411 80.4588-21.7575Q79.0863-19.104 76.5392-17.3664Q73.9922-15.6288 70.4697-15.6288Q66.9472-15.6288 64.4005-17.3664Q61.8538-19.104 60.4977-21.7575Q59.1415-24.411 59.1415-27.1721L59.1415-27.3674Q59.1415-28.9169 58.1326-30.1422Q57.1236-31.3675 54.9019-31.3675L26.4259-31.3675Q24.6056-31.3675 24.2382-32.1209Q23.8708-32.8743 24.9611-34.3216L41.1125-58.1505Q42.6239-60.2417 44.9337-61.9152Q47.2435-63.5887 49.7093-63.5887L56.4323-63.5887L56.4323-72.3213L50.1396-72.3213Q45.5612-72.3213 42.392-71.104Q39.2227-69.8868 36.6104-67.3187Q33.9981-64.7507 31.1821-60.6606L15.3427-38.2095Q14.2067-36.5341 13.5731-34.9762Q12.9395-33.4183 12.6953-31.5365Q12.4512-29.6547 12.4512-27.0378L12.4512 0.392914Q12.4512 8.44269 16.6725 12.6228Q20.8939 16.803 28.994 16.803Z"/>
   <path class="hierarchical-1:primary SFSymbolsPreview212121" d="M70.4697-31.6582Q71.4508-31.6582 72.4136-32.0278Q73.3765-32.3975 74.3423-33.3626L90.6601-49.0479Q92.0158-50.4524 92.0158-52.1942Q92.0158-54.0649 90.712-55.2425Q89.4081-56.4201 87.6305-56.4201Q85.6285-56.4201 84.3086-54.9683L77.8824-48.1316L75.0435-44.4633L75.4944-51.6785L75.4944-92.0013Q75.4944-93.9812 74.0196-95.4456Q72.5449-96.9101 70.4697-96.9101Q68.3952-96.9101 66.9373-95.4456Q65.4793-93.9812 65.4793-92.0013L65.4793-51.6785L65.8958-44.4633L63.0569-48.1316L56.6315-54.9683Q55.3108-56.4201 53.26-56.4201Q51.4984-56.4201 50.2113-55.2425Q48.9243-54.0649 48.9243-52.1942Q48.9243-50.4524 50.28-49.0479L66.5977-33.3626Q67.5629-32.3975 68.5261-32.0278Q69.4893-31.6582 70.4697-31.6582Z"/>
  </g>
  <g id="Medium-M" transform="matrix(1 0 0 1 1676.28 1126)">
   <path class="hierarchical-0:secondary SFSymbolsPreview4D4D4D" d="M28.4691 16.5672L112.08 16.5672Q120.033 16.5672 124.065 12.5389Q128.098 8.51059 128.098 0.710297L128.098-27.3613Q128.098-29.7958 127.853-31.5498Q127.609-33.3038 126.986-34.7469Q126.363-36.19 125.253-37.7106L108.996-59.4879Q106.133-63.3293 103.614-65.8634Q101.096-68.3975 98.0217-69.6587Q94.9471-70.9198 90.5098-70.9198L83.8333-70.9198L83.8333-62.989L90.9676-62.989Q93.5478-62.989 95.9686-61.1942Q98.3894-59.3994 100.029-57.2411L116.713-34.2812Q117.985-32.579 117.567-31.8417Q117.149-31.1043 115.288-31.1043L86.0573-31.1043Q83.9104-31.1043 82.925-29.8386Q81.9397-28.5728 81.9397-26.9974L81.9397-26.8021Q81.9397-23.9464 80.5161-21.2154Q79.0924-18.4845 76.4748-16.7061Q73.8571-14.9277 70.2744-14.9277Q66.6916-14.9277 64.0739-16.7061Q61.4563-18.4845 60.0529-21.2154Q58.6494-23.9464 58.6494-26.8021L58.6494-26.9974Q58.6494-28.5728 57.6439-29.8386Q56.6383-31.1043 54.4914-31.1043L25.341-31.1043Q23.3994-31.1043 23.0221-31.9019Q22.6448-32.6996 23.8762-34.2812L40.5197-57.2411Q42.1593-59.3994 44.6003-61.1942Q47.0413-62.989 49.5811-62.989L56.7558-62.989L56.7558-70.9198L50.0793-70.9198Q45.6017-70.9198 42.5468-69.6587Q39.492-68.3975 36.9541-65.8634Q34.4162-63.3293 31.5926-59.4879L15.2962-37.7106Q14.1869-36.19 13.5632-34.7469Q12.9395-33.3038 12.6953-31.5498Q12.4512-29.7958 12.4512-27.3613L12.4512 0.710297Q12.4512 8.55103 16.5039 12.5591Q20.5566 16.5672 28.4691 16.5672Z"/>
   <path class="hierarchical-1:primary SFSymbolsPreview212121" d="M70.2744-31.5231Q71.1472-31.5231 71.9891-31.8489Q72.831-32.1747 73.6954-33.0391L90.094-48.8251Q91.3483-50.1289 91.3483-51.7296Q91.3483-53.4454 90.176-54.525Q89.0038-55.6046 87.3405-55.6046Q85.4874-55.6046 84.2949-54.2747L77.4582-46.9933L74.4102-43.412L74.8131-50.6744L74.8131-92.379Q74.8131-94.1559 73.4699-95.4723Q72.1268-96.7888 70.2744-96.7888Q68.4219-96.7888 67.0986-95.4723Q65.7753-94.1559 65.7753-92.379L65.7753-50.6744L66.1385-43.412L63.0905-46.9933L56.2538-54.2747Q55.0613-55.6046 53.1593-55.6046Q51.5045-55.6046 50.3525-54.525Q49.2004-53.4454 49.2004-51.7296Q49.2004-50.1289 50.4547-48.8251L66.8533-33.0391Q67.7177-32.1747 68.5596-31.8489Q69.4016-31.5231 70.2744-31.5231Z"/>
  </g>
  <g id="Regular-M" transform="matrix(1 0 0 1 1379.82 1126)">
   <path class="hierarchical-0:secondary SFSymbolsPreview4D4D4D" d="M27.7832 16.2598L112.256 16.2598Q119.971 16.2598 123.779 12.4512Q127.588 8.64258 127.588 1.12305L127.588-27.7832Q127.588-29.9805 127.344-31.5674Q127.1-33.1543 126.489-34.4482Q125.879-35.7422 124.805-37.0605L107.959-57.959Q105.078-61.4746 102.661-63.9648Q100.244-66.4551 97.3145-67.7734Q94.3848-69.0918 90.0879-69.0918L82.9102-69.0918L82.9102-62.207L90.625-62.207Q93.3105-62.207 95.8984-60.2539Q98.4863-58.3008 100.293-56.0547L117.627-34.2285Q119.092-32.3242 118.652-31.543Q118.213-30.7617 116.211-30.7617L86.084-30.7617Q84.0332-30.7617 83.0566-29.4434Q82.0801-28.125 82.0801-26.5137L82.0801-26.3184Q82.0801-23.3398 80.5908-20.5078Q79.1016-17.6758 76.3916-15.8447Q73.6816-14.0137 70.0195-14.0137Q66.3574-14.0137 63.6475-15.8447Q60.9375-17.6758 59.4727-20.5078Q58.0078-23.3398 58.0078-26.3184L58.0078-26.5137Q58.0078-28.125 57.0068-29.4434Q56.0059-30.7617 53.9551-30.7617L23.9258-30.7617Q21.8262-30.7617 21.4355-31.6162Q21.0449-32.4707 22.4609-34.2285L39.7461-56.0547Q41.5527-58.3008 44.165-60.2539Q46.7773-62.207 49.4141-62.207L57.1777-62.207L57.1777-69.0918L50-69.0918Q45.6543-69.0918 42.749-67.7734Q39.8438-66.4551 37.4023-63.9648Q34.9609-61.4746 32.1289-57.959L15.2344-37.0605Q14.1602-35.7422 13.5498-34.4482Q12.9395-33.1543 12.6953-31.5674Q12.4512-29.9805 12.4512-27.7832L12.4512 1.12305Q12.4512 8.69141 16.2842 12.4756Q20.1172 16.2598 27.7832 16.2598Z"/>
   <path class="hierarchical-1:primary SFSymbolsPreview212121" d="M70.0195-31.3477Q70.752-31.3477 71.4355-31.6162Q72.1191-31.8848 72.8516-32.6172L89.3555-48.5352Q90.4785-49.707 90.4785-51.123Q90.4785-52.6367 89.4775-53.5889Q88.4766-54.541 86.9629-54.541Q85.3027-54.541 84.2773-53.3691L76.9043-45.5078L73.584-42.041L73.9258-49.3652L73.9258-92.8711Q73.9258-94.3848 72.7539-95.5078Q71.582-96.6309 70.0195-96.6309Q68.457-96.6309 67.3096-95.5078Q66.1621-94.3848 66.1621-92.8711L66.1621-49.3652L66.4551-42.041L63.1348-45.5078L55.7617-53.3691Q54.7363-54.541 53.0273-54.541Q51.5137-54.541 50.5371-53.5889Q49.5605-52.6367 49.5605-51.123Q49.5605-49.707 50.6836-48.5352L67.1875-32.6172Q67.9199-31.8848 68.6035-31.6162Q69.2871-31.3477 70.0195-31.3477Z"/>
  </g>
  <g id="Light-M" transform="matrix(1 0 0 1 1083.51 1126)">
   <path class="hierarchical-0:secondary SFSymbolsPreview4D4D4D" d="M26.8448 15.5334L112.392 15.5334Q119.592 15.5334 123.196 11.9064Q126.801 8.27942 126.801 1.25961L126.801-26.7235Q126.801-28.5881 126.587-29.9175Q126.373-31.2469 125.854-32.3368Q125.334-33.4267 124.426-34.5627L106.127-57.6561Q103.61-60.778 101.466-62.8521Q99.321-64.9261 96.6938-65.9645Q94.0666-67.0029 90.1787-67.0029L83.4549-67.0029L83.4549-61.647L90.731-61.647Q93.5829-61.647 95.9892-60.0193Q98.3955-58.3916 100.202-56.1455L118.944-32.3364Q120.09-30.8411 119.757-30.1655Q119.424-29.4899 117.846-29.4899L85.569-29.4899Q83.8966-29.4899 83.0944-28.4443Q82.2922-27.3987 82.2922-26.0139L82.2922-25.7584Q82.2922-22.4167 80.6816-19.4633Q79.071-16.51 76.2173-14.679Q73.3635-12.8479 69.6259-12.8479Q65.8882-12.8479 63.0344-14.679Q60.1807-16.51 58.5873-19.4633Q56.9939-22.4167 56.9939-25.7584L56.9939-26.0139Q56.9939-27.3987 56.1745-28.4443Q55.3551-29.4899 53.6827-29.4899L21.4737-29.4899Q19.828-29.4899 19.5282-30.2158Q19.2284-30.9418 20.327-32.3364L39.0495-56.1455Q40.8417-58.3916 43.272-60.0193Q45.7024-61.647 48.5207-61.647L55.8762-61.647L55.8762-67.0029L49.1066-67.0029Q45.1851-67.0029 42.5751-65.9645Q39.9651-64.9261 37.796-62.8521Q35.627-60.778 33.1581-57.6561L14.8254-34.5627Q13.903-33.4267 13.3835-32.3368Q12.8639-31.2469 12.6575-29.9175Q12.4512-28.5881 12.4512-26.7235L12.4512 1.25961Q12.4512 8.34351 16.0721 11.9385Q19.693 15.5334 26.8448 15.5334Z"/>
   <path class="hierarchical-1:primary SFSymbolsPreview212121" d="M69.6259-31.2569Q70.192-31.2569 70.7165-31.4648Q71.241-31.6727 71.7918-32.2235L88.9618-49.0196Q89.8277-49.9191 89.8277-51.0017Q89.8277-52.1675 89.0461-52.9152Q88.2645-53.6629 87.114-53.6629Q85.8627-53.6629 85.0342-52.7489L76.7532-44.1452L72.3732-39.6492L72.6242-46.7621L72.6242-92.1898Q72.6242-93.3556 71.7247-94.2211Q70.8252-95.0867 69.6259-95.0867Q68.4113-95.0867 67.5289-94.2211Q66.6466-93.3556 66.6466-92.1898L66.6466-46.7621L66.864-39.6339L62.4687-44.1452L54.203-52.7489Q53.3737-53.6629 52.0737-53.6629Q50.9079-53.6629 50.1587-52.9152Q49.4095-52.1675 49.4095-51.0017Q49.4095-49.9191 50.2747-49.0196L67.4599-32.2235Q68.0107-31.6727 68.5352-31.4648Q69.0598-31.2569 69.6259-31.2569Z"/>
  </g>
  <g id="Thin-M" transform="matrix(1 0 0 1 787.317 1126)">
   <path class="hierarchical-0:secondary SFSymbolsPreview4D4D4D" d="M25.6035 14.5721L112.572 14.5721Q119.092 14.5721 122.426 11.1855Q125.76 7.79877 125.76 1.43967L125.76-25.3227Q125.76-26.7464 125.586-27.7355Q125.412-28.7247 125.013-29.5441Q124.613-30.3635 123.926-31.2599L103.706-57.2556Q101.668-59.8572 99.8837-61.3808Q98.0995-62.9044 95.8729-63.5723Q93.6462-64.2403 90.2985-64.2403L84.1759-64.2403L84.1759-60.9062L90.8714-60.9062Q93.943-60.9062 96.1094-59.7088Q98.2758-58.5114 100.082-56.2653L120.686-29.834Q121.412-28.8788 121.218-28.3436Q121.025-27.8084 120.007-27.8084L84.8885-27.8084Q83.7166-27.8084 83.1444-27.1229Q82.5722-26.4374 82.5722-25.3532L82.5722-25.0175Q82.5722-21.1952 80.8018-18.082Q79.0314-14.9689 75.9872-13.1378Q72.9431-11.3068 69.1055-11.3068Q65.2679-11.3068 62.2238-13.1378Q59.1797-14.9689 57.4162-18.082Q55.6526-21.1952 55.6526-25.0175L55.6526-25.3532Q55.6526-26.4374 55.0735-27.1229Q54.4945-27.8084 53.3226-27.8084L18.2304-27.8084Q17.186-27.8084 17.0063-28.3642Q16.8266-28.92 17.5041-29.834L38.1287-56.2653Q39.9002-58.5114 42.0906-59.7088Q44.281-60.9062 47.3396-60.9062L54.1542-60.9062L54.1542-64.2403L47.9256-64.2403Q44.5648-64.2403 42.345-63.5723Q40.1253-62.9044 38.3163-61.3808Q36.5074-59.8572 34.5192-57.2556L14.2853-31.2599Q13.5628-30.3635 13.1634-29.5441Q12.764-28.7247 12.6076-27.7355Q12.4512-26.7464 12.4512-25.3227L12.4512 1.43967Q12.4512 7.88269 15.7921 11.2274Q19.133 14.5721 25.6035 14.5721Z"/>
   <path class="hierarchical-1:primary SFSymbolsPreview212121" d="M69.1055-31.1371Q69.4511-31.1371 69.7655-31.2649Q70.0798-31.3927 70.3911-31.7032L88.4415-49.6605Q88.9671-50.1991 88.9671-50.8415Q88.9671-51.5472 88.4758-52.0245Q87.9845-52.5017 87.3146-52.5017Q86.6035-52.5017 86.0352-51.9279L76.5526-42.3439L70.7718-36.4868L70.9023-43.3189L70.9023-91.2888Q70.9023-91.9945 70.3632-92.5198Q69.8242-93.045 69.1055-93.045Q68.3517-93.045 67.8196-92.5198Q67.2874-91.9945 67.2874-91.2888L67.2874-43.3189L67.4042-36.4517L61.5883-42.3439L52.1408-51.9279Q51.5724-52.5017 50.8125-52.5017Q50.1076-52.5017 49.6582-52.0245Q49.2088-51.5472 49.2088-50.8415Q49.2088-50.1991 49.7345-49.6605L67.82-31.7032Q68.1305-31.3927 68.4452-31.2649Q68.7599-31.1371 69.1055-31.1371Z"/>
  </g>
  <g id="Ultralight-M" transform="matrix(1 0 0 1 490.872 1126)">
   <path class="hierarchical-0:secondary SFSymbolsPreview4D4D4D" d="M24.968 14.08L112.665 14.08Q118.835 14.08 122.031 10.8166Q125.227 7.5531 125.227 1.53198L125.227-24.6048Q125.227-25.8026 125.073-26.6178Q124.92-27.433 124.582-28.1139Q124.244-28.7949 123.669-29.5677L102.464-57.0511Q100.674-59.3857 99.0738-60.6274Q97.4739-61.869 95.4525-62.347Q93.4311-62.825 90.3603-62.825L84.5451-62.825L84.5451-60.527L90.9431-60.527Q94.1277-60.527 96.1708-59.5501Q98.214-58.5732 100.021-56.3271L121.577-28.5522Q122.089-27.874 121.967-27.4105Q121.846-26.947 121.115-26.947L84.5398-26.947Q83.6243-26.947 83.1699-26.4462Q82.7156-25.9453 82.7156-25.0153L82.7156-24.6384Q82.7156-20.5696 80.8632-17.3744Q79.0108-14.1792 75.8694-12.3482Q72.728-10.5171 68.8385-10.5171Q64.9498-10.5171 61.8084-12.3482Q58.667-14.1792 56.8161-17.3744Q54.9652-20.5696 54.9652-24.6384L54.9652-25.0153Q54.9652-25.9453 54.5094-26.4462Q54.0535-26.947 53.138-26.947L16.5695-26.947Q15.8318-26.947 15.7139-27.4158Q15.596-27.8847 16.0583-28.5522L37.6572-56.3271Q39.4188-58.5732 41.486-59.5501Q43.5532-60.527 46.7346-60.527L53.2722-60.527L53.2722-62.825L47.3206-62.825Q44.2467-62.825 42.2268-62.347Q40.2069-61.869 38.583-60.6274Q36.9591-59.3857 35.2165-57.0511L14.0083-29.5677Q13.3881-28.7949 13.0501-28.1139Q12.7121-27.433 12.5816-26.6178Q12.4512-25.8026 12.4512-24.6048L12.4512 1.53198Q12.4512 7.64694 15.6483 10.8635Q18.8454 14.08 24.968 14.08Z"/>
   <path class="hierarchical-1:primary SFSymbolsPreview212121" d="M68.8385-31.0753Q69.072-31.0753 69.2787-31.1623Q69.4855-31.2492 69.6732-31.4362L88.1744-49.9886Q88.5262-50.3426 88.5262-50.7599Q88.5262-51.2291 88.1836-51.5682Q87.841-51.9073 87.4168-51.9073Q86.9827-51.9073 86.5479-51.5076L76.4503-41.4207L69.9509-34.8663L70.0203-41.555L70.0203-90.8279Q70.0203-91.2971 69.6659-91.6481Q69.3115-91.9991 68.8385-91.9991Q68.3205-91.9991 67.968-91.6481Q67.6155-91.2971 67.6155-90.8279L67.6155-41.555L67.6811-34.8206L61.1366-41.4207L51.0841-51.5076Q50.6493-51.9073 50.1663-51.9073Q49.6971-51.9073 49.4019-51.5682Q49.1066-51.2291 49.1066-50.7599Q49.1066-50.3426 49.4576-49.9886L68.0046-31.4362Q68.1923-31.2492 68.399-31.1623Q68.6058-31.0753 68.8385-31.0753Z"/>
  </g>
  <g id="Black-S" transform="matrix(1 0 0 1 2877.35 696)">
   <path class="hierarchical-0:secondary SFSymbolsPreview4D4D4D" d="M25 6.54297L87.1094 6.54297Q94.2871 6.54297 98.3154 2.51465Q102.344-1.51367 102.344-8.69141L102.344-27.3438Q102.344-31.5918 101.88-34.1064Q101.416-36.6211 99.9023-39.5996L89.4043-60.3027Q87.2559-64.5508 84.9121-66.6992Q82.5684-68.8477 79.5898-69.5801Q76.6113-70.3125 72.6074-70.3125L69.3848-70.3125L69.3848-60.0586L72.6562-60.0586Q74.2676-60.0586 75.4883-59.3018Q76.709-58.5449 77.3438-57.1777L87.8906-34.5703Q88.1348-34.082 87.8906-33.6914Q87.6465-33.3008 86.7676-33.3008L67.2852-33.3008Q65.2832-33.3008 64.4775-32.5439Q63.6719-31.7871 63.6719-30.6641L63.6719-30.5176Q63.6719-28.7598 62.8174-27.002Q61.9629-25.2441 60.2539-24.0723Q58.5449-22.9004 56.0547-22.9004Q53.5645-22.9004 51.8799-24.0723Q50.1953-25.2441 49.3164-27.002Q48.4375-28.7598 48.4375-30.5176L48.4375-30.6641Q48.4375-31.7871 47.6318-32.5439Q46.8262-33.3008 44.8242-33.3008L25.3418-33.3008Q23.6816-33.3008 24.2188-34.5703L34.7656-57.1777Q35.4004-58.5449 36.6211-59.3018Q37.8418-60.0586 39.4531-60.0586L42.7246-60.0586L42.7246-70.3125L39.502-70.3125Q35.498-70.3125 32.5195-69.5801Q29.541-68.8477 27.1973-66.6992Q24.8535-64.5508 22.7051-60.3027L12.207-39.5996Q10.6934-36.6211 10.2295-34.1064Q9.76562-31.5918 9.76562-27.3438L9.76562-8.69141Q9.76562-1.51367 13.7939 2.51465Q17.8223 6.54297 25 6.54297Z"/>
   <path class="hierarchical-1:primary SFSymbolsPreview212121" d="M56.0547-33.0078Q57.3242-33.0078 58.5693-33.4961Q59.8145-33.9844 61.0352-35.1562L73.4863-47.0703Q75-48.584 75-50.5371Q75-52.6855 73.4131-54.0283Q71.8262-55.3711 69.9707-55.3711Q67.7246-55.3711 66.1621-53.7109L62.8906-50.2441L61.5234-46.9238L62.0605-52.3926L62.0605-78.0273Q62.0605-80.4199 60.3516-82.2021Q58.6426-83.9844 56.0547-83.9844Q53.5156-83.9844 51.7822-82.2021Q50.0488-80.4199 50.0488-78.0273L50.0488-52.3926L50.5859-46.9238L49.2188-50.2441L45.9473-53.7109Q44.3848-55.3711 42.1387-55.3711Q40.2832-55.3711 38.6963-54.0283Q37.1094-52.6855 37.1094-50.5371Q37.1094-48.584 38.623-47.0703L51.0742-35.1562Q52.2949-33.9844 53.5645-33.4961Q54.834-33.0078 56.0547-33.0078Z"/>
  </g>
  <g id="Heavy-S" transform="matrix(1 0 0 1 2580.87 696)">
   <path class="hierarchical-0:secondary SFSymbolsPreview4D4D4D" d="M24.3431 6.28967L87.294 6.28967Q94.2642 6.28967 98.0679 2.48604Q101.871-1.3176 101.871-8.25348L101.871-27.9549Q101.871-31.8687 101.402-34.193Q100.932-36.5173 99.453-39.196L88.4705-58.6205Q86.2648-62.5572 83.9958-64.7057Q81.7268-66.8541 78.8754-67.6903Q76.0239-68.5265 72.1115-68.5265L68.2785-68.5265L68.2785-59.2522L72.2527-59.2522Q73.9563-59.2522 75.3902-58.2764Q76.8242-57.3006 77.655-55.8296L88.7436-34.7549Q89.241-33.9897 88.9622-33.53Q88.6833-33.0704 87.5854-33.0704L67.3775-33.0704Q65.4327-33.0704 64.6156-32.2212Q63.7985-31.3721 63.7985-30.1804L63.7985-30.0453Q63.7985-28.1952 62.8864-26.3393Q61.9743-24.4835 60.1849-23.2483Q58.3954-22.0131 55.8243-22.0131Q53.2532-22.0131 51.4824-23.2483Q49.7116-24.4835 48.7808-26.3393Q47.85-28.1952 47.85-30.0453L47.85-30.1804Q47.85-31.3721 47.0268-32.2212Q46.2036-33.0704 44.2596-33.0704L24.0623-33.0704Q21.9185-33.0704 22.8935-34.7549L33.9935-55.8296Q34.8129-57.3006 36.2469-58.2764Q37.6808-59.2522 39.3837-59.2522L43.3701-59.2522L43.3701-68.5265L39.5248-68.5265Q35.6247-68.5265 32.7728-67.6903Q29.921-66.8541 27.6524-64.7057Q25.3838-62.5572 23.1659-58.6205L12.1956-39.196Q10.7048-36.5173 10.2352-34.193Q9.76562-31.8687 9.76562-27.9549L9.76562-8.25348Q9.76562-1.3176 13.5807 2.48604Q17.3958 6.28967 24.3431 6.28967Z"/>
   <path class="hierarchical-1:primary SFSymbolsPreview212121" d="M55.8243-32.8232Q56.9443-32.8232 58.0395-33.2539Q59.1347-33.6845 60.2287-34.7412L72.7142-46.6904Q74.1127-48.0881 74.1127-49.8802Q74.1127-51.8326 72.6871-53.0602Q71.2616-54.2877 69.5213-54.2877Q67.4599-54.2877 66.0469-52.7771L62.2917-48.7572L60.7513-45.6909L61.2305-51.252L61.2305-78.6613Q61.2305-80.8121 59.6828-82.4097Q58.1352-84.0073 55.8243-84.0073Q53.55-84.0073 51.9836-82.4097Q50.4173-80.8121 50.4173-78.6613L50.4173-51.252L50.8858-45.6909L49.3568-48.7572L45.5902-52.7771Q44.1887-54.2877 42.1158-54.2877Q40.3755-54.2877 38.9557-53.0602Q37.5359-51.8326 37.5359-49.8802Q37.5359-48.0881 38.9343-46.6904L51.4198-34.7412Q52.5024-33.6845 53.6163-33.2539Q54.7302-32.8232 55.8243-32.8232Z"/>
  </g>
  <g id="Bold-S" transform="matrix(1 0 0 1 2284.42 696)">
   <path class="hierarchical-0:secondary SFSymbolsPreview4D4D4D" d="M23.6084 6.00586L87.5 6.00586Q94.2383 6.00586 97.7905 2.45361Q101.343-1.09863 101.343-7.76367L101.343-28.6377Q101.343-32.1777 100.867-34.2896Q100.391-36.4014 98.9502-38.7451L87.4268-56.7383Q85.1562-60.3271 82.9712-62.4756Q80.7861-64.624 78.0762-65.5762Q75.3662-66.5283 71.5576-66.5283L67.041-66.5283L67.041-58.3496L71.8018-58.3496Q73.6084-58.3496 75.2808-57.1289Q76.9531-55.9082 78.0029-54.3213L89.6973-34.9609Q90.4785-33.8867 90.1611-33.3496Q89.8438-32.8125 88.501-32.8125L67.4805-32.8125Q65.6006-32.8125 64.7705-31.8604Q63.9404-30.9082 63.9404-29.6387L63.9404-29.5166Q63.9404-27.5635 62.9639-25.5981Q61.9873-23.6328 60.1074-22.3267Q58.2275-21.0205 55.5664-21.0205Q52.9053-21.0205 51.0376-22.3267Q49.1699-23.6328 48.1812-25.5981Q47.1924-27.5635 47.1924-29.5166L47.1924-29.6387Q47.1924-30.9082 46.3501-31.8604Q45.5078-32.8125 43.6279-32.8125L22.6318-32.8125Q19.9463-32.8125 21.4111-34.9609L33.1299-54.3213Q34.1553-55.9082 35.8276-57.1289Q37.5-58.3496 39.3066-58.3496L44.0918-58.3496L44.0918-66.5283L39.5508-66.5283Q35.7666-66.5283 33.0566-65.5762Q30.3467-64.624 28.1616-62.4756Q25.9766-60.3271 23.6816-56.7383L12.1826-38.7451Q10.7178-36.4014 10.2417-34.2896Q9.76562-32.1777 9.76562-28.6377L9.76562-7.76367Q9.76562-1.09863 13.3423 2.45361Q16.9189 6.00586 23.6084 6.00586Z"/>
   <path class="hierarchical-1:primary SFSymbolsPreview212121" d="M55.5664-32.6172Q56.5186-32.6172 57.4463-32.9834Q58.374-33.3496 59.3262-34.2773L71.8506-46.2646Q73.1201-47.5342 73.1201-49.1455Q73.1201-50.8789 71.875-51.9775Q70.6299-53.0762 69.0186-53.0762Q67.1631-53.0762 65.918-51.7334L61.6211-47.0947L59.8877-44.3115L60.3027-49.9756L60.3027-79.3701Q60.3027-81.25 58.9355-82.6416Q57.5684-84.0332 55.5664-84.0332Q53.5889-84.0332 52.2095-82.6416Q50.8301-81.25 50.8301-79.3701L50.8301-49.9756L51.2207-44.3115L49.5117-47.0947L45.1904-51.7334Q43.9697-53.0762 42.0898-53.0762Q40.4785-53.0762 39.2456-51.9775Q38.0127-50.8789 38.0127-49.1455Q38.0127-47.5342 39.2822-46.2646L51.8066-34.2773Q52.7344-33.3496 53.6743-32.9834Q54.6143-32.6172 55.5664-32.6172Z"/>
  </g>
  <g id="Semibold-S" transform="matrix(1 0 0 1 1987.89 696)">
   <path class="hierarchical-0:secondary SFSymbolsPreview4D4D4D" d="M23.1018 5.81055L87.6419 5.81055Q94.2207 5.81055 97.5994 2.43149Q100.978-0.947571 100.978-7.42569L100.978-29.1084Q100.978-32.3914 100.498-34.3563Q100.018-36.3213 98.6038-38.4338L86.7065-55.4405Q84.3918-58.7898 82.2647-60.9383Q80.1376-63.0867 77.5253-64.1186Q74.913-65.1505 71.1754-65.1505L66.188-65.1505L66.188-57.7278L71.4905-57.7278Q73.3681-57.7278 75.2048-56.3381Q77.0416-54.9484 78.2433-53.2814L90.3549-35.1028Q91.3315-33.8158 90.9874-33.2253Q90.6433-32.6347 89.1319-32.6347L67.5514-32.6347Q65.7158-32.6347 64.8769-31.6116Q64.0381-30.5885 64.0381-29.2656L64.0381-29.1519Q64.0381-27.1278 63.0173-25.087Q61.9965-23.0461 60.0544-21.6911Q58.1123-20.3362 55.3886-20.3362Q52.6649-20.3362 50.7309-21.6911Q48.7968-23.0461 47.768-25.087Q46.7392-27.1278 46.7392-29.1519L46.7392-29.2656Q46.7392-30.5885 45.8836-31.6116Q45.0279-32.6347 43.1923-32.6347L21.6454-32.6347Q18.5867-32.6347 20.3888-35.1028L32.5348-53.2814Q33.7021-54.9484 35.5389-56.3381Q37.3756-57.7278 39.2532-57.7278L44.5892-57.7278L44.5892-65.1505L39.5683-65.1505Q35.8643-65.1505 33.252-64.1186Q30.6396-63.0867 28.5126-60.9383Q26.3855-58.7898 24.0372-55.4405L12.1735-38.4338Q10.7269-36.3213 10.2463-34.3563Q9.76562-32.3914 9.76562-29.1084L9.76562-7.42569Q9.76562-0.947571 13.1779 2.43149Q16.5901 5.81055 23.1018 5.81055Z"/>
   <path class="hierarchical-1:primary SFSymbolsPreview212121" d="M55.3886-32.4753Q56.2256-32.4753 57.0377-32.7969Q57.8499-33.1184 58.7044-33.9577L71.2555-45.9717Q72.4358-47.1519 72.4358-48.6389Q72.4358-50.2213 71.315-51.231Q70.1942-52.2408 68.6722-52.2408Q66.9586-52.2408 65.8295-51.0132L61.1588-45.948L59.2926-43.3609L59.6626-49.0959L59.6626-79.8592Q59.6626-81.5521 58.4198-82.8014Q57.177-84.0508 55.3886-84.0508Q53.6156-84.0508 52.3651-82.8014Q51.1147-81.5521 51.1147-79.8592L51.1147-49.0959L51.4519-43.3609L49.6185-45.948L44.915-51.0132Q43.8187-52.2408 42.0723-52.2408Q40.5495-52.2408 39.4455-51.231Q38.3415-50.2213 38.3415-48.6389Q38.3415-47.1519 39.5226-45.9717L52.0729-33.9577Q52.8946-33.1184 53.7144-32.7969Q54.5341-32.4753 55.3886-32.4753Z"/>
  </g>
  <g id="Medium-S" transform="matrix(1 0 0 1 1691.32 696)">
   <path class="hierarchical-0:secondary SFSymbolsPreview4D4D4D" d="M22.718 5.66177L87.7502 5.66177Q94.207 5.66177 97.4545 2.41432Q100.702-0.83313 100.702-7.1701L100.702-29.4655Q100.702-32.5531 100.218-34.407Q99.7345-36.261 98.3406-38.1981L86.161-54.4571Q83.8127-57.6241 81.7291-59.7725Q79.6455-61.9209 77.1076-63.0138Q74.5697-64.1068 70.8855-64.1068L65.5411-64.1068L65.5411-57.2556L71.2547-57.2556Q73.1865-57.2556 75.148-55.7381Q77.1095-54.2206 78.4248-52.4933L90.8539-35.2112Q91.9785-33.7616 91.6142-33.1306Q91.2498-32.4997 89.6103-32.4997L67.6056-32.4997Q65.8035-32.4997 64.9578-31.4228Q64.1121-30.3459 64.1121-28.9825L64.1121-28.8757Q64.1121-26.7975 63.0573-24.6994Q62.0026-22.6013 60.0136-21.2093Q58.0246-19.8174 55.2536-19.8174Q52.4834-19.8174 50.4986-21.2093Q48.5138-22.6013 47.4545-24.6994Q46.3951-26.7975 46.3951-28.8757L46.3951-28.9825Q46.3951-30.3459 45.5296-31.4228Q44.664-32.4997 42.8619-32.4997L20.8977-32.4997Q17.5552-32.4997 19.6144-35.2112L32.0831-52.4933Q33.358-54.2206 35.3195-55.7381Q37.281-57.2556 39.2128-57.2556L44.9669-57.2556L44.9669-64.1068L39.5821-64.1068Q35.9383-64.1068 33.4003-63.0138Q30.8624-61.9209 28.7788-59.7725Q26.6953-57.6241 24.3065-54.4571L12.1674-38.1981Q10.733-36.261 10.2493-34.407Q9.76562-32.5531 9.76562-29.4655L9.76562-7.1701Q9.76562-0.83313 13.0531 2.41432Q16.3406 5.66177 22.718 5.66177Z"/>
   <path class="hierarchical-1:primary SFSymbolsPreview212121" d="M55.2536-32.3669Q56.0028-32.3669 56.7276-32.6553Q57.4524-32.9437 58.2321-33.7151L70.8038-45.7489Q71.917-46.862 71.917-48.2552Q71.917-49.7223 70.8904-50.6649Q69.8639-51.6075 68.409-51.6075Q66.8037-51.6075 65.7616-50.4677L60.8086-45.079L58.8409-42.6399L59.1774-48.4283L59.1774-80.2292Q59.1774-81.781 58.0292-82.9227Q56.881-84.0645 55.2536-84.0645Q53.6354-84.0645 52.4826-82.9227Q51.3298-81.781 51.3298-80.2292L51.3298-48.4283L51.6266-42.6399L49.6994-45.079L44.706-50.4677Q43.7042-51.6075 42.0586-51.6075Q40.6036-51.6075 39.5973-50.6649Q38.591-49.7223 38.591-48.2552Q38.591-46.862 39.7041-45.7489L52.2751-33.7151Q53.0159-32.9437 53.7449-32.6553Q54.4739-32.3669 55.2536-32.3669Z"/>
  </g>
  <g id="Regular-S" transform="matrix(1 0 0 1 1394.79 696)">
   <path class="hierarchical-0:secondary SFSymbolsPreview4D4D4D" d="M22.2168 5.46875L87.8906 5.46875Q94.1895 5.46875 97.2656 2.39258Q100.342-0.683594 100.342-6.83594L100.342-29.9316Q100.342-32.7637 99.8535-34.4727Q99.3652-36.1816 97.998-37.8906L85.4492-53.1738Q83.0566-56.1035 81.0303-58.252Q79.0039-60.4004 76.5625-61.5723Q74.1211-62.7441 70.5078-62.7441L64.6973-62.7441L64.6973-56.6406L70.9473-56.6406Q72.9492-56.6406 75.0732-54.9561Q77.1973-53.2715 78.6621-51.4648L91.5039-35.3516Q92.8223-33.6914 92.4316-33.0078Q92.041-32.3242 90.2344-32.3242L67.6758-32.3242Q65.918-32.3242 65.0635-31.1768Q64.209-30.0293 64.209-28.6133L64.209-28.5156Q64.209-26.3672 63.1104-24.1943Q62.0117-22.0215 59.9609-20.5811Q57.9102-19.1406 55.0781-19.1406Q52.2461-19.1406 50.1953-20.5811Q48.1445-22.0215 47.0459-24.1943Q45.9473-26.3672 45.9473-28.5156L45.9473-28.6133Q45.9473-30.0293 45.0684-31.1768Q44.1895-32.3242 42.4316-32.3242L19.9219-32.3242Q16.2109-32.3242 18.6035-35.3516L31.4941-51.4648Q32.9102-53.2715 35.0342-54.9561Q37.1582-56.6406 39.1602-56.6406L45.459-56.6406L45.459-62.7441L39.5996-62.7441Q36.0352-62.7441 33.5938-61.5723Q31.1523-60.4004 29.126-58.252Q27.0996-56.1035 24.6582-53.1738L12.1582-37.8906Q10.7422-36.1816 10.2539-34.4727Q9.76562-32.7637 9.76562-29.9316L9.76562-6.83594Q9.76562-0.683594 12.8906 2.39258Q16.0156 5.46875 22.2168 5.46875Z"/>
   <path class="hierarchical-1:primary SFSymbolsPreview212121" d="M55.0781-32.2266Q55.7129-32.2266 56.3232-32.4707Q56.9336-32.7148 57.6172-33.3984L70.2148-45.459Q71.2402-46.4844 71.2402-47.7539Q71.2402-49.0723 70.3369-49.9268Q69.4336-50.7812 68.0664-50.7812Q66.6016-50.7812 65.6738-49.7559L60.3516-43.9453L58.252-41.6992L58.5449-47.5586L58.5449-80.7129Q58.5449-82.0801 57.5195-83.0811Q56.4941-84.082 55.0781-84.082Q53.6621-84.082 52.6367-83.0811Q51.6113-82.0801 51.6113-80.7129L51.6113-47.5586L51.8555-41.6992L49.8047-43.9453L44.4336-49.7559Q43.5547-50.7812 42.041-50.7812Q40.6738-50.7812 39.7949-49.9268Q38.916-49.0723 38.916-47.7539Q38.916-46.4844 39.9414-45.459L52.5391-33.3984Q53.1738-32.7148 53.7842-32.4707Q54.3945-32.2266 55.0781-32.2266Z"/>
  </g>
  <g id="Light-S" transform="matrix(1 0 0 1 1098.43 696)">
   <path class="hierarchical-0:secondary SFSymbolsPreview4D4D4D" d="M21.3997 4.81796L88.0119 4.81796Q93.8568 4.81796 96.751 1.90811Q99.6452-1.00174 99.6452-6.71463L99.6452-28.9932Q99.6452-31.3713 99.2252-32.7927Q98.8052-34.214 97.6654-35.6804L83.8448-52.9167Q81.7551-55.4977 79.9709-57.2754Q78.1868-59.053 76.0101-59.9754Q73.8335-60.8978 70.5986-60.8978L65.1817-60.8978L65.1817-56.1409L71.0381-56.1409Q73.1911-56.1409 75.1564-54.744Q77.1217-53.347 78.5713-51.5556L92.6849-33.6868Q93.7157-32.3746 93.4158-31.7894Q93.116-31.2042 91.6878-31.2042L67.2218-31.2042Q65.7967-31.2042 65.0936-30.2914Q64.3906-29.3785 64.3906-28.1746L64.3906-28.0159Q64.3906-25.5501 63.1859-23.2712Q61.9812-20.9923 59.8019-19.5595Q57.6225-18.1267 54.715-18.1267Q51.8219-18.1267 49.6426-19.5595Q47.4632-20.9923 46.2585-23.2712Q45.0539-25.5501 45.0539-28.0159L45.0539-28.1746Q45.0539-29.3785 44.334-30.2914Q43.6142-31.2042 42.1898-31.2042L17.7574-31.2042Q14.8033-31.2042 16.7267-33.6868L30.8739-51.5556Q32.2899-53.347 34.2548-54.744Q36.2198-56.1409 38.3728-56.1409L44.2932-56.1409L44.2932-60.8978L38.8123-60.8978Q35.611-60.8978 33.4347-59.9754Q31.2584-59.053 29.4743-57.2754Q27.6901-55.4977 25.5661-52.9167L11.7798-35.6804Q10.6056-34.214 10.1856-32.7927Q9.76562-31.3713 9.76562-28.9932L9.76562-6.71463Q9.76562-0.971222 12.6938 1.92337Q15.6219 4.81796 21.3997 4.81796Z"/>
   <path class="hierarchical-1:primary SFSymbolsPreview212121" d="M54.715-32.151Q55.2132-32.151 55.6873-32.3421Q56.1615-32.5333 56.6788-33.0353L69.8517-45.8832Q70.6497-46.666 70.6497-47.6479Q70.6497-48.6633 69.9432-49.3362Q69.2368-50.0092 68.203-50.0092Q67.086-50.0092 66.3399-49.1959L60.215-42.7345L57.177-39.595L57.3944-45.2576L57.3944-80.1071Q57.3944-81.1722 56.6036-81.9458Q55.8128-82.7194 54.715-82.7194Q53.6316-82.7194 52.8408-81.9458Q52.05-81.1722 52.05-80.1071L52.05-45.2576L52.2339-39.5798L49.2142-42.7345L43.0565-49.1959Q42.3439-50.0092 41.1934-50.0092Q40.1443-50.0092 39.4619-49.3362Q38.7794-48.6633 38.7794-47.6479Q38.7794-46.666 39.563-45.8832L52.7664-33.0353Q53.2494-32.5333 53.7235-32.3421Q54.1977-32.151 54.715-32.151Z"/>
  </g>
  <g id="Thin-S" transform="matrix(1 0 0 1 802.177 696)">
   <path class="hierarchical-0:secondary SFSymbolsPreview4D4D4D" d="M20.3186 3.95737L88.1721 3.95737Q93.4158 3.95737 96.0701 1.26762Q98.7244-1.42212 98.7244-6.55441L98.7244-27.7519Q98.7244-29.5296 98.3944-30.5706Q98.0644-31.6116 97.2244-32.7583L81.723-52.5764Q80.0331-54.6974 78.5694-55.9845Q77.1057-57.2716 75.2796-57.8632Q73.4535-58.4549 70.7184-58.4549L65.8226-58.4549L65.8226-55.4802L71.1578-55.4802Q73.5115-55.4802 75.2666-54.4636Q77.0218-53.447 78.4515-51.6754L94.2459-31.4842Q94.8967-30.6328 94.717-30.1777Q94.5374-29.7226 93.6096-29.7226L66.6214-29.7226Q65.6364-29.7226 65.1337-29.1203Q64.6309-28.5179 64.6309-27.594L64.6309-27.3552Q64.6309-24.469 63.2862-22.0501Q61.9415-19.6312 59.5921-18.2083Q57.2426-16.7854 54.2343-16.7854Q51.2619-16.7854 48.912-18.2083Q46.5622-19.6312 45.2175-22.0501Q43.8728-24.469 43.8728-27.3552L43.8728-27.594Q43.8728-28.5179 43.3632-29.1203Q42.8535-29.7226 41.8694-29.7226L14.8949-29.7226Q12.9417-29.7226 14.2441-31.4842L30.0529-51.6754Q31.469-53.447 33.2237-54.4636Q34.9785-55.4802 37.3322-55.4802L42.7521-55.4802L42.7521-58.4549L37.7716-58.4549Q35.051-58.4549 33.2249-57.8632Q31.3988-57.2716 29.9347-55.9845Q28.4706-54.6974 26.7677-52.5764L11.2793-32.7583Q10.4256-31.6116 10.0956-30.5706Q9.76562-29.5296 9.76562-27.7519L9.76562-6.55441Q9.76562-1.35117 12.4336 1.3031Q15.1016 3.95737 20.3186 3.95737Z"/>
   <path class="hierarchical-1:primary SFSymbolsPreview212121" d="M54.2343-32.0511Q54.5525-32.0511 54.8466-32.172Q55.1407-32.2929 55.4375-32.5546L69.371-46.4432Q69.8692-46.9063 69.8692-47.5075Q69.8692-48.1232 69.4229-48.5558Q68.9766-48.9883 68.383-48.9883Q67.7269-48.9883 67.2203-48.455L60.0349-41.1331L55.7556-36.8126L55.8731-42.215L55.8731-79.3068Q55.8731-79.9706 55.3925-80.4443Q54.9118-80.9181 54.2343-80.9181Q53.5919-80.9181 53.1113-80.4443Q52.6306-79.9706 52.6306-79.3068L52.6306-42.215L52.7344-36.7775L48.4337-41.1331L41.2346-48.455Q40.7425-48.9883 40.0726-48.9883Q39.4432-48.9883 39.0213-48.5558Q38.5994-48.1232 38.5994-47.5075Q38.5994-46.9063 39.0625-46.4432L53.0663-32.5546Q53.3493-32.2929 53.6434-32.172Q53.9375-32.0511 54.2343-32.0511Z"/>
  </g>
  <g id="Ultralight-S" transform="matrix(1 0 0 1 505.702 696)">
   <path class="hierarchical-0:secondary SFSymbolsPreview4D4D4D" d="M19.7647 3.51639L88.2538 3.51639Q93.1908 3.51639 95.7218 0.93956Q98.2529-1.63727 98.2529-6.47278L98.2529-27.1164Q98.2529-28.5858 97.9691-29.4319Q97.6852-30.278 96.9994-31.2607L80.6358-52.4017Q79.1512-54.287 77.8515-55.323Q76.5518-56.3591 74.905-56.7818Q73.2582-57.2044 70.7802-57.2044L66.1507-57.2044L66.1507-55.1422L71.2196-55.1422Q73.6755-55.1422 75.3227-54.3205Q76.9699-53.4988 78.3897-51.7372L95.0462-30.3566Q95.5017-29.7409 95.3835-29.3526Q95.2652-28.9642 94.5938-28.9642L66.3132-28.9642Q65.5548-28.9642 65.1543-28.5206Q64.7537-28.0769 64.7537-27.2964L64.7537-27.0172Q64.7537-23.9151 63.3373-21.4245Q61.9209-18.9339 59.4841-17.5159Q57.0473-16.098 53.9886-16.098Q50.9743-16.098 48.5378-17.5159Q46.1014-18.9339 44.6846-21.4245Q43.2678-23.9151 43.2678-27.0172L43.2678-27.2964Q43.2678-28.0769 42.8658-28.5206Q42.4637-28.9642 41.7053-28.9642L13.4285-28.9642Q11.9881-28.9642 12.973-30.3566L29.6326-51.7372Q31.0486-53.4988 32.6958-54.3205Q34.343-55.1422 36.7989-55.1422L41.9624-55.1422L41.9624-57.2044L37.2383-57.2044Q34.7633-57.2044 33.1169-56.7818Q31.4705-56.3591 30.1704-55.323Q28.8704-54.287 27.3827-52.4017L11.0229-31.2607Q10.3333-30.278 10.0494-29.4319Q9.76562-28.5858 9.76562-27.1164L9.76562-6.47278Q9.76562-1.54648 12.3001 0.984955Q14.8346 3.51639 19.7647 3.51639Z"/>
   <path class="hierarchical-1:primary SFSymbolsPreview212121" d="M53.9886-31.9992Q54.2145-31.9992 54.4163-32.0847Q54.6181-32.1701 54.8019-32.309L69.1254-46.7308Q69.4695-47.0291 69.4695-47.4358Q69.4695-47.8462 69.1563-48.156Q68.8431-48.4657 68.4753-48.4657Q68.055-48.4657 67.672-48.0759L59.9426-40.3122L55.0278-35.3874L55.0941-40.6563L55.0941-78.8963Q55.0941-79.3556 54.7726-79.6753Q54.451-79.995 53.9886-79.995Q53.5713-79.995 53.2497-79.6753Q52.9282-79.3556 52.9282-78.8963L52.9282-40.6563L52.9907-35.3416L48.0339-40.3122L40.3015-48.0759Q39.9216-48.4657 39.4981-48.4657Q39.0846-48.4657 38.7959-48.156Q38.5071-47.8462 38.5071-47.4358Q38.5071-47.0291 38.8062-46.7308L53.2204-32.309Q53.4012-32.1701 53.6026-32.0847Q53.804-31.9992 53.9886-31.9992Z"/>
  </g>
 </g>
</svg>
