<?xml version="1.0" encoding="UTF-8"?>
<!--Generator: Apple Native CoreSVG 149-->
<!DOCTYPE svg
PUBLIC "-//W3C//DTD SVG 1.1//EN"
       "http://www.w3.org/Graphics/SVG/1.1/DTD/svg11.dtd">
<svg version="1.1" xmlns="http://www.w3.org/2000/svg" xmlns:xlink="http://www.w3.org/1999/xlink" width="3300" height="2200">
 <!--glyph: "uni100B85.medium", point size: 100.0, font version: "17.0d9e1", template writer version: "59"-->
 <g id="Notes">
  <rect height="2200" id="artboard" style="fill:white;opacity:1" width="3300" x="0" y="0"/>
  <line style="fill:none;stroke:black;opacity:1;stroke-width:0.5;" x1="263" x2="3036" y1="292" y2="292"/>
  <text style="stroke:none;fill:black;font-family:sans-serif;font-size:13;font-weight:bold;" transform="matrix(1 0 0 1 263 322)">Weight/Scale Variations</text>
  <text style="stroke:none;fill:black;font-family:sans-serif;font-size:13;text-anchor:middle;" transform="matrix(1 0 0 1 559.711 322)">Ultralight</text>
  <text style="stroke:none;fill:black;font-family:sans-serif;font-size:13;text-anchor:middle;" transform="matrix(1 0 0 1 856.422 322)">Thin</text>
  <text style="stroke:none;fill:black;font-family:sans-serif;font-size:13;text-anchor:middle;" transform="matrix(1 0 0 1 1153.13 322)">Light</text>
  <text style="stroke:none;fill:black;font-family:sans-serif;font-size:13;text-anchor:middle;" transform="matrix(1 0 0 1 1449.84 322)">Regular</text>
  <text style="stroke:none;fill:black;font-family:sans-serif;font-size:13;text-anchor:middle;" transform="matrix(1 0 0 1 1746.56 322)">Medium</text>
  <text style="stroke:none;fill:black;font-family:sans-serif;font-size:13;text-anchor:middle;" transform="matrix(1 0 0 1 2043.27 322)">Semibold</text>
  <text style="stroke:none;fill:black;font-family:sans-serif;font-size:13;text-anchor:middle;" transform="matrix(1 0 0 1 2339.98 322)">Bold</text>
  <text style="stroke:none;fill:black;font-family:sans-serif;font-size:13;text-anchor:middle;" transform="matrix(1 0 0 1 2636.69 322)">Heavy</text>
  <text style="stroke:none;fill:black;font-family:sans-serif;font-size:13;text-anchor:middle;" transform="matrix(1 0 0 1 2933.4 322)">Black</text>
  <line style="fill:none;stroke:black;opacity:1;stroke-width:0.5;" x1="263" x2="3036" y1="1903" y2="1903"/>
  <g transform="matrix(1 0 0 1 263 1933)">
   <path d="M9.24805 0.830078Q10.8691 0.830078 12.2949 0.214844Q13.7207-0.400391 14.8096-1.49414Q15.8984-2.58789 16.5186-4.01367Q17.1387-5.43945 17.1387-7.05078Q17.1387-8.66211 16.5186-10.0879Q15.8984-11.5137 14.8047-12.6074Q13.7109-13.7012 12.2852-14.3164Q10.8594-14.9316 9.23828-14.9316Q7.62695-14.9316 6.20117-14.3164Q4.77539-13.7012 3.69141-12.6074Q2.60742-11.5137 1.9873-10.0879Q1.36719-8.66211 1.36719-7.05078Q1.36719-5.43945 1.9873-4.01367Q2.60742-2.58789 3.69629-1.49414Q4.78516-0.400391 6.21094 0.214844Q7.63672 0.830078 9.24805 0.830078ZM9.24805-0.654297Q7.91992-0.654297 6.7627-1.14746Q5.60547-1.64062 4.73145-2.51953Q3.85742-3.39844 3.36426-4.56055Q2.87109-5.72266 2.87109-7.05078Q2.87109-8.37891 3.35938-9.54102Q3.84766-10.7031 4.72168-11.582Q5.5957-12.4609 6.75293-12.9541Q7.91016-13.4473 9.23828-13.4473Q10.5762-13.4473 11.7334-12.9541Q12.8906-12.4609 13.7695-11.582Q14.6484-10.7031 15.1465-9.54102Q15.6445-8.37891 15.6445-7.05078Q15.6445-5.72266 15.1514-4.56055Q14.6582-3.39844 13.7842-2.51953Q12.9102-1.64062 11.748-1.14746Q10.5859-0.654297 9.24805-0.654297ZM5.83984-7.04102Q5.83984-6.71875 6.04492-6.51855Q6.25-6.31836 6.5918-6.31836L8.50586-6.31836L8.50586-4.39453Q8.50586-4.0625 8.70605-3.85742Q8.90625-3.65234 9.22852-3.65234Q9.56055-3.65234 9.76562-3.85742Q9.9707-4.0625 9.9707-4.39453L9.9707-6.31836L11.8945-6.31836Q12.2266-6.31836 12.4316-6.51855Q12.6367-6.71875 12.6367-7.04102Q12.6367-7.37305 12.4316-7.57812Q12.2266-7.7832 11.8945-7.7832L9.9707-7.7832L9.9707-9.69727Q9.9707-10.0391 9.76562-10.2441Q9.56055-10.4492 9.22852-10.4492Q8.90625-10.4492 8.70605-10.2441Q8.50586-10.0391 8.50586-9.69727L8.50586-7.7832L6.5918-7.7832Q6.25-7.7832 6.04492-7.57812Q5.83984-7.37305 5.83984-7.04102Z"/>
  </g>
  <g transform="matrix(1 0 0 1 281.867 1933)">
   <path d="M11.709 2.91016Q13.75 2.91016 15.5518 2.12891Q17.3535 1.34766 18.7305-0.0292969Q20.1074-1.40625 20.8887-3.20801Q21.6699-5.00977 21.6699-7.05078Q21.6699-9.0918 20.8887-10.8936Q20.1074-12.6953 18.7305-14.0723Q17.3535-15.4492 15.5469-16.2305Q13.7402-17.0117 11.6992-17.0117Q9.6582-17.0117 7.85645-16.2305Q6.05469-15.4492 4.68262-14.0723Q3.31055-12.6953 2.5293-10.8936Q1.74805-9.0918 1.74805-7.05078Q1.74805-5.00977 2.5293-3.20801Q3.31055-1.40625 4.6875-0.0292969Q6.06445 1.34766 7.86621 2.12891Q9.66797 2.91016 11.709 2.91016ZM11.709 1.25Q9.98047 1.25 8.47656 0.605469Q6.97266-0.0390625 5.83496-1.17676Q4.69727-2.31445 4.05762-3.81836Q3.41797-5.32227 3.41797-7.05078Q3.41797-8.7793 4.05762-10.2832Q4.69727-11.7871 5.83008-12.9297Q6.96289-14.0723 8.4668-14.7119Q9.9707-15.3516 11.6992-15.3516Q13.4277-15.3516 14.9316-14.7119Q16.4355-14.0723 17.5781-12.9297Q18.7207-11.7871 19.3652-10.2832Q20.0098-8.7793 20.0098-7.05078Q20.0098-5.32227 19.3701-3.81836Q18.7305-2.31445 17.5928-1.17676Q16.4551-0.0390625 14.9463 0.605469Q13.4375 1.25 11.709 1.25ZM7.39258-7.04102Q7.39258-6.68945 7.62695-6.46484Q7.86133-6.24023 8.23242-6.24023L10.8789-6.24023L10.8789-3.57422Q10.8789-3.21289 11.1035-2.9834Q11.3281-2.75391 11.6797-2.75391Q12.0508-2.75391 12.2852-2.9834Q12.5195-3.21289 12.5195-3.57422L12.5195-6.24023L15.1758-6.24023Q15.5371-6.24023 15.7715-6.46484Q16.0059-6.68945 16.0059-7.04102Q16.0059-7.41211 15.7715-7.6416Q15.5371-7.87109 15.1758-7.87109L12.5195-7.87109L12.5195-10.5176Q12.5195-10.8984 12.2852-11.1279Q12.0508-11.3574 11.6797-11.3574Q11.3281-11.3574 11.1035-11.1279Q10.8789-10.8984 10.8789-10.5176L10.8789-7.87109L8.23242-7.87109Q7.85156-7.87109 7.62207-7.6416Q7.39258-7.41211 7.39258-7.04102Z"/>
  </g>
  <g transform="matrix(1 0 0 1 305.646 1933)">
   <path d="M14.9707 5.66406Q17.0605 5.66406 18.96 5.01465Q20.8594 4.36523 22.4512 3.19336Q24.043 2.02148 25.2197 0.429688Q26.3965-1.16211 27.0459-3.06641Q27.6953-4.9707 27.6953-7.05078Q27.6953-9.14062 27.0459-11.04Q26.3965-12.9395 25.2197-14.5312Q24.043-16.123 22.4512-17.2998Q20.8594-18.4766 18.9551-19.126Q17.0508-19.7754 14.9609-19.7754Q12.8711-19.7754 10.9717-19.126Q9.07227-18.4766 7.48535-17.2998Q5.89844-16.123 4.72168-14.5312Q3.54492-12.9395 2.90039-11.04Q2.25586-9.14062 2.25586-7.05078Q2.25586-4.9707 2.90527-3.06641Q3.55469-1.16211 4.72656 0.429688Q5.89844 2.02148 7.49023 3.19336Q9.08203 4.36523 10.9814 5.01465Q12.8809 5.66406 14.9707 5.66406ZM14.9707 3.84766Q13.1641 3.84766 11.5283 3.2959Q9.89258 2.74414 8.53516 1.74805Q7.17773 0.751953 6.17676-0.610352Q5.17578-1.97266 4.62891-3.6084Q4.08203-5.24414 4.08203-7.05078Q4.08203-8.86719 4.62891-10.5029Q5.17578-12.1387 6.17188-13.501Q7.16797-14.8633 8.52539-15.8594Q9.88281-16.8555 11.5186-17.4023Q13.1543-17.9492 14.9609-17.9492Q16.7773-17.9492 18.4131-17.4023Q20.0488-16.8555 21.4111-15.8594Q22.7734-14.8633 23.7695-13.501Q24.7656-12.1387 25.3174-10.5029Q25.8691-8.86719 25.8691-7.05078Q25.8789-5.24414 25.332-3.6084Q24.7852-1.97266 23.7842-0.610352Q22.7832 0.751953 21.4209 1.74805Q20.0586 2.74414 18.4229 3.2959Q16.7871 3.84766 14.9707 3.84766ZM9.45312-7.04102Q9.45312-6.66016 9.71191-6.41113Q9.9707-6.16211 10.3711-6.16211L14.0625-6.16211L14.0625-2.46094Q14.0625-2.06055 14.3115-1.80664Q14.5605-1.55273 14.9414-1.55273Q15.3516-1.55273 15.6055-1.80664Q15.8594-2.06055 15.8594-2.46094L15.8594-6.16211L19.5605-6.16211Q19.9609-6.16211 20.2148-6.41113Q20.4688-6.66016 20.4688-7.04102Q20.4688-7.45117 20.2148-7.70508Q19.9609-7.95898 19.5605-7.95898L15.8594-7.95898L15.8594-11.6504Q15.8594-12.0605 15.6055-12.3145Q15.3516-12.5684 14.9414-12.5684Q14.5605-12.5684 14.3115-12.3096Q14.0625-12.0508 14.0625-11.6504L14.0625-7.95898L10.3711-7.95898Q9.96094-7.95898 9.70703-7.70508Q9.45312-7.45117 9.45312-7.04102Z"/>
  </g>
  <text style="stroke:none;fill:black;font-family:sans-serif;font-size:13;font-weight:bold;" transform="matrix(1 0 0 1 263 1953)">Design Variations</text>
  <text style="stroke:none;fill:black;font-family:sans-serif;font-size:13;" transform="matrix(1 0 0 1 263 1971)">Symbols are supported in up to nine weights and three scales.</text>
  <text style="stroke:none;fill:black;font-family:sans-serif;font-size:13;" transform="matrix(1 0 0 1 263 1989)">For optimal layout with text and other symbols, vertically align</text>
  <text style="stroke:none;fill:black;font-family:sans-serif;font-size:13;" transform="matrix(1 0 0 1 263 2007)">symbols with the adjacent text.</text>
  <line style="fill:none;stroke:#00AEEF;stroke-width:0.5;opacity:1.0;" x1="776" x2="776" y1="1919" y2="1933"/>
  <g transform="matrix(1 0 0 1 776 1933)">
   <path d="M3.31055 0.15625Q3.70117 0.15625 3.91602-0.00976562Q4.13086-0.175781 4.26758-0.585938L5.52734-4.0332L11.2891-4.0332L12.5488-0.585938Q12.6855-0.175781 12.9004-0.00976562Q13.1152 0.15625 13.4961 0.15625Q13.8867 0.15625 14.1162-0.0585938Q14.3457-0.273438 14.3457-0.644531Q14.3457-0.869141 14.2383-1.17188L9.6582-13.3691Q9.48242-13.8184 9.17969-14.043Q8.87695-14.2676 8.4082-14.2676Q7.5-14.2676 7.17773-13.3789L2.59766-1.16211Q2.49023-0.859375 2.49023-0.634766Q2.49023-0.263672 2.70996-0.0537109Q2.92969 0.15625 3.31055 0.15625ZM6.00586-5.51758L8.37891-12.0898L8.42773-12.0898L10.8008-5.51758Z"/>
  </g>
  <line style="fill:none;stroke:#00AEEF;stroke-width:0.5;opacity:1.0;" x1="793.197" x2="793.197" y1="1919" y2="1933"/>
  <text style="stroke:none;fill:black;font-family:sans-serif;font-size:13;font-weight:bold;" transform="matrix(1 0 0 1 776 1953)">Margins</text>
  <text style="stroke:none;fill:black;font-family:sans-serif;font-size:13;" transform="matrix(1 0 0 1 776 1971)">Leading and trailing margins on the left and right side of each symbol</text>
  <text style="stroke:none;fill:black;font-family:sans-serif;font-size:13;" transform="matrix(1 0 0 1 776 1989)">can be adjusted by modifying the x-location of the margin guidelines.</text>
  <text style="stroke:none;fill:black;font-family:sans-serif;font-size:13;" transform="matrix(1 0 0 1 776 2007)">Modifications are automatically applied proportionally to all</text>
  <text style="stroke:none;fill:black;font-family:sans-serif;font-size:13;" transform="matrix(1 0 0 1 776 2025)">scales and weights.</text>
  <g transform="matrix(1 0 0 1 1289 1933)">
   <path d="M2.8418 1.86523L4.54102 3.57422Q5.18555 4.22852 5.90332 4.17969Q6.62109 4.13086 7.31445 3.35938L18.0078-8.42773L17.041-9.4043L6.42578 2.27539Q6.16211 2.57812 5.89355 2.61719Q5.625 2.65625 5.27344 2.30469L4.10156 1.14258Q3.75 0.791016 3.79395 0.522461Q3.83789 0.253906 4.14062-0.0195312L15.6152-10.8203L14.6387-11.7871L3.04688-0.898438Q2.30469-0.214844 2.25098 0.498047Q2.19727 1.21094 2.8418 1.86523ZM9.25781-16.3281Q8.94531-16.0254 8.90625-15.6348Q8.86719-15.2441 9.04297-14.9512Q9.21875-14.6777 9.55566-14.541Q9.89258-14.4043 10.3809-14.5215Q11.4746-14.7754 12.5977-14.7314Q13.7207-14.6875 14.7949-13.9844L14.209-12.5293Q13.9551-11.9043 14.0674-11.4404Q14.1797-10.9766 14.5801-10.5664L16.875-8.25195Q17.2363-7.88086 17.5781-7.82227Q17.9199-7.76367 18.3398-7.8418L19.4043-8.03711L20.0684-7.36328L20.0293-6.80664Q20-6.43555 20.1221-6.12305Q20.2441-5.81055 20.6055-5.44922L21.3672-4.70703Q21.7285-4.3457 22.1533-4.33105Q22.5781-4.31641 22.9297-4.66797L25.8398-7.58789Q26.1914-7.93945 26.1816-8.35449Q26.1719-8.76953 25.8105-9.13086L25.0391-9.89258Q24.6875-10.2539 24.3799-10.3857Q24.0723-10.5176 23.7109-10.4883L23.1348-10.4395L22.4902-11.0742L22.7344-12.1973Q22.832-12.6172 22.6953-12.9834Q22.5586-13.3496 22.1191-13.7891L19.9219-15.9766Q18.6719-17.2168 17.2607-17.8369Q15.8496-18.457 14.4189-18.4814Q12.9883-18.5059 11.665-17.959Q10.3418-17.4121 9.25781-16.3281ZM10.752-15.957Q11.6602-16.6211 12.7002-16.9043Q13.7402-17.1875 14.8047-17.085Q15.8691-16.9824 16.8701-16.5137Q17.8711-16.0449 18.7012-15.2051L21.1328-12.793Q21.3086-12.6172 21.3525-12.4512Q21.3965-12.2852 21.3379-12.0312L21.0156-10.5469L22.5195-9.0625L23.5059-9.12109Q23.6914-9.13086 23.7891-9.09668Q23.8867-9.0625 24.0332-8.91602L24.6094-8.33984L22.168-5.89844L21.5918-6.47461Q21.4453-6.62109 21.4062-6.71875Q21.3672-6.81641 21.377-7.01172L21.4453-7.98828L19.9512-9.47266L18.4277-9.21875Q18.1836-9.16992 18.042-9.2041Q17.9004-9.23828 17.7148-9.41406L15.7129-11.416Q15.5176-11.5918 15.4932-11.7529Q15.4688-11.9141 15.5859-12.1875L16.4648-14.2773Q15.293-15.3711 13.8281-15.791Q12.3633-16.2109 10.8398-15.7617Q10.7227-15.7324 10.6885-15.8057Q10.6543-15.8789 10.752-15.957Z"/>
  </g>
  <text style="stroke:none;fill:black;font-family:sans-serif;font-size:13;font-weight:bold;" transform="matrix(1 0 0 1 1289 1953)">Exporting</text>
  <text style="stroke:none;fill:black;font-family:sans-serif;font-size:13;" transform="matrix(1 0 0 1 1289 1971)">Symbols should be outlined when exporting to ensure the</text>
  <text style="stroke:none;fill:black;font-family:sans-serif;font-size:13;" transform="matrix(1 0 0 1 1289 1989)">design is preserved when submitting to Xcode.</text>
  <text id="template-version" style="stroke:none;fill:black;font-family:sans-serif;font-size:13;text-anchor:end;" transform="matrix(1 0 0 1 3036 1933)">Template v.3.0</text>
  <text style="stroke:none;fill:black;font-family:sans-serif;font-size:13;text-anchor:end;" transform="matrix(1 0 0 1 3036 1951)">Requires Xcode 13 or greater</text>
  <text id="descriptive-name" style="stroke:none;fill:black;font-family:sans-serif;font-size:13;text-anchor:end;" transform="matrix(1 0 0 1 3036 1969)">Generated from building</text>
  <text style="stroke:none;fill:black;font-family:sans-serif;font-size:13;text-anchor:end;" transform="matrix(1 0 0 1 3036 1987)">Typeset at 100 points</text>
  <text style="stroke:none;fill:black;font-family:sans-serif;font-size:13;" transform="matrix(1 0 0 1 263 726)">Small</text>
  <text style="stroke:none;fill:black;font-family:sans-serif;font-size:13;" transform="matrix(1 0 0 1 263 1156)">Medium</text>
  <text style="stroke:none;fill:black;font-family:sans-serif;font-size:13;" transform="matrix(1 0 0 1 263 1586)">Large</text>
 </g>
 <g id="Guides">
  <g id="H-reference" style="fill:#27AAE1;stroke:none;" transform="matrix(1 0 0 1 339 696)">
   <path d="M0.993347 0L3.6377 0L29.3282-67.1326L30.0301-67.1326L30.0301-70.459L28.1227-70.459ZM11.6882-24.4797L46.9818-24.4797L46.2311-26.7288L12.4382-26.7288ZM55.1193 0L57.7637 0L30.6381-70.459L29.4327-70.459L29.4327-67.1326Z"/>
  </g>
  <line id="Baseline-S" style="fill:none;stroke:#27AAE1;opacity:1;stroke-width:0.5;" x1="263" x2="3036" y1="696" y2="696"/>
  <line id="Capline-S" style="fill:none;stroke:#27AAE1;opacity:1;stroke-width:0.5;" x1="263" x2="3036" y1="625.541" y2="625.541"/>
  <g id="H-reference" style="fill:#27AAE1;stroke:none;" transform="matrix(1 0 0 1 339 1126)">
   <path d="M0.993347 0L3.6377 0L29.3282-67.1326L30.0301-67.1326L30.0301-70.459L28.1227-70.459ZM11.6882-24.4797L46.9818-24.4797L46.2311-26.7288L12.4382-26.7288ZM55.1193 0L57.7637 0L30.6381-70.459L29.4327-70.459L29.4327-67.1326Z"/>
  </g>
  <line id="Baseline-M" style="fill:none;stroke:#27AAE1;opacity:1;stroke-width:0.5;" x1="263" x2="3036" y1="1126" y2="1126"/>
  <line id="Capline-M" style="fill:none;stroke:#27AAE1;opacity:1;stroke-width:0.5;" x1="263" x2="3036" y1="1055.54" y2="1055.54"/>
  <g id="H-reference" style="fill:#27AAE1;stroke:none;" transform="matrix(1 0 0 1 339 1556)">
   <path d="M0.993347 0L3.6377 0L29.3282-67.1326L30.0301-67.1326L30.0301-70.459L28.1227-70.459ZM11.6882-24.4797L46.9818-24.4797L46.2311-26.7288L12.4382-26.7288ZM55.1193 0L57.7637 0L30.6381-70.459L29.4327-70.459L29.4327-67.1326Z"/>
  </g>
  <line id="Baseline-L" style="fill:none;stroke:#27AAE1;opacity:1;stroke-width:0.5;" x1="263" x2="3036" y1="1556" y2="1556"/>
  <line id="Capline-L" style="fill:none;stroke:#27AAE1;opacity:1;stroke-width:0.5;" x1="263" x2="3036" y1="1485.54" y2="1485.54"/>
  <line id="left-margin-Regular-M" style="fill:none;stroke:#00AEEF;stroke-width:0.5;opacity:1.0;" x1="1398.53" x2="1398.53" y1="1030.79" y2="1150.12"/>
  <line id="right-margin-Regular-M" style="fill:none;stroke:#00AEEF;stroke-width:0.5;opacity:1.0;" x1="1501.16" x2="1501.16" y1="1030.79" y2="1150.12"/>
 </g>
 <g id="Symbols">
  <g id="Black-L" transform="matrix(1 0 0 1 2859.55 1556)">
   <path d="M16.0645 16.5527Q16.0645 25.4395 20.7031 30.3467Q25.3418 35.2539 33.8379 35.2539L113.916 35.2539Q122.363 35.2539 127.002 30.3467Q131.641 25.4395 131.641 16.5527L131.641-86.9629Q131.641-95.8008 127.002-100.708Q122.363-105.615 113.916-105.615L33.8379-105.615Q25.3418-105.615 20.7031-100.708Q16.0645-95.8008 16.0645-86.9629ZM35.791 13.5254L35.791-83.8867Q35.791-84.8145 36.3525-85.4004Q36.9141-85.9863 37.8418-85.9863L109.863-85.9863Q110.791-85.9863 111.377-85.4004Q111.963-84.8145 111.963-83.8867L111.963 13.5254Q111.963 14.4531 111.377 15.0146Q110.791 15.5762 109.863 15.5762L37.8418 15.5762Q36.9141 15.5762 36.3525 15.0146Q35.791 14.4531 35.791 13.5254ZM49.4629 25.2441L63.7695 25.2441L63.7695 4.63867Q63.7695 3.02734 65.3809 3.02734L82.373 3.02734Q84.0332 3.02734 84.0332 4.63867L84.0332 25.2441L98.3398 25.2441L98.3398-1.75781Q98.3398-5.66406 96.2402-7.88574Q94.1406-10.1074 90.4785-10.1074L57.3242-10.1074Q53.6133-10.1074 51.5381-7.88574Q49.4629-5.66406 49.4629-1.75781ZM54.1992-60.0098L65.2344-60.0098Q67.5781-60.0098 67.5781-62.4023L67.5781-73.2422Q67.5781-75.6348 65.2344-75.6348L54.1992-75.6348Q51.8555-75.6348 51.8555-73.2422L51.8555-62.4023Q51.8555-60.0098 54.1992-60.0098ZM82.5195-60.0098L93.5547-60.0098Q95.9473-60.0098 95.9473-62.4023L95.9473-73.2422Q95.9473-75.6348 93.5547-75.6348L82.5195-75.6348Q80.1758-75.6348 80.1758-73.2422L80.1758-62.4023Q80.1758-60.0098 82.5195-60.0098ZM54.1992-38.6719L65.2344-38.6719Q67.5781-38.6719 67.5781-41.1133L67.5781-51.9043Q67.5781-54.3457 65.2344-54.3457L54.1992-54.3457Q51.8555-54.3457 51.8555-51.9043L51.8555-41.1133Q51.8555-38.6719 54.1992-38.6719ZM82.5195-38.6719L93.5547-38.6719Q95.9473-38.6719 95.9473-41.1133L95.9473-51.9043Q95.9473-54.3457 93.5547-54.3457L82.5195-54.3457Q80.1758-54.3457 80.1758-51.9043L80.1758-41.1133Q80.1758-38.6719 82.5195-38.6719ZM54.1992-17.3828L65.2344-17.3828Q67.5781-17.3828 67.5781-19.7754L67.5781-30.6152Q67.5781-33.0078 65.2344-33.0078L54.1992-33.0078Q51.8555-33.0078 51.8555-30.6152L51.8555-19.7754Q51.8555-17.3828 54.1992-17.3828ZM82.5195-17.3828L93.5547-17.3828Q95.9473-17.3828 95.9473-19.7754L95.9473-30.6152Q95.9473-33.0078 93.5547-33.0078L82.5195-33.0078Q80.1758-33.0078 80.1758-30.6152L80.1758-19.7754Q80.1758-17.3828 82.5195-17.3828Z"/>
  </g>
  <g id="Heavy-L" transform="matrix(1 0 0 1 2564.95 1556)">
   <path d="M16.0645 17.5438Q16.0645 25.5089 20.2305 29.932Q24.3965 34.3552 31.9824 34.3552L111.53 34.3552Q119.079 34.3552 123.245 29.932Q127.411 25.5089 127.411 17.5438L127.411-87.9425Q127.411-95.8702 123.245-100.293Q119.079-104.716 111.53-104.716L31.9824-104.716Q24.3965-104.716 20.2305-100.293Q16.0645-95.8702 16.0645-87.9425ZM33.1749 14.7934L33.1749-85.1662Q33.1749-86.3472 33.823-87.014Q34.4711-87.6808 35.6636-87.6808L107.812-87.6808Q109.005-87.6808 109.671-87.014Q110.338-86.3472 110.338-85.1662L110.338 14.7934Q110.338 15.9859 109.671 16.634Q109.005 17.2821 107.812 17.2821L35.6636 17.2821Q34.4711 17.2821 33.823 16.634Q33.1749 15.9859 33.1749 14.7934ZM47.9645 25.6477L60.5888 25.6477L60.5888 5.04227Q60.5888 3.28064 62.3611 3.28064L81.163 3.28064Q82.9727 3.28064 82.9727 5.04227L82.9727 25.6477L95.5971 25.6477L95.5971-0.270844Q95.5971-4.17709 93.5722-6.31256Q91.5474-8.44803 87.8624-8.44803L55.6992-8.44803Q51.9768-8.44803 49.9706-6.31256Q47.9645-4.17709 47.9645-0.270844ZM51.8021-61.1275L63.2523-61.1275Q65.596-61.1275 65.596-63.5315L65.596-74.752Q65.596-77.1446 63.2523-77.1446L51.8021-77.1446Q49.4698-77.1446 49.4698-74.752L49.4698-63.5315Q49.4698-61.1275 51.8021-61.1275ZM80.249-61.1275L91.6992-61.1275Q94.0804-61.1275 94.0804-63.5315L94.0804-74.752Q94.0804-77.1446 91.6992-77.1446L80.249-77.1446Q77.9167-77.1446 77.9167-74.752L77.9167-63.5315Q77.9167-61.1275 80.249-61.1275ZM51.8021-38.7756L63.2523-38.7756Q65.596-38.7756 65.596-41.217L65.596-52.4002Q65.596-54.8294 63.2523-54.8294L51.8021-54.8294Q49.4698-54.8294 49.4698-52.4002L49.4698-41.217Q49.4698-38.7756 51.8021-38.7756ZM80.249-38.7756L91.6992-38.7756Q94.0804-38.7756 94.0804-41.217L94.0804-52.4002Q94.0804-54.8294 91.6992-54.8294L80.249-54.8294Q77.9167-54.8294 77.9167-52.4002L77.9167-41.217Q77.9167-38.7756 80.249-38.7756ZM51.8021-16.4726L63.2523-16.4726Q65.596-16.4726 65.596-18.8652L65.596-30.085Q65.596-32.4776 63.2523-32.4776L51.8021-32.4776Q49.4698-32.4776 49.4698-30.085L49.4698-18.8652Q49.4698-16.4726 51.8021-16.4726ZM80.249-16.4726L91.6992-16.4726Q94.0804-16.4726 94.0804-18.8652L94.0804-30.085Q94.0804-32.4776 91.6992-32.4776L80.249-32.4776Q77.9167-32.4776 77.9167-30.085L77.9167-18.8652Q77.9167-16.4726 80.249-16.4726Z"/>
  </g>
  <g id="Bold-L" transform="matrix(1 0 0 1 2270.61 1556)">
   <path d="M16.0645 18.6523Q16.0645 25.5859 19.7021 29.4678Q23.3398 33.3496 29.9072 33.3496L108.862 33.3496Q115.405 33.3496 119.043 29.4678Q122.681 25.5859 122.681 18.6523L122.681-89.0381Q122.681-95.9473 119.043-99.8291Q115.405-103.711 108.862-103.711L29.9072-103.711Q23.3398-103.711 19.7021-99.8291Q16.0645-95.9473 16.0645-89.0381ZM30.249 16.2109L30.249-86.5967Q30.249-88.0615 30.9937-88.8184Q31.7383-89.5752 33.2275-89.5752L105.518-89.5752Q107.007-89.5752 107.764-88.8184Q108.521-88.0615 108.521-86.5967L108.521 16.2109Q108.521 17.7002 107.764 18.4448Q107.007 19.1895 105.518 19.1895L33.2275 19.1895Q31.7383 19.1895 30.9937 18.4448Q30.249 17.7002 30.249 16.2109ZM46.2891 26.0986L57.0312 26.0986L57.0312 5.49316Q57.0312 3.56445 58.9844 3.56445L79.8096 3.56445Q81.7871 3.56445 81.7871 5.49316L81.7871 26.0986L92.5293 26.0986L92.5293 1.3916Q92.5293-2.51465 90.5884-4.55322Q88.6475-6.5918 84.9365-6.5918L53.8818-6.5918Q50.1465-6.5918 48.2178-4.55322Q46.2891-2.51465 46.2891 1.3916ZM49.1211-62.3779L61.0352-62.3779Q63.3789-62.3779 63.3789-64.7949L63.3789-76.4404Q63.3789-78.833 61.0352-78.833L49.1211-78.833Q46.8018-78.833 46.8018-76.4404L46.8018-64.7949Q46.8018-62.3779 49.1211-62.3779ZM77.71-62.3779L89.624-62.3779Q91.9922-62.3779 91.9922-64.7949L91.9922-76.4404Q91.9922-78.833 89.624-78.833L77.71-78.833Q75.3906-78.833 75.3906-76.4404L75.3906-64.7949Q75.3906-62.3779 77.71-62.3779ZM49.1211-38.8916L61.0352-38.8916Q63.3789-38.8916 63.3789-41.333L63.3789-52.9541Q63.3789-55.3711 61.0352-55.3711L49.1211-55.3711Q46.8018-55.3711 46.8018-52.9541L46.8018-41.333Q46.8018-38.8916 49.1211-38.8916ZM77.71-38.8916L89.624-38.8916Q91.9922-38.8916 91.9922-41.333L91.9922-52.9541Q91.9922-55.3711 89.624-55.3711L77.71-55.3711Q75.3906-55.3711 75.3906-52.9541L75.3906-41.333Q75.3906-38.8916 77.71-38.8916ZM49.1211-15.4541L61.0352-15.4541Q63.3789-15.4541 63.3789-17.8467L63.3789-29.4922Q63.3789-31.8848 61.0352-31.8848L49.1211-31.8848Q46.8018-31.8848 46.8018-29.4922L46.8018-17.8467Q46.8018-15.4541 49.1211-15.4541ZM77.71-15.4541L89.624-15.4541Q91.9922-15.4541 91.9922-17.8467L91.9922-29.4922Q91.9922-31.8848 89.624-31.8848L77.71-31.8848Q75.3906-31.8848 75.3906-29.4922L75.3906-17.8467Q75.3906-15.4541 77.71-15.4541Z"/>
  </g>
  <g id="Semibold-L" transform="matrix(1 0 0 1 1975.52 1556)">
   <path d="M16.0645 19.4168Q16.0645 25.6393 19.3378 29.1477Q22.6112 32.6561 28.4767 32.6561L107.023 32.6561Q112.872 32.6561 116.146 29.1477Q119.419 25.6393 119.419 19.4168L119.419-89.7934Q119.419-96.0007 116.146-99.509Q112.872-103.017 107.023-103.017L28.4767-103.017Q22.6112-103.017 19.3378-99.509Q16.0645-96.0007 16.0645-89.7934ZM28.2318 17.1883L28.2318-87.5832Q28.2318-89.2433 29.0432-90.0623Q29.8546-90.8813 31.5475-90.8813L103.936-90.8813Q105.63-90.8813 106.449-90.0623Q107.268-89.2433 107.268-87.5832L107.268 17.1883Q107.268 18.882 106.449 19.6934Q105.63 20.5048 103.936 20.5048L31.5475 20.5048Q29.8546 20.5048 29.0432 19.6934Q28.2318 18.882 28.2318 17.1883ZM45.134 26.4099L54.5784 26.4099L54.5784 5.80444Q54.5784 3.75977 56.6559 3.75977L78.8765 3.75977Q80.9692 3.75977 80.9692 5.80444L80.9692 26.4099L90.4144 26.4099L90.4144 2.5383Q90.4144-1.36795 88.5311-3.34015Q86.6478-5.31235 82.9193-5.31235L52.6291-5.31235Q48.8846-5.31235 47.0093-3.34015Q45.134-1.36795 45.134 2.5383ZM47.2725-63.2401L59.5062-63.2401Q61.85-63.2401 61.85-65.6662L61.85-77.6047Q61.85-79.9973 59.5062-79.9973L47.2725-79.9973Q44.9623-79.9973 44.9623-77.6047L44.9623-65.6662Q44.9623-63.2401 47.2725-63.2401ZM75.959-63.2401L88.1935-63.2401Q90.5525-63.2401 90.5525-65.6662L90.5525-77.6047Q90.5525-79.9973 88.1935-79.9973L75.959-79.9973Q73.6488-79.9973 73.6488-77.6047L73.6488-65.6662Q73.6488-63.2401 75.959-63.2401ZM47.2725-38.9717L59.5062-38.9717Q61.85-38.9717 61.85-41.4131L61.85-53.3363Q61.85-55.7442 59.5062-55.7442L47.2725-55.7442Q44.9623-55.7442 44.9623-53.3363L44.9623-41.4131Q44.9623-38.9717 47.2725-38.9717ZM75.959-38.9717L88.1935-38.9717Q90.5525-38.9717 90.5525-41.4131L90.5525-53.3363Q90.5525-55.7442 88.1935-55.7442L75.959-55.7442Q73.6488-55.7442 73.6488-53.3363L73.6488-41.4131Q73.6488-38.9717 75.959-38.9717ZM47.2725-14.7522L59.5062-14.7522Q61.85-14.7522 61.85-17.1448L61.85-29.0833Q61.85-31.4758 59.5062-31.4758L47.2725-31.4758Q44.9623-31.4758 44.9623-29.0833L44.9623-17.1448Q44.9623-14.7522 47.2725-14.7522ZM75.959-14.7522L88.1935-14.7522Q90.5525-14.7522 90.5525-17.1448L90.5525-29.0833Q90.5525-31.4758 88.1935-31.4758L75.959-31.4758Q73.6488-31.4758 73.6488-29.0833L73.6488-17.1448Q73.6488-14.7522 75.959-14.7522Z"/>
  </g>
  <g id="Medium-L" transform="matrix(1 0 0 1 1680.05 1556)">
   <path d="M16.0645 19.9959Q16.0645 25.6798 19.0617 28.9055Q22.0589 32.1312 27.3918 32.1312L105.628 32.1312Q110.952 32.1312 113.949 28.9055Q116.946 25.6798 116.946 19.9959L116.946-90.3664Q116.946-96.0411 113.949-99.2668Q110.952-102.493 105.628-102.493L27.3918-102.493Q22.0589-102.493 19.0617-99.2668Q16.0645-96.0411 16.0645-90.3664ZM26.7021 17.9298L26.7021-88.3308Q26.7021-90.1398 27.5639-91.0061Q28.4256-91.8724 30.2742-91.8724L102.736-91.8724Q104.585-91.8724 105.451-91.0061Q106.317-90.1398 106.317-88.3308L106.317 17.9298Q106.317 19.7784 105.451 20.6402Q104.585 21.5019 102.736 21.5019L30.2742 21.5019Q28.4256 21.5019 27.5639 20.6402Q26.7021 19.7784 26.7021 17.9298ZM44.2581 26.6457L52.7184 26.6457L52.7184 6.04019Q52.7184 3.90854 54.8904 3.90854L78.1693 3.90854Q80.3497 3.90854 80.3497 6.04019L80.3497 26.6457L88.8107 26.6457L88.8107 3.40729Q88.8107-0.498962 86.9713-2.42043Q85.1318-4.34189 81.3896-4.34189L51.6785-4.34189Q47.9279-4.34189 46.093-2.42043Q44.2581-0.498962 44.2581 3.40729ZM45.871-63.8939L58.3473-63.8939Q60.6911-63.8939 60.6911-66.3261L60.6911-78.4874Q60.6911-80.88 58.3473-80.88L45.871-80.88Q43.5677-80.88 43.5677-78.4874L43.5677-66.3261Q43.5677-63.8939 45.871-63.8939ZM74.6315-63.8939L87.1086-63.8939Q89.4608-63.8939 89.4608-66.3261L89.4608-78.4874Q89.4608-80.88 87.1086-80.88L74.6315-80.88Q72.3282-80.88 72.3282-78.4874L72.3282-66.3261Q72.3282-63.8939 74.6315-63.8939ZM45.871-39.032L58.3473-39.032Q60.6911-39.032 60.6911-41.4734L60.6911-53.6263Q60.6911-56.0272 58.3473-56.0272L45.871-56.0272Q43.5677-56.0272 43.5677-53.6263L43.5677-41.4734Q43.5677-39.032 45.871-39.032ZM74.6315-39.032L87.1086-39.032Q89.4608-39.032 89.4608-41.4734L89.4608-53.6263Q89.4608-56.0272 87.1086-56.0272L74.6315-56.0272Q72.3282-56.0272 72.3282-53.6263L72.3282-41.4734Q72.3282-39.032 74.6315-39.032ZM45.871-14.2197L58.3473-14.2197Q60.6911-14.2197 60.6911-16.6122L60.6911-28.7735Q60.6911-31.1661 58.3473-31.1661L45.871-31.1661Q43.5677-31.1661 43.5677-28.7735L43.5677-16.6122Q43.5677-14.2197 45.871-14.2197ZM74.6315-14.2197L87.1086-14.2197Q89.4608-14.2197 89.4608-16.6122L89.4608-28.7735Q89.4608-31.1661 87.1086-31.1661L74.6315-31.1661Q72.3282-31.1661 72.3282-28.7735L72.3282-16.6122Q72.3282-14.2197 74.6315-14.2197Z"/>
  </g>
  <g id="Regular-L" transform="matrix(1 0 0 1 1384.95 1556)">
   <path d="M16.0645 20.752Q16.0645 25.7324 18.7012 28.5889Q21.3379 31.4453 25.9766 31.4453L103.809 31.4453Q108.447 31.4453 111.084 28.5889Q113.721 25.7324 113.721 20.752L113.721-91.1133Q113.721-96.0938 111.084-98.9502Q108.447-101.807 103.809-101.807L25.9766-101.807Q21.3379-101.807 18.7012-98.9502Q16.0645-96.0938 16.0645-91.1133ZM24.707 18.8965L24.707-89.3066Q24.707-91.3086 25.6348-92.2363Q26.5625-93.1641 28.6133-93.1641L101.172-93.1641Q103.223-93.1641 104.15-92.2363Q105.078-91.3086 105.078-89.3066L105.078 18.8965Q105.078 20.9473 104.15 21.875Q103.223 22.8027 101.172 22.8027L28.6133 22.8027Q26.5625 22.8027 25.6348 21.875Q24.707 20.9473 24.707 18.8965ZM43.1152 26.9531L50.293 26.9531L50.293 6.34766Q50.293 4.10156 52.5879 4.10156L77.2461 4.10156Q79.541 4.10156 79.541 6.34766L79.541 26.9531L86.7188 26.9531L86.7188 4.54102Q86.7188 0.634766 84.9365-1.2207Q83.1543-3.07617 79.3945-3.07617L50.4395-3.07617Q46.6797-3.07617 44.8975-1.2207Q43.1152 0.634766 43.1152 4.54102ZM44.043-64.7461L56.8359-64.7461Q59.1797-64.7461 59.1797-67.1875L59.1797-79.6387Q59.1797-82.0312 56.8359-82.0312L44.043-82.0312Q41.748-82.0312 41.748-79.6387L41.748-67.1875Q41.748-64.7461 44.043-64.7461ZM72.9004-64.7461L85.6934-64.7461Q88.0371-64.7461 88.0371-67.1875L88.0371-79.6387Q88.0371-82.0312 85.6934-82.0312L72.9004-82.0312Q70.6055-82.0312 70.6055-79.6387L70.6055-67.1875Q70.6055-64.7461 72.9004-64.7461ZM44.043-39.1113L56.8359-39.1113Q59.1797-39.1113 59.1797-41.5527L59.1797-54.0039Q59.1797-56.3965 56.8359-56.3965L44.043-56.3965Q41.748-56.3965 41.748-54.0039L41.748-41.5527Q41.748-39.1113 44.043-39.1113ZM72.9004-39.1113L85.6934-39.1113Q88.0371-39.1113 88.0371-41.5527L88.0371-54.0039Q88.0371-56.3965 85.6934-56.3965L72.9004-56.3965Q70.6055-56.3965 70.6055-54.0039L70.6055-41.5527Q70.6055-39.1113 72.9004-39.1113ZM44.043-13.5254L56.8359-13.5254Q59.1797-13.5254 59.1797-15.918L59.1797-28.3691Q59.1797-30.7617 56.8359-30.7617L44.043-30.7617Q41.748-30.7617 41.748-28.3691L41.748-15.918Q41.748-13.5254 44.043-13.5254ZM72.9004-13.5254L85.6934-13.5254Q88.0371-13.5254 88.0371-15.918L88.0371-28.3691Q88.0371-30.7617 85.6934-30.7617L72.9004-30.7617Q70.6055-30.7617 70.6055-28.3691L70.6055-15.918Q70.6055-13.5254 72.9004-13.5254Z"/>
  </g>
  <g id="Light-L" transform="matrix(1 0 0 1 1090.05 1556)">
   <path d="M16.0645 21.0701Q16.0645 25.7172 18.4513 28.2406Q20.8382 30.764 25.28 30.764L100.887 30.764Q105.329 30.764 107.716 28.2406Q110.103 25.7172 110.103 21.0701L110.103-91.3704Q110.103-96.0182 107.716-98.5416Q105.329-101.065 100.887-101.065L25.28-101.065Q20.8382-101.065 18.4513-98.5416Q16.0645-96.0182 16.0645-91.3704ZM22.6784 19.8952L22.6784-90.2451Q22.6784-92.4896 23.6668-93.4776Q24.6552-94.4656 26.9333-94.4656L99.2348-94.4656Q101.512-94.4656 102.501-93.4776Q103.489-92.4896 103.489-90.2451L103.489 19.8952Q103.489 22.1733 102.501 23.1617Q101.512 24.1501 99.2348 24.1501L26.9333 24.1501Q24.6552 24.1501 23.6668 23.1617Q22.6784 22.1733 22.6784 19.8952ZM41.5108 27.3468L47.2054 27.3468L47.2054 7.43713Q47.2054 4.84314 49.8482 4.84314L76.3832 4.84314Q79.026 4.84314 79.026 7.43713L79.026 27.3468L84.7206 27.3468L84.7206 6.3118Q84.7206 2.6329 83.0215 0.883484Q81.3225-0.865936 77.7298-0.865936L48.5023-0.865936Q44.9089-0.865936 43.2098 0.883484Q41.5108 2.6329 41.5108 6.3118ZM42.3325-64.8827L55.822-64.8827Q57.9079-64.8827 57.9079-67.0662L57.9079-80.2742Q57.9079-82.4402 55.822-82.4402L42.3325-82.4402Q40.2649-82.4402 40.2649-80.2742L40.2649-67.0662Q40.2649-64.8827 42.3325-64.8827ZM70.3117-64.8827L83.8013-64.8827Q85.9032-64.8827 85.9032-67.0662L85.9032-80.2742Q85.9032-82.4402 83.8013-82.4402L70.3117-82.4402Q68.2594-82.4402 68.2594-80.2742L68.2594-67.0662Q68.2594-64.8827 70.3117-64.8827ZM42.3325-38.3087L55.822-38.3087Q57.9079-38.3087 57.9079-40.493L57.9079-53.701Q57.9079-55.867 55.822-55.867L42.3325-55.867Q40.2649-55.867 40.2649-53.701L40.2649-40.493Q40.2649-38.3087 42.3325-38.3087ZM70.3117-38.3087L83.8013-38.3087Q85.9032-38.3087 85.9032-40.493L85.9032-53.701Q85.9032-55.867 83.8013-55.867L70.3117-55.867Q68.2594-55.867 68.2594-53.701L68.2594-40.493Q68.2594-38.3087 70.3117-38.3087ZM42.3325-11.7699L55.822-11.7699Q57.9079-11.7699 57.9079-13.9198L57.9079-27.1278Q57.9079-29.2938 55.822-29.2938L42.3325-29.2938Q40.2649-29.2938 40.2649-27.1278L40.2649-13.9198Q40.2649-11.7699 42.3325-11.7699ZM70.3117-11.7699L83.8013-11.7699Q85.9032-11.7699 85.9032-13.9198L85.9032-27.1278Q85.9032-29.2938 83.8013-29.2938L70.3117-29.2938Q68.2594-29.2938 68.2594-27.1278L68.2594-13.9198Q68.2594-11.7699 70.3117-11.7699Z"/>
  </g>
  <g id="Thin-L" transform="matrix(1 0 0 1 795.731 1556)">
   <path d="M16.0645 21.4905Q16.0645 25.6973 18.121 27.7802Q20.1775 29.863 24.3591 29.863L97.0238 29.863Q101.205 29.863 103.262 27.7802Q105.318 25.6973 105.318 21.4905L105.318-91.7107Q105.318-95.9183 103.262-98.0011Q101.205-100.084 97.0238-100.084L24.3591-100.084Q20.1775-100.084 18.121-98.0011Q16.0645-95.9183 16.0645-91.7107ZM19.9966 21.2166L19.9966-91.4864Q19.9966-94.0506 21.0648-95.1191Q22.1329-96.1876 24.7108-96.1876L96.6721-96.1876Q99.25-96.1876 100.319-95.1191Q101.387-94.0506 101.387-91.4864L101.387 21.2166Q101.387 23.7946 100.319 24.8631Q99.25 25.9315 96.6721 25.9315L24.7108 25.9315Q22.1329 25.9315 21.0648 24.8631Q19.9966 23.7946 19.9966 21.2166ZM39.389 27.8671L43.1213 27.8671L43.1213 8.87909Q43.1213 5.82428 46.225 5.82428L75.2426 5.82428Q78.3455 5.82428 78.3455 8.87909L78.3455 27.8671L82.0786 27.8671L82.0786 8.65402Q82.0786 5.27496 80.4897 3.66554Q78.9009 2.05612 75.5272 2.05612L45.9396 2.05612Q42.5667 2.05612 40.9779 3.66554Q39.389 5.27496 39.389 8.65402ZM40.0703-65.0627L54.4807-65.0627Q56.2263-65.0627 56.2263-66.906L56.2263-81.115Q56.2263-82.9803 54.4807-82.9803L40.0703-82.9803Q38.3026-82.9803 38.3026-81.115L38.3026-66.906Q38.3026-65.0627 40.0703-65.0627ZM66.8892-65.0627L81.2988-65.0627Q83.0803-65.0627 83.0803-66.906L83.0803-81.115Q83.0803-82.9803 81.2988-82.9803L66.8892-82.9803Q65.1566-82.9803 65.1566-81.115L65.1566-66.906Q65.1566-65.0627 66.8892-65.0627ZM40.0703-37.2482L54.4807-37.2482Q56.2263-37.2482 56.2263-39.0923L56.2263-53.3005Q56.2263-55.1659 54.4807-55.1659L40.0703-55.1659Q38.3026-55.1659 38.3026-53.3005L38.3026-39.0923Q38.3026-37.2482 40.0703-37.2482ZM66.8892-37.2482L81.2988-37.2482Q83.0803-37.2482 83.0803-39.0923L83.0803-53.3005Q83.0803-55.1659 81.2988-55.1659L66.8892-55.1659Q65.1566-55.1659 65.1566-53.3005L65.1566-39.0923Q65.1566-37.2482 66.8892-37.2482ZM40.0703-9.44748L54.4807-9.44748Q56.2263-9.44748 56.2263-11.2778L56.2263-25.4868Q56.2263-27.3514 54.4807-27.3514L40.0703-27.3514Q38.3026-27.3514 38.3026-25.4868L38.3026-11.2778Q38.3026-9.44748 40.0703-9.44748ZM66.8892-9.44748L81.2988-9.44748Q83.0803-9.44748 83.0803-11.2778L83.0803-25.4868Q83.0803-27.3514 81.2988-27.3514L66.8892-27.3514Q65.1566-27.3514 65.1566-25.4868L65.1566-11.2778Q65.1566-9.44748 66.8892-9.44748Z"/>
  </g>
  <g id="Ultralight-L" transform="matrix(1 0 0 1 500.245 1556)">
   <path d="M16.0645 21.7056Q16.0645 25.6866 17.952 27.5444Q19.8395 29.4022 23.8876 29.4022L95.0447 29.4022Q99.0929 29.4022 100.98 27.5444Q102.868 25.6866 102.868 21.7056L102.868-91.8854Q102.868-95.8664 100.98-97.7242Q99.0929-99.5819 95.0447-99.5819L23.8876-99.5819Q19.8395-99.5819 17.952-97.7242Q16.0645-95.8664 16.0645-91.8854ZM18.6218 21.8933L18.6218-92.1219Q18.6218-94.8509 19.7315-95.9602Q20.8412-97.0695 23.5725-97.0695L95.3598-97.0695Q98.0911-97.0695 99.2004-95.9602Q100.31-94.8509 100.31-92.1219L100.31 21.8933Q100.31 24.6254 99.2004 25.7347Q98.0911 26.844 95.3598 26.844L23.5725 26.844Q20.8412 26.844 19.7315 25.7347Q18.6218 24.6254 18.6218 21.8933ZM38.3018 28.1342L41.0294 28.1342L41.0294 9.61685Q41.0294 6.32629 44.3687 6.32629L74.6574 6.32629Q77.9968 6.32629 77.9968 9.61685L77.9968 28.1342L80.7243 28.1342L80.7243 9.85413Q80.7243 6.62918 79.192 5.09148Q77.6596 3.55377 74.3996 3.55377L44.6274 3.55377Q41.3666 3.55377 39.8342 5.09148Q38.3018 6.62918 38.3018 9.85413ZM38.9114-65.155L53.7933-65.155Q55.365-65.155 55.365-66.8243L55.365-81.546Q55.365-83.2573 53.7933-83.2573L38.9114-83.2573Q37.2978-83.2573 37.2978-81.546L37.2978-66.8243Q37.2978-65.155 38.9114-65.155ZM65.1352-65.155L80.0171-65.155Q81.6345-65.155 81.6345-66.8243L81.6345-81.546Q81.6345-83.2573 80.0171-83.2573L65.1352-83.2573Q63.5666-83.2573 63.5666-81.546L63.5666-66.8243Q63.5666-65.155 65.1352-65.155ZM38.9114-36.7043L53.7933-36.7043Q55.365-36.7043 55.365-38.3743L55.365-53.096Q55.365-54.8073 53.7933-54.8073L38.9114-54.8073Q37.2978-54.8073 37.2978-53.096L37.2978-38.3743Q37.2978-36.7043 38.9114-36.7043ZM65.1352-36.7043L80.0171-36.7043Q81.6345-36.7043 81.6345-38.3743L81.6345-53.096Q81.6345-54.8073 80.0171-54.8073L65.1352-54.8073Q63.5666-54.8073 63.5666-53.096L63.5666-38.3743Q63.5666-36.7043 65.1352-36.7043ZM38.9114-8.25806L53.7933-8.25806Q55.365-8.25806 55.365-9.92355L55.365-24.6452Q55.365-26.3573 53.7933-26.3573L38.9114-26.3573Q37.2978-26.3573 37.2978-24.6452L37.2978-9.92355Q37.2978-8.25806 38.9114-8.25806ZM65.1352-8.25806L80.0171-8.25806Q81.6345-8.25806 81.6345-9.92355L81.6345-24.6452Q81.6345-26.3573 80.0171-26.3573L65.1352-26.3573Q63.5666-26.3573 63.5666-24.6452L63.5666-9.92355Q63.5666-8.25806 65.1352-8.25806Z"/>
  </g>
  <g id="Black-M" transform="matrix(1 0 0 1 2874.95 1126)">
   <path d="M12.4512 4.15039Q12.4512 11.7188 16.3818 15.8203Q20.3125 19.9219 27.5391 19.9219L89.3066 19.9219Q96.582 19.9219 100.513 15.8203Q104.443 11.7188 104.443 4.15039L104.443-74.5605Q104.443-82.0801 100.513-86.2061Q96.582-90.332 89.3066-90.332L27.5391-90.332Q20.3125-90.332 16.3818-86.2061Q12.4512-82.0801 12.4512-74.5605ZM29.2969 1.80664L29.2969-72.168Q29.2969-72.7539 29.6875-73.1445Q30.0781-73.5352 30.6152-73.5352L86.2305-73.5352Q86.8164-73.5352 87.207-73.1445Q87.5977-72.7539 87.5977-72.168L87.5977 1.80664Q87.5977 2.34375 87.207 2.73438Q86.8164 3.125 86.2305 3.125L30.6152 3.125Q30.0781 3.125 29.6875 2.73438Q29.2969 2.34375 29.2969 1.80664ZM39.0625 11.4258L51.0742 11.4258L51.0742-4.29688Q51.0742-5.56641 52.3438-5.56641L64.5996-5.56641Q65.8691-5.56641 65.8691-4.29688L65.8691 11.4258L77.8809 11.4258L77.8809-9.96094Q77.8809-12.8906 76.2207-14.6729Q74.5605-16.4551 71.7773-16.4551L45.166-16.4551Q42.3828-16.4551 40.7227-14.6729Q39.0625-12.8906 39.0625-9.96094ZM43.457-53.5156L51.9043-53.5156Q53.6621-53.5156 53.6621-55.2734L53.6621-63.5742Q53.6621-65.3809 51.9043-65.3809L43.457-65.3809Q41.748-65.3809 41.748-63.5742L41.748-55.2734Q41.748-53.5156 43.457-53.5156ZM65.0391-53.5156L73.4863-53.5156Q75.1953-53.5156 75.1953-55.2734L75.1953-63.5742Q75.1953-65.3809 73.4863-65.3809L65.0391-65.3809Q63.2812-65.3809 63.2812-63.5742L63.2812-55.2734Q63.2812-53.5156 65.0391-53.5156ZM43.457-37.5488L51.9043-37.5488Q53.6621-37.5488 53.6621-39.3066L53.6621-47.6562Q53.6621-49.4141 51.9043-49.4141L43.457-49.4141Q41.748-49.4141 41.748-47.6562L41.748-39.3066Q41.748-37.5488 43.457-37.5488ZM65.0391-37.5488L73.4863-37.5488Q75.1953-37.5488 75.1953-39.3066L75.1953-47.6562Q75.1953-49.4141 73.4863-49.4141L65.0391-49.4141Q63.2812-49.4141 63.2812-47.6562L63.2812-39.3066Q63.2812-37.5488 65.0391-37.5488ZM43.457-21.582L51.9043-21.582Q53.6621-21.582 53.6621-23.3887L53.6621-31.6895Q53.6621-33.4961 51.9043-33.4961L43.457-33.4961Q41.748-33.4961 41.748-31.6895L41.748-23.3887Q41.748-21.582 43.457-21.582ZM65.0391-21.582L73.4863-21.582Q75.1953-21.582 75.1953-23.3887L75.1953-31.6895Q75.1953-33.4961 73.4863-33.4961L65.0391-33.4961Q63.2812-33.4961 63.2812-31.6895L63.2812-23.3887Q63.2812-21.582 65.0391-21.582Z"/>
  </g>
  <g id="Heavy-M" transform="matrix(1 0 0 1 2579.92 1126)">
   <path d="M12.4512 5.04913Q12.4512 11.7882 15.9668 15.4919Q19.4824 19.1956 25.8911 19.1956L87.6129 19.1956Q94.0468 19.1956 97.5624 15.4919Q101.078 11.7882 101.078 5.04913L101.078-75.4593Q101.078-82.1724 97.5624-85.8891Q94.0468-89.6057 87.6129-89.6057L25.8911-89.6057Q19.4824-89.6057 15.9668-85.8891Q12.4512-82.1724 12.4512-75.4593ZM27.1767 2.83203L27.1767-73.2048Q27.1767-73.9983 27.6363-74.4583Q28.096-74.9184 28.8521-74.9184L84.6519-74.9184Q85.4332-74.9184 85.8932-74.4583Q86.3533-73.9983 86.3533-73.2048L86.3533 2.83203Q86.3533 3.5881 85.8932 4.04816Q85.4332 4.50821 84.6519 4.50821L28.8521 4.50821Q28.096 4.50821 27.6363 4.04816Q27.1767 3.5881 27.1767 2.83203ZM37.9448 11.7256L48.6313 11.7256L48.6313-4.13589Q48.6313-5.47409 49.9695-5.47409L63.5971-5.47409Q64.9353-5.47409 64.9353-4.13589L64.9353 11.7256L75.6218 11.7256L75.6218-8.88901Q75.6218-11.8767 74.0192-13.5895Q72.4167-15.3023 69.5763-15.3023L43.9903-15.3023Q41.1613-15.3023 39.5531-13.5895Q37.9448-11.8767 37.9448-8.88901ZM41.4864-54.5876L50.1869-54.5876Q52.0027-54.5876 52.0027-56.4026L52.0027-64.9223Q52.0027-66.7755 50.1869-66.7755L41.4864-66.7755Q39.7316-66.7755 39.7316-64.9223L39.7316-56.4026Q39.7316-54.5876 41.4864-54.5876ZM63.3797-54.5876L72.0688-54.5876Q73.8472-54.5876 73.8472-56.4026L73.8472-64.9223Q73.8472-66.7755 72.0688-66.7755L63.3797-66.7755Q61.5753-66.7755 61.5753-64.9223L61.5753-56.4026Q61.5753-54.5876 63.3797-54.5876ZM41.4864-37.8258L50.1869-37.8258Q52.0027-37.8258 52.0027-39.6408L52.0027-48.1979Q52.0027-50.013 50.1869-50.013L41.4864-50.013Q39.7316-50.013 39.7316-48.1979L39.7316-39.6408Q39.7316-37.8258 41.4864-37.8258ZM63.3797-37.8258L72.0688-37.8258Q73.8472-37.8258 73.8472-39.6408L73.8472-48.1979Q73.8472-50.013 72.0688-50.013L63.3797-50.013Q61.5753-50.013 61.5753-48.1979L61.5753-39.6408Q61.5753-37.8258 63.3797-37.8258ZM41.4864-21.0632L50.1869-21.0632Q52.0027-21.0632 52.0027-22.9164L52.0027-31.4362Q52.0027-33.2886 50.1869-33.2886L41.4864-33.2886Q39.7316-33.2886 39.7316-31.4362L39.7316-22.9164Q39.7316-21.0632 41.4864-21.0632ZM63.3797-21.0632L72.0688-21.0632Q73.8472-21.0632 73.8472-22.9164L73.8472-31.4362Q73.8472-33.2886 72.0688-33.2886L63.3797-33.2886Q61.5753-33.2886 61.5753-31.4362L61.5753-22.9164Q61.5753-21.0632 63.3797-21.0632Z"/>
  </g>
  <g id="Bold-M" transform="matrix(1 0 0 1 2285.09 1126)">
   <path d="M12.4512 6.05469Q12.4512 11.8652 15.5029 15.1245Q18.5547 18.3838 24.0479 18.3838L85.7178 18.3838Q91.2109 18.3838 94.2627 15.1245Q97.3145 11.8652 97.3145 6.05469L97.3145-76.4648Q97.3145-82.2754 94.2627-85.5347Q91.2109-88.7939 85.7178-88.7939L24.0479-88.7939Q18.5547-88.7939 15.5029-85.5347Q12.4512-82.2754 12.4512-76.4648ZM24.8047 3.97949L24.8047-74.3652Q24.8047-75.3906 25.3418-75.9277Q25.8789-76.4648 26.8799-76.4648L82.8857-76.4648Q83.8867-76.4648 84.4238-75.9277Q84.9609-75.3906 84.9609-74.3652L84.9609 3.97949Q84.9609 4.98047 84.4238 5.51758Q83.8867 6.05469 82.8857 6.05469L26.8799 6.05469Q25.8789 6.05469 25.3418 5.51758Q24.8047 4.98047 24.8047 3.97949ZM36.6943 12.0605L45.8984 12.0605L45.8984-3.95508Q45.8984-5.37109 47.3145-5.37109L62.4756-5.37109Q63.8916-5.37109 63.8916-3.95508L63.8916 12.0605L73.0957 12.0605L73.0957-7.69043Q73.0957-10.7422 71.5576-12.3779Q70.0195-14.0137 67.1143-14.0137L42.6758-14.0137Q39.7949-14.0137 38.2446-12.3779Q36.6943-10.7422 36.6943-7.69043ZM39.2822-55.7861L48.2666-55.7861Q50.1465-55.7861 50.1465-57.666L50.1465-66.4307Q50.1465-68.335 48.2666-68.335L39.2822-68.335Q37.4756-68.335 37.4756-66.4307L37.4756-57.666Q37.4756-55.7861 39.2822-55.7861ZM61.5234-55.7861L70.4834-55.7861Q72.3389-55.7861 72.3389-57.666L72.3389-66.4307Q72.3389-68.335 70.4834-68.335L61.5234-68.335Q59.668-68.335 59.668-66.4307L59.668-57.666Q59.668-55.7861 61.5234-55.7861ZM39.2822-38.1348L48.2666-38.1348Q50.1465-38.1348 50.1465-40.0146L50.1465-48.8037Q50.1465-50.6836 48.2666-50.6836L39.2822-50.6836Q37.4756-50.6836 37.4756-48.8037L37.4756-40.0146Q37.4756-38.1348 39.2822-38.1348ZM61.5234-38.1348L70.4834-38.1348Q72.3389-38.1348 72.3389-40.0146L72.3389-48.8037Q72.3389-50.6836 70.4834-50.6836L61.5234-50.6836Q59.668-50.6836 59.668-48.8037L59.668-40.0146Q59.668-38.1348 61.5234-38.1348ZM39.2822-20.4834L48.2666-20.4834Q50.1465-20.4834 50.1465-22.3877L50.1465-31.1523Q50.1465-33.0566 48.2666-33.0566L39.2822-33.0566Q37.4756-33.0566 37.4756-31.1523L37.4756-22.3877Q37.4756-20.4834 39.2822-20.4834ZM61.5234-20.4834L70.4834-20.4834Q72.3389-20.4834 72.3389-22.3877L72.3389-31.1523Q72.3389-33.0566 70.4834-33.0566L61.5234-33.0566Q59.668-33.0566 59.668-31.1523L59.668-22.3877Q59.668-20.4834 61.5234-20.4834Z"/>
  </g>
  <g id="Semibold-M" transform="matrix(1 0 0 1 1989.68 1126)">
   <path d="M12.4512 6.7482Q12.4512 11.9186 15.1829 14.8712Q17.9146 17.8238 22.7768 17.8238L84.4116 17.8238Q89.2555 17.8238 91.9876 14.8712Q94.7197 11.9186 94.7197 6.7482L94.7197-77.1584Q94.7197-82.3463 91.9876-85.2901Q89.2555-88.2339 84.4116-88.2339L22.7768-88.2339Q17.9146-88.2339 15.1829-85.2901Q12.4512-82.3463 12.4512-77.1584ZM23.1697 4.77066L23.1697-75.1648Q23.1697-76.3504 23.7598-76.9409Q24.35-77.5314 25.5203-77.5314L81.6681-77.5314Q82.8201-77.5314 83.4106-76.9409Q84.0012-76.3504 84.0012-75.1648L84.0012 4.77066Q84.0012 5.94025 83.4106 6.53076Q82.8201 7.12128 81.6681 7.12128L25.5203 7.12128Q24.35 7.12128 23.7598 6.53076Q23.1697 5.94025 23.1697 4.77066ZM35.8322 12.2917L44.0147 12.2917L44.0147-3.83072Q44.0147-5.30014 45.4834-5.30014L61.7027-5.30014Q63.1714-5.30014 63.1714-3.83072L63.1714 12.2917L71.3539 12.2917L71.3539-6.86417Q71.3539-9.96017 69.8601-11.5425Q68.3662-13.1248 65.4167-13.1248L41.7694-13.1248Q38.8527-13.1248 37.3425-11.5425Q35.8322-9.96017 35.8322-6.86417ZM37.7625-56.6124L46.9421-56.6124Q48.867-56.6124 48.867-58.5373L48.867-67.4706Q48.867-69.4099 46.9421-69.4099L37.7625-69.4099Q35.9207-69.4099 35.9207-67.4706L35.9207-58.5373Q35.9207-56.6124 37.7625-56.6124ZM60.244-56.6124L69.3901-56.6124Q71.299-56.6124 71.299-58.5373L71.299-67.4706Q71.299-69.4099 69.3901-69.4099L60.244-69.4099Q58.3527-69.4099 58.3527-67.4706L58.3527-58.5373Q58.3527-56.6124 60.244-56.6124ZM37.7625-38.3484L46.9421-38.3484Q48.867-38.3484 48.867-40.2725L48.867-49.221Q48.867-51.1459 46.9421-51.1459L37.7625-51.1459Q35.9207-51.1459 35.9207-49.221L35.9207-40.2725Q35.9207-38.3484 37.7625-38.3484ZM60.244-38.3484L69.3901-38.3484Q71.299-38.3484 71.299-40.2725L71.299-49.221Q71.299-51.1459 69.3901-51.1459L60.244-51.1459Q58.3527-51.1459 58.3527-49.221L58.3527-40.2725Q58.3527-38.3484 60.244-38.3484ZM37.7625-20.0836L46.9421-20.0836Q48.867-20.0836 48.867-22.023L48.867-30.957Q48.867-32.8964 46.9421-32.8964L37.7625-32.8964Q35.9207-32.8964 35.9207-30.957L35.9207-22.023Q35.9207-20.0836 37.7625-20.0836ZM60.244-20.0836L69.3901-20.0836Q71.299-20.0836 71.299-22.023L71.299-30.957Q71.299-32.8964 69.3901-32.8964L60.244-32.8964Q58.3527-32.8964 58.3527-30.957L58.3527-22.023Q58.3527-20.0836 60.244-20.0836Z"/>
  </g>
  <g id="Medium-M" transform="matrix(1 0 0 1 1693.95 1126)">
   <path d="M12.4512 7.2731Q12.4512 11.9591 14.9403 14.6793Q17.4294 17.3996 21.8132 17.3996L83.4206 17.3996Q87.7731 17.3996 90.2626 14.6793Q92.7521 11.9591 92.7521 7.2731L92.7521-77.6833Q92.7521-82.4005 90.2626-85.1051Q87.7731-87.8098 83.4206-87.8098L21.8132-87.8098Q17.4294-87.8098 14.9403-85.1051Q12.4512-82.4005 12.4512-77.6833ZM21.9299 5.37033L21.9299-75.7713Q21.9299-77.0782 22.5605-77.7092Q23.1911-78.3401 24.4888-78.3401L80.7449-78.3401Q82.0114-78.3401 82.6424-77.7092Q83.2733-77.0782 83.2733-75.7713L83.2733 5.37033Q83.2733 6.66809 82.6424 7.29904Q82.0114 7.92999 80.7449 7.92999L24.4888 7.92999Q23.1911 7.92999 22.5605 7.29904Q21.9299 6.66809 21.9299 5.37033ZM35.1784 12.4664L42.5858 12.4664L42.5858-3.73611Q42.5858-5.24597 44.0956-5.24597L61.116-5.24597Q62.6259-5.24597 62.6259-3.73611L62.6259 12.4664L70.0333 12.4664L70.0333-6.23703Q70.0333-9.36737 68.5734-10.9093Q67.1135-12.4512 64.1296-12.4512L41.082-12.4512Q38.1386-12.4512 36.6585-10.9093Q35.1784-9.36737 35.1784-6.23703ZM36.6104-57.2395L45.9381-57.2395Q47.8966-57.2395 47.8966-59.1972L47.8966-68.2587Q47.8966-70.2255 45.9381-70.2255L36.6104-70.2255Q34.7412-70.2255 34.7412-68.2587L34.7412-59.1972Q34.7412-57.2395 36.6104-57.2395ZM59.2735-57.2395L68.5616-57.2395Q70.5109-57.2395 70.5109-59.1972L70.5109-68.2587Q70.5109-70.2255 68.5616-70.2255L59.2735-70.2255Q57.3555-70.2255 57.3555-68.2587L57.3555-59.1972Q57.3555-57.2395 59.2735-57.2395ZM36.6104-38.5101L45.9381-38.5101Q47.8966-38.5101 47.8966-40.4678L47.8966-49.5384Q47.8966-51.4961 45.9381-51.4961L36.6104-51.4961Q34.7412-51.4961 34.7412-49.5384L34.7412-40.4678Q34.7412-38.5101 36.6104-38.5101ZM59.2735-38.5101L68.5616-38.5101Q70.5109-38.5101 70.5109-40.4678L70.5109-49.5384Q70.5109-51.4961 68.5616-51.4961L59.2735-51.4961Q57.3555-51.4961 57.3555-49.5384L57.3555-40.4678Q57.3555-38.5101 59.2735-38.5101ZM36.6104-19.78L45.9381-19.78Q47.8966-19.78 47.8966-21.7468L47.8966-30.8083Q47.8966-32.7751 45.9381-32.7751L36.6104-32.7751Q34.7412-32.7751 34.7412-30.8083L34.7412-21.7468Q34.7412-19.78 36.6104-19.78ZM59.2735-19.78L68.5616-19.78Q70.5109-19.78 70.5109-21.7468L70.5109-30.8083Q70.5109-32.7751 68.5616-32.7751L59.2735-32.7751Q57.3555-32.7751 57.3555-30.8083L57.3555-21.7468Q57.3555-19.78 59.2735-19.78Z"/>
  </g>
  <g id="Regular-M" transform="matrix(1 0 0 1 1398.53 1126)">
   <path d="M12.4512 7.95898Q12.4512 12.0117 14.624 14.4287Q16.7969 16.8457 20.5566 16.8457L82.1289 16.8457Q85.8398 16.8457 88.0127 14.4287Q90.1855 12.0117 90.1855 7.95898L90.1855-78.3691Q90.1855-82.4707 88.0127-84.8633Q85.8398-87.2559 82.1289-87.2559L20.5566-87.2559Q16.7969-87.2559 14.624-84.8633Q12.4512-82.4707 12.4512-78.3691ZM20.3125 6.15234L20.3125-76.5625Q20.3125-78.0273 20.9961-78.7109Q21.6797-79.3945 23.1445-79.3945L79.541-79.3945Q80.957-79.3945 81.6406-78.7109Q82.3242-78.0273 82.3242-76.5625L82.3242 6.15234Q82.3242 7.61719 81.6406 8.30078Q80.957 8.98438 79.541 8.98438L23.1445 8.98438Q21.6797 8.98438 20.9961 8.30078Q20.3125 7.61719 20.3125 6.15234ZM34.3262 12.6953L40.7227 12.6953L40.7227-3.61328Q40.7227-5.17578 42.2852-5.17578L60.3516-5.17578Q61.9141-5.17578 61.9141-3.61328L61.9141 12.6953L68.3105 12.6953L68.3105-5.41992Q68.3105-8.59375 66.8945-10.083Q65.4785-11.5723 62.4512-11.5723L40.1855-11.5723Q37.207-11.5723 35.7666-10.083Q34.3262-8.59375 34.3262-5.41992ZM35.1074-58.0566L44.6289-58.0566Q46.6309-58.0566 46.6309-60.0586L46.6309-69.2871Q46.6309-71.2891 44.6289-71.2891L35.1074-71.2891Q33.2031-71.2891 33.2031-69.2871L33.2031-60.0586Q33.2031-58.0566 35.1074-58.0566ZM58.0078-58.0566L67.4805-58.0566Q69.4824-58.0566 69.4824-60.0586L69.4824-69.2871Q69.4824-71.2891 67.4805-71.2891L58.0078-71.2891Q56.0547-71.2891 56.0547-69.2871L56.0547-60.0586Q56.0547-58.0566 58.0078-58.0566ZM35.1074-38.7207L44.6289-38.7207Q46.6309-38.7207 46.6309-40.7227L46.6309-49.9512Q46.6309-51.9531 44.6289-51.9531L35.1074-51.9531Q33.2031-51.9531 33.2031-49.9512L33.2031-40.7227Q33.2031-38.7207 35.1074-38.7207ZM58.0078-38.7207L67.4805-38.7207Q69.4824-38.7207 69.4824-40.7227L69.4824-49.9512Q69.4824-51.9531 67.4805-51.9531L58.0078-51.9531Q56.0547-51.9531 56.0547-49.9512L56.0547-40.7227Q56.0547-38.7207 58.0078-38.7207ZM35.1074-19.3848L44.6289-19.3848Q46.6309-19.3848 46.6309-21.3867L46.6309-30.6152Q46.6309-32.6172 44.6289-32.6172L35.1074-32.6172Q33.2031-32.6172 33.2031-30.6152L33.2031-21.3867Q33.2031-19.3848 35.1074-19.3848ZM58.0078-19.3848L67.4805-19.3848Q69.4824-19.3848 69.4824-21.3867L69.4824-30.6152Q69.4824-32.6172 67.4805-32.6172L58.0078-32.6172Q56.0547-32.6172 56.0547-30.6152L56.0547-21.3867Q56.0547-19.3848 58.0078-19.3848Z"/>
  </g>
  <g id="Light-M" transform="matrix(1 0 0 1 1103.43 1126)">
   <path d="M12.4512 8.24661Q12.4512 11.9965 14.4047 14.1109Q16.3582 16.2254 19.9211 16.2254L79.5105 16.2254Q83.0399 16.2254 84.993 14.1109Q86.9461 11.9965 86.9461 8.24661L86.9461-78.611Q86.9461-82.3952 84.993-84.4925Q83.0399-86.5898 79.5105-86.5898L19.9211-86.5898Q16.3582-86.5898 14.4047-84.4925Q12.4512-82.3952 12.4512-78.611ZM18.4959 7.04575L18.4959-77.4101Q18.4959-79.0871 19.2326-79.8237Q19.9692-80.5603 21.6309-80.5603L77.8-80.5603Q79.4281-80.5603 80.1647-79.8237Q80.9013-79.0871 80.9013-77.4101L80.9013 7.04575Q80.9013 8.72192 80.1647 9.45854Q79.4281 10.1952 77.8 10.1952L21.6309 10.1952Q19.9692 10.1952 19.2326 9.45854Q18.4959 8.72192 18.4959 7.04575ZM32.888 13.0585L37.9524 13.0585L37.9524-2.62909Q37.9524-4.50974 39.8331-4.50974L59.5795-4.50974Q61.4601-4.50974 61.4601-2.62909L61.4601 13.0585L66.5245 13.0585L66.5245-3.83072Q66.5245-6.79245 65.184-8.19092Q63.8435-9.58939 60.968-9.58939L38.4445-9.58939Q35.6178-9.58939 34.2529-8.19092Q32.888-6.79245 32.888-3.83072ZM33.5785-58.1627L43.7057-58.1627Q45.4803-58.1627 45.4803-59.9525L45.4803-69.8624Q45.4803-71.6522 43.7057-71.6522L33.5785-71.6522Q31.871-71.6522 31.871-69.8624L31.871-59.9525Q31.871-58.1627 33.5785-58.1627ZM55.677-58.1627L65.7852-58.1627Q67.5598-58.1627 67.5598-59.9525L67.5598-69.8624Q67.5598-71.6522 65.7852-71.6522L55.677-71.6522Q53.9505-71.6522 53.9505-69.8624L53.9505-59.9525Q53.9505-58.1627 55.677-58.1627ZM33.5785-37.9944L43.7057-37.9944Q45.4803-37.9944 45.4803-39.7842L45.4803-49.6788Q45.4803-51.4687 43.7057-51.4687L33.5785-51.4687Q31.871-51.4687 31.871-49.6788L31.871-39.7842Q31.871-37.9944 33.5785-37.9944ZM55.677-37.9944L65.7852-37.9944Q67.5598-37.9944 67.5598-39.7842L67.5598-49.6788Q67.5598-51.4687 65.7852-51.4687L55.677-51.4687Q53.9505-51.4687 53.9505-49.6788L53.9505-39.7842Q53.9505-37.9944 55.677-37.9944ZM33.5785-17.8108L43.7057-17.8108Q45.4803-17.8108 45.4803-19.6007L45.4803-29.5105Q45.4803-31.2851 43.7057-31.2851L33.5785-31.2851Q31.871-31.2851 31.871-29.5105L31.871-19.6007Q31.871-17.8108 33.5785-17.8108ZM55.677-17.8108L65.7852-17.8108Q67.5598-17.8108 67.5598-19.6007L67.5598-29.5105Q67.5598-31.2851 65.7852-31.2851L55.677-31.2851Q53.9505-31.2851 53.9505-29.5105L53.9505-19.6007Q53.9505-17.8108 55.677-17.8108Z"/>
  </g>
  <g id="Thin-M" transform="matrix(1 0 0 1 808.865 1126)">
   <path d="M12.4512 8.62656Q12.4512 11.9766 14.1144 13.6906Q15.7776 15.4045 19.0804 15.4045L76.0468 15.4045Q79.3365 15.4045 80.9994 13.6906Q82.6622 11.9766 82.6622 8.62656L82.6622-78.9314Q82.6622-82.2952 80.9994-84.0023Q79.3365-85.7094 76.0468-85.7094L19.0804-85.7094Q15.7776-85.7094 14.1144-84.0023Q12.4512-82.2952 12.4512-78.9314ZM16.0942 8.22678L16.0942-78.5309Q16.0942-80.4878 16.9006-81.2946Q17.7071-82.1014 19.6289-82.1014L75.4982-82.1014Q77.4063-82.1014 78.2131-81.2946Q79.0199-80.4878 79.0199-78.5309L79.0199 8.22678Q79.0199 10.1837 78.2131 10.9901Q77.4063 11.7966 75.4982 11.7966L19.6289 11.7966Q17.7071 11.7966 16.9006 10.9901Q16.0942 10.1837 16.0942 8.22678ZM30.9868 13.5391L34.2896 13.5391L34.2896-1.32828Q34.2896-3.6293 36.5898-3.6293L58.5587-3.6293Q60.8597-3.6293 60.8597-1.32828L60.8597 13.5391L64.1624 13.5391L64.1624-1.72882Q64.1624-4.41055 62.9223-5.68886Q61.6821-6.96716 59.0057-6.96716L36.1427-6.96716Q33.5159-6.96716 32.2514-5.68886Q30.9868-4.41055 30.9868-1.72882ZM31.5567-58.3031L42.4843-58.3031Q43.959-58.3031 43.959-59.8122L43.959-70.623Q43.959-72.1329 42.4843-72.1329L31.5567-72.1329Q30.1094-72.1329 30.1094-70.623L30.1094-59.8122Q30.1094-58.3031 31.5567-58.3031ZM52.594-58.3031L63.5429-58.3031Q65.0177-58.3031 65.0177-59.8122L65.0177-70.623Q65.0177-72.1329 63.5429-72.1329L52.594-72.1329Q51.1681-72.1329 51.1681-70.623L51.1681-59.8122Q51.1681-58.3031 52.594-58.3031ZM31.5567-37.0331L42.4843-37.0331Q43.959-37.0331 43.959-38.5429L43.959-49.3187Q43.959-50.8286 42.4843-50.8286L31.5567-50.8286Q30.1094-50.8286 30.1094-49.3187L30.1094-38.5429Q30.1094-37.0331 31.5567-37.0331ZM52.594-37.0331L63.5429-37.0331Q65.0177-37.0331 65.0177-38.5429L65.0177-49.3187Q65.0177-50.8286 63.5429-50.8286L52.594-50.8286Q51.1681-50.8286 51.1681-49.3187L51.1681-38.5429Q51.1681-37.0331 52.594-37.0331ZM31.5567-15.7288L42.4843-15.7288Q43.959-15.7288 43.959-17.2386L43.959-28.0487Q43.959-29.5235 42.4843-29.5235L31.5567-29.5235Q30.1094-29.5235 30.1094-28.0487L30.1094-17.2386Q30.1094-15.7288 31.5567-15.7288ZM52.594-15.7288L63.5429-15.7288Q65.0177-15.7288 65.0177-17.2386L65.0177-28.0487Q65.0177-29.5235 63.5429-29.5235L52.594-29.5235Q51.1681-29.5235 51.1681-28.0487L51.1681-17.2386Q51.1681-15.7288 52.594-15.7288Z"/>
  </g>
  <g id="Ultralight-M" transform="matrix(1 0 0 1 513.252 1126)">
   <path d="M12.4512 8.82187Q12.4512 11.9659 13.9656 13.475Q15.48 14.9841 18.6493 14.9841L74.2729 14.9841Q77.4391 14.9841 78.9536 13.475Q80.468 11.9659 80.468 8.82187L80.468-79.0955Q80.468-82.2433 78.9536-83.7505Q77.4391-85.2577 74.2729-85.2577L18.6493-85.2577Q15.48-85.2577 13.9656-83.7505Q12.4512-82.2433 12.4512-79.0955ZM14.8636 8.83179L14.8636-79.1054Q14.8636-81.2057 15.7059-82.0484Q16.5482-82.8911 18.6035-82.8911L74.3187-82.8911Q76.371-82.8911 77.2133-82.0484Q78.0556-81.2057 78.0556-79.1054L78.0556 8.83179Q78.0556 10.9322 77.2133 11.7748Q76.371 12.6175 74.3187 12.6175L18.6035 12.6175Q16.5482 12.6175 15.7059 11.7748Q14.8636 10.9322 14.8636 8.83179ZM30.0125 13.7848L32.4127 13.7848L32.4127-0.661469Q32.4127-3.17764 34.9289-3.17764L58.036-3.17764Q60.5515-3.17764 60.5515-0.661469L60.5515 13.7848L62.9524 13.7848L62.9524-0.65155Q62.9524-3.18985 61.7634-4.40674Q60.5743-5.62363 58.0009-5.62363L34.9632-5.62363Q32.4387-5.62363 31.2256-4.40674Q30.0125-3.18985 30.0125-0.65155ZM30.5214-58.3748L41.8587-58.3748Q43.1801-58.3748 43.1801-59.7404L43.1801-71.0129Q43.1801-72.3785 41.8587-72.3785L30.5214-72.3785Q29.2068-72.3785 29.2068-71.0129L29.2068-59.7404Q29.2068-58.3748 30.5214-58.3748ZM51.0147-58.3748L62.3947-58.3748Q63.7154-58.3748 63.7154-59.7404L63.7154-71.0129Q63.7154-72.3785 62.3947-72.3785L51.0147-72.3785Q49.7429-72.3785 49.7429-71.0129L49.7429-59.7404Q49.7429-58.3748 51.0147-58.3748ZM30.5214-36.541L41.8587-36.541Q43.1801-36.541 43.1801-37.9074L43.1801-49.1341Q43.1801-50.4997 41.8587-50.4997L30.5214-50.4997Q29.2068-50.4997 29.2068-49.1341L29.2068-37.9074Q29.2068-36.541 30.5214-36.541ZM51.0147-36.541L62.3947-36.541Q63.7154-36.541 63.7154-37.9074L63.7154-49.1341Q63.7154-50.4997 62.3947-50.4997L51.0147-50.4997Q49.7429-50.4997 49.7429-49.1341L49.7429-37.9074Q49.7429-36.541 51.0147-36.541ZM30.5214-14.6622L41.8587-14.6622Q43.1801-14.6622 43.1801-16.0286L43.1801-27.3003Q43.1801-28.6209 41.8587-28.6209L30.5214-28.6209Q29.2068-28.6209 29.2068-27.3003L29.2068-16.0286Q29.2068-14.6622 30.5214-14.6622ZM51.0147-14.6622L62.3947-14.6622Q63.7154-14.6622 63.7154-16.0286L63.7154-27.3003Q63.7154-28.6209 62.3947-28.6209L51.0147-28.6209Q49.7429-28.6209 49.7429-27.3003L49.7429-16.0286Q49.7429-14.6622 51.0147-14.6622Z"/>
  </g>
  <g id="Black-S" transform="matrix(1 0 0 1 2887.18 696)">
   <path d="M9.76562-4.63867Q9.76562 1.51367 12.9639 4.83398Q16.1621 8.1543 22.0703 8.1543L70.3613 8.1543Q76.3184 8.1543 79.4922 4.83398Q82.666 1.51367 82.666-4.63867L82.666-65.7715Q82.666-71.9238 79.4922-75.2441Q76.3184-78.5645 70.3613-78.5645L22.0703-78.5645Q16.1621-78.5645 12.9639-75.2441Q9.76562-71.9238 9.76562-65.7715ZM23.4863-6.49414L23.4863-63.916Q23.4863-64.3066 23.7793-64.5996Q24.0723-64.8926 24.4629-64.8926L67.9688-64.8926Q68.3594-64.8926 68.6523-64.5996Q68.9453-64.3066 68.9453-63.916L68.9453-6.49414Q68.9453-6.10352 68.6523-5.81055Q68.3594-5.51758 67.9688-5.51758L24.4629-5.51758Q24.0723-5.51758 23.7793-5.81055Q23.4863-6.10352 23.4863-6.49414ZM30.8594 1.26953L40.625 1.26953L40.625-10.9863Q40.625-11.9629 41.6016-11.9629L50.8789-11.9629Q51.8555-11.9629 51.8555-10.9863L51.8555 1.26953L61.6211 1.26953L61.6211-15.6738Q61.6211-17.9688 60.3027-19.3604Q58.9844-20.752 56.8359-20.752L35.6445-20.752Q33.4961-20.752 32.1777-19.3604Q30.8594-17.9688 30.8594-15.6738ZM34.5703-49.2188L41.1621-49.2188Q42.4805-49.2188 42.4805-50.5859L42.4805-57.0801Q42.4805-58.4473 41.1621-58.4473L34.5703-58.4473Q33.252-58.4473 33.252-57.0801L33.252-50.5859Q33.252-49.2188 34.5703-49.2188ZM51.3184-49.2188L57.9102-49.2188Q59.2285-49.2188 59.2285-50.5859L59.2285-57.0801Q59.2285-58.4473 57.9102-58.4473L51.3184-58.4473Q50-58.4473 50-57.0801L50-50.5859Q50-49.2188 51.3184-49.2188ZM34.5703-36.9141L41.1621-36.9141Q42.4805-36.9141 42.4805-38.2812L42.4805-44.7754Q42.4805-46.1426 41.1621-46.1426L34.5703-46.1426Q33.252-46.1426 33.252-44.7754L33.252-38.2812Q33.252-36.9141 34.5703-36.9141ZM51.3184-36.9141L57.9102-36.9141Q59.2285-36.9141 59.2285-38.2812L59.2285-44.7754Q59.2285-46.1426 57.9102-46.1426L51.3184-46.1426Q50-46.1426 50-44.7754L50-38.2812Q50-36.9141 51.3184-36.9141ZM34.5703-24.6094L41.1621-24.6094Q42.4805-24.6094 42.4805-25.9766L42.4805-32.4707Q42.4805-33.8379 41.1621-33.8379L34.5703-33.8379Q33.252-33.8379 33.252-32.4707L33.252-25.9766Q33.252-24.6094 34.5703-24.6094ZM51.3184-24.6094L57.9102-24.6094Q59.2285-24.6094 59.2285-25.9766L59.2285-32.4707Q59.2285-33.8379 57.9102-33.8379L51.3184-33.8379Q50-33.8379 50-32.4707L50-25.9766Q50-24.6094 51.3184-24.6094Z"/>
  </g>
  <g id="Heavy-S" transform="matrix(1 0 0 1 2591.7 696)">
   <path d="M9.76562-3.90091Q9.76562 1.5831 12.6354 4.59785Q15.5052 7.61261 20.7336 7.61261L69.2436 7.61261Q74.4972 7.61261 77.3544 4.59785Q80.2116 1.5831 80.2116-3.90091L80.2116-66.5207Q80.2116-72.0047 77.3544-75.0195Q74.4972-78.0342 69.2436-78.0342L20.7336-78.0342Q15.5052-78.0342 12.6354-75.0195Q9.76562-72.0047 9.76562-66.5207ZM21.9078-5.72205L21.9078-64.6996Q21.9078-65.2405 22.2527-65.5849Q22.5975-65.9294 23.1377-65.9294L66.8282-65.9294Q67.3683-65.9294 67.7132-65.5849Q68.058-65.2405 68.058-64.6996L68.058-5.72205Q68.058-5.18188 67.7132-4.83704Q67.3683-4.49219 66.8282-4.49219L23.1377-4.49219Q22.5975-4.49219 22.2527-4.83704Q21.9078-5.18188 21.9078-5.72205ZM30.0873 1.47705L38.8847 1.47705L38.8847-10.9749Q38.8847-11.9743 39.8842-11.9743L50.1297-11.9743Q51.1292-11.9743 51.1292-10.9749L51.1292 1.47705L59.9152 1.47705L59.9152-14.959Q59.9152-17.3233 58.6372-18.6745Q57.3593-20.0256 55.1422-20.0256L34.861-20.0256Q32.6546-20.0256 31.3709-18.6745Q30.0873-17.3233 30.0873-14.959ZM33.0833-50.1175L39.8026-50.1175Q41.201-50.1175 41.201-51.5656L41.201-58.152Q41.201-59.5879 39.8026-59.5879L33.0833-59.5879Q31.6963-59.5879 31.6963-58.152L31.6963-51.5656Q31.6963-50.1175 33.0833-50.1175ZM50.2007-50.1175L56.9191-50.1175Q58.3183-50.1175 58.3183-51.5656L58.3183-58.152Q58.3183-59.5879 56.9191-59.5879L50.2007-59.5879Q48.8014-59.5879 48.8014-58.152L48.8014-51.5656Q48.8014-50.1175 50.2007-50.1175ZM33.0833-37.2482L39.8026-37.2482Q41.201-37.2482 41.201-38.6848L41.201-45.2713Q41.201-46.7072 39.8026-46.7072L33.0833-46.7072Q31.6963-46.7072 31.6963-45.2713L31.6963-38.6848Q31.6963-37.2482 33.0833-37.2482ZM50.2007-37.2482L56.9191-37.2482Q58.3183-37.2482 58.3183-38.6848L58.3183-45.2713Q58.3183-46.7072 56.9191-46.7072L50.2007-46.7072Q48.8014-46.7072 48.8014-45.2713L48.8014-38.6848Q48.8014-37.2482 50.2007-37.2482ZM33.0833-24.3675L39.8026-24.3675Q41.201-24.3675 41.201-25.8034L41.201-32.3898Q41.201-33.8379 39.8026-33.8379L33.0833-33.8379Q31.6963-33.8379 31.6963-32.3898L31.6963-25.8034Q31.6963-24.3675 33.0833-24.3675ZM50.2007-24.3675L56.9191-24.3675Q58.3183-24.3675 58.3183-25.8034L58.3183-32.3898Q58.3183-33.8379 56.9191-33.8379L50.2007-33.8379Q48.8014-33.8379 48.8014-32.3898L48.8014-25.8034Q48.8014-24.3675 50.2007-24.3675Z"/>
  </g>
  <g id="Bold-S" transform="matrix(1 0 0 1 2296.36 696)">
   <path d="M9.76562-3.07617Q9.76562 1.66016 12.2681 4.3335Q14.7705 7.00684 19.2383 7.00684L67.9932 7.00684Q72.4609 7.00684 74.9634 4.3335Q77.4658 1.66016 77.4658-3.07617L77.4658-67.3584Q77.4658-72.0947 74.9634-74.7681Q72.4609-77.4414 67.9932-77.4414L19.2383-77.4414Q14.7705-77.4414 12.2681-74.7681Q9.76562-72.0947 9.76562-67.3584ZM20.1416-4.8584L20.1416-65.5762Q20.1416-66.2842 20.5444-66.687Q20.9473-67.0898 21.6553-67.0898L65.5518-67.0898Q66.2598-67.0898 66.6626-66.687Q67.0654-66.2842 67.0654-65.5762L67.0654-4.8584Q67.0654-4.15039 66.6626-3.74756Q66.2598-3.34473 65.5518-3.34473L21.6553-3.34473Q20.9473-3.34473 20.5444-3.74756Q20.1416-4.15039 20.1416-4.8584ZM29.2236 1.70898L36.9385 1.70898L36.9385-10.9619Q36.9385-11.9873 37.9639-11.9873L49.292-11.9873Q50.3174-11.9873 50.3174-10.9619L50.3174 1.70898L58.0078 1.70898L58.0078-14.1602Q58.0078-16.6016 56.7749-17.9077Q55.542-19.2139 53.2471-19.2139L33.9844-19.2139Q31.7139-19.2139 30.4688-17.9077Q29.2236-16.6016 29.2236-14.1602ZM31.4209-51.123L38.2812-51.123Q39.7705-51.123 39.7705-52.6611L39.7705-59.3506Q39.7705-60.8643 38.2812-60.8643L31.4209-60.8643Q29.9561-60.8643 29.9561-59.3506L29.9561-52.6611Q29.9561-51.123 31.4209-51.123ZM48.9502-51.123L55.8105-51.123Q57.2998-51.123 57.2998-52.6611L57.2998-59.3506Q57.2998-60.8643 55.8105-60.8643L48.9502-60.8643Q47.4609-60.8643 47.4609-59.3506L47.4609-52.6611Q47.4609-51.123 48.9502-51.123ZM31.4209-37.6221L38.2812-37.6221Q39.7705-37.6221 39.7705-39.1357L39.7705-45.8252Q39.7705-47.3389 38.2812-47.3389L31.4209-47.3389Q29.9561-47.3389 29.9561-45.8252L29.9561-39.1357Q29.9561-37.6221 31.4209-37.6221ZM48.9502-37.6221L55.8105-37.6221Q57.2998-37.6221 57.2998-39.1357L57.2998-45.8252Q57.2998-47.3389 55.8105-47.3389L48.9502-47.3389Q47.4609-47.3389 47.4609-45.8252L47.4609-39.1357Q47.4609-37.6221 48.9502-37.6221ZM31.4209-24.0967L38.2812-24.0967Q39.7705-24.0967 39.7705-25.6104L39.7705-32.2998Q39.7705-33.8379 38.2812-33.8379L31.4209-33.8379Q29.9561-33.8379 29.9561-32.2998L29.9561-25.6104Q29.9561-24.0967 31.4209-24.0967ZM48.9502-24.0967L55.8105-24.0967Q57.2998-24.0967 57.2998-25.6104L57.2998-32.2998Q57.2998-33.8379 55.8105-33.8379L48.9502-33.8379Q47.4609-33.8379 47.4609-32.2998L47.4609-25.6104Q47.4609-24.0967 48.9502-24.0967Z"/>
  </g>
  <g id="Semibold-S" transform="matrix(1 0 0 1 2000.6 696)">
   <path d="M9.76562-2.50778Q9.76562 1.71356 12.0148 4.15154Q14.2639 6.58951 18.2076 6.58951L67.131 6.58951Q71.0571 6.58951 73.315 4.15154Q75.573 1.71356 75.573-2.50778L75.573-67.9359Q75.573-72.1573 73.315-74.5949Q71.0571-77.0325 67.131-77.0325L18.2076-77.0325Q14.2639-77.0325 12.0148-74.5949Q9.76562-72.1573 9.76562-67.9359ZM18.924-4.26331L18.924-66.1804Q18.924-67.0044 19.3668-67.4469Q19.8097-67.8894 20.6329-67.8894L64.6721-67.8894Q65.4953-67.8894 65.9382-67.4469Q66.3811-67.0044 66.3811-66.1804L66.3811-4.26331Q66.3811-3.43933 65.9382-2.99644Q65.4953-2.55356 64.6721-2.55356L20.6329-2.55356Q19.8097-2.55356 19.3668-2.99644Q18.924-3.43933 18.924-4.26331ZM28.6285 1.8692L35.5965 1.8692L35.5965-10.9528Q35.5965-11.9965 36.6394-11.9965L48.7144-11.9965Q49.7574-11.9965 49.7574-10.9528L49.7574 1.8692L56.6925 1.8692L56.6925-13.6093Q56.6925-16.1041 55.4909-17.379Q54.2892-18.6539 51.9409-18.6539L33.3801-18.6539Q31.0654-18.6539 29.847-17.379Q28.6285-16.1041 28.6285-13.6093ZM30.2742-51.8166L37.2322-51.8166Q38.784-51.8166 38.784-53.4164L38.784-60.1768Q38.784-61.7439 37.2322-61.7439L30.2742-61.7439Q28.756-61.7439 28.756-60.1768L28.756-53.4164Q28.756-51.8166 30.2742-51.8166ZM48.0881-51.8166L55.0461-51.8166Q56.5979-51.8166 56.5979-53.4164L56.5979-60.1768Q56.5979-61.7439 55.0461-61.7439L48.0881-61.7439Q46.537-61.7439 46.537-60.1768L46.537-53.4164Q46.537-51.8166 48.0881-51.8166ZM30.2742-37.8799L37.2322-37.8799Q38.784-37.8799 38.784-39.447L38.784-46.2074Q38.784-47.7745 37.2322-47.7745L30.2742-47.7745Q28.756-47.7745 28.756-46.2074L28.756-39.447Q28.756-37.8799 30.2742-37.8799ZM48.0881-37.8799L55.0461-37.8799Q56.5979-37.8799 56.5979-39.447L56.5979-46.2074Q56.5979-47.7745 55.0461-47.7745L48.0881-47.7745Q46.537-47.7745 46.537-46.2074L46.537-39.447Q46.537-37.8799 48.0881-37.8799ZM30.2742-23.9098L37.2322-23.9098Q38.784-23.9098 38.784-25.4768L38.784-32.2372Q38.784-33.8379 37.2322-33.8379L30.2742-33.8379Q28.756-33.8379 28.756-32.2372L28.756-25.4768Q28.756-23.9098 30.2742-23.9098ZM48.0881-23.9098L55.0461-23.9098Q56.5979-23.9098 56.5979-25.4768L56.5979-32.2372Q56.5979-33.8379 55.0461-33.8379L48.0881-33.8379Q46.537-33.8379 46.537-32.2372L46.537-25.4768Q46.537-23.9098 48.0881-23.9098Z"/>
  </g>
  <g id="Medium-S" transform="matrix(1 0 0 1 1704.6 696)">
   <path d="M9.76562-2.07596Q9.76562 1.754 11.8229 4.01306Q13.8802 6.27213 17.4255 6.27213L66.4772 6.27213Q69.9921 6.27213 72.065 4.01306Q74.1379 1.754 74.1379-2.07596L74.1379-68.3739Q74.1379-72.2038 72.065-74.4633Q69.9921-76.7227 66.4772-76.7227L17.4255-76.7227Q13.8802-76.7227 11.8229-74.4633Q9.76562-72.2038 9.76562-68.3739ZM18.0008-3.81165L18.0008-66.6389Q18.0008-67.5499 18.4742-68.0229Q18.9476-68.4959 19.8586-68.4959L64.0045-68.4959Q64.9162-68.4959 65.3893-68.0229Q65.8623-67.5499 65.8623-66.6389L65.8623-3.81165Q65.8623-2.9007 65.3893-2.42729Q64.9162-1.95389 64.0045-1.95389L19.8586-1.95389Q18.9476-1.95389 18.4742-2.42729Q18.0008-2.9007 18.0008-3.81165ZM28.1769 1.99051L34.5787 1.99051L34.5787-10.9467Q34.5787-12.0026 35.6354-12.0026L48.2765-12.0026Q49.3332-12.0026 49.3332-10.9467L49.3332 1.99051L55.6953 1.99051L55.6953-13.1912Q55.6953-15.7265 54.517-16.9781Q53.3386-18.2297 50.9499-18.2297L32.9216-18.2297Q30.5733-18.2297 29.3751-16.9781Q28.1769-15.7265 28.1769-13.1912ZM29.4052-52.3415L36.4372-52.3415Q38.0363-52.3415 38.0363-53.9894L38.0363-60.804Q38.0363-62.4115 36.4372-62.4115L29.4052-62.4115Q27.8465-62.4115 27.8465-60.804L27.8465-53.9894Q27.8465-52.3415 29.4052-52.3415ZM47.4342-52.3415L54.467-52.3415Q56.0654-52.3415 56.0654-53.9894L56.0654-60.804Q56.0654-62.4115 54.467-62.4115L47.4342-62.4115Q45.8359-62.4115 45.8359-60.804L45.8359-53.9894Q45.8359-52.3415 47.4342-52.3415ZM29.4052-38.0753L36.4372-38.0753Q38.0363-38.0753 38.0363-39.6828L38.0363-46.4973Q38.0363-48.1049 36.4372-48.1049L29.4052-48.1049Q27.8465-48.1049 27.8465-46.4973L27.8465-39.6828Q27.8465-38.0753 29.4052-38.0753ZM47.4342-38.0753L54.467-38.0753Q56.0654-38.0753 56.0654-39.6828L56.0654-46.4973Q56.0654-48.1049 54.467-48.1049L47.4342-48.1049Q45.8359-48.1049 45.8359-46.4973L45.8359-39.6828Q45.8359-38.0753 47.4342-38.0753ZM29.4052-23.7686L36.4372-23.7686Q38.0363-23.7686 38.0363-25.3761L38.0363-32.1907Q38.0363-33.8379 36.4372-33.8379L29.4052-33.8379Q27.8465-33.8379 27.8465-32.1907L27.8465-25.3761Q27.8465-23.7686 29.4052-23.7686ZM47.4342-23.7686L54.467-23.7686Q56.0654-23.7686 56.0654-25.3761L56.0654-32.1907Q56.0654-33.8379 54.467-33.8379L47.4342-33.8379Q45.8359-33.8379 45.8359-32.1907L45.8359-25.3761Q45.8359-23.7686 47.4342-23.7686Z"/>
  </g>
  <g id="Regular-S" transform="matrix(1 0 0 1 1408.83 696)">
   <path d="M9.76562-1.51367Q9.76562 1.80664 11.5723 3.83301Q13.3789 5.85938 16.4062 5.85938L65.625 5.85938Q68.6035 5.85938 70.4346 3.83301Q72.2656 1.80664 72.2656-1.51367L72.2656-68.9453Q72.2656-72.2656 70.4346-74.292Q68.6035-76.3184 65.625-76.3184L16.4062-76.3184Q13.3789-76.3184 11.5723-74.292Q9.76562-72.2656 9.76562-68.9453ZM16.7969-3.22266L16.7969-67.2363Q16.7969-68.2617 17.3096-68.7744Q17.8223-69.2871 18.8477-69.2871L63.1348-69.2871Q64.1602-69.2871 64.6729-68.7744Q65.1855-68.2617 65.1855-67.2363L65.1855-3.22266Q65.1855-2.19727 64.6729-1.68457Q64.1602-1.17188 63.1348-1.17188L18.8477-1.17188Q17.8223-1.17188 17.3096-1.68457Q16.7969-2.19727 16.7969-3.22266ZM27.5879 2.14844L33.252 2.14844L33.252-10.9375Q33.252-12.0117 34.3262-12.0117L47.7051-12.0117Q48.7793-12.0117 48.7793-10.9375L48.7793 2.14844L54.3945 2.14844L54.3945-12.6465Q54.3945-15.2344 53.2471-16.4551Q52.0996-17.6758 49.6582-17.6758L32.3242-17.6758Q29.9316-17.6758 28.7598-16.4551Q27.5879-15.2344 27.5879-12.6465ZM28.2715-53.0273L35.4004-53.0273Q37.0605-53.0273 37.0605-54.7363L37.0605-61.6211Q37.0605-63.2812 35.4004-63.2812L28.2715-63.2812Q26.6602-63.2812 26.6602-61.6211L26.6602-54.7363Q26.6602-53.0273 28.2715-53.0273ZM46.582-53.0273L53.7109-53.0273Q55.3711-53.0273 55.3711-54.7363L55.3711-61.6211Q55.3711-63.2812 53.7109-63.2812L46.582-63.2812Q44.9219-63.2812 44.9219-61.6211L44.9219-54.7363Q44.9219-53.0273 46.582-53.0273ZM28.2715-38.3301L35.4004-38.3301Q37.0605-38.3301 37.0605-39.9902L37.0605-46.875Q37.0605-48.5352 35.4004-48.5352L28.2715-48.5352Q26.6602-48.5352 26.6602-46.875L26.6602-39.9902Q26.6602-38.3301 28.2715-38.3301ZM46.582-38.3301L53.7109-38.3301Q55.3711-38.3301 55.3711-39.9902L55.3711-46.875Q55.3711-48.5352 53.7109-48.5352L46.582-48.5352Q44.9219-48.5352 44.9219-46.875L44.9219-39.9902Q44.9219-38.3301 46.582-38.3301ZM28.2715-23.584L35.4004-23.584Q37.0605-23.584 37.0605-25.2441L37.0605-32.1289Q37.0605-33.8379 35.4004-33.8379L28.2715-33.8379Q26.6602-33.8379 26.6602-32.1289L26.6602-25.2441Q26.6602-23.584 28.2715-23.584ZM46.582-23.584L53.7109-23.584Q55.3711-23.584 55.3711-25.2441L55.3711-32.1289Q55.3711-33.8379 53.7109-33.8379L46.582-33.8379Q44.9219-33.8379 44.9219-32.1289L44.9219-25.2441Q44.9219-23.584 46.582-23.584Z"/>
  </g>
  <g id="Light-S" transform="matrix(1 0 0 1 1113.56 696)">
   <path d="M9.76562-1.27182Q9.76562 1.79138 11.3754 3.55301Q12.9852 5.31464 15.8463 5.31464L63.3095 5.31464Q66.1209 5.31464 67.7551 3.55301Q69.3893 1.79138 69.3893-1.27182L69.3893-69.1422Q69.3893-72.2054 67.7551-73.9666Q66.1209-75.7278 63.3095-75.7278L15.8463-75.7278Q12.9852-75.7278 11.3754-73.9666Q9.76562-72.2054 9.76562-69.1422ZM15.1924-2.4353L15.1924-67.9779Q15.1924-69.1849 15.7505-69.743Q16.3086-70.3011 17.5156-70.3011L61.6058-70.3011Q62.8128-70.3011 63.3709-69.743Q63.929-69.1849 63.929-67.9779L63.929-2.4353Q63.929-1.22833 63.3709-0.662613Q62.8128-0.0968933 61.6058-0.0968933L17.5156-0.0968933Q16.3086-0.0968933 15.7505-0.662613Q15.1924-1.22833 15.1924-2.4353ZM26.3161 2.46658L30.7999 2.46658L30.7999-10.0746Q30.7999-11.4212 32.1617-11.4212L47.0085-11.4212Q48.3551-11.4212 48.3551-10.0746L48.3551 2.46658L52.8206 2.46658L52.8206-11.2389Q52.8206-13.6452 51.7334-14.7751Q50.6462-15.905 48.3414-15.905L30.7953-15.905Q28.524-15.905 27.42-14.7751Q26.3161-13.6452 26.3161-11.2389ZM26.9089-53.1334L34.5978-53.1334Q36.0619-53.1334 36.0619-54.6455L36.0619-62.1361Q36.0619-63.5994 34.5978-63.5994L26.9089-63.5994Q25.4791-63.5994 25.4791-62.1361L25.4791-54.6455Q25.4791-53.1334 26.9089-53.1334ZM44.5236-53.1334L52.2125-53.1334Q53.6758-53.1334 53.6758-54.6455L53.6758-62.1361Q53.6758-63.5994 52.2125-63.5994L44.5236-63.5994Q43.0603-63.5994 43.0603-62.1361L43.0603-54.6455Q43.0603-53.1334 44.5236-53.1334ZM26.9089-37.6793L34.5978-37.6793Q36.0619-37.6793 36.0619-39.1579L36.0619-46.6476Q36.0619-48.111 34.5978-48.111L26.9089-48.111Q25.4791-48.111 25.4791-46.6476L25.4791-39.1579Q25.4791-37.6793 26.9089-37.6793ZM44.5236-37.6793L52.2125-37.6793Q53.6758-37.6793 53.6758-39.1579L53.6758-46.6476Q53.6758-48.111 52.2125-48.111L44.5236-48.111Q43.0603-48.111 43.0603-46.6476L43.0603-39.1579Q43.0603-37.6793 44.5236-37.6793ZM26.9089-22.1916L34.5978-22.1916Q36.0619-22.1916 36.0619-23.6702L36.0619-31.16Q36.0619-32.6569 34.5978-32.6569L26.9089-32.6569Q25.4791-32.6569 25.4791-31.16L25.4791-23.6702Q25.4791-22.1916 26.9089-22.1916ZM44.5236-22.1916L52.2125-22.1916Q53.6758-22.1916 53.6758-23.6702L53.6758-31.16Q53.6758-32.6569 52.2125-32.6569L44.5236-32.6569Q43.0603-32.6569 43.0603-31.16L43.0603-23.6702Q43.0603-22.1916 44.5236-22.1916Z"/>
  </g>
  <g id="Thin-S" transform="matrix(1 0 0 1 818.746 696)">
   <path d="M9.76562-0.951385Q9.76562 1.77155 11.1153 3.1826Q12.4649 4.59366 15.1054 4.59366L60.2463 4.59366Q62.838 4.59366 64.212 3.1826Q65.5861 1.77155 65.5861-0.951385L65.5861-69.4023Q65.5861-72.1252 64.212-73.5363Q62.838-74.9474 60.2463-74.9474L15.1054-74.9474Q12.4649-74.9474 11.1153-73.5363Q9.76562-72.1252 9.76562-69.4023ZM13.0707-1.39465L13.0707-68.959Q13.0707-70.4063 13.6887-71.0243Q14.3066-71.6423 15.7539-71.6423L59.584-71.6423Q61.0313-71.6423 61.6497-71.0243Q62.2681-70.4063 62.2681-68.959L62.2681-1.39465Q62.2681 0.0526428 61.6497 0.688553Q61.0313 1.32446 59.584 1.32446L15.7539 1.32446Q14.3066 1.32446 13.6887 0.688553Q13.0707 0.0526428 13.0707-1.39465ZM24.6346 2.88696L27.5566 2.88696L27.5566-8.93402Q27.5566-10.6407 29.2992-10.6407L46.0876-10.6407Q47.7951-10.6407 47.7951-8.93402L47.7951 2.88696L50.7385 2.88696L50.7385-9.37729Q50.7385-11.5433 49.7318-12.553Q48.7251-13.5628 46.5996-13.5628L28.7735-13.5628Q26.6624-13.5628 25.6485-12.553Q24.6346-11.5433 24.6346-9.37729ZM25.1076-53.2738L33.5373-53.2738Q34.7404-53.2738 34.7404-54.5258L34.7404-62.8166Q34.7404-64.0198 33.5373-64.0198L25.1076-64.0198Q23.9182-64.0198 23.9182-62.8166L23.9182-54.5258Q23.9182-53.2738 25.1076-53.2738ZM41.8007-53.2738L50.2304-53.2738Q51.4336-53.2738 51.4336-54.5258L51.4336-62.8166Q51.4336-64.0198 50.2304-64.0198L41.8007-64.0198Q40.5975-64.0198 40.5975-62.8166L40.5975-54.5258Q40.5975-53.2738 41.8007-53.2738ZM25.1076-36.8187L33.5373-36.8187Q34.7404-36.8187 34.7404-38.0569L34.7404-46.3478Q34.7404-47.551 33.5373-47.551L25.1076-47.551Q23.9182-47.551 23.9182-46.3478L23.9182-38.0569Q23.9182-36.8187 25.1076-36.8187ZM41.8007-36.8187L50.2304-36.8187Q51.4336-36.8187 51.4336-38.0569L51.4336-46.3478Q51.4336-47.551 50.2304-47.551L41.8007-47.551Q40.5975-47.551 40.5975-46.3478L40.5975-38.0569Q40.5975-36.8187 41.8007-36.8187ZM25.1076-20.3499L33.5373-20.3499Q34.7404-20.3499 34.7404-21.5881L34.7404-29.879Q34.7404-31.0959 33.5373-31.0959L25.1076-31.0959Q23.9182-31.0959 23.9182-29.879L23.9182-21.5881Q23.9182-20.3499 25.1076-20.3499ZM41.8007-20.3499L50.2304-20.3499Q51.4336-20.3499 51.4336-21.5881L51.4336-29.879Q51.4336-31.0959 50.2304-31.0959L41.8007-31.0959Q40.5975-31.0959 40.5975-29.879L40.5975-21.5881Q40.5975-20.3499 41.8007-20.3499Z"/>
  </g>
  <g id="Ultralight-S" transform="matrix(1 0 0 1 523.009 696)">
   <path d="M9.76562-0.787354Q9.76562 1.76086 10.9818 2.99263Q12.1979 4.2244 14.7263 4.2244L58.6777 4.2244Q61.1565 4.2244 62.397 2.99263Q63.6375 1.76086 63.6375-0.787354L63.6375-69.5358Q63.6375-72.084 62.397-73.3158Q61.1565-74.5476 58.6777-74.5476L14.7263-74.5476Q12.1979-74.5476 10.9818-73.3158Q9.76562-72.084 9.76562-69.5358ZM11.9835-0.861359L11.9835-69.4611Q11.9835-71.032 12.6324-71.6808Q13.2812-72.3297 14.8514-72.3297L58.5487-72.3297Q60.1189-72.3297 60.7677-71.6808Q61.4166-71.032 61.4166-69.4611L61.4166-0.861359Q61.4166 0.708771 60.7677 1.38054Q60.1189 2.05231 58.5487 2.05231L14.8514 2.05231Q13.2812 2.05231 12.6324 1.38054Q11.9835 0.708771 11.9835-0.861359ZM23.7732 3.10211L25.8957 3.10211L25.8957-8.34885Q25.8957-10.2409 27.8328-10.2409L45.6161-10.2409Q47.5075-10.2409 47.5075-8.34885L47.5075 3.10211L49.6719 3.10211L49.6719-8.42361Q49.6719-10.466 48.7061-11.4143Q47.7402-12.3627 45.7077-12.3627L27.7382-12.3627Q25.7088-12.3627 24.741-11.4143Q23.7732-10.466 23.7732-8.42361ZM24.1844-53.3455L32.9933-53.3455Q34.0637-53.3455 34.0637-54.464L34.0637-63.1653Q34.0637-64.2349 32.9933-64.2349L24.1844-64.2349Q23.1178-64.2349 23.1178-63.1653L23.1178-54.464Q23.1178-53.3455 24.1844-53.3455ZM40.406-53.3455L49.2157-53.3455Q50.2853-53.3455 50.2853-54.464L50.2853-63.1653Q50.2853-64.2349 49.2157-64.2349L40.406-64.2349Q39.3364-64.2349 39.3364-63.1653L39.3364-54.464Q39.3364-53.3455 40.406-53.3455ZM24.1844-36.3777L32.9933-36.3777Q34.0637-36.3777 34.0637-37.4924L34.0637-46.1937Q34.0637-47.2633 32.9933-47.2633L24.1844-47.2633Q23.1178-47.2633 23.1178-46.1937L23.1178-37.4924Q23.1178-36.3777 24.1844-36.3777ZM40.406-36.3777L49.2157-36.3777Q50.2853-36.3777 50.2853-37.4924L50.2853-46.1937Q50.2853-47.2633 49.2157-47.2633L40.406-47.2633Q39.3364-47.2633 39.3364-46.1937L39.3364-37.4924Q39.3364-36.3777 40.406-36.3777ZM24.1844-19.4061L32.9933-19.4061Q34.0637-19.4061 34.0637-20.5215L34.0637-29.2229Q34.0637-30.2956 32.9933-30.2956L24.1844-30.2956Q23.1178-30.2956 23.1178-29.2229L23.1178-20.5215Q23.1178-19.4061 24.1844-19.4061ZM40.406-19.4061L49.2157-19.4061Q50.2853-19.4061 50.2853-20.5215L50.2853-29.2229Q50.2853-30.2956 49.2157-30.2956L40.406-30.2956Q39.3364-30.2956 39.3364-29.2229L39.3364-20.5215Q39.3364-19.4061 40.406-19.4061Z"/>
  </g>
 </g>
</svg>
