<?xml version="1.0" encoding="UTF-8"?>
<!--Generator: Apple Native CoreSVG 149-->
<!DOCTYPE svg
PUBLIC "-//W3C//DTD SVG 1.1//EN"
       "http://www.w3.org/Graphics/SVG/1.1/DTD/svg11.dtd">
<svg version="1.1" xmlns="http://www.w3.org/2000/svg" xmlns:xlink="http://www.w3.org/1999/xlink" width="3300" height="2200">
 <!--glyph: "uni1001C2.medium", point size: 100.0, font version: "17.0d9e1", template writer version: "59"-->
 <g id="Notes">
  <rect height="2200" id="artboard" style="fill:white;opacity:1" width="3300" x="0" y="0"/>
  <line style="fill:none;stroke:black;opacity:1;stroke-width:0.5;" x1="263" x2="3036" y1="292" y2="292"/>
  <text style="stroke:none;fill:black;font-family:sans-serif;font-size:13;font-weight:bold;" transform="matrix(1 0 0 1 263 322)">Weight/Scale Variations</text>
  <text style="stroke:none;fill:black;font-family:sans-serif;font-size:13;text-anchor:middle;" transform="matrix(1 0 0 1 559.711 322)">Ultralight</text>
  <text style="stroke:none;fill:black;font-family:sans-serif;font-size:13;text-anchor:middle;" transform="matrix(1 0 0 1 856.422 322)">Thin</text>
  <text style="stroke:none;fill:black;font-family:sans-serif;font-size:13;text-anchor:middle;" transform="matrix(1 0 0 1 1153.13 322)">Light</text>
  <text style="stroke:none;fill:black;font-family:sans-serif;font-size:13;text-anchor:middle;" transform="matrix(1 0 0 1 1449.84 322)">Regular</text>
  <text style="stroke:none;fill:black;font-family:sans-serif;font-size:13;text-anchor:middle;" transform="matrix(1 0 0 1 1746.56 322)">Medium</text>
  <text style="stroke:none;fill:black;font-family:sans-serif;font-size:13;text-anchor:middle;" transform="matrix(1 0 0 1 2043.27 322)">Semibold</text>
  <text style="stroke:none;fill:black;font-family:sans-serif;font-size:13;text-anchor:middle;" transform="matrix(1 0 0 1 2339.98 322)">Bold</text>
  <text style="stroke:none;fill:black;font-family:sans-serif;font-size:13;text-anchor:middle;" transform="matrix(1 0 0 1 2636.69 322)">Heavy</text>
  <text style="stroke:none;fill:black;font-family:sans-serif;font-size:13;text-anchor:middle;" transform="matrix(1 0 0 1 2933.4 322)">Black</text>
  <line style="fill:none;stroke:black;opacity:1;stroke-width:0.5;" x1="263" x2="3036" y1="1903" y2="1903"/>
  <g transform="matrix(1 0 0 1 263 1933)">
   <path d="M9.24805 0.830078Q10.8691 0.830078 12.2949 0.214844Q13.7207-0.400391 14.8096-1.49414Q15.8984-2.58789 16.5186-4.01367Q17.1387-5.43945 17.1387-7.05078Q17.1387-8.66211 16.5186-10.0879Q15.8984-11.5137 14.8047-12.6074Q13.7109-13.7012 12.2852-14.3164Q10.8594-14.9316 9.23828-14.9316Q7.62695-14.9316 6.20117-14.3164Q4.77539-13.7012 3.69141-12.6074Q2.60742-11.5137 1.9873-10.0879Q1.36719-8.66211 1.36719-7.05078Q1.36719-5.43945 1.9873-4.01367Q2.60742-2.58789 3.69629-1.49414Q4.78516-0.400391 6.21094 0.214844Q7.63672 0.830078 9.24805 0.830078ZM9.24805-0.654297Q7.91992-0.654297 6.7627-1.14746Q5.60547-1.64062 4.73145-2.51953Q3.85742-3.39844 3.36426-4.56055Q2.87109-5.72266 2.87109-7.05078Q2.87109-8.37891 3.35938-9.54102Q3.84766-10.7031 4.72168-11.582Q5.5957-12.4609 6.75293-12.9541Q7.91016-13.4473 9.23828-13.4473Q10.5762-13.4473 11.7334-12.9541Q12.8906-12.4609 13.7695-11.582Q14.6484-10.7031 15.1465-9.54102Q15.6445-8.37891 15.6445-7.05078Q15.6445-5.72266 15.1514-4.56055Q14.6582-3.39844 13.7842-2.51953Q12.9102-1.64062 11.748-1.14746Q10.5859-0.654297 9.24805-0.654297ZM5.83984-7.04102Q5.83984-6.71875 6.04492-6.51855Q6.25-6.31836 6.5918-6.31836L8.50586-6.31836L8.50586-4.39453Q8.50586-4.0625 8.70605-3.85742Q8.90625-3.65234 9.22852-3.65234Q9.56055-3.65234 9.76562-3.85742Q9.9707-4.0625 9.9707-4.39453L9.9707-6.31836L11.8945-6.31836Q12.2266-6.31836 12.4316-6.51855Q12.6367-6.71875 12.6367-7.04102Q12.6367-7.37305 12.4316-7.57812Q12.2266-7.7832 11.8945-7.7832L9.9707-7.7832L9.9707-9.69727Q9.9707-10.0391 9.76562-10.2441Q9.56055-10.4492 9.22852-10.4492Q8.90625-10.4492 8.70605-10.2441Q8.50586-10.0391 8.50586-9.69727L8.50586-7.7832L6.5918-7.7832Q6.25-7.7832 6.04492-7.57812Q5.83984-7.37305 5.83984-7.04102Z"/>
  </g>
  <g transform="matrix(1 0 0 1 281.867 1933)">
   <path d="M11.709 2.91016Q13.75 2.91016 15.5518 2.12891Q17.3535 1.34766 18.7305-0.0292969Q20.1074-1.40625 20.8887-3.20801Q21.6699-5.00977 21.6699-7.05078Q21.6699-9.0918 20.8887-10.8936Q20.1074-12.6953 18.7305-14.0723Q17.3535-15.4492 15.5469-16.2305Q13.7402-17.0117 11.6992-17.0117Q9.6582-17.0117 7.85645-16.2305Q6.05469-15.4492 4.68262-14.0723Q3.31055-12.6953 2.5293-10.8936Q1.74805-9.0918 1.74805-7.05078Q1.74805-5.00977 2.5293-3.20801Q3.31055-1.40625 4.6875-0.0292969Q6.06445 1.34766 7.86621 2.12891Q9.66797 2.91016 11.709 2.91016ZM11.709 1.25Q9.98047 1.25 8.47656 0.605469Q6.97266-0.0390625 5.83496-1.17676Q4.69727-2.31445 4.05762-3.81836Q3.41797-5.32227 3.41797-7.05078Q3.41797-8.7793 4.05762-10.2832Q4.69727-11.7871 5.83008-12.9297Q6.96289-14.0723 8.4668-14.7119Q9.9707-15.3516 11.6992-15.3516Q13.4277-15.3516 14.9316-14.7119Q16.4355-14.0723 17.5781-12.9297Q18.7207-11.7871 19.3652-10.2832Q20.0098-8.7793 20.0098-7.05078Q20.0098-5.32227 19.3701-3.81836Q18.7305-2.31445 17.5928-1.17676Q16.4551-0.0390625 14.9463 0.605469Q13.4375 1.25 11.709 1.25ZM7.39258-7.04102Q7.39258-6.68945 7.62695-6.46484Q7.86133-6.24023 8.23242-6.24023L10.8789-6.24023L10.8789-3.57422Q10.8789-3.21289 11.1035-2.9834Q11.3281-2.75391 11.6797-2.75391Q12.0508-2.75391 12.2852-2.9834Q12.5195-3.21289 12.5195-3.57422L12.5195-6.24023L15.1758-6.24023Q15.5371-6.24023 15.7715-6.46484Q16.0059-6.68945 16.0059-7.04102Q16.0059-7.41211 15.7715-7.6416Q15.5371-7.87109 15.1758-7.87109L12.5195-7.87109L12.5195-10.5176Q12.5195-10.8984 12.2852-11.1279Q12.0508-11.3574 11.6797-11.3574Q11.3281-11.3574 11.1035-11.1279Q10.8789-10.8984 10.8789-10.5176L10.8789-7.87109L8.23242-7.87109Q7.85156-7.87109 7.62207-7.6416Q7.39258-7.41211 7.39258-7.04102Z"/>
  </g>
  <g transform="matrix(1 0 0 1 305.646 1933)">
   <path d="M14.9707 5.66406Q17.0605 5.66406 18.96 5.01465Q20.8594 4.36523 22.4512 3.19336Q24.043 2.02148 25.2197 0.429688Q26.3965-1.16211 27.0459-3.06641Q27.6953-4.9707 27.6953-7.05078Q27.6953-9.14062 27.0459-11.04Q26.3965-12.9395 25.2197-14.5312Q24.043-16.123 22.4512-17.2998Q20.8594-18.4766 18.9551-19.126Q17.0508-19.7754 14.9609-19.7754Q12.8711-19.7754 10.9717-19.126Q9.07227-18.4766 7.48535-17.2998Q5.89844-16.123 4.72168-14.5312Q3.54492-12.9395 2.90039-11.04Q2.25586-9.14062 2.25586-7.05078Q2.25586-4.9707 2.90527-3.06641Q3.55469-1.16211 4.72656 0.429688Q5.89844 2.02148 7.49023 3.19336Q9.08203 4.36523 10.9814 5.01465Q12.8809 5.66406 14.9707 5.66406ZM14.9707 3.84766Q13.1641 3.84766 11.5283 3.2959Q9.89258 2.74414 8.53516 1.74805Q7.17773 0.751953 6.17676-0.610352Q5.17578-1.97266 4.62891-3.6084Q4.08203-5.24414 4.08203-7.05078Q4.08203-8.86719 4.62891-10.5029Q5.17578-12.1387 6.17188-13.501Q7.16797-14.8633 8.52539-15.8594Q9.88281-16.8555 11.5186-17.4023Q13.1543-17.9492 14.9609-17.9492Q16.7773-17.9492 18.4131-17.4023Q20.0488-16.8555 21.4111-15.8594Q22.7734-14.8633 23.7695-13.501Q24.7656-12.1387 25.3174-10.5029Q25.8691-8.86719 25.8691-7.05078Q25.8789-5.24414 25.332-3.6084Q24.7852-1.97266 23.7842-0.610352Q22.7832 0.751953 21.4209 1.74805Q20.0586 2.74414 18.4229 3.2959Q16.7871 3.84766 14.9707 3.84766ZM9.45312-7.04102Q9.45312-6.66016 9.71191-6.41113Q9.9707-6.16211 10.3711-6.16211L14.0625-6.16211L14.0625-2.46094Q14.0625-2.06055 14.3115-1.80664Q14.5605-1.55273 14.9414-1.55273Q15.3516-1.55273 15.6055-1.80664Q15.8594-2.06055 15.8594-2.46094L15.8594-6.16211L19.5605-6.16211Q19.9609-6.16211 20.2148-6.41113Q20.4688-6.66016 20.4688-7.04102Q20.4688-7.45117 20.2148-7.70508Q19.9609-7.95898 19.5605-7.95898L15.8594-7.95898L15.8594-11.6504Q15.8594-12.0605 15.6055-12.3145Q15.3516-12.5684 14.9414-12.5684Q14.5605-12.5684 14.3115-12.3096Q14.0625-12.0508 14.0625-11.6504L14.0625-7.95898L10.3711-7.95898Q9.96094-7.95898 9.70703-7.70508Q9.45312-7.45117 9.45312-7.04102Z"/>
  </g>
  <text style="stroke:none;fill:black;font-family:sans-serif;font-size:13;font-weight:bold;" transform="matrix(1 0 0 1 263 1953)">Design Variations</text>
  <text style="stroke:none;fill:black;font-family:sans-serif;font-size:13;" transform="matrix(1 0 0 1 263 1971)">Symbols are supported in up to nine weights and three scales.</text>
  <text style="stroke:none;fill:black;font-family:sans-serif;font-size:13;" transform="matrix(1 0 0 1 263 1989)">For optimal layout with text and other symbols, vertically align</text>
  <text style="stroke:none;fill:black;font-family:sans-serif;font-size:13;" transform="matrix(1 0 0 1 263 2007)">symbols with the adjacent text.</text>
  <line style="fill:none;stroke:#00AEEF;stroke-width:0.5;opacity:1.0;" x1="776" x2="776" y1="1919" y2="1933"/>
  <g transform="matrix(1 0 0 1 776 1933)">
   <path d="M3.31055 0.15625Q3.70117 0.15625 3.91602-0.00976562Q4.13086-0.175781 4.26758-0.585938L5.52734-4.0332L11.2891-4.0332L12.5488-0.585938Q12.6855-0.175781 12.9004-0.00976562Q13.1152 0.15625 13.4961 0.15625Q13.8867 0.15625 14.1162-0.0585938Q14.3457-0.273438 14.3457-0.644531Q14.3457-0.869141 14.2383-1.17188L9.6582-13.3691Q9.48242-13.8184 9.17969-14.043Q8.87695-14.2676 8.4082-14.2676Q7.5-14.2676 7.17773-13.3789L2.59766-1.16211Q2.49023-0.859375 2.49023-0.634766Q2.49023-0.263672 2.70996-0.0537109Q2.92969 0.15625 3.31055 0.15625ZM6.00586-5.51758L8.37891-12.0898L8.42773-12.0898L10.8008-5.51758Z"/>
  </g>
  <line style="fill:none;stroke:#00AEEF;stroke-width:0.5;opacity:1.0;" x1="793.197" x2="793.197" y1="1919" y2="1933"/>
  <text style="stroke:none;fill:black;font-family:sans-serif;font-size:13;font-weight:bold;" transform="matrix(1 0 0 1 776 1953)">Margins</text>
  <text style="stroke:none;fill:black;font-family:sans-serif;font-size:13;" transform="matrix(1 0 0 1 776 1971)">Leading and trailing margins on the left and right side of each symbol</text>
  <text style="stroke:none;fill:black;font-family:sans-serif;font-size:13;" transform="matrix(1 0 0 1 776 1989)">can be adjusted by modifying the x-location of the margin guidelines.</text>
  <text style="stroke:none;fill:black;font-family:sans-serif;font-size:13;" transform="matrix(1 0 0 1 776 2007)">Modifications are automatically applied proportionally to all</text>
  <text style="stroke:none;fill:black;font-family:sans-serif;font-size:13;" transform="matrix(1 0 0 1 776 2025)">scales and weights.</text>
  <g transform="matrix(1 0 0 1 1289 1933)">
   <path d="M2.8418 1.86523L4.54102 3.57422Q5.18555 4.22852 5.90332 4.17969Q6.62109 4.13086 7.31445 3.35938L18.0078-8.42773L17.041-9.4043L6.42578 2.27539Q6.16211 2.57812 5.89355 2.61719Q5.625 2.65625 5.27344 2.30469L4.10156 1.14258Q3.75 0.791016 3.79395 0.522461Q3.83789 0.253906 4.14062-0.0195312L15.6152-10.8203L14.6387-11.7871L3.04688-0.898438Q2.30469-0.214844 2.25098 0.498047Q2.19727 1.21094 2.8418 1.86523ZM9.25781-16.3281Q8.94531-16.0254 8.90625-15.6348Q8.86719-15.2441 9.04297-14.9512Q9.21875-14.6777 9.55566-14.541Q9.89258-14.4043 10.3809-14.5215Q11.4746-14.7754 12.5977-14.7314Q13.7207-14.6875 14.7949-13.9844L14.209-12.5293Q13.9551-11.9043 14.0674-11.4404Q14.1797-10.9766 14.5801-10.5664L16.875-8.25195Q17.2363-7.88086 17.5781-7.82227Q17.9199-7.76367 18.3398-7.8418L19.4043-8.03711L20.0684-7.36328L20.0293-6.80664Q20-6.43555 20.1221-6.12305Q20.2441-5.81055 20.6055-5.44922L21.3672-4.70703Q21.7285-4.3457 22.1533-4.33105Q22.5781-4.31641 22.9297-4.66797L25.8398-7.58789Q26.1914-7.93945 26.1816-8.35449Q26.1719-8.76953 25.8105-9.13086L25.0391-9.89258Q24.6875-10.2539 24.3799-10.3857Q24.0723-10.5176 23.7109-10.4883L23.1348-10.4395L22.4902-11.0742L22.7344-12.1973Q22.832-12.6172 22.6953-12.9834Q22.5586-13.3496 22.1191-13.7891L19.9219-15.9766Q18.6719-17.2168 17.2607-17.8369Q15.8496-18.457 14.4189-18.4814Q12.9883-18.5059 11.665-17.959Q10.3418-17.4121 9.25781-16.3281ZM10.752-15.957Q11.6602-16.6211 12.7002-16.9043Q13.7402-17.1875 14.8047-17.085Q15.8691-16.9824 16.8701-16.5137Q17.8711-16.0449 18.7012-15.2051L21.1328-12.793Q21.3086-12.6172 21.3525-12.4512Q21.3965-12.2852 21.3379-12.0312L21.0156-10.5469L22.5195-9.0625L23.5059-9.12109Q23.6914-9.13086 23.7891-9.09668Q23.8867-9.0625 24.0332-8.91602L24.6094-8.33984L22.168-5.89844L21.5918-6.47461Q21.4453-6.62109 21.4062-6.71875Q21.3672-6.81641 21.377-7.01172L21.4453-7.98828L19.9512-9.47266L18.4277-9.21875Q18.1836-9.16992 18.042-9.2041Q17.9004-9.23828 17.7148-9.41406L15.7129-11.416Q15.5176-11.5918 15.4932-11.7529Q15.4688-11.9141 15.5859-12.1875L16.4648-14.2773Q15.293-15.3711 13.8281-15.791Q12.3633-16.2109 10.8398-15.7617Q10.7227-15.7324 10.6885-15.8057Q10.6543-15.8789 10.752-15.957Z"/>
  </g>
  <text style="stroke:none;fill:black;font-family:sans-serif;font-size:13;font-weight:bold;" transform="matrix(1 0 0 1 1289 1953)">Exporting</text>
  <text style="stroke:none;fill:black;font-family:sans-serif;font-size:13;" transform="matrix(1 0 0 1 1289 1971)">Symbols should be outlined when exporting to ensure the</text>
  <text style="stroke:none;fill:black;font-family:sans-serif;font-size:13;" transform="matrix(1 0 0 1 1289 1989)">design is preserved when submitting to Xcode.</text>
  <text id="template-version" style="stroke:none;fill:black;font-family:sans-serif;font-size:13;text-anchor:end;" transform="matrix(1 0 0 1 3036 1933)">Template v.3.0</text>
  <text style="stroke:none;fill:black;font-family:sans-serif;font-size:13;text-anchor:end;" transform="matrix(1 0 0 1 3036 1951)">Requires Xcode 13 or greater</text>
  <text id="descriptive-name" style="stroke:none;fill:black;font-family:sans-serif;font-size:13;text-anchor:end;" transform="matrix(1 0 0 1 3036 1969)">Generated from cloud</text>
  <text style="stroke:none;fill:black;font-family:sans-serif;font-size:13;text-anchor:end;" transform="matrix(1 0 0 1 3036 1987)">Typeset at 100 points</text>
  <text style="stroke:none;fill:black;font-family:sans-serif;font-size:13;" transform="matrix(1 0 0 1 263 726)">Small</text>
  <text style="stroke:none;fill:black;font-family:sans-serif;font-size:13;" transform="matrix(1 0 0 1 263 1156)">Medium</text>
  <text style="stroke:none;fill:black;font-family:sans-serif;font-size:13;" transform="matrix(1 0 0 1 263 1586)">Large</text>
 </g>
 <g id="Guides">
  <g id="H-reference" style="fill:#27AAE1;stroke:none;" transform="matrix(1 0 0 1 339 696)">
   <path d="M0.993347 0L3.6377 0L29.3282-67.1326L30.0301-67.1326L30.0301-70.459L28.1227-70.459ZM11.6882-24.4797L46.9818-24.4797L46.2311-26.7288L12.4382-26.7288ZM55.1193 0L57.7637 0L30.6381-70.459L29.4327-70.459L29.4327-67.1326Z"/>
  </g>
  <line id="Baseline-S" style="fill:none;stroke:#27AAE1;opacity:1;stroke-width:0.5;" x1="263" x2="3036" y1="696" y2="696"/>
  <line id="Capline-S" style="fill:none;stroke:#27AAE1;opacity:1;stroke-width:0.5;" x1="263" x2="3036" y1="625.541" y2="625.541"/>
  <g id="H-reference" style="fill:#27AAE1;stroke:none;" transform="matrix(1 0 0 1 339 1126)">
   <path d="M0.993347 0L3.6377 0L29.3282-67.1326L30.0301-67.1326L30.0301-70.459L28.1227-70.459ZM11.6882-24.4797L46.9818-24.4797L46.2311-26.7288L12.4382-26.7288ZM55.1193 0L57.7637 0L30.6381-70.459L29.4327-70.459L29.4327-67.1326Z"/>
  </g>
  <line id="Baseline-M" style="fill:none;stroke:#27AAE1;opacity:1;stroke-width:0.5;" x1="263" x2="3036" y1="1126" y2="1126"/>
  <line id="Capline-M" style="fill:none;stroke:#27AAE1;opacity:1;stroke-width:0.5;" x1="263" x2="3036" y1="1055.54" y2="1055.54"/>
  <g id="H-reference" style="fill:#27AAE1;stroke:none;" transform="matrix(1 0 0 1 339 1556)">
   <path d="M0.993347 0L3.6377 0L29.3282-67.1326L30.0301-67.1326L30.0301-70.459L28.1227-70.459ZM11.6882-24.4797L46.9818-24.4797L46.2311-26.7288L12.4382-26.7288ZM55.1193 0L57.7637 0L30.6381-70.459L29.4327-70.459L29.4327-67.1326Z"/>
  </g>
  <line id="Baseline-L" style="fill:none;stroke:#27AAE1;opacity:1;stroke-width:0.5;" x1="263" x2="3036" y1="1556" y2="1556"/>
  <line id="Capline-L" style="fill:none;stroke:#27AAE1;opacity:1;stroke-width:0.5;" x1="263" x2="3036" y1="1485.54" y2="1485.54"/>
  <line id="left-margin-Regular-M" style="fill:none;stroke:#00AEEF;stroke-width:0.5;opacity:1.0;" x1="1384.02" x2="1384.02" y1="1030.79" y2="1150.12"/>
  <line id="right-margin-Regular-M" style="fill:none;stroke:#00AEEF;stroke-width:0.5;opacity:1.0;" x1="1515.66" x2="1515.66" y1="1030.79" y2="1150.12"/>
 </g>
 <g id="Symbols">
  <g id="Black-L" transform="matrix(1 0 0 1 2842.87 1556)">
   <path d="M46.6309 15.5273L131.25 15.5273Q140.088 15.5273 147.681 12.4023Q155.273 9.27734 160.962 3.68652Q166.65-1.9043 169.824-9.375Q172.998-16.8457 172.998-25.4883Q172.998-34.2773 169.849-41.8457Q166.699-49.4141 160.986-55.0781Q155.273-60.7422 147.534-63.916Q139.795-67.0898 130.615-67.0898Q126.172-75.6836 119.507-81.5918Q112.842-87.5 104.248-90.5273Q95.6543-93.5547 85.4492-93.5547Q75.6836-93.5547 66.9678-90.3076Q58.252-87.0605 51.3184-81.0791Q44.3848-75.0977 39.8438-66.8701Q35.3027-58.6426 33.8867-48.6816Q26.8066-46.2402 21.7285-41.6992Q16.6504-37.1582 13.9648-31.0303Q11.2793-24.9023 11.2793-17.8223Q11.2793-8.25195 15.7471-0.708008Q20.2148 6.83594 28.1982 11.1816Q36.1816 15.5273 46.6309 15.5273ZM47.2168-2.39258Q41.6016-2.39258 37.5488-4.19922Q33.4961-6.00586 31.3232-9.35059Q29.1504-12.6953 29.1504-17.3828Q29.1504-23.5352 33.1055-27.71Q37.0605-31.8848 44.873-33.8867Q47.8027-34.6191 49.0234-36.1084Q50.2441-37.5977 50.7324-41.1133Q51.9043-49.1211 54.8584-55.5176Q57.8125-61.9141 62.3291-66.4307Q66.8457-70.9473 72.6807-73.3154Q78.5156-75.6836 85.4492-75.6836Q92.041-75.6836 97.876-73.1934Q103.711-70.7031 108.569-65.918Q113.428-61.1328 117.139-54.1504Q118.555-51.4648 120.312-50.4395Q122.07-49.4141 125.293-49.4141Q132.471-49.4141 138.013-47.7051Q143.555-45.9961 147.363-42.7979Q151.172-39.5996 153.125-35.1074Q155.078-30.6152 155.078-25.0488Q155.078-20.1172 153.296-15.9668Q151.514-11.8164 148.267-8.76465Q145.02-5.71289 140.576-4.05273Q136.133-2.39258 130.859-2.39258Z"/>
  </g>
  <g id="Heavy-L" transform="matrix(1 0 0 1 2547.55 1556)">
   <path d="M45.4437 14.4325L129.533 14.4325Q138.14 14.4325 145.537 11.388Q152.934 8.34351 158.484 2.91405Q164.034-2.51541 167.128-9.77287Q170.221-17.0303 170.221-25.4189Q170.221-33.9432 167.123-41.2697Q164.026-48.5962 158.411-54.0699Q152.795-59.5436 145.195-62.6022Q137.594-65.6609 128.575-65.6609Q124.201-74.1966 117.617-80.1453Q111.032-86.0939 102.56-89.1788Q94.0872-92.2638 84.0431-92.2638Q74.4392-92.2638 65.8672-88.9996Q57.2952-85.7353 50.4887-79.7482Q43.6821-73.761 39.2792-65.5796Q34.8763-57.3982 33.5983-47.5754Q26.7143-45.295 21.6938-40.9096Q16.6733-36.5242 13.9763-30.5347Q11.2793-24.5453 11.2793-17.5453Q11.2793-8.43658 15.5338-1.20354Q19.7884 6.02951 27.4895 10.231Q35.1906 14.4325 45.4437 14.4325ZM45.8687-1.3092Q39.9765-1.3092 35.7395-3.2486Q31.5025-5.18799 29.2374-8.73413Q26.9722-12.2803 26.9722-17.1524Q26.9722-23.5466 31.0425-27.9289Q35.1128-32.3112 42.9596-34.3361Q45.7512-35.0456 46.9257-36.4658Q48.1003-37.886 48.5085-41.1476Q49.53-49.1791 52.5417-55.7079Q55.5534-62.2368 60.2314-66.9147Q64.9094-71.5927 70.9404-74.0818Q76.9714-76.5709 84.0431-76.5709Q90.9691-76.5709 96.9944-73.9944Q103.02-71.418 107.953-66.5173Q112.886-61.6165 116.551-54.5654Q117.875-52.0065 119.552-51.0273Q121.229-50.0481 124.313-50.0481Q131.525-50.0481 137.131-48.241Q142.737-46.434 146.609-43.1091Q150.481-39.7842 152.48-35.1883Q154.479-30.5923 154.479-25.0259Q154.479-19.9211 152.616-15.5865Q150.753-11.2518 147.368-8.03871Q143.983-4.82559 139.384-3.0674Q134.785-1.3092 129.361-1.3092Z"/>
  </g>
  <g id="Bold-L" transform="matrix(1 0 0 1 2252.39 1556)">
   <path d="M44.1162 13.208L127.612 13.208Q135.962 13.208 143.14 10.2539Q150.317 7.2998 155.713 2.05078Q161.108-3.19824 164.111-10.2173Q167.114-17.2363 167.114-25.3418Q167.114-33.5693 164.075-40.625Q161.035-47.6807 155.53-52.9419Q150.024-58.2031 142.578-61.1328Q135.132-64.0625 126.294-64.0625Q121.997-72.5342 115.503-78.5278Q109.009-84.5215 100.671-87.6709Q92.334-90.8203 82.4707-90.8203Q73.0469-90.8203 64.6362-87.5366Q56.2256-84.2529 49.5605-78.2593Q42.8955-72.2656 38.6475-64.1357Q34.3994-56.0059 33.2764-46.3379Q26.6113-44.2383 21.6553-40.0269Q16.6992-35.8154 13.9893-29.9805Q11.2793-24.1455 11.2793-17.2363Q11.2793-8.64258 15.2954-1.75781Q19.3115 5.12695 26.6968 9.16748Q34.082 13.208 44.1162 13.208ZM44.3604-0.0976562Q38.1592-0.0976562 33.7158-2.18506Q29.2725-4.27246 26.9043-8.04443Q24.5361-11.8164 24.5361-16.8945Q24.5361-23.5596 28.7354-28.1738Q32.9346-32.7881 40.8203-34.8389Q43.457-35.5225 44.5801-36.8652Q45.7031-38.208 46.0205-41.1865Q46.875-49.2432 49.9512-55.9204Q53.0273-62.5977 57.8857-67.4561Q62.7441-72.3145 68.9941-74.939Q75.2441-77.5635 82.4707-77.5635Q89.7705-77.5635 96.0083-74.8901Q102.246-72.2168 107.263-67.1875Q112.28-62.1582 115.894-55.0293Q117.114-52.6123 118.701-51.6846Q120.288-50.7568 123.218-50.7568Q130.469-50.7568 136.145-48.8403Q141.821-46.9238 145.764-43.457Q149.707-39.9902 151.758-35.2783Q153.809-30.5664 153.809-25Q153.809-19.7021 151.855-15.1611Q149.902-10.6201 146.362-7.22656Q142.822-3.83301 138.049-1.96533Q133.276-0.0976562 127.686-0.0976562Z"/>
  </g>
  <g id="Semibold-L" transform="matrix(1 0 0 1 1956.75 1556)">
   <path d="M43.2007 12.3634L126.288 12.3634Q134.46 12.3634 141.486 9.47151Q148.513 6.57959 153.802 1.45531Q159.091-3.66898 162.032-10.5236Q164.973-17.3782 164.973-25.2884Q164.973-33.3115 161.973-40.1806Q158.974-47.0497 153.544-52.1645Q148.114-57.2792 140.774-60.12Q133.434-62.9608 124.721-62.9608Q120.477-71.3875 114.045-77.4124Q107.613-83.4373 99.3694-86.631Q91.1255-89.8247 81.3866-89.8247Q72.0871-89.8247 63.7875-86.5276Q55.4878-83.2306 48.9204-77.2327Q42.3531-71.2349 38.2118-63.1405Q34.0706-55.0461 33.0544-45.4849Q26.5404-43.5097 21.6286-39.418Q16.7168-35.3264 13.998-29.5982Q11.2793-23.8701 11.2793-17.0227Q11.2793-8.78448 15.131-2.13966Q18.9827 4.50516 26.1501 8.4343Q33.3176 12.3634 43.2007 12.3634ZM43.3205 0.737762Q36.9064 0.737762 32.3208-1.45187Q27.7351-3.64151 25.2956-7.56912Q22.8561-11.4967 22.8561-16.7168Q22.8561-23.5687 27.1442-28.3428Q31.4323-33.1169 39.3448-35.1852Q41.8755-35.8513 42.9626-37.1407Q44.0498-38.43 44.3054-41.2132Q45.0439-49.2874 48.1647-56.0669Q51.2856-62.8464 56.2683-67.8291Q61.2511-72.8119 67.6521-75.5299Q74.0532-78.2478 81.3866-78.2478Q88.9442-78.2478 95.3285-75.5077Q101.713-72.7676 106.788-67.6495Q111.863-62.5313 115.44-55.349Q116.59-53.0296 118.115-52.1378Q119.64-51.2459 122.462-51.2459Q129.74-51.2459 135.465-49.2538Q141.19-47.2618 145.182-43.697Q149.174-40.1321 151.26-35.3405Q153.346-30.5489 153.346-24.9825Q153.346-19.5511 151.331-14.8678Q149.316-10.1845 145.669-6.66656Q142.023-3.14865 137.13-1.20544Q132.236 0.737762 126.53 0.737762Z"/>
  </g>
  <g id="Medium-L" transform="matrix(1 0 0 1 1660.85 1556)">
   <path d="M42.5072 11.7233L125.284 11.7233Q133.321 11.7233 140.233 8.87871Q147.145 6.03409 152.353 1.00403Q157.561-4.02603 160.455-10.7563Q163.348-17.4866 163.348-25.248Q163.348-33.1161 160.379-39.8438Q157.41-46.5714 152.038-51.5747Q146.665-56.5781 139.406-59.3513Q132.147-62.1246 123.528-62.1246Q119.325-70.5185 112.941-76.5667Q106.556-82.6149 98.3826-85.8425Q90.2092-89.0701 80.5641-89.0701Q71.3593-89.0701 63.1439-85.7632Q54.9286-82.4562 48.4356-76.4545Q41.9426-70.4529 37.8819-62.3856Q33.8211-54.3182 32.8857-44.838Q26.4862-42.9573 21.6084-38.9568Q16.7305-34.9564 14.0049-29.3087Q11.2793-23.661 11.2793-16.861Q11.2793-8.89282 15.0063-2.42996Q18.7332 4.0329 25.7359 7.87811Q32.7385 11.7233 42.5072 11.7233ZM42.5323 1.371Q35.9558 1.371 31.2626-0.896072Q26.5694-3.16315 24.0761-7.20863Q21.5828-11.2541 21.5828-16.5817Q21.5828-23.5748 25.9384-28.4706Q30.294-33.3664 38.2263-35.4485Q40.6754-36.1008 41.7362-37.3497Q42.7971-38.5986 43.0046-41.2331Q43.6562-49.321 46.8105-56.1779Q49.9649-63.0348 55.0419-68.1122Q60.1189-73.1895 66.6348-75.9781Q73.1506-78.7666 80.5641-78.7666Q88.3171-78.7666 94.8128-75.9762Q101.308-73.1857 106.427-68Q111.546-62.8143 115.097-55.5916Q116.193-53.347 117.67-52.4815Q119.147-51.6159 121.889-51.6159Q129.188-51.6159 134.95-49.5667Q140.712-47.5174 144.741-43.8789Q148.769-40.2405 150.883-35.3878Q152.996-30.5351 152.996-24.9687Q152.996-19.4366 150.933-14.6454Q148.871-9.85413 145.144-6.24199Q141.416-2.62985 136.432-0.629425Q131.448 1.371 125.655 1.371Z"/>
  </g>
  <g id="Regular-L" transform="matrix(1 0 0 1 1365.2 1556)">
   <path d="M41.6016 10.8887L123.975 10.8887Q131.836 10.8887 138.599 8.10547Q145.361 5.32227 150.464 0.415039Q155.566-4.49219 158.398-11.0596Q161.23-17.627 161.23-25.1953Q161.23-32.8613 158.301-39.4043Q155.371-45.9473 150.073-50.8057Q144.775-55.6641 137.622-58.3496Q130.469-61.0352 121.973-61.0352Q117.822-69.3848 111.499-75.4639Q105.176-81.543 97.0947-84.8145Q89.0137-88.0859 79.4922-88.0859Q70.4102-88.0859 62.3047-84.7656Q54.1992-81.4453 47.8027-75.4395Q41.4062-69.4336 37.4512-61.4014Q33.4961-53.3691 32.666-43.9941Q26.416-42.2363 21.582-38.3545Q16.748-34.4727 14.0137-28.9307Q11.2793-23.3887 11.2793-16.6504Q11.2793-9.0332 14.8438-2.80762Q18.4082 3.41797 25.1953 7.15332Q31.9824 10.8887 41.6016 10.8887ZM41.5039 2.19727Q34.7168 2.19727 29.8828-0.170898Q25.0488-2.53906 22.4854-6.73828Q19.9219-10.9375 19.9219-16.4062Q19.9219-23.584 24.3652-28.6377Q28.8086-33.6914 36.7676-35.791Q39.1113-36.4258 40.1367-37.6221Q41.1621-38.8184 41.3086-41.2598Q41.8457-49.3652 45.0439-56.3232Q48.2422-63.2812 53.4424-68.4814Q58.6426-73.6816 65.3076-76.5625Q71.9727-79.4434 79.4922-79.4434Q87.5-79.4434 94.1406-76.5869Q100.781-73.7305 105.957-68.457Q111.133-63.1836 114.648-55.9082Q115.674-53.7598 117.09-52.9297Q118.506-52.0996 121.143-52.0996Q128.467-52.0996 134.277-49.9756Q140.088-47.8516 144.165-44.1162Q148.242-40.3809 150.391-35.4492Q152.539-30.5176 152.539-24.9512Q152.539-19.2871 150.415-14.3555Q148.291-9.42383 144.458-5.68848Q140.625-1.95312 135.522 0.12207Q130.42 2.19727 124.512 2.19727Z"/>
  </g>
  <g id="Light-L" transform="matrix(1 0 0 1 1068.9 1556)">
   <path d="M40.905 10.1921L123.656 10.1921Q131.412 10.1921 138.084 7.46193Q144.756 4.73175 149.79-0.0923157Q154.825-4.91638 157.626-11.3548Q160.428-17.7933 160.428-25.1953Q160.428-32.7248 157.521-39.1239Q154.614-45.5231 149.377-50.2758Q144.14-55.0285 137.092-57.6534Q130.045-60.2783 121.745-60.2783Q117.61-68.7035 111.378-74.881Q105.145-81.0585 97.0493-84.4131Q88.9534-87.7678 79.174-87.7678Q70.1828-87.7678 62.191-84.4173Q54.1992-81.0669 47.9237-75.0458Q41.6481-69.0247 37.7689-60.9924Q33.8898-52.9602 33.075-43.6462Q26.8402-41.9487 21.9002-38.1653Q16.9601-34.3819 14.1197-28.9005Q11.2793-23.4192 11.2793-16.6351Q11.2793-9.23004 14.7682-3.1559Q18.2571 2.91824 24.8852 6.55518Q31.5132 10.1921 40.905 10.1921ZM40.8379 3.55988Q33.5815 3.55988 28.4523 0.934219Q23.3231-1.69144 20.6158-6.22368Q17.9085-10.7559 17.9085-16.4818Q17.9085-24.1592 22.7154-29.652Q27.5223-35.1448 35.8597-37.3047Q37.87-37.8639 38.7138-38.8481Q39.5576-39.8323 39.6584-41.7892Q40.181-50.0465 43.5078-57.2014Q46.8346-64.3562 52.2541-69.738Q57.6736-75.1198 64.5733-78.1368Q71.4729-81.1539 79.174-81.1539Q87.7571-81.1539 94.7536-78.1158Q101.75-75.0778 107.092-69.5847Q112.434-64.0915 115.981-56.7253Q116.855-54.895 118.066-54.1859Q119.278-53.4767 121.521-53.4767Q128.77-53.4767 134.694-51.2619Q140.617-49.0471 144.884-45.1454Q149.15-41.2437 151.45-36.0622Q153.75-30.8807 153.75-24.9969Q153.75-19.0598 151.49-13.8863Q149.229-8.71277 145.162-4.78058Q141.094-0.848389 135.682 1.35574Q130.269 3.55988 123.997 3.55988Z"/>
  </g>
  <g id="Thin-L" transform="matrix(1 0 0 1 772.728 1556)">
   <path d="M39.9841 9.27124L123.236 9.27124Q130.852 9.27124 137.403 6.61125Q143.955 3.95126 148.899-0.762558Q153.844-5.47638 156.606-11.7451Q159.367-18.0138 159.367-25.1953Q159.367-32.5447 156.49-38.7539Q153.613-44.9631 148.456-49.5754Q143.299-54.1878 136.392-56.7326Q129.485-59.2773 121.445-59.2773Q117.33-67.8024 111.218-74.1104Q105.106-80.4184 96.9894-83.8829Q88.8733-87.3474 78.7537-87.3474Q69.883-87.3474 62.0411-83.9569Q54.1992-80.5664 48.0839-74.5255Q41.9685-68.4845 38.1893-60.4523Q34.4101-52.42 33.6151-43.1854Q27.4002-41.5688 22.3202-37.9154Q17.2401-34.2621 14.2597-28.8605Q11.2793-23.4589 11.2793-16.6153Q11.2793-9.4902 14.6679-3.61633Q18.0565 2.25754 24.4747 5.76439Q30.8929 9.27124 39.9841 9.27124ZM39.9574 5.36118Q32.0801 5.36118 26.5606 2.39525Q21.0411-0.570679 18.1438-5.54314Q15.2466-10.5156 15.2466-16.5817Q15.2466-24.9199 20.5334-30.9933Q25.8202-37.0667 34.6581-39.3066Q36.2289-39.7652 36.8324-40.4694Q37.4359-41.1736 37.4763-42.4904Q37.9784-50.9476 41.4757-58.3626Q44.973-65.7776 50.6828-71.3993Q56.3927-77.021 63.6024-80.2185Q70.8122-83.416 78.7537-83.416Q88.0974-83.416 95.5643-80.1376Q103.031-76.8593 108.594-71.0762Q114.156-65.2931 117.742-57.8064Q118.416-56.3965 119.357-55.8475Q120.299-55.2986 122.021-55.2986Q129.17-55.2986 135.244-52.9636Q141.319-50.6287 145.835-46.5065Q150.352-42.3843 152.851-36.8729Q155.351-31.3614 155.351-25.0565Q155.351-18.7599 152.911-13.2656Q150.471-7.7713 146.093-3.57895Q141.714 0.613403 135.891 2.98729Q130.068 5.36118 123.316 5.36118Z"/>
  </g>
  <g id="Ultralight-L" transform="matrix(1 0 0 1 476.294 1556)">
   <path d="M39.5126 8.79974L123.021 8.79974Q130.564 8.79974 137.054 6.17561Q143.545 3.55148 148.443-1.10626Q153.342-5.76401 156.083-11.9453Q158.823-18.1267 158.823-25.1953Q158.823-32.4524 155.962-38.5639Q153.101-44.6754 147.984-49.2161Q142.868-53.7567 136.032-56.2607Q129.197-58.7646 121.291-58.7646Q117.187-67.3416 111.136-73.7156Q105.085-80.0896 96.9585-83.6109Q88.8321-87.1323 78.5385-87.1323Q69.7289-87.1323 61.964-83.7212Q54.1992-80.3101 48.1659-74.2588Q42.1326-68.2076 38.4048-60.1753Q34.6771-52.1431 33.8921-42.9497Q27.6878-41.3734 22.5357-37.7869Q17.3836-34.2003 14.3314-28.8399Q11.2793-23.4795 11.2793-16.6046Q11.2793-9.62372 14.6168-3.85208Q17.9543 1.91956 24.2645 5.35965Q30.5748 8.79974 39.5126 8.79974ZM39.5058 6.28433Q31.311 6.28433 25.5917 3.14407Q19.8723 0.0038147 16.8774-5.19447Q13.8824-10.3928 13.8824-16.6336Q13.8824-25.3098 19.4157-31.6803Q24.9489-38.0508 34.0431-40.332Q35.3874-40.7394 35.8681-41.3002Q36.3487-41.861 36.3586-42.849Q36.8507-51.4084 40.435-58.9569Q44.0193-66.5054 49.8779-72.2504Q55.7365-77.9953 63.1054-81.2851Q70.4742-84.5749 78.5385-84.5749Q88.2721-84.5749 95.9797-81.1733Q103.687-77.7718 109.363-71.8399Q115.038-65.9081 118.645-58.3603Q119.216-57.1655 120.019-56.6986Q120.822-56.2317 122.278-56.2317Q129.375-56.2317 135.526-53.8353Q141.677-51.4389 146.322-47.2042Q150.967-42.9695 153.569-37.2883Q156.172-31.6071 156.172-25.0877Q156.172-18.6058 153.639-12.9478Q151.106-7.28989 146.569-2.96402Q142.033 1.36185 135.999 3.82309Q129.966 6.28433 122.968 6.28433Z"/>
  </g>
  <g id="Black-M" transform="matrix(1 0 0 1 2862.18 1126)">
   <path d="M36.9141 4.83398L103.076 4.83398Q110.107 4.83398 116.113 2.34375Q122.119-0.146484 126.636-4.58984Q131.152-9.0332 133.667-14.9414Q136.182-20.8496 136.182-27.7344Q136.182-34.7168 133.716-40.7471Q131.25-46.7773 126.758-51.2939Q122.266-55.8105 116.187-58.3496Q110.107-60.8887 102.881-60.8887Q97.6074-70.9961 88.5742-76.2207Q79.541-81.4453 67.334-81.4453Q59.6191-81.4453 52.7832-78.9307Q45.9473-76.416 40.5029-71.7773Q35.0586-67.1387 31.4697-60.7178Q27.8809-54.2969 26.6113-46.4844Q20.9961-44.4824 16.9922-40.8447Q12.9883-37.207 10.8643-32.373Q8.74023-27.5391 8.74023-21.9238Q8.74023-14.209 12.3535-8.1543Q15.9668-2.09961 22.3389 1.36719Q28.7109 4.83398 36.9141 4.83398ZM37.5488-10.2539Q33.252-10.2539 30.1758-11.6211Q27.0996-12.9883 25.4395-15.5273Q23.7793-18.0664 23.7793-21.6309Q23.7793-26.3672 26.8555-29.5654Q29.9316-32.7637 36.1328-34.3262Q38.3789-34.9121 39.3066-36.0352Q40.2344-37.1582 40.6738-39.9414Q41.6992-46.1914 43.9941-51.0986Q46.2891-56.0059 49.707-59.4238Q53.125-62.8418 57.5684-64.624Q62.0117-66.4062 67.334-66.4062Q72.3633-66.4062 76.8066-64.502Q81.25-62.5977 85.0342-58.8867Q88.8184-55.1758 91.748-49.8047Q92.8711-47.7051 94.2139-46.9238Q95.5566-46.1426 98.0957-46.1426Q105.42-46.1426 110.547-43.8965Q115.674-41.6504 118.408-37.4512Q121.143-33.252 121.143-27.3926Q121.143-22.3633 118.75-18.5059Q116.357-14.6484 112.183-12.4512Q108.008-10.2539 102.539-10.2539Z"/>
  </g>
  <g id="Heavy-M" transform="matrix(1 0 0 1 2566.75 1126)">
   <path d="M35.9116 3.90015L101.463 3.90015Q108.286 3.90015 114.131 1.48506Q119.975-0.930023 124.365-5.23529Q128.755-9.54056 131.201-15.2699Q133.646-20.9991 133.646-27.6764Q133.646-34.4284 131.221-40.2454Q128.796-46.0625 124.384-50.4181Q119.972-54.7737 114.003-57.2147Q108.033-59.6558 100.945-59.6558Q95.7634-69.6594 86.834-74.9588Q77.9045-80.2582 66.0202-80.2582Q58.4549-80.2582 51.7342-77.7264Q45.0134-75.1945 39.6729-70.5559Q34.3323-65.9172 30.8529-59.5425Q27.3735-53.1677 26.2543-45.4819Q20.8115-43.618 16.8827-40.1188Q12.9539-36.6196 10.8471-31.9008Q8.74023-27.182 8.74023-21.6705Q8.74023-14.3585 12.1635-8.56895Q15.5869-2.77939 21.7167 0.560379Q27.8465 3.90015 35.9116 3.90015ZM36.3731-9.48181Q31.9038-9.48181 28.7125-10.9238Q25.5211-12.3657 23.8029-15.0318Q22.0848-17.6979 22.0848-21.389Q22.0848-26.252 25.1957-29.5597Q28.3066-32.8674 34.4505-34.4414Q36.6501-35.0044 37.5664-36.116Q38.4827-37.2276 38.8527-39.8605Q39.74-46.0991 42.0578-51.0929Q44.3756-56.0867 47.9092-59.6256Q51.4427-63.1645 56.0242-65.0391Q60.6056-66.9136 66.0202-66.9136Q71.257-66.9136 75.8156-64.9574Q80.3741-63.0013 84.1873-59.2327Q88.0005-55.4642 90.8836-50.0351Q91.9495-48.0049 93.2632-47.2408Q94.577-46.4767 97.0467-46.4767Q104.44-46.4767 109.619-44.104Q114.798-41.7313 117.544-37.434Q120.29-33.1367 120.29-27.3582Q120.29-22.1786 117.811-18.1484Q115.332-14.1182 111.036-11.8Q106.74-9.48181 101.18-9.48181Z"/>
  </g>
  <g id="Bold-M" transform="matrix(1 0 0 1 2271.46 1126)">
   <path d="M34.79 2.85645L99.6582 2.85645Q106.25 2.85645 111.914 0.524902Q117.578-1.80664 121.826-5.95703Q126.074-10.1074 128.442-15.6372Q130.811-21.167 130.811-27.6123Q130.811-34.1064 128.43-39.6851Q126.05-45.2637 121.729-49.4385Q117.407-53.6133 111.56-55.9448Q105.713-58.2764 98.7793-58.2764Q93.7012-68.1641 84.8877-73.5474Q76.0742-78.9307 64.5508-78.9307Q57.1533-78.9307 50.5615-76.3794Q43.9697-73.8281 38.7451-69.1895Q33.5205-64.5508 30.1636-58.2275Q26.8066-51.9043 25.8545-44.3604Q20.6055-42.6514 16.7603-39.3066Q12.915-35.9619 10.8276-31.3721Q8.74023-26.7822 8.74023-21.3867Q8.74023-14.5264 11.9507-9.0332Q15.1611-3.54004 21.0205-0.341797Q26.8799 2.85645 34.79 2.85645ZM35.0586-8.61816Q30.3955-8.61816 27.0752-10.144Q23.7549-11.6699 21.9727-14.4775Q20.1904-17.2852 20.1904-21.1182Q20.1904-26.123 23.3398-29.5532Q26.4893-32.9834 32.5684-34.5703Q34.7168-35.1074 35.6201-36.2061Q36.5234-37.3047 36.8164-39.7705Q37.5488-45.9961 39.8926-51.0864Q42.2363-56.1768 45.8984-59.8511Q49.5605-63.5254 54.2969-65.5029Q59.0332-67.4805 64.5508-67.4805Q70.0195-67.4805 74.707-65.4663Q79.3945-63.4521 83.2397-59.6191Q87.085-55.7861 89.917-50.293Q90.918-48.3398 92.1997-47.5952Q93.4814-46.8506 95.874-46.8506Q103.345-46.8506 108.582-44.3359Q113.818-41.8213 116.577-37.4146Q119.336-33.0078 119.336-27.3193Q119.336-21.9727 116.76-17.749Q114.185-13.5254 109.753-11.0718Q105.322-8.61816 99.6582-8.61816Z"/>
  </g>
  <g id="Semibold-M" transform="matrix(1 0 0 1 1975.73 1126)">
   <path d="M34.0172 2.13623L98.4138 2.13623Q104.846 2.13623 110.386-0.137329Q115.925-2.41089 120.075-6.45485Q124.226-10.4988 126.54-15.8905Q128.855-21.2822 128.855-27.5681Q128.855-33.8844 126.506-39.2986Q124.157-44.7128 119.898-48.7633Q115.639-52.8137 109.876-55.0697Q104.113-57.3257 97.2862-57.3257Q92.2791-67.1333 83.5457-72.5742Q74.8123-78.0151 63.5376-78.0151Q56.2561-78.0151 49.7528-75.4505Q43.2495-72.8859 38.105-68.2472Q32.9605-63.6086 29.6879-57.3208Q26.4153-51.033 25.5791-43.5875Q20.4636-41.9846 16.6759-38.7466Q12.8883-35.5087 10.8143-31.0078Q8.74023-26.5068 8.74023-21.1914Q8.74023-14.6416 11.8042-9.35287Q14.8682-4.06418 20.5406-0.963974Q26.2131 2.13623 34.0172 2.13623ZM34.1522-8.02307Q29.3556-8.02307 25.9464-9.60655Q22.5372-11.19 20.7108-14.0953Q18.8843-17.0006 18.8843-20.9312Q18.8843-26.0345 22.0604-29.549Q25.2365-33.0635 31.2706-34.6588Q33.3839-35.1784 34.2781-36.2682Q35.1723-37.3581 35.4126-39.7079Q36.0382-45.9251 38.3995-51.0822Q40.7608-56.2393 44.5118-60.0067Q48.2628-63.7741 53.1059-65.823Q57.9491-67.8719 63.5376-67.8719Q69.1666-67.8719 73.9429-65.8176Q78.7193-63.7634 82.5867-59.8858Q86.454-56.0081 89.2502-50.4707Q90.2069-48.571 91.4665-47.8397Q92.7261-47.1085 95.0653-47.1085Q102.589-47.1085 107.866-44.4962Q113.143-41.8839 115.911-37.4016Q118.678-32.9193 118.678-27.2926Q118.678-21.8307 116.036-17.4736Q113.393-13.1165 108.869-10.5698Q104.345-8.02307 98.6092-8.02307Z"/>
  </g>
  <g id="Medium-M" transform="matrix(1 0 0 1 1679.76 1126)">
   <path d="M33.4305 1.59073L97.4709 1.59073Q103.781 1.59073 109.227-0.639343Q114.672-2.86942 118.748-6.83212Q122.824-10.7948 125.098-16.0824Q127.373-21.3699 127.373-27.5345Q127.373-33.7158 125.047-39.0053Q122.722-44.2947 118.51-48.251Q114.297-52.2072 108.599-54.406Q102.901-56.6048 96.154-56.6048Q91.201-66.3513 82.5283-71.8365Q73.8556-77.3216 62.7693-77.3216Q55.5748-77.3216 49.1394-74.7467Q42.704-72.1718 37.6202-67.5331Q32.5363-62.8944 29.3278-56.6338Q26.1192-50.3731 25.37-43.0008Q20.3552-41.4795 16.6119-38.3221Q12.8685-35.1646 10.8044-30.7312Q8.74023-26.2978 8.74023-21.0426Q8.74023-14.7293 11.6928-9.59549Q14.6454-4.46167 20.1767-1.43547Q25.708 1.59073 33.4305 1.59073ZM33.4648-7.57141Q28.5675-7.57141 25.0908-9.19876Q21.6141-10.8261 19.7536-13.8058Q17.8932-16.7854 17.8932-20.7901Q17.8932-25.9666 21.0896-29.5452Q24.2859-33.1238 30.2872-34.7267Q32.373-35.2325 33.2607-36.3155Q34.1484-37.3985 34.3475-39.6614Q34.8923-45.871 37.2673-51.0784Q39.6423-56.2859 43.4608-60.1242Q47.2794-63.9626 52.203-66.0652Q57.1266-68.1679 62.7693-68.1679Q68.5196-68.1679 73.3631-66.0835Q78.2066-63.9992 82.0911-60.088Q85.9756-56.1768 88.7451-50.6058Q89.6683-48.7457 90.9107-48.0247Q92.1532-47.3038 94.4519-47.3038Q102.016-47.3038 107.323-44.6171Q112.63-41.9304 115.405-37.3909Q118.179-32.8514 118.179-27.2728Q118.179-21.7224 115.487-17.2646Q112.794-12.8067 108.199-10.1891Q103.603-7.57141 97.8142-7.57141Z"/>
  </g>
  <g id="Regular-M" transform="matrix(1 0 0 1 1384.02 1126)">
   <path d="M32.666 0.878906L96.2402 0.878906Q102.393 0.878906 107.715-1.29395Q113.037-3.4668 117.017-7.32422Q120.996-11.1816 123.218-16.333Q125.439-21.4844 125.439-27.4902Q125.439-33.4961 123.145-38.623Q120.85-43.75 116.699-47.583Q112.549-51.416 106.934-53.54Q101.318-55.6641 94.6777-55.6641Q89.7949-65.332 81.2012-70.874Q72.6074-76.416 61.7676-76.416Q54.6875-76.416 48.3398-73.8281Q41.9922-71.2402 36.9873-66.6016Q31.9824-61.9629 28.8574-55.7373Q25.7324-49.5117 25.0977-42.2363Q20.2148-40.8203 16.5283-37.7686Q12.8418-34.7168 10.791-30.3711Q8.74023-26.0254 8.74023-20.8496Q8.74023-14.8438 11.5479-9.91211Q14.3555-4.98047 19.7021-2.05078Q25.0488 0.878906 32.666 0.878906ZM32.5684-6.98242Q27.5391-6.98242 23.9746-8.66699Q20.4102-10.3516 18.5059-13.4277Q16.6016-16.5039 16.6016-20.6055Q16.6016-25.8789 19.8242-29.541Q23.0469-33.2031 29.0039-34.8145Q31.0547-35.3027 31.9336-36.377Q32.8125-37.4512 32.959-39.5996Q33.3984-45.8008 35.791-51.0742Q38.1836-56.3477 42.0898-60.2783Q45.9961-64.209 51.0254-66.3818Q56.0547-68.5547 61.7676-68.5547Q67.6758-68.5547 72.6074-66.4307Q77.5391-64.3066 81.4453-60.3516Q85.3516-56.3965 88.0859-50.7812Q88.9648-48.9746 90.1855-48.2666Q91.4062-47.5586 93.6523-47.5586Q101.27-47.5586 106.616-44.7754Q111.963-41.9922 114.746-37.3779Q117.529-32.7637 117.529-27.2461Q117.529-21.582 114.771-16.9922Q112.012-12.4023 107.324-9.69238Q102.637-6.98242 96.7773-6.98242Z"/>
  </g>
  <g id="Light-M" transform="matrix(1 0 0 1 1087.68 1126)">
   <path d="M32.0305 0.273132L95.9679 0.273132Q102.014 0.273132 107.253-1.86157Q112.492-3.99628 116.411-7.77817Q120.33-11.5601 122.522-16.5977Q124.713-21.6354 124.713-27.4902Q124.713-33.3595 122.441-38.3732Q120.168-43.3868 116.071-47.1214Q111.974-50.856 106.464-52.9194Q100.955-54.9828 94.4656-54.9828Q89.6133-64.7415 81.1481-70.4273Q72.683-76.1131 61.4952-76.1131Q54.4907-76.1131 48.2491-73.5104Q42.0074-70.9076 37.101-66.2537Q32.1945-61.5997 29.1374-55.3741Q26.0803-49.1486 25.4608-41.9182Q20.5933-40.5632 16.8159-37.5946Q13.0386-34.626 10.8894-30.341Q8.74023-26.0559 8.74023-20.8344Q8.74023-15.0101 11.4796-10.2222Q14.2189-5.43442 19.4218-2.58064Q24.6246 0.273132 32.0305 0.273132ZM31.9626-5.77164Q26.5251-5.77164 22.6879-7.68318Q18.8507-9.59473 16.8255-12.9662Q14.8003-16.3376 14.8003-20.6657Q14.8003-26.3939 18.3483-30.4493Q21.8964-34.5047 28.1868-36.1771Q29.9347-36.6043 30.6545-37.4817Q31.3744-38.3591 31.4758-40.0688Q31.9-46.4066 34.4135-51.8616Q36.927-57.3166 41.0301-61.4136Q45.1332-65.5106 50.3746-67.7895Q55.616-70.0684 61.4952-70.0684Q67.9031-70.0684 73.1525-67.7853Q78.4019-65.5022 82.4673-61.3579Q86.5326-57.2136 89.2815-51.5228Q90.0246-49.9733 91.0637-49.379Q92.1028-48.7846 94.0002-48.7846Q101.527-48.7846 107.063-45.8652Q112.598-42.9459 115.609-38.0669Q118.619-33.1879 118.619-27.2766Q118.619-21.3097 115.648-16.4322Q112.678-11.5547 107.634-8.66318Q102.591-5.77164 96.3081-5.77164Z"/>
  </g>
  <g id="Thin-M" transform="matrix(1 0 0 1 791.446 1126)">
   <path d="M31.1897-0.527191L95.6078-0.527191Q101.514-0.527191 106.643-2.6123Q111.771-4.69742 115.611-8.37898Q119.45-12.0605 121.601-16.9483Q123.752-21.8361 123.752-27.4902Q123.752-33.1795 121.51-38.0428Q119.267-42.9062 115.24-46.5107Q111.213-50.1152 105.844-52.0985Q100.475-54.0817 94.1856-54.0817Q89.373-63.961 81.078-69.8368Q72.7829-75.7126 61.1351-75.7126Q54.2305-75.7126 48.1289-73.0896Q42.0273-70.4666 37.2509-65.7928Q32.4745-61.1191 29.5078-54.8935Q26.5411-48.6679 25.9415-41.4978Q21.0938-40.2229 17.1963-37.3646Q13.2988-34.5062 11.0195-30.3009Q8.74023-26.0956 8.74023-20.8145Q8.74023-15.2306 11.3895-10.6327Q14.0388-6.03485 19.0517-3.28102Q24.0646-0.527191 31.1897-0.527191ZM31.1623-4.17023Q25.1839-4.17023 20.9866-6.38199Q16.7892-8.59375 14.6038-12.3554Q12.4184-16.1171 12.4184-20.7458Q12.4184-27.0744 16.3967-31.6505Q20.3751-36.2267 27.1057-37.9784Q28.4531-38.3263 28.9631-38.9435Q29.4731-39.5607 29.5135-40.6891Q29.9179-47.2069 32.592-52.9022Q35.2661-58.5976 39.6294-62.915Q43.9926-67.2325 49.514-69.6514Q55.0354-72.0703 61.1351-72.0703Q68.203-72.0703 73.8728-69.577Q79.5425-67.0837 83.8181-62.6892Q88.0936-58.2947 90.863-52.504Q91.4253-51.2947 92.2245-50.8503Q93.0237-50.4059 94.4611-50.4059Q101.867-50.4059 107.653-47.3064Q113.439-44.207 116.75-38.9774Q120.061-33.7479 120.061-27.3163Q120.061-20.9496 116.809-15.6918Q113.558-10.434 108.045-7.30209Q102.531-4.17023 95.6879-4.17023Z"/>
  </g>
  <g id="Ultralight-M" transform="matrix(1 0 0 1 494.981 1126)">
   <path d="M30.7587-0.937653L95.4231-0.937653Q101.257-0.937653 106.33-2.99683Q111.402-5.056 115.2-8.68645Q118.998-12.3169 121.129-17.1276Q123.26-21.9383 123.26-27.4902Q123.26-33.0872 121.033-37.8738Q118.806-42.6605 114.815-46.1983Q110.823-49.736 105.526-51.6785Q100.229-53.6209 94.0422-53.6209Q89.2502-63.5612 81.0425-69.5347Q72.8348-75.5081 60.9505-75.5081Q54.097-75.5081 48.0675-72.8748Q42.038-70.2415 37.328-65.5575Q32.618-60.8734 29.6974-54.6478Q26.7769-48.4222 26.1871-41.2827Q21.3501-40.0482 17.3912-37.2463Q13.4323-34.4444 11.0863-30.2803Q8.74023-26.1162 8.74023-20.8038Q8.74023-15.3435 11.3434-10.8433Q13.9465-6.34308 18.8618-3.64037Q23.777-0.937653 30.7587-0.937653ZM30.7518-3.3493Q24.4965-3.3493 20.1145-5.71518Q15.7326-8.08105 13.4651-12.0426Q11.1977-16.0042 11.1977-20.787Q11.1977-27.4231 15.3969-32.2659Q19.5961-37.1086 26.5518-38.9015Q27.6947-39.2082 28.0968-39.6919Q28.4988-40.1756 28.5088-41.0072Q28.9032-47.6173 31.6589-53.4355Q34.4147-59.2537 38.9111-63.6841Q43.4074-68.1145 49.0726-70.6051Q54.7379-73.0957 60.9505-73.0957Q68.3571-73.0957 74.2424-70.4948Q80.1277-67.894 84.5108-63.3713Q88.8939-58.8486 91.6733-53.006Q92.1432-51.9714 92.8192-51.6041Q93.4952-51.2367 94.6968-51.2367Q102.042-51.2367 107.956-48.045Q113.87-44.8532 117.334-39.4444Q120.798-34.0355 120.798-27.3369Q120.798-20.7649 117.404-15.3122Q114.01-9.85947 108.255-6.60439Q102.5-3.3493 95.3697-3.3493Z"/>
  </g>
  <g id="Black-S" transform="matrix(1 0 0 1 2877.25 696)">
   <path d="M29.1992-3.61328L81.25-3.61328Q88.623-3.61328 94.5557-7.03125Q100.488-10.4492 103.955-16.2842Q107.422-22.1191 107.422-29.3945Q107.422-36.7676 104.028-42.7246Q100.635-48.6816 94.7021-52.1729Q88.7695-55.6641 81.2012-55.6641Q77.0508-63.6719 69.9463-67.7246Q62.8418-71.7773 53.125-71.7773Q45.0684-71.7773 38.2568-68.335Q31.4453-64.8926 26.9043-58.7158Q22.3633-52.5391 20.9961-44.3359Q14.3066-41.9434 10.5713-36.7432Q6.83594-31.543 6.83594-24.9023Q6.83594-18.75 9.74121-13.9404Q12.6465-9.13086 17.7002-6.37207Q22.7539-3.61328 29.1992-3.61328ZM29.7363-15.8203Q24.707-15.8203 21.875-18.1641Q19.043-20.5078 19.043-24.6582Q19.043-28.3691 21.46-30.8594Q23.877-33.3496 28.7598-34.5703Q30.5176-35.0098 31.25-35.8887Q31.9824-36.7676 32.3242-38.9648Q33.1543-43.8965 34.9609-47.7295Q36.7676-51.5625 39.4287-54.1992Q42.0898-56.8359 45.5322-58.2031Q48.9746-59.5703 53.125-59.5703Q58.9844-59.5703 63.8672-56.25Q68.75-52.9297 72.2168-46.6309Q73.0957-44.9707 74.1699-44.3604Q75.2441-43.75 77.1973-43.75Q82.9102-43.75 86.9385-42.0166Q90.9668-40.2832 93.0908-37.0117Q95.2148-33.7402 95.2148-29.1016Q95.2148-25.1953 93.3594-22.1924Q91.5039-19.1895 88.2568-17.5049Q85.0098-15.8203 80.7129-15.8203Z"/>
  </g>
  <g id="Heavy-S" transform="matrix(1 0 0 1 2581.57 696)">
   <path d="M28.4157-4.32816L79.9019-4.32816Q87.0674-4.32816 92.8329-7.64236Q98.5985-10.9566 101.973-16.6183Q105.347-22.2801 105.347-29.3365Q105.347-36.4677 102.011-42.2173Q98.6755-47.9668 92.8467-51.3313Q87.0178-54.6959 79.5647-54.6959Q75.4951-62.5885 68.4654-66.6931Q61.4357-70.7977 52.0416-70.7977Q44.1231-70.7977 37.421-67.3439Q30.719-63.8901 26.2817-57.7419Q21.8445-51.5938 20.639-43.5181Q14.1685-41.2979 10.5022-36.2419Q6.83594-31.1859 6.83594-24.6834Q6.83594-18.8538 9.58557-14.246Q12.3352-9.63821 17.1989-6.98318Q22.0627-4.32816 28.4157-4.32816ZM28.8025-15.313Q23.6465-15.313 20.734-17.7433Q17.8215-20.1736 17.8215-24.4392Q17.8215-28.196 20.2328-30.7323Q22.644-33.2687 27.4231-34.4894Q29.1809-34.9289 29.9191-35.8192Q30.6572-36.7096 30.9525-38.8382Q31.6795-43.7355 33.4862-47.62Q35.2928-51.5045 38.0287-54.2221Q40.7646-56.9397 44.2993-58.3759Q47.834-59.8122 52.0416-59.8122Q58.0627-59.8122 62.9913-56.4457Q67.9199-53.0792 71.3295-46.7232Q72.1741-45.0974 73.2422-44.487Q74.3103-43.8766 76.252-43.8766Q82.0457-43.8766 86.0855-42.057Q90.1253-40.2374 92.2379-36.9141Q94.3504-33.5907 94.3504-29.0672Q94.3504-25.0687 92.4488-21.9563Q90.5472-18.8438 87.2368-17.0784Q83.9264-15.313 79.6181-15.313Z"/>
  </g>
  <g id="Bold-S" transform="matrix(1 0 0 1 2286.02 696)">
   <path d="M27.5391-5.12695L78.3936-5.12695Q85.3271-5.12695 90.9058-8.3252Q96.4844-11.5234 99.7559-16.9922Q103.027-22.4609 103.027-29.2725Q103.027-36.1328 99.7559-41.6504Q96.4844-47.168 90.7715-50.3906Q85.0586-53.6133 77.7344-53.6133Q73.7549-61.377 66.8091-65.5396Q59.8633-69.7021 50.8301-69.7021Q43.0664-69.7021 36.4868-66.2354Q29.9072-62.7686 25.5859-56.6528Q21.2646-50.5371 20.2393-42.6025Q14.0137-40.5762 10.4248-35.6812Q6.83594-30.7861 6.83594-24.4385Q6.83594-18.9697 9.41162-14.5874Q11.9873-10.2051 16.6382-7.66602Q21.2891-5.12695 27.5391-5.12695ZM27.7588-14.7461Q22.4609-14.7461 19.458-17.2729Q16.4551-19.7998 16.4551-24.1943Q16.4551-28.0029 18.8599-30.5908Q21.2646-33.1787 25.9277-34.3994Q27.6855-34.8389 28.4302-35.7422Q29.1748-36.6455 29.4189-38.6963Q30.0293-43.5547 31.8359-47.4976Q33.6426-51.4404 36.4624-54.248Q39.2822-57.0557 42.9199-58.5693Q46.5576-60.083 50.8301-60.083Q57.0312-60.083 62.0117-56.665Q66.9922-53.2471 70.3369-46.8262Q71.1426-45.2393 72.2046-44.6289Q73.2666-44.0186 75.1953-44.0186Q81.0791-44.0186 85.1318-42.1021Q89.1846-40.1855 91.2842-36.8042Q93.3838-33.4229 93.3838-29.0283Q93.3838-24.9268 91.4307-21.6919Q89.4775-18.457 86.0962-16.6016Q82.7148-14.7461 78.3936-14.7461Z"/>
  </g>
  <g id="Semibold-S" transform="matrix(1 0 0 1 1990.11 696)">
   <path d="M26.9348-5.6778L77.3537-5.6778Q84.127-5.6778 89.5771-8.79631Q95.0272-11.9148 98.2273-17.2501Q101.427-22.5853 101.427-29.2282Q101.427-35.9016 98.2006-41.2594Q94.9738-46.6171 89.3406-49.7421Q83.7074-52.8671 76.4725-52.8671Q72.5548-60.5415 65.667-64.7442Q58.7791-68.9468 49.9947-68.9468Q42.3378-68.9468 35.8425-65.4713Q29.3472-61.9957 25.106-55.9021Q20.8649-49.8085 19.9638-41.9716Q13.9069-40.0787 10.3714-35.2947Q6.83594-30.5107 6.83594-24.2699Q6.83594-19.0498 9.29146-14.8232Q11.747-10.5965 16.2514-8.13713Q20.7558-5.6778 26.9348-5.6778ZM27.0386-14.3547Q21.6431-14.3547 18.578-16.9483Q15.5128-19.5419 15.5128-24.0257Q15.5128-27.8694 17.9134-30.4928Q20.314-33.1161 24.897-34.3369Q26.6548-34.7763 27.4036-35.6888Q28.1525-36.6013 28.3615-38.5986Q28.8918-43.4303 30.6984-47.4133Q32.505-51.3962 35.3825-54.266Q38.2599-57.1358 41.9689-58.7029Q45.6779-60.2699 49.9947-60.2699Q56.3202-60.2699 61.3361-56.8161Q66.3521-53.3623 69.6526-46.8971Q70.4315-45.3369 71.489-44.7266Q72.5464-44.1162 74.4667-44.1162Q80.4123-44.1162 84.4742-42.1329Q88.5361-40.1497 90.6265-36.7287Q92.717-33.3076 92.717-29.0016Q92.717-24.8291 90.7284-21.5099Q88.7398-18.1908 85.3096-16.2727Q81.8794-14.3547 77.549-14.3547Z"/>
  </g>
  <g id="Medium-S" transform="matrix(1 0 0 1 1694.01 696)">
   <path d="M26.4763-6.09589L76.5656-6.09589Q83.2176-6.09589 88.5696-9.15337Q93.9217-12.2108 97.0684-17.4454Q100.215-22.6799 100.215-29.1946Q100.215-35.7269 97.0215-40.963Q93.8278-46.199 88.2557-49.25Q82.6836-52.301 75.5157-52.301Q71.6454-59.9083 64.801-64.1411Q57.9567-68.3739 49.3614-68.3739Q41.7854-68.3739 35.3542-64.8914Q28.923-61.409 24.7421-55.3326Q20.5612-49.2561 19.7548-41.4932Q13.826-39.7011 10.331-35.0014Q6.83594-30.3017 6.83594-24.1417Q6.83594-19.1101 9.20067-15.0013Q11.5654-10.8925 15.9584-8.49419Q20.3514-6.09589 26.4763-6.09589ZM26.4931-14.0587Q21.0236-14.0587 17.9111-16.7027Q14.7987-19.3466 14.7987-23.8976Q14.7987-27.7687 17.1959-30.4192Q19.593-33.0696 24.115-34.2903Q25.8728-34.7298 26.6254-35.6487Q27.3781-36.5677 27.5597-38.5246Q28.0296-43.3357 29.8363-47.3492Q31.6429-51.3626 34.5642-54.2793Q37.4855-57.196 41.2479-58.8036Q45.0104-60.4111 49.3614-60.4111Q55.7816-60.4111 60.8242-56.9305Q65.8669-53.45 69.1338-46.9513Q69.8929-45.4109 70.9469-44.8006Q72.0009-44.1902 73.9143-44.1902Q79.9072-44.1902 83.9756-42.1566Q88.044-40.123 90.1279-36.6714Q92.2119-33.2199 92.2119-28.9818Q92.2119-24.7551 90.1962-21.3718Q88.1805-17.9886 84.7134-16.0236Q81.2462-14.0587 76.9089-14.0587Z"/>
  </g>
  <g id="Regular-S" transform="matrix(1 0 0 1 1398.09 696)">
   <path d="M25.8789-6.64062L75.5371-6.64062Q82.0312-6.64062 87.2559-9.61914Q92.4805-12.5977 95.5566-17.7002Q98.6328-22.8027 98.6328-29.1504Q98.6328-35.498 95.4834-40.5762Q92.334-45.6543 86.8408-48.6084Q81.3477-51.5625 74.2676-51.5625Q70.459-59.082 63.6719-63.3545Q56.8848-67.627 48.5352-67.627Q41.0645-67.627 34.7168-64.1357Q28.3691-60.6445 24.2676-54.5898Q20.166-48.5352 19.4824-40.8691Q13.7207-39.209 10.2783-34.6191Q6.83594-30.0293 6.83594-23.9746Q6.83594-19.1895 9.08203-15.2344Q11.3281-11.2793 15.5762-8.95996Q19.8242-6.64062 25.8789-6.64062ZM25.7812-13.6719Q20.2148-13.6719 17.041-16.3818Q13.8672-19.0918 13.8672-23.7305Q13.8672-27.6367 16.2598-30.3223Q18.6523-33.0078 23.0957-34.2285Q24.8535-34.668 25.6104-35.5957Q26.3672-36.5234 26.5137-38.4277Q26.9043-43.2129 28.7109-47.2656Q30.5176-51.3184 33.4961-54.2969Q36.4746-57.2754 40.3076-58.9355Q44.1406-60.5957 48.5352-60.5957Q55.0781-60.5957 60.1562-57.0801Q65.2344-53.5645 68.457-47.0215Q69.1895-45.5078 70.2393-44.8975Q71.2891-44.2871 73.1934-44.2871Q79.248-44.2871 83.3252-42.1875Q87.4023-40.0879 89.4775-36.5967Q91.5527-33.1055 91.5527-28.9551Q91.5527-24.6582 89.502-21.1914Q87.4512-17.7246 83.9355-15.6982Q80.4199-13.6719 76.0742-13.6719Z"/>
  </g>
  <g id="Light-S" transform="matrix(1 0 0 1 1101.7 696)">
   <path d="M25.3189-7.18536L75.2953-7.18536Q81.6681-7.18536 86.8019-10.1036Q91.9357-13.0219 94.9589-18.0031Q97.982-22.9843 97.982-29.1504Q97.982-35.347 94.8704-40.2885Q91.7587-45.2301 86.364-48.101Q80.9692-50.972 74.086-50.9567Q70.2927-58.567 63.6189-62.9684Q56.945-67.3698 48.2933-67.3698Q40.9134-67.3698 34.6867-63.8481Q28.4599-60.3264 24.4644-54.2645Q20.4689-48.2025 19.8006-40.5968Q14.0686-38.9969 10.4523-34.536Q6.83594-30.0751 6.83594-23.9594Q6.83594-19.3405 9.01375-15.5144Q11.1916-11.6882 15.3187-9.4368Q19.4458-7.18536 25.3189-7.18536ZM25.2518-12.5969Q19.1254-12.5969 15.7017-15.7234Q12.278-18.8499 12.278-23.7907Q12.278-28.0907 14.9506-31.1245Q17.6231-34.1583 22.3846-35.4393Q23.8693-35.8185 24.4823-36.5723Q25.0954-37.326 25.2121-38.8519Q25.5722-43.7576 27.4925-47.9618Q29.4128-52.166 32.5577-55.2959Q35.7025-58.4259 39.7247-60.1845Q43.7469-61.9431 48.2933-61.9431Q55.5023-61.9431 60.8829-58.1322Q66.2636-54.3213 69.5168-47.6875Q70.1279-46.4012 71.0114-45.8889Q71.8948-45.3766 73.4962-45.3766Q79.4601-45.3766 83.7112-43.1484Q87.9623-40.9203 90.2344-37.2021Q92.5064-33.4839 92.5064-28.9856Q92.5064-24.4164 90.274-20.6997Q88.0417-16.983 84.2155-14.79Q80.3894-12.5969 75.65-12.5969Z"/>
  </g>
  <g id="Thin-S" transform="matrix(1 0 0 1 805.42 696)">
   <path d="M24.5781-7.90634L74.9748-7.90634Q81.1874-7.90634 86.2011-10.7441Q91.2148-13.5818 94.1681-18.4032Q97.1214-23.2246 97.1214-29.1504Q97.1214-35.1463 94.0598-39.9082Q90.9981-44.6701 85.7334-47.4308Q80.4688-50.1915 73.8457-50.1564Q70.0722-57.8865 63.5487-62.458Q57.0251-67.0296 47.9729-67.0296Q40.7127-67.0296 34.6462-63.4678Q28.5797-59.906 24.7246-53.8338Q20.8694-47.7615 20.2209-40.2367Q14.5294-38.7169 10.6827-34.4257Q6.83594-30.1346 6.83594-23.9395Q6.83594-19.5412 8.92372-15.8848Q11.0115-12.2284 14.9784-10.0674Q18.9453-7.90634 24.5781-7.90634ZM24.5506-11.1755Q17.6834-11.1755 13.9297-14.8525Q10.1761-18.5295 10.1761-23.8708Q10.1761-28.6911 13.2191-32.1854Q16.2621-35.6796 21.4432-37.0407Q22.5685-37.3398 22.9912-37.8632Q23.4138-38.3865 23.4901-39.4119Q23.8106-44.4786 25.8808-48.8827Q27.951-53.2867 31.3164-56.617Q34.6817-59.9472 38.9542-61.8359Q43.2266-63.7245 47.9729-63.7245Q56.0623-63.7245 61.8435-59.5234Q67.6247-55.3223 70.9175-48.568Q71.3692-47.5822 72.0322-47.2004Q72.6952-46.8185 73.8968-46.8185Q79.7401-46.8185 84.2216-44.4199Q88.7032-42.0212 91.2354-38.0028Q93.7675-33.9844 93.7675-29.0253Q93.7675-24.0959 91.2949-20.0489Q88.8222-16.0019 84.586-13.5887Q80.3497-11.1755 75.09-11.1755Z"/>
  </g>
  <g id="Ultralight-S" transform="matrix(1 0 0 1 508.93 696)">
   <path d="M24.1989-8.2756L74.8108-8.2756Q80.9418-8.2756 85.8936-11.0725Q90.8455-13.8695 93.763-18.6085Q96.6805-23.3475 96.6805-29.1504Q96.6805-35.0441 93.6443-39.7133Q90.6082-44.3825 85.4103-47.0871Q80.2124-49.7917 73.7228-49.7459Q69.9593-57.5378 63.5128-62.1964Q57.0663-66.8549 47.8088-66.8549Q40.6105-66.8549 34.626-63.2729Q28.6415-59.6909 24.8577-53.6137Q21.0739-47.5365 20.4361-40.052Q14.7652-38.5735 10.8006-34.3697Q6.83594-30.1659 6.83594-23.9288Q6.83594-19.6434 8.87756-16.0744Q10.9192-12.5053 14.8041-10.3905Q18.689-8.2756 24.1989-8.2756ZM24.192-10.4477Q16.9456-10.4477 13.0222-14.4066Q9.09882-18.3655 9.09882-23.912Q9.09882-28.9993 12.3318-32.729Q15.5647-36.4586 20.9618-37.8616Q21.9017-38.1187 22.2271-38.5246Q22.5525-38.9305 22.6082-39.6996Q22.908-44.8479 25.0553-49.3546Q27.2026-53.8612 30.6808-57.2937Q34.1591-60.7262 38.5593-62.6816Q42.9596-64.637 47.8088-64.637Q56.3499-64.637 62.336-60.236Q68.322-55.835 71.6354-49.0196Q72.0047-48.1873 72.5552-47.8718Q73.1056-47.5563 74.1013-47.5563Q79.8836-47.5563 84.483-45.071Q89.0823-42.5858 91.748-38.4132Q94.4138-34.2407 94.4138-29.0459Q94.4138-23.9319 91.8179-19.7159Q89.222-15.4999 84.7755-12.9738Q80.3291-10.4477 74.8024-10.4477Z"/>
  </g>
 </g>
</svg>
