<?xml version="1.0" encoding="UTF-8"?>
<!--Generator: Apple Native CoreSVG 149-->
<!DOCTYPE svg
PUBLIC "-//W3C//DTD SVG 1.1//EN"
       "http://www.w3.org/Graphics/SVG/1.1/DTD/svg11.dtd">
<svg version="1.1" xmlns="http://www.w3.org/2000/svg" xmlns:xlink="http://www.w3.org/1999/xlink" width="3300" height="2200">
 <!--glyph: "uni100DBE.medium", point size: 100.0, font version: "17.0d9e1", template writer version: "59"-->
 <style>.hierarchical-0:secondary {fill:#4D4D4D}
.hierarchical-1:primary {fill:#212121}

.SFSymbolsPreview212121 {fill:#212121;opacity:1.0}
.SFSymbolsPreview4D4D4D {fill:#4D4D4D;opacity:1.0}
</style>
 <g id="Notes">
  <rect height="2200" id="artboard" style="fill:white;opacity:1" width="3300" x="0" y="0"/>
  <line style="fill:none;stroke:black;opacity:1;stroke-width:0.5;" x1="263" x2="3036" y1="292" y2="292"/>
  <text style="stroke:none;fill:black;font-family:sans-serif;font-size:13;font-weight:bold;" transform="matrix(1 0 0 1 263 322)">Weight/Scale Variations</text>
  <text style="stroke:none;fill:black;font-family:sans-serif;font-size:13;text-anchor:middle;" transform="matrix(1 0 0 1 559.711 322)">Ultralight</text>
  <text style="stroke:none;fill:black;font-family:sans-serif;font-size:13;text-anchor:middle;" transform="matrix(1 0 0 1 856.422 322)">Thin</text>
  <text style="stroke:none;fill:black;font-family:sans-serif;font-size:13;text-anchor:middle;" transform="matrix(1 0 0 1 1153.13 322)">Light</text>
  <text style="stroke:none;fill:black;font-family:sans-serif;font-size:13;text-anchor:middle;" transform="matrix(1 0 0 1 1449.84 322)">Regular</text>
  <text style="stroke:none;fill:black;font-family:sans-serif;font-size:13;text-anchor:middle;" transform="matrix(1 0 0 1 1746.56 322)">Medium</text>
  <text style="stroke:none;fill:black;font-family:sans-serif;font-size:13;text-anchor:middle;" transform="matrix(1 0 0 1 2043.27 322)">Semibold</text>
  <text style="stroke:none;fill:black;font-family:sans-serif;font-size:13;text-anchor:middle;" transform="matrix(1 0 0 1 2339.98 322)">Bold</text>
  <text style="stroke:none;fill:black;font-family:sans-serif;font-size:13;text-anchor:middle;" transform="matrix(1 0 0 1 2636.69 322)">Heavy</text>
  <text style="stroke:none;fill:black;font-family:sans-serif;font-size:13;text-anchor:middle;" transform="matrix(1 0 0 1 2933.4 322)">Black</text>
  <line style="fill:none;stroke:black;opacity:1;stroke-width:0.5;" x1="263" x2="3036" y1="1903" y2="1903"/>
  <g transform="matrix(1 0 0 1 263 1933)">
   <path d="M9.24805 0.830078Q10.8691 0.830078 12.2949 0.214844Q13.7207-0.400391 14.8096-1.49414Q15.8984-2.58789 16.5186-4.01367Q17.1387-5.43945 17.1387-7.05078Q17.1387-8.66211 16.5186-10.0879Q15.8984-11.5137 14.8047-12.6074Q13.7109-13.7012 12.2852-14.3164Q10.8594-14.9316 9.23828-14.9316Q7.62695-14.9316 6.20117-14.3164Q4.77539-13.7012 3.69141-12.6074Q2.60742-11.5137 1.9873-10.0879Q1.36719-8.66211 1.36719-7.05078Q1.36719-5.43945 1.9873-4.01367Q2.60742-2.58789 3.69629-1.49414Q4.78516-0.400391 6.21094 0.214844Q7.63672 0.830078 9.24805 0.830078ZM9.24805-0.654297Q7.91992-0.654297 6.7627-1.14746Q5.60547-1.64062 4.73145-2.51953Q3.85742-3.39844 3.36426-4.56055Q2.87109-5.72266 2.87109-7.05078Q2.87109-8.37891 3.35938-9.54102Q3.84766-10.7031 4.72168-11.582Q5.5957-12.4609 6.75293-12.9541Q7.91016-13.4473 9.23828-13.4473Q10.5762-13.4473 11.7334-12.9541Q12.8906-12.4609 13.7695-11.582Q14.6484-10.7031 15.1465-9.54102Q15.6445-8.37891 15.6445-7.05078Q15.6445-5.72266 15.1514-4.56055Q14.6582-3.39844 13.7842-2.51953Q12.9102-1.64062 11.748-1.14746Q10.5859-0.654297 9.24805-0.654297ZM5.83984-7.04102Q5.83984-6.71875 6.04492-6.51855Q6.25-6.31836 6.5918-6.31836L8.50586-6.31836L8.50586-4.39453Q8.50586-4.0625 8.70605-3.85742Q8.90625-3.65234 9.22852-3.65234Q9.56055-3.65234 9.76562-3.85742Q9.9707-4.0625 9.9707-4.39453L9.9707-6.31836L11.8945-6.31836Q12.2266-6.31836 12.4316-6.51855Q12.6367-6.71875 12.6367-7.04102Q12.6367-7.37305 12.4316-7.57812Q12.2266-7.7832 11.8945-7.7832L9.9707-7.7832L9.9707-9.69727Q9.9707-10.0391 9.76562-10.2441Q9.56055-10.4492 9.22852-10.4492Q8.90625-10.4492 8.70605-10.2441Q8.50586-10.0391 8.50586-9.69727L8.50586-7.7832L6.5918-7.7832Q6.25-7.7832 6.04492-7.57812Q5.83984-7.37305 5.83984-7.04102Z"/>
  </g>
  <g transform="matrix(1 0 0 1 281.867 1933)">
   <path d="M11.709 2.91016Q13.75 2.91016 15.5518 2.12891Q17.3535 1.34766 18.7305-0.0292969Q20.1074-1.40625 20.8887-3.20801Q21.6699-5.00977 21.6699-7.05078Q21.6699-9.0918 20.8887-10.8936Q20.1074-12.6953 18.7305-14.0723Q17.3535-15.4492 15.5469-16.2305Q13.7402-17.0117 11.6992-17.0117Q9.6582-17.0117 7.85645-16.2305Q6.05469-15.4492 4.68262-14.0723Q3.31055-12.6953 2.5293-10.8936Q1.74805-9.0918 1.74805-7.05078Q1.74805-5.00977 2.5293-3.20801Q3.31055-1.40625 4.6875-0.0292969Q6.06445 1.34766 7.86621 2.12891Q9.66797 2.91016 11.709 2.91016ZM11.709 1.25Q9.98047 1.25 8.47656 0.605469Q6.97266-0.0390625 5.83496-1.17676Q4.69727-2.31445 4.05762-3.81836Q3.41797-5.32227 3.41797-7.05078Q3.41797-8.7793 4.05762-10.2832Q4.69727-11.7871 5.83008-12.9297Q6.96289-14.0723 8.4668-14.7119Q9.9707-15.3516 11.6992-15.3516Q13.4277-15.3516 14.9316-14.7119Q16.4355-14.0723 17.5781-12.9297Q18.7207-11.7871 19.3652-10.2832Q20.0098-8.7793 20.0098-7.05078Q20.0098-5.32227 19.3701-3.81836Q18.7305-2.31445 17.5928-1.17676Q16.4551-0.0390625 14.9463 0.605469Q13.4375 1.25 11.709 1.25ZM7.39258-7.04102Q7.39258-6.68945 7.62695-6.46484Q7.86133-6.24023 8.23242-6.24023L10.8789-6.24023L10.8789-3.57422Q10.8789-3.21289 11.1035-2.9834Q11.3281-2.75391 11.6797-2.75391Q12.0508-2.75391 12.2852-2.9834Q12.5195-3.21289 12.5195-3.57422L12.5195-6.24023L15.1758-6.24023Q15.5371-6.24023 15.7715-6.46484Q16.0059-6.68945 16.0059-7.04102Q16.0059-7.41211 15.7715-7.6416Q15.5371-7.87109 15.1758-7.87109L12.5195-7.87109L12.5195-10.5176Q12.5195-10.8984 12.2852-11.1279Q12.0508-11.3574 11.6797-11.3574Q11.3281-11.3574 11.1035-11.1279Q10.8789-10.8984 10.8789-10.5176L10.8789-7.87109L8.23242-7.87109Q7.85156-7.87109 7.62207-7.6416Q7.39258-7.41211 7.39258-7.04102Z"/>
  </g>
  <g transform="matrix(1 0 0 1 305.646 1933)">
   <path d="M14.9707 5.66406Q17.0605 5.66406 18.96 5.01465Q20.8594 4.36523 22.4512 3.19336Q24.043 2.02148 25.2197 0.429688Q26.3965-1.16211 27.0459-3.06641Q27.6953-4.9707 27.6953-7.05078Q27.6953-9.14062 27.0459-11.04Q26.3965-12.9395 25.2197-14.5312Q24.043-16.123 22.4512-17.2998Q20.8594-18.4766 18.9551-19.126Q17.0508-19.7754 14.9609-19.7754Q12.8711-19.7754 10.9717-19.126Q9.07227-18.4766 7.48535-17.2998Q5.89844-16.123 4.72168-14.5312Q3.54492-12.9395 2.90039-11.04Q2.25586-9.14062 2.25586-7.05078Q2.25586-4.9707 2.90527-3.06641Q3.55469-1.16211 4.72656 0.429688Q5.89844 2.02148 7.49023 3.19336Q9.08203 4.36523 10.9814 5.01465Q12.8809 5.66406 14.9707 5.66406ZM14.9707 3.84766Q13.1641 3.84766 11.5283 3.2959Q9.89258 2.74414 8.53516 1.74805Q7.17773 0.751953 6.17676-0.610352Q5.17578-1.97266 4.62891-3.6084Q4.08203-5.24414 4.08203-7.05078Q4.08203-8.86719 4.62891-10.5029Q5.17578-12.1387 6.17188-13.501Q7.16797-14.8633 8.52539-15.8594Q9.88281-16.8555 11.5186-17.4023Q13.1543-17.9492 14.9609-17.9492Q16.7773-17.9492 18.4131-17.4023Q20.0488-16.8555 21.4111-15.8594Q22.7734-14.8633 23.7695-13.501Q24.7656-12.1387 25.3174-10.5029Q25.8691-8.86719 25.8691-7.05078Q25.8789-5.24414 25.332-3.6084Q24.7852-1.97266 23.7842-0.610352Q22.7832 0.751953 21.4209 1.74805Q20.0586 2.74414 18.4229 3.2959Q16.7871 3.84766 14.9707 3.84766ZM9.45312-7.04102Q9.45312-6.66016 9.71191-6.41113Q9.9707-6.16211 10.3711-6.16211L14.0625-6.16211L14.0625-2.46094Q14.0625-2.06055 14.3115-1.80664Q14.5605-1.55273 14.9414-1.55273Q15.3516-1.55273 15.6055-1.80664Q15.8594-2.06055 15.8594-2.46094L15.8594-6.16211L19.5605-6.16211Q19.9609-6.16211 20.2148-6.41113Q20.4688-6.66016 20.4688-7.04102Q20.4688-7.45117 20.2148-7.70508Q19.9609-7.95898 19.5605-7.95898L15.8594-7.95898L15.8594-11.6504Q15.8594-12.0605 15.6055-12.3145Q15.3516-12.5684 14.9414-12.5684Q14.5605-12.5684 14.3115-12.3096Q14.0625-12.0508 14.0625-11.6504L14.0625-7.95898L10.3711-7.95898Q9.96094-7.95898 9.70703-7.70508Q9.45312-7.45117 9.45312-7.04102Z"/>
  </g>
  <text style="stroke:none;fill:black;font-family:sans-serif;font-size:13;font-weight:bold;" transform="matrix(1 0 0 1 263 1953)">Design Variations</text>
  <text style="stroke:none;fill:black;font-family:sans-serif;font-size:13;" transform="matrix(1 0 0 1 263 1971)">Symbols are supported in up to nine weights and three scales.</text>
  <text style="stroke:none;fill:black;font-family:sans-serif;font-size:13;" transform="matrix(1 0 0 1 263 1989)">For optimal layout with text and other symbols, vertically align</text>
  <text style="stroke:none;fill:black;font-family:sans-serif;font-size:13;" transform="matrix(1 0 0 1 263 2007)">symbols with the adjacent text.</text>
  <line style="fill:none;stroke:#00AEEF;stroke-width:0.5;opacity:1.0;" x1="776" x2="776" y1="1919" y2="1933"/>
  <g transform="matrix(1 0 0 1 776 1933)">
   <path d="M3.31055 0.15625Q3.70117 0.15625 3.91602-0.00976562Q4.13086-0.175781 4.26758-0.585938L5.52734-4.0332L11.2891-4.0332L12.5488-0.585938Q12.6855-0.175781 12.9004-0.00976562Q13.1152 0.15625 13.4961 0.15625Q13.8867 0.15625 14.1162-0.0585938Q14.3457-0.273438 14.3457-0.644531Q14.3457-0.869141 14.2383-1.17188L9.6582-13.3691Q9.48242-13.8184 9.17969-14.043Q8.87695-14.2676 8.4082-14.2676Q7.5-14.2676 7.17773-13.3789L2.59766-1.16211Q2.49023-0.859375 2.49023-0.634766Q2.49023-0.263672 2.70996-0.0537109Q2.92969 0.15625 3.31055 0.15625ZM6.00586-5.51758L8.37891-12.0898L8.42773-12.0898L10.8008-5.51758Z"/>
  </g>
  <line style="fill:none;stroke:#00AEEF;stroke-width:0.5;opacity:1.0;" x1="793.197" x2="793.197" y1="1919" y2="1933"/>
  <text style="stroke:none;fill:black;font-family:sans-serif;font-size:13;font-weight:bold;" transform="matrix(1 0 0 1 776 1953)">Margins</text>
  <text style="stroke:none;fill:black;font-family:sans-serif;font-size:13;" transform="matrix(1 0 0 1 776 1971)">Leading and trailing margins on the left and right side of each symbol</text>
  <text style="stroke:none;fill:black;font-family:sans-serif;font-size:13;" transform="matrix(1 0 0 1 776 1989)">can be adjusted by modifying the x-location of the margin guidelines.</text>
  <text style="stroke:none;fill:black;font-family:sans-serif;font-size:13;" transform="matrix(1 0 0 1 776 2007)">Modifications are automatically applied proportionally to all</text>
  <text style="stroke:none;fill:black;font-family:sans-serif;font-size:13;" transform="matrix(1 0 0 1 776 2025)">scales and weights.</text>
  <g transform="matrix(1 0 0 1 1289 1933)">
   <path d="M2.8418 1.86523L4.54102 3.57422Q5.18555 4.22852 5.90332 4.17969Q6.62109 4.13086 7.31445 3.35938L18.0078-8.42773L17.041-9.4043L6.42578 2.27539Q6.16211 2.57812 5.89355 2.61719Q5.625 2.65625 5.27344 2.30469L4.10156 1.14258Q3.75 0.791016 3.79395 0.522461Q3.83789 0.253906 4.14062-0.0195312L15.6152-10.8203L14.6387-11.7871L3.04688-0.898438Q2.30469-0.214844 2.25098 0.498047Q2.19727 1.21094 2.8418 1.86523ZM9.25781-16.3281Q8.94531-16.0254 8.90625-15.6348Q8.86719-15.2441 9.04297-14.9512Q9.21875-14.6777 9.55566-14.541Q9.89258-14.4043 10.3809-14.5215Q11.4746-14.7754 12.5977-14.7314Q13.7207-14.6875 14.7949-13.9844L14.209-12.5293Q13.9551-11.9043 14.0674-11.4404Q14.1797-10.9766 14.5801-10.5664L16.875-8.25195Q17.2363-7.88086 17.5781-7.82227Q17.9199-7.76367 18.3398-7.8418L19.4043-8.03711L20.0684-7.36328L20.0293-6.80664Q20-6.43555 20.1221-6.12305Q20.2441-5.81055 20.6055-5.44922L21.3672-4.70703Q21.7285-4.3457 22.1533-4.33105Q22.5781-4.31641 22.9297-4.66797L25.8398-7.58789Q26.1914-7.93945 26.1816-8.35449Q26.1719-8.76953 25.8105-9.13086L25.0391-9.89258Q24.6875-10.2539 24.3799-10.3857Q24.0723-10.5176 23.7109-10.4883L23.1348-10.4395L22.4902-11.0742L22.7344-12.1973Q22.832-12.6172 22.6953-12.9834Q22.5586-13.3496 22.1191-13.7891L19.9219-15.9766Q18.6719-17.2168 17.2607-17.8369Q15.8496-18.457 14.4189-18.4814Q12.9883-18.5059 11.665-17.959Q10.3418-17.4121 9.25781-16.3281ZM10.752-15.957Q11.6602-16.6211 12.7002-16.9043Q13.7402-17.1875 14.8047-17.085Q15.8691-16.9824 16.8701-16.5137Q17.8711-16.0449 18.7012-15.2051L21.1328-12.793Q21.3086-12.6172 21.3525-12.4512Q21.3965-12.2852 21.3379-12.0312L21.0156-10.5469L22.5195-9.0625L23.5059-9.12109Q23.6914-9.13086 23.7891-9.09668Q23.8867-9.0625 24.0332-8.91602L24.6094-8.33984L22.168-5.89844L21.5918-6.47461Q21.4453-6.62109 21.4062-6.71875Q21.3672-6.81641 21.377-7.01172L21.4453-7.98828L19.9512-9.47266L18.4277-9.21875Q18.1836-9.16992 18.042-9.2041Q17.9004-9.23828 17.7148-9.41406L15.7129-11.416Q15.5176-11.5918 15.4932-11.7529Q15.4688-11.9141 15.5859-12.1875L16.4648-14.2773Q15.293-15.3711 13.8281-15.791Q12.3633-16.2109 10.8398-15.7617Q10.7227-15.7324 10.6885-15.8057Q10.6543-15.8789 10.752-15.957Z"/>
  </g>
  <text style="stroke:none;fill:black;font-family:sans-serif;font-size:13;font-weight:bold;" transform="matrix(1 0 0 1 1289 1953)">Exporting</text>
  <text style="stroke:none;fill:black;font-family:sans-serif;font-size:13;" transform="matrix(1 0 0 1 1289 1971)">Symbols should be outlined when exporting to ensure the</text>
  <text style="stroke:none;fill:black;font-family:sans-serif;font-size:13;" transform="matrix(1 0 0 1 1289 1989)">design is preserved when submitting to Xcode.</text>
  <text id="template-version" style="stroke:none;fill:black;font-family:sans-serif;font-size:13;text-anchor:end;" transform="matrix(1 0 0 1 3036 1933)">Template v.3.0</text>
  <text style="stroke:none;fill:black;font-family:sans-serif;font-size:13;text-anchor:end;" transform="matrix(1 0 0 1 3036 1951)">Requires Xcode 13 or greater</text>
  <text id="descriptive-name" style="stroke:none;fill:black;font-family:sans-serif;font-size:13;text-anchor:end;" transform="matrix(1 0 0 1 3036 1969)">Generated from desktopcomputer.and.arrow.down</text>
  <text style="stroke:none;fill:black;font-family:sans-serif;font-size:13;text-anchor:end;" transform="matrix(1 0 0 1 3036 1987)">Typeset at 100 points</text>
  <text style="stroke:none;fill:black;font-family:sans-serif;font-size:13;" transform="matrix(1 0 0 1 263 726)">Small</text>
  <text style="stroke:none;fill:black;font-family:sans-serif;font-size:13;" transform="matrix(1 0 0 1 263 1156)">Medium</text>
  <text style="stroke:none;fill:black;font-family:sans-serif;font-size:13;" transform="matrix(1 0 0 1 263 1586)">Large</text>
 </g>
 <g id="Guides">
  <g id="H-reference" style="fill:#27AAE1;stroke:none;" transform="matrix(1 0 0 1 339 696)">
   <path d="M0.993347 0L3.6377 0L29.3282-67.1326L30.0301-67.1326L30.0301-70.459L28.1227-70.459ZM11.6882-24.4797L46.9818-24.4797L46.2311-26.7288L12.4382-26.7288ZM55.1193 0L57.7637 0L30.6381-70.459L29.4327-70.459L29.4327-67.1326Z"/>
  </g>
  <line id="Baseline-S" style="fill:none;stroke:#27AAE1;opacity:1;stroke-width:0.5;" x1="263" x2="3036" y1="696" y2="696"/>
  <line id="Capline-S" style="fill:none;stroke:#27AAE1;opacity:1;stroke-width:0.5;" x1="263" x2="3036" y1="625.541" y2="625.541"/>
  <g id="H-reference" style="fill:#27AAE1;stroke:none;" transform="matrix(1 0 0 1 339 1126)">
   <path d="M0.993347 0L3.6377 0L29.3282-67.1326L30.0301-67.1326L30.0301-70.459L28.1227-70.459ZM11.6882-24.4797L46.9818-24.4797L46.2311-26.7288L12.4382-26.7288ZM55.1193 0L57.7637 0L30.6381-70.459L29.4327-70.459L29.4327-67.1326Z"/>
  </g>
  <line id="Baseline-M" style="fill:none;stroke:#27AAE1;opacity:1;stroke-width:0.5;" x1="263" x2="3036" y1="1126" y2="1126"/>
  <line id="Capline-M" style="fill:none;stroke:#27AAE1;opacity:1;stroke-width:0.5;" x1="263" x2="3036" y1="1055.54" y2="1055.54"/>
  <g id="H-reference" style="fill:#27AAE1;stroke:none;" transform="matrix(1 0 0 1 339 1556)">
   <path d="M0.993347 0L3.6377 0L29.3282-67.1326L30.0301-67.1326L30.0301-70.459L28.1227-70.459ZM11.6882-24.4797L46.9818-24.4797L46.2311-26.7288L12.4382-26.7288ZM55.1193 0L57.7637 0L30.6381-70.459L29.4327-70.459L29.4327-67.1326Z"/>
  </g>
  <line id="Baseline-L" style="fill:none;stroke:#27AAE1;opacity:1;stroke-width:0.5;" x1="263" x2="3036" y1="1556" y2="1556"/>
  <line id="Capline-L" style="fill:none;stroke:#27AAE1;opacity:1;stroke-width:0.5;" x1="263" x2="3036" y1="1485.54" y2="1485.54"/>
  <line id="left-margin-Regular-M" style="fill:none;stroke:#00AEEF;stroke-width:0.5;opacity:1.0;" x1="1379.19" x2="1379.19" y1="1030.79" y2="1150.12"/>
  <line id="right-margin-Regular-M" style="fill:none;stroke:#00AEEF;stroke-width:0.5;opacity:1.0;" x1="1520.5" x2="1520.5" y1="1030.79" y2="1150.12"/>
 </g>
 <g id="Symbols">
  <g id="Black-L" transform="matrix(1 0 0 1 2835.96 1556)">
   <path class="hierarchical-0:secondary SFSymbolsPreview4D4D4D" d="M36.3281 12.0117L158.545 12.0117Q168.066 12.0117 173.438 6.66504Q178.809 1.31836 178.809-8.20312L178.809-84.9121Q178.809-94.4824 173.438-99.8291Q168.066-105.176 158.545-105.176L116.992-105.176L116.992-86.084L155.908-86.084Q157.715-86.084 158.716-85.083Q159.717-84.082 159.717-82.3242L159.717-24.4141Q159.717-22.0703 157.324-22.0703L37.5-22.0703Q35.1562-22.0703 35.1562-24.4141L35.1562-82.3242Q35.1562-84.082 36.1572-85.083Q37.1582-86.084 38.916-86.084L77.832-86.084L77.832-105.176L36.3281-105.176Q26.7578-105.176 21.4111-99.8291Q16.0645-94.4824 16.0645-84.9121L16.0645-8.20312Q16.0645 1.31836 21.4111 6.66504Q26.7578 12.0117 36.3281 12.0117ZM74.6094 24.3164L120.264 24.3164L120.264 9.17969L74.6094 9.17969ZM74.6094 36.3281L120.264 36.3281Q123.584 36.3281 125.928 33.9111Q128.271 31.4941 128.271 28.3691Q128.271 25.2441 125.928 22.8271Q123.584 20.4102 120.264 20.4102L74.6094 20.4102Q71.2402 20.4102 68.9209 22.8271Q66.6016 25.2441 66.6016 28.3691Q66.6016 31.4941 68.9209 33.9111Q71.2402 36.3281 74.6094 36.3281Z"/>
   <path class="hierarchical-0:secondary hierarchical-1:primary SFSymbolsPreview212121" d="M89.2578-111.67L89.2578-65.4785L89.8926-56.9336L83.5938-64.7949L80.5664-67.627Q79.4922-68.6523 78.0029-69.3359Q76.5137-70.0195 74.9023-70.0195Q71.582-70.0195 69.4336-67.8223Q67.2852-65.625 67.2852-62.2559Q67.2852-58.9355 69.3848-56.7871L89.7461-36.377Q93.3105-32.8125 97.4121-32.8125Q101.562-32.8125 105.127-36.377L125.439-56.7871Q127.588-58.9355 127.588-62.2559Q127.588-65.625 125.439-67.8223Q123.291-70.0195 119.971-70.0195Q118.359-70.0195 116.87-69.3604Q115.381-68.7012 114.307-67.627L111.279-64.7949L104.98-56.9336L105.615-65.4785L105.615-111.67Q105.615-115.137 103.223-117.407Q100.83-119.678 97.4121-119.678Q94.043-119.678 91.6504-117.407Q89.2578-115.137 89.2578-111.67Z"/>
  </g>
  <g id="Heavy-L" transform="matrix(1 0 0 1 2540.98 1556)">
   <path class="hierarchical-0:secondary SFSymbolsPreview4D4D4D" d="M34.5879 10.9283L156.839 10.9283Q165.531 10.9283 170.447 6.03104Q175.362 1.13373 175.362-7.55768L175.362-84.3819Q175.362-93.1107 170.447-98.008Q165.531-102.905 156.839-102.905L113.408-102.905L113.408-86.2801L154.779-86.2801Q156.643-86.2801 157.69-85.2329Q158.737-84.1858 158.737-82.3586L158.737-23.9067Q158.737-21.4249 156.229-21.4249L35.1608-21.4249Q32.6897-21.4249 32.6897-23.9067L32.6897-82.3586Q32.6897-84.1858 33.7368-85.2329Q34.7839-86.2801 36.6112-86.2801L77.9816-86.2801L77.9816-102.905L34.5879-102.905Q25.8591-102.905 20.9618-98.008Q16.0645-93.1107 16.0645-84.3819L16.0645-7.55768Q16.0645 1.13373 20.9618 6.03104Q25.8591 10.9283 34.5879 10.9283ZM73.6641 24.0051L117.763 24.0051L117.763 8.58078L73.6641 8.58078ZM73.5146 34.6573L117.912 34.6573Q120.864 34.6573 122.96 32.5169Q125.056 30.3764 125.056 27.5627Q125.056 24.7368 122.96 22.5906Q120.864 20.4445 117.912 20.4445L73.5146 20.4445Q70.5254 20.4445 68.4483 22.5906Q66.3712 24.7368 66.3712 27.5627Q66.3712 30.3764 68.4483 32.5169Q70.5254 34.6573 73.5146 34.6573Z"/>
   <path class="hierarchical-0:secondary hierarchical-1:primary SFSymbolsPreview212121" d="M88.5551-111.347L88.5551-63.9458L89.1548-54.4907L81.3698-63.7459L78.0655-66.8892Q77.1065-67.7994 75.7957-68.3968Q74.485-68.9941 73.0583-68.9941Q70.1302-68.9941 68.2407-67.0616Q66.3513-65.1291 66.3513-62.175Q66.3513-59.2468 68.232-57.3288L89.1586-36.3541Q92.2157-33.2962 95.6947-33.2962Q99.2233-33.2962 102.269-36.3541L123.158-57.3288Q125.076-59.2468 125.076-62.175Q125.076-65.1291 123.186-67.0616Q121.297-68.9941 118.369-68.9941Q116.942-68.9941 115.631-68.4155Q114.32-67.8368 113.361-66.8892L110.058-63.7459L102.272-54.4907L102.872-63.9458L102.872-111.347Q102.872-114.422 100.768-116.41Q98.6633-118.398 95.6947-118.398Q92.7635-118.398 90.6593-116.41Q88.5551-114.422 88.5551-111.347Z"/>
  </g>
  <g id="Bold-L" transform="matrix(1 0 0 1 2246.19 1556)">
   <path class="hierarchical-0:secondary SFSymbolsPreview4D4D4D" d="M32.6416 9.7168L154.932 9.7168Q162.695 9.7168 167.102 5.32227Q171.509 0.927734 171.509-6.83594L171.509-83.7891Q171.509-91.5771 167.102-95.9717Q162.695-100.366 154.932-100.366L109.399-100.366L109.399-86.499L153.516-86.499Q155.444-86.499 156.543-85.4004Q157.642-84.3018 157.642-82.3975L157.642-23.3398Q157.642-20.7031 155.005-20.7031L32.5439-20.7031Q29.9316-20.7031 29.9316-23.3398L29.9316-82.3975Q29.9316-84.3018 31.0303-85.4004Q32.1289-86.499 34.0332-86.499L78.1494-86.499L78.1494-100.366L32.6416-100.366Q24.8535-100.366 20.459-95.9717Q16.0645-91.5771 16.0645-83.7891L16.0645-6.83594Q16.0645 0.927734 20.459 5.32227Q24.8535 9.7168 32.6416 9.7168ZM72.6074 23.6572L114.966 23.6572L114.966 7.91016L72.6074 7.91016ZM72.29 32.7881L115.283 32.7881Q117.822 32.7881 119.641 30.957Q121.46 29.126 121.46 26.6602Q121.46 24.1699 119.641 22.3267Q117.822 20.4834 115.283 20.4834L72.29 20.4834Q69.7266 20.4834 67.9199 22.3267Q66.1133 24.1699 66.1133 26.6602Q66.1133 29.126 67.9199 30.957Q69.7266 32.7881 72.29 32.7881Z"/>
   <path class="hierarchical-0:secondary hierarchical-1:primary SFSymbolsPreview212121" d="M87.7686-110.986L87.7686-62.2314L88.3301-51.7578L78.8818-62.5732L75.2686-66.0645Q74.4385-66.8457 73.3276-67.3462Q72.2168-67.8467 70.9961-67.8467Q68.5059-67.8467 66.9067-66.2109Q65.3076-64.5752 65.3076-62.085Q65.3076-59.5947 66.9434-57.9346L88.501-36.3281Q90.9912-33.8379 93.7744-33.8379Q96.6064-33.8379 99.0723-36.3281L120.605-57.9346Q122.266-59.5947 122.266-62.085Q122.266-64.5752 120.667-66.2109Q119.067-67.8467 116.577-67.8467Q115.356-67.8467 114.246-67.3584Q113.135-66.8701 112.305-66.0645L108.691-62.5732L99.2432-51.7578L99.8047-62.2314L99.8047-110.986Q99.8047-113.623 98.0225-115.295Q96.2402-116.968 93.7744-116.968Q91.333-116.968 89.5508-115.295Q87.7686-113.623 87.7686-110.986Z"/>
  </g>
  <g id="Semibold-L" transform="matrix(1 0 0 1 1950.81 1556)">
   <path class="hierarchical-0:secondary SFSymbolsPreview4D4D4D" d="M31.2996 8.88138L153.616 8.88138Q160.74 8.88138 164.796 4.8336Q168.851 0.785828 168.851-6.3385L168.851-83.3801Q168.851-90.5197 164.796-94.5675Q160.74-98.6153 153.616-98.6153L106.635-98.6153L106.635-86.6501L152.644-86.6501Q154.618-86.6501 155.752-85.516Q156.886-84.3819 156.886-82.4242L156.886-22.9485Q156.886-20.2057 154.16-20.2057L30.7396-20.2057Q28.0296-20.2057 28.0296-22.9485L28.0296-82.4242Q28.0296-84.3819 29.1637-85.516Q30.2979-86.6501 32.2556-86.6501L78.2646-86.6501L78.2646-98.6153L31.2996-98.6153Q24.16-98.6153 20.1122-94.5675Q16.0645-90.5197 16.0645-83.3801L16.0645-6.3385Q16.0645 0.785828 20.1122 4.8336Q24.16 8.88138 31.2996 8.88138ZM71.8788 23.4169L113.037 23.4169L113.037 7.44781L71.8788 7.44781ZM71.4455 31.4995L113.47 31.4995Q115.725 31.4995 117.353 29.8817Q118.98 28.2639 118.98 26.0384Q118.98 23.7785 117.353 22.1443Q115.725 20.5101 113.47 20.5101L71.4455 20.5101Q69.1757 20.5101 67.5556 22.1443Q65.9355 23.7785 65.9355 26.0384Q65.9355 28.2639 67.5556 29.8817Q69.1757 31.4995 71.4455 31.4995Z"/>
   <path class="hierarchical-0:secondary hierarchical-1:primary SFSymbolsPreview212121" d="M87.2261-110.738L87.2261-61.0497L87.7617-49.8741L77.1667-61.7645L73.3398-65.4961Q72.599-66.188 71.6259-66.6218Q70.6528-67.0555 69.574-67.0555Q67.3859-67.0555 65.9866-65.6242Q64.5874-64.193 64.5874-62.0224Q64.5874-59.8351 66.0545-58.3519L88.0478-36.3106Q90.1466-34.211 92.45-34.211Q94.8021-34.211 96.8681-36.3106L118.846-58.3519Q120.329-59.8351 120.329-62.0224Q120.329-64.193 118.929-65.6242Q117.53-67.0555 115.342-67.0555Q114.263-67.0555 113.29-66.6294Q112.317-66.2033 111.576-65.4961L107.749-61.7645L97.155-49.8741L97.6898-61.0497L97.6898-110.738Q97.6898-113.072 96.1296-114.527Q94.5694-115.981 92.45-115.981Q90.3465-115.981 88.7863-114.527Q87.2261-113.072 87.2261-110.738Z"/>
  </g>
  <g id="Medium-L" transform="matrix(1 0 0 1 1655.1 1556)">
   <path class="hierarchical-0:secondary SFSymbolsPreview4D4D4D" d="M30.2818 8.24814L152.619 8.24814Q159.258 8.24814 163.047 4.46281Q166.837 0.67749 166.837-5.96085L166.837-83.0704Q166.837-89.7179 163.047-93.5028Q159.258-97.2878 152.619-97.2878L104.54-97.2878L104.54-86.7645L151.984-86.7645Q153.991-86.7645 155.152-85.6033Q156.313-84.4421 156.313-82.444L156.313-22.6524Q156.313-19.828 153.52-19.828L29.3716-19.828Q26.5877-19.828 26.5877-22.6524L26.5877-82.444Q26.5877-84.4421 27.7489-85.6033Q28.9101-86.7645 30.9082-86.7645L78.3524-86.7645L78.3524-97.2878L30.2818-97.2878Q23.6351-97.2878 19.8498-93.5028Q16.0645-89.7179 16.0645-83.0704L16.0645-5.96085Q16.0645 0.67749 19.8498 4.46281Q23.6351 8.24814 30.2818 8.24814ZM71.3264 23.2353L111.575 23.2353L111.575 7.09763L71.3264 7.09763ZM70.8054 30.5222L112.096 30.5222Q114.135 30.5222 115.618 29.0661Q117.101 27.61 117.101 25.5661Q117.101 23.4825 115.618 22.0062Q114.135 20.5299 112.096 20.5299L70.8054 20.5299Q68.7576 20.5299 67.2791 22.0062Q65.8005 23.4825 65.8005 25.5661Q65.8005 27.61 67.2791 29.0661Q68.7576 30.5222 70.8054 30.5222Z"/>
   <path class="hierarchical-0:secondary hierarchical-1:primary SFSymbolsPreview212121" d="M86.8156-110.549L86.8156-60.1532L87.3299-48.4451L75.8659-61.1511L71.8781-65.0642Q71.2044-65.6891 70.3354-66.0725Q69.4664-66.4558 68.4959-66.4558Q66.5367-66.4558 65.2893-65.1794Q64.0419-63.903 64.0419-61.9759Q64.0419-60.0166 65.3809-58.6693L87.7045-36.2968Q89.5065-34.494 91.4459-34.494Q93.4341-34.494 95.1973-36.2968L117.512-58.6693Q118.859-60.0166 118.859-61.9759Q118.859-63.903 117.612-65.1794Q116.364-66.4558 114.405-66.4558Q113.435-66.4558 112.566-66.077Q111.697-65.6982 111.024-65.0642L107.035-61.1511L95.5711-48.4451L96.0861-60.1532L96.0861-110.549Q96.0861-112.654 94.6945-113.944Q93.3029-115.234 91.4459-115.234Q89.5988-115.234 88.2072-113.944Q86.8156-112.654 86.8156-110.549Z"/>
  </g>
  <g id="Regular-L" transform="matrix(1 0 0 1 1359.71 1556)">
   <path class="hierarchical-0:secondary SFSymbolsPreview4D4D4D" d="M28.9551 7.42188L151.318 7.42188Q157.324 7.42188 160.767 3.97949Q164.209 0.537109 164.209-5.46875L164.209-82.666Q164.209-88.6719 160.767-92.1143Q157.324-95.5566 151.318-95.5566L101.807-95.5566L101.807-86.9141L151.123-86.9141Q153.174-86.9141 154.37-85.7178Q155.566-84.5215 155.566-82.4707L155.566-22.2656Q155.566-19.3359 152.686-19.3359L27.5879-19.3359Q24.707-19.3359 24.707-22.2656L24.707-82.4707Q24.707-84.5215 25.9033-85.7178Q27.0996-86.9141 29.1504-86.9141L78.4668-86.9141L78.4668-95.5566L28.9551-95.5566Q22.9492-95.5566 19.5068-92.1143Q16.0645-88.6719 16.0645-82.666L16.0645-5.46875Q16.0645 0.537109 19.5068 3.97949Q22.9492 7.42188 28.9551 7.42188ZM70.6055 22.998L109.668 22.998L109.668 6.64062L70.6055 6.64062ZM69.9707 29.248L110.303 29.248Q112.061 29.248 113.354 28.0029Q114.648 26.7578 114.648 24.9512Q114.648 23.0957 113.354 21.8262Q112.061 20.5566 110.303 20.5566L69.9707 20.5566Q68.2129 20.5566 66.9189 21.8262Q65.625 23.0957 65.625 24.9512Q65.625 26.7578 66.9189 28.0029Q68.2129 29.248 69.9707 29.248Z"/>
   <path class="hierarchical-0:secondary hierarchical-1:primary SFSymbolsPreview212121" d="M86.2793-110.303L86.2793-58.9844L86.7676-46.582L74.1699-60.3516L69.9707-64.502Q69.3848-65.0391 68.6523-65.3564Q67.9199-65.6738 67.0898-65.6738Q65.4297-65.6738 64.3799-64.5996Q63.3301-63.5254 63.3301-61.9141Q63.3301-60.2539 64.502-59.082L87.2559-36.2793Q88.6719-34.8633 90.1367-34.8633Q91.6504-34.8633 93.0176-36.2793L115.771-59.082Q116.943-60.2539 116.943-61.9141Q116.943-63.5254 115.894-64.5996Q114.844-65.6738 113.184-65.6738Q112.354-65.6738 111.621-65.3564Q110.889-65.0391 110.303-64.502L106.104-60.3516L93.5059-46.582L93.9941-58.9844L93.9941-110.303Q93.9941-112.109 92.8223-113.184Q91.6504-114.258 90.1367-114.258Q88.623-114.258 87.4512-113.184Q86.2793-112.109 86.2793-110.303Z"/>
  </g>
  <g id="Light-L" transform="matrix(1 0 0 1 1064.38 1556)">
   <path class="hierarchical-0:secondary SFSymbolsPreview4D4D4D" d="M26.7754 6.55899L150.728 6.55899Q155.674 6.55899 158.556 3.67661Q161.439 0.79422 161.439-4.16718L161.439-83.5289Q161.439-88.4903 158.556-91.3651Q155.674-94.2398 150.728-94.2398L98.4612-94.2398L98.4612-87.6251L150.503-87.6251Q152.493-87.6251 153.659-86.467Q154.825-85.3088 154.825-83.3488L154.825-22.084Q154.825-18.9117 151.701-18.9117L25.8018-18.9117Q22.6784-18.9117 22.6784-22.084L22.6784-83.3488Q22.6784-85.3088 23.8445-86.467Q25.0107-87.6251 26.9859-87.6251L79.0421-87.6251L79.0421-94.2398L26.7754-94.2398Q21.8292-94.2398 18.9468-91.3651Q16.0645-88.4903 16.0645-83.5289L16.0645-4.16718Q16.0645 0.79422 18.9468 3.67661Q21.8292 6.55899 26.7754 6.55899ZM69.7578 22.8615L107.745 22.8615L107.745 5.76248L69.7578 5.76248ZM68.7599 27.6436L108.744 27.6436Q110.108 27.6436 111.099 26.7014Q112.09 25.7591 112.09 24.3607Q112.09 22.9294 111.099 21.9624Q110.108 20.9953 108.744 20.9953L68.7599 20.9953Q67.3958 20.9953 66.4043 21.9624Q65.4129 22.9294 65.4129 24.3607Q65.4129 25.7591 66.4043 26.7014Q67.3958 27.6436 68.7599 27.6436Z"/>
   <path class="hierarchical-0:secondary hierarchical-1:primary SFSymbolsPreview212121" d="M85.7346-109.486L85.7346-56.4262L86.0413-45.2049L73.0949-59.0042L68.1244-63.942Q67.6743-64.373 67.1009-64.6149Q66.5276-64.8567 65.9088-64.8567Q64.5973-64.8567 63.7745-64.0095Q62.9517-63.1622 62.9517-61.8988Q62.9517-60.6171 63.8664-59.7176L86.5593-36.9904Q87.6274-35.923 88.7444-35.923Q89.9094-35.923 90.9439-36.9904L113.638-59.7176Q114.552-60.6171 114.552-61.8988Q114.552-63.1622 113.729-64.0095Q112.907-64.8567 111.594-64.8567Q110.961-64.8567 110.395-64.6149Q109.829-64.373 109.38-63.942L104.408-59.0042L91.4627-45.2049L91.7694-56.4262L91.7694-109.486Q91.7694-110.868 90.8546-111.715Q89.9399-112.563 88.7444-112.563Q87.5481-112.563 86.6413-111.715Q85.7346-110.868 85.7346-109.486Z"/>
  </g>
  <g id="Thin-L" transform="matrix(1 0 0 1 769.502 1556)">
   <path class="hierarchical-0:secondary SFSymbolsPreview4D4D4D" d="M23.893 5.4184L149.947 5.4184Q153.492 5.4184 155.634 3.27644Q157.776 1.13449 157.776-2.44522L157.776-84.6695Q157.776-88.25 155.634-90.374Q153.492-92.498 149.947-92.498L94.0376-92.498L94.0376-88.5666L149.682-88.5666Q151.591-88.5666 152.718-87.458Q153.844-86.3495 153.844-84.51L153.844-21.8437Q153.844-18.3517 150.401-18.3517L23.4398-18.3517Q19.9966-18.3517 19.9966-21.8437L19.9966-84.51Q19.9966-86.3495 21.1224-87.458Q22.2481-88.5666 24.1234-88.5666L79.8027-88.5666L79.8027-92.498L23.893-92.498Q20.3476-92.498 18.206-90.374Q16.0645-88.25 16.0645-84.6695L16.0645-2.44522Q16.0645 1.13449 18.206 3.27644Q20.3476 5.4184 23.893 5.4184ZM68.6371 22.6814L105.203 22.6814L105.203 4.60129L68.6371 4.60129ZM67.1585 25.5219L106.682 25.5219Q107.526 25.5219 108.117 24.9798Q108.707 24.4377 108.707 23.5802Q108.707 22.7089 108.117 22.1424Q107.526 21.5759 106.682 21.5759L67.1585 21.5759Q66.3147 21.5759 65.7238 22.1424Q65.1329 22.7089 65.1329 23.5802Q65.1329 24.4377 65.7238 24.9798Q66.3147 25.5219 67.1585 25.5219Z"/>
   <path class="hierarchical-0:secondary hierarchical-1:primary SFSymbolsPreview212121" d="M85.0136-108.405L85.0136-53.0434L85.08-43.383L71.6736-57.2227L65.6815-63.2011Q65.4121-63.4926 65.049-63.6341Q64.6858-63.7756 64.3478-63.7756Q63.4964-63.7756 62.9738-63.2286Q62.4512-62.6816 62.4512-61.879Q62.4512-61.0977 63.0257-60.5583L85.6384-37.9318Q86.2465-37.3238 86.9026-37.3238Q87.6076-37.3238 88.2011-37.9318L110.815-60.5583Q111.389-61.0977 111.389-61.879Q111.389-62.6816 110.867-63.2286Q110.344-63.7756 109.492-63.7756Q109.119-63.7756 108.774-63.6341Q108.428-63.4926 108.158-63.2011L102.166-57.2227L88.7596-43.383L88.8268-53.0434L88.8268-108.405Q88.8268-109.227 88.2523-109.774Q87.6778-110.32 86.9026-110.32Q86.1267-110.32 85.5701-109.774Q85.0136-109.227 85.0136-108.405Z"/>
  </g>
  <g id="Ultralight-L" transform="matrix(1 0 0 1 473.729 1556)">
   <path class="hierarchical-0:secondary SFSymbolsPreview4D4D4D" d="M22.4159 4.83322L149.548 4.83322Q152.374 4.83322 154.137 3.07121Q155.899 1.3092 155.899-1.56326L155.899-85.2547Q155.899-88.1271 154.137-89.8666Q152.374-91.6061 149.548-91.6061L91.7709-91.6061L91.7709-89.048L149.261-89.048Q151.131-89.048 152.236-87.9654Q153.342-86.8828 153.342-85.1044L153.342-21.7209Q153.342-18.0641 149.734-18.0641L22.2298-18.0641Q18.6218-18.0641 18.6218-21.7209L18.6218-85.1044Q18.6218-86.8828 19.7273-87.9654Q20.8328-89.048 22.657-89.048L80.1926-89.048L80.1926-91.6061L22.4159-91.6061Q19.5892-91.6061 17.8268-89.8666Q16.0645-88.1271 16.0645-85.2547L16.0645-1.56326Q16.0645 1.3092 17.8268 3.07121Q19.5892 4.83322 22.4159 4.83322ZM68.0626 22.5891L103.901 22.5891L103.901 4.00696L68.0626 4.00696ZM66.3376 24.4347L105.625 24.4347Q106.203 24.4347 106.588 24.0978Q106.974 23.761 106.974 23.1804Q106.974 22.596 106.588 22.2347Q106.203 21.8735 105.625 21.8735L66.3376 21.8735Q65.7608 21.8735 65.3751 22.2347Q64.9895 22.596 64.9895 23.1804Q64.9895 23.761 65.3751 24.0978Q65.7608 24.4347 66.3376 24.4347Z"/>
   <path class="hierarchical-0:secondary hierarchical-1:primary SFSymbolsPreview212121" d="M84.6443-107.851L84.6443-51.31L84.5879-42.45L70.9457-56.3103L64.431-62.822Q64.2532-63.0409 63.9977-63.1313Q63.7421-63.2217 63.5475-63.2217Q62.9318-63.2217 62.5633-62.8288Q62.1948-62.4359 62.1948-61.8683Q62.1948-61.3434 62.5946-60.9894L85.1669-38.4132Q85.5385-38.0417 85.9589-38.0417Q86.4281-38.0417 86.7966-38.4132L109.369-60.9894Q109.769-61.3434 109.769-61.8683Q109.769-62.4359 109.4-62.8288Q109.032-63.2217 108.415-63.2217Q108.176-63.2217 107.943-63.1313Q107.71-63.0409 107.533-62.822L101.018-56.3103L87.3756-42.45L87.3192-51.31L87.3192-107.851Q87.3192-108.385 86.919-108.779Q86.5189-109.172 85.9589-109.172Q85.3989-109.172 85.0216-108.779Q84.6443-108.385 84.6443-107.851Z"/>
  </g>
  <g id="Black-M" transform="matrix(1 0 0 1 2856.89 1126)">
   <path class="hierarchical-0:secondary SFSymbolsPreview4D4D4D" d="M28.9062 2.05078L124.121 2.05078Q131.885 2.05078 136.23-2.29492Q140.576-6.64062 140.576-14.4043L140.576-74.5117Q140.576-82.2266 136.23-86.5723Q131.885-90.918 124.121-90.918L92.627-90.918L92.627-74.7559L121.631-74.7559Q122.9-74.7559 123.633-74.0234Q124.365-73.291 124.365-71.9727L124.365-27.2461Q124.365-25.4395 122.559-25.4395L30.4688-25.4395Q28.6621-25.4395 28.6621-27.2461L28.6621-71.9727Q28.6621-73.291 29.3945-74.0234Q30.127-74.7559 31.3965-74.7559L60.4004-74.7559L60.4004-90.918L28.9062-90.918Q21.1426-90.918 16.7969-86.5723Q12.4512-82.2266 12.4512-74.5117L12.4512-14.4043Q12.4512-6.64062 16.7969-2.29492Q21.1426 2.05078 28.9062 2.05078ZM58.3496 11.1328L94.6777 11.1328L94.6777-0.585938L58.3496-0.585938ZM58.3496 21.1426L94.6777 21.1426Q97.4609 21.1426 99.3896 19.1406Q101.318 17.1387 101.318 14.5508Q101.318 12.0117 99.3896 10.0098Q97.4609 8.00781 94.6777 8.00781L58.3496 8.00781Q55.5664 8.00781 53.6377 10.0098Q51.709 12.0117 51.709 14.5508Q51.709 17.1387 53.6377 19.1406Q55.5664 21.1426 58.3496 21.1426Z"/>
   <path class="hierarchical-0:secondary hierarchical-1:primary SFSymbolsPreview212121" d="M69.5801-94.4824L69.5801-59.1309L70.0684-53.6621L66.3086-58.5449L63.9648-60.791Q63.0859-61.6211 61.8164-62.207Q60.5469-62.793 59.2285-62.793Q56.4453-62.793 54.6143-60.9375Q52.7832-59.082 52.7832-56.25Q52.7832-53.4668 54.541-51.709L69.7754-36.377Q72.9004-33.3008 76.5137-33.3008Q80.127-33.3008 83.2031-36.377L98.4863-51.709Q100.244-53.4668 100.244-56.25Q100.244-59.082 98.4131-60.9375Q96.582-62.793 93.7988-62.793Q92.4805-62.793 91.2354-62.2314Q89.9902-61.6699 89.0625-60.791L86.7188-58.5449L82.959-53.6621L83.3984-59.1309L83.3984-94.4824Q83.3984-97.3145 81.4209-99.2676Q79.4434-101.221 76.5137-101.221Q73.584-101.221 71.582-99.2676Q69.5801-97.3145 69.5801-94.4824Z"/>
  </g>
  <g id="Heavy-M" transform="matrix(1 0 0 1 2561.56 1126)">
   <path class="hierarchical-0:secondary SFSymbolsPreview4D4D4D" d="M27.6733 1.17493L122.577 1.17493Q129.752 1.17493 133.781-2.85378Q137.811-6.88248 137.811-14.0587L137.811-73.7968Q137.811-80.9357 133.781-84.9586Q129.752-88.9816 122.577-88.9816L89.8376-88.9816L89.8376-74.7787L120.651-74.7787Q122.002-74.7787 122.786-74.0002Q123.57-73.2216 123.57-71.8231L123.57-26.7853Q123.57-24.9092 121.683-24.9092L28.5675-24.9092Q26.6914-24.9092 26.6914-26.7853L26.6914-71.8231Q26.6914-73.2216 27.4757-74.0002Q28.26-74.7787 29.6104-74.7787L60.4233-74.7787L60.4233-88.9816L27.6733-88.9816Q20.5086-88.9816 16.4799-84.9586Q12.4512-80.9357 12.4512-73.7968L12.4512-14.0587Q12.4512-6.88248 16.4799-2.85378Q20.5086 1.17493 27.6733 1.17493ZM57.6118 10.8559L92.6491 10.8559L92.6491-0.989532L57.6118-0.989532ZM57.5432 19.8517L92.7185 19.8517Q95.2255 19.8517 96.9696 18.0515Q98.7137 16.2514 98.7137 13.8824Q98.7137 11.5509 96.9696 9.75037Q95.2255 7.94983 92.7185 7.94983L57.5432 7.94983Q55.0362 7.94983 53.286 9.75037Q51.5358 11.5509 51.5358 13.8824Q51.5358 16.2514 53.286 18.0515Q55.0362 19.8517 57.5432 19.8517Z"/>
   <path class="hierarchical-0:secondary hierarchical-1:primary SFSymbolsPreview212121" d="M69.0041-94.3443L69.0041-58.1741L69.4923-51.5648L64.3723-57.8186L61.9133-60.1799Q61.1267-60.9299 59.9957-61.4464Q58.8646-61.9629 57.6729-61.9629Q55.201-61.9629 53.5831-60.3207Q51.9653-58.6784 51.9653-56.1806Q51.9653-53.6858 53.5614-52.1011L69.3604-36.2038Q72.0589-33.5426 75.1305-33.5426Q78.2135-33.5426 80.8517-36.2038L96.7003-52.1011Q98.2964-53.6858 98.2964-56.1806Q98.2964-58.6784 96.6728-60.3207Q95.0493-61.9629 92.5774-61.9629Q91.3857-61.9629 90.279-61.4651Q89.1724-60.9673 88.3362-60.1799L85.8887-57.8186L80.7579-51.5648L81.2088-58.1741L81.2088-94.3443Q81.2088-96.888 79.4502-98.605Q77.6917-100.322 75.1305-100.322Q72.57-100.322 70.787-98.605Q69.0041-96.888 69.0041-94.3443Z"/>
  </g>
  <g id="Bold-M" transform="matrix(1 0 0 1 2266.39 1126)">
   <path class="hierarchical-0:secondary SFSymbolsPreview4D4D4D" d="M26.2939 0.195312L120.85 0.195312Q127.368 0.195312 131.042-3.479Q134.717-7.15332 134.717-13.6719L134.717-72.998Q134.717-79.4922 131.042-83.1543Q127.368-86.8164 120.85-86.8164L86.7188-86.8164L86.7188-74.8047L119.556-74.8047Q120.996-74.8047 121.838-73.9746Q122.681-73.1445 122.681-71.6553L122.681-26.2695Q122.681-24.3164 120.703-24.3164L26.4404-24.3164Q24.4873-24.3164 24.4873-26.2695L24.4873-71.6553Q24.4873-73.1445 25.3296-73.9746Q26.1719-74.8047 27.6123-74.8047L60.4492-74.8047L60.4492-86.8164L26.2939-86.8164Q19.7998-86.8164 16.1255-83.1543Q12.4512-79.4922 12.4512-72.998L12.4512-13.6719Q12.4512-7.15332 16.1255-3.479Q19.7998 0.195312 26.2939 0.195312ZM56.7871 10.5469L90.3809 10.5469L90.3809-1.44043L56.7871-1.44043ZM56.6406 18.4082L90.5273 18.4082Q92.7246 18.4082 94.2627 16.8335Q95.8008 15.2588 95.8008 13.1348Q95.8008 11.0352 94.2627 9.46045Q92.7246 7.88574 90.5273 7.88574L56.6406 7.88574Q54.4434 7.88574 52.8931 9.46045Q51.3428 11.0352 51.3428 13.1348Q51.3428 15.2588 52.8931 16.8335Q54.4434 18.4082 56.6406 18.4082Z"/>
   <path class="hierarchical-0:secondary hierarchical-1:primary SFSymbolsPreview212121" d="M68.3594-94.1895L68.3594-57.1045L68.8477-49.2188L62.207-57.0068L59.6191-59.4971Q58.9355-60.1562 57.959-60.5957Q56.9824-61.0352 55.9326-61.0352Q53.8086-61.0352 52.4292-59.6313Q51.0498-58.2275 51.0498-56.1035Q51.0498-53.9307 52.4658-52.5391L68.8965-36.0107Q71.1182-33.8135 73.584-33.8135Q76.0742-33.8135 78.2227-36.0107L94.7021-52.5391Q96.1182-53.9307 96.1182-56.1035Q96.1182-58.2275 94.7266-59.6313Q93.335-61.0352 91.2109-61.0352Q90.1611-61.0352 89.209-60.6079Q88.2568-60.1807 87.5244-59.4971L84.9609-57.0068L78.2959-49.2188L78.7598-57.1045L78.7598-94.1895Q78.7598-96.4111 77.2461-97.8638Q75.7324-99.3164 73.584-99.3164Q71.4355-99.3164 69.8975-97.8638Q68.3594-96.4111 68.3594-94.1895Z"/>
  </g>
  <g id="Semibold-M" transform="matrix(1 0 0 1 1970.75 1126)">
   <path class="hierarchical-0:secondary SFSymbolsPreview4D4D4D" d="M25.3433-0.479889L119.659-0.479889Q125.724-0.479889 129.154-3.91006Q132.584-7.34024 132.584-13.4056L132.584-72.4472Q132.584-78.4966 129.154-81.9099Q125.724-85.3233 119.659-85.3233L84.568-85.3233L84.568-74.8222L118.8-74.8222Q120.303-74.8222 121.185-73.9567Q122.067-73.0911 122.067-71.5401L122.067-25.914Q122.067-23.9075 120.028-23.9075L24.9741-23.9075Q22.9675-23.9075 22.9675-25.914L22.9675-71.5401Q22.9675-73.0911 23.8499-73.9567Q24.7322-74.8222 26.2344-74.8222L60.4668-74.8222L60.4668-85.3233L25.3433-85.3233Q19.3108-85.3233 15.881-81.9099Q12.4512-78.4966 12.4512-72.4472L12.4512-13.4056Q12.4512-7.34024 15.881-3.91006Q19.3108-0.479889 25.3433-0.479889ZM56.2187 10.3333L88.8168 10.3333L88.8168-1.75171L56.2187-1.75171ZM56.0188 17.4126L89.0167 17.4126Q91.0004 17.4126 92.3962 15.9935Q93.792 14.5744 93.792 12.619Q93.792 10.6796 92.3962 9.26056Q91.0004 7.84149 89.0167 7.84149L56.0188 7.84149Q54.0344 7.84149 52.6218 9.26056Q51.2093 10.6796 51.2093 12.619Q51.2093 14.5744 52.6218 15.9935Q54.0344 17.4126 56.0188 17.4126Z"/>
   <path class="hierarchical-0:secondary hierarchical-1:primary SFSymbolsPreview212121" d="M67.9153-94.0826L67.9153-56.3667L68.4036-47.6013L60.714-56.4468L58.0376-59.0263Q57.4249-59.623 56.5548-60.009Q55.6847-60.3951 54.7325-60.3951Q52.8488-60.3951 51.6338-59.1557Q50.4189-57.9163 50.4189-56.0501Q50.4189-54.0993 51.7105-52.8412L68.5768-35.8772Q70.4697-34.0004 72.5174-34.0004Q74.5987-34.0004 76.4099-35.8772L93.3243-52.8412Q94.6159-54.0993 94.6159-56.0501Q94.6159-57.9163 93.3846-59.1557Q92.1532-60.3951 90.2687-60.3951Q89.3166-60.3951 88.4712-60.0166Q87.6259-59.6382 86.9644-59.0263L84.3208-56.4468L76.5984-47.6013L77.0714-56.3667L77.0714-94.0826Q77.0714-96.0823 75.7263-97.3526Q74.3813-98.6229 72.5174-98.6229Q70.6535-98.6229 69.2844-97.3526Q67.9153-96.0823 67.9153-94.0826Z"/>
  </g>
  <g id="Medium-M" transform="matrix(1 0 0 1 1674.85 1126)">
   <path class="hierarchical-0:secondary SFSymbolsPreview4D4D4D" d="M24.6223-0.992584L118.756-0.992584Q124.477-0.992584 127.722-4.23698Q130.967-7.48138 130.967-13.2034L130.967-72.0291Q130.967-77.742 127.722-80.9666Q124.477-84.1911 118.756-84.1911L82.9376-84.1911L82.9376-74.836L118.227-74.836Q119.778-74.836 120.69-73.9433Q121.603-73.0507 121.603-71.4523L121.603-25.6447Q121.603-23.5977 119.515-23.5977L23.8625-23.5977Q21.8155-23.5977 21.8155-25.6447L21.8155-71.4523Q21.8155-73.0507 22.728-73.9433Q23.6404-74.836 25.1907-74.836L60.4805-74.836L60.4805-84.1911L24.6223-84.1911Q18.9407-84.1911 15.696-80.9666Q12.4512-77.742 12.4512-72.0291L12.4512-13.2034Q12.4512-7.48138 15.696-4.23698Q18.9407-0.992584 24.6223-0.992584ZM55.7869 10.1715L87.6305 10.1715L87.6305-1.98746L55.7869-1.98746ZM55.5466 16.658L87.8708 16.658Q89.6935 16.658 90.9813 15.3568Q92.2691 14.0556 92.2691 12.2284Q92.2691 10.4103 90.9813 9.10912Q89.6935 7.80792 87.8708 7.80792L55.5466 7.80792Q53.7247 7.80792 52.4166 9.10912Q51.1086 10.4103 51.1086 12.2284Q51.1086 14.0556 52.4166 15.3568Q53.7247 16.658 55.5466 16.658Z"/>
   <path class="hierarchical-0:secondary hierarchical-1:primary SFSymbolsPreview212121" d="M67.5781-94.0018L67.5781-55.8075L68.0664-46.3753L59.5818-56.0226L56.8375-58.6693Q56.279-59.2186 55.4901-59.5642Q54.7012-59.9098 53.8231-59.9098Q52.121-59.9098 51.0307-58.7952Q49.9405-57.6805 49.9405-56.0097Q49.9405-54.2274 51.1375-53.0701L68.3342-35.7765Q69.9776-34.1415 71.7087-34.1415Q73.4802-34.1415 75.0351-35.7765L92.2806-53.0701Q93.4776-54.2274 93.4776-56.0097Q93.4776-57.6805 92.3672-58.7952Q91.2567-59.9098 89.5546-59.9098Q88.6765-59.9098 87.912-59.5688Q87.1475-59.2278 86.5402-58.6693L83.8356-56.0226L75.3113-46.3753L75.7912-55.8075L75.7912-94.0018Q75.7912-95.8328 74.5743-96.9654Q73.3574-98.098 71.7087-98.098Q70.0607-98.098 68.8194-96.9654Q67.5781-95.8328 67.5781-94.0018Z"/>
  </g>
  <g id="Regular-M" transform="matrix(1 0 0 1 1379.19 1126)">
   <path class="hierarchical-0:secondary SFSymbolsPreview4D4D4D" d="M23.6816-1.66016L117.578-1.66016Q122.852-1.66016 125.854-4.66309Q128.857-7.66602 128.857-12.9395L128.857-71.4844Q128.857-76.7578 125.854-79.7363Q122.852-82.7148 117.578-82.7148L80.8105-82.7148L80.8105-74.8535L117.48-74.8535Q119.092-74.8535 120.044-73.9258Q120.996-72.998 120.996-71.3379L120.996-25.293Q120.996-23.1934 118.848-23.1934L22.4121-23.1934Q20.3125-23.1934 20.3125-25.293L20.3125-71.3379Q20.3125-72.998 21.2646-73.9258Q22.2168-74.8535 23.8281-74.8535L60.498-74.8535L60.498-82.7148L23.6816-82.7148Q18.457-82.7148 15.4541-79.7363Q12.4512-76.7578 12.4512-71.4844L12.4512-12.9395Q12.4512-7.66602 15.4541-4.66309Q18.457-1.66016 23.6816-1.66016ZM55.2246 9.96094L86.084 9.96094L86.084-2.29492L55.2246-2.29492ZM54.9316 15.6738L86.377 15.6738Q87.9883 15.6738 89.1357 14.5264Q90.2832 13.3789 90.2832 11.7188Q90.2832 10.0586 89.1357 8.91113Q87.9883 7.76367 86.377 7.76367L54.9316 7.76367Q53.3203 7.76367 52.1484 8.91113Q50.9766 10.0586 50.9766 11.7188Q50.9766 13.3789 52.1484 14.5264Q53.3203 15.6738 54.9316 15.6738Z"/>
   <path class="hierarchical-0:secondary hierarchical-1:primary SFSymbolsPreview212121" d="M67.1387-93.8965L67.1387-55.0781L67.627-44.7754L58.1055-55.4688L55.2734-58.2031Q54.7852-58.6914 54.1016-58.9844Q53.418-59.2773 52.6367-59.2773Q51.1719-59.2773 50.2441-58.3252Q49.3164-57.373 49.3164-55.957Q49.3164-54.3945 50.3906-53.3691L68.0176-35.6445Q69.3359-34.3262 70.6543-34.3262Q72.0215-34.3262 73.2422-35.6445L90.918-53.3691Q91.9922-54.3945 91.9922-55.957Q91.9922-57.373 91.04-58.3252Q90.0879-59.2773 88.623-59.2773Q87.8418-59.2773 87.1826-58.9844Q86.5234-58.6914 85.9863-58.2031L83.2031-55.4688L73.6328-44.7754L74.1211-55.0781L74.1211-93.8965Q74.1211-95.5078 73.0713-96.46Q72.0215-97.4121 70.6543-97.4121Q69.2871-97.4121 68.2129-96.46Q67.1387-95.5078 67.1387-93.8965Z"/>
  </g>
  <g id="Light-M" transform="matrix(1 0 0 1 1083.73 1126)">
   <path class="hierarchical-0:secondary SFSymbolsPreview4D4D4D" d="M21.7293-2.44751L117.049-2.44751Q121.384-2.44751 123.872-4.94308Q126.36-7.43866 126.36-11.7584L126.36-72.2565Q126.36-76.5915 123.872-79.0703Q121.384-81.5491 117.049-81.5491L77.8137-81.5491L77.8137-75.5043L116.92-75.5043Q118.486-75.5043 119.408-74.5995Q120.33-73.6946 120.33-72.1252L120.33-25.1266Q120.33-22.7997 117.97-22.7997L20.8076-22.7997Q18.4959-22.7997 18.4959-25.1266L18.4959-72.1252Q18.4959-73.6946 19.418-74.5995Q20.34-75.5043 21.891-75.5043L61.013-75.5043L61.013-81.5491L21.7293-81.5491Q17.4431-81.5491 14.9471-79.0703Q12.4512-76.5915 12.4512-72.2565L12.4512-11.7584Q12.4512-7.43866 14.9471-4.94308Q17.4431-2.44751 21.7293-2.44751ZM54.4525 9.83963L84.3582 9.83963L84.3582-3.08228L54.4525-3.08228ZM53.8422 14.2357L84.9846 14.2357Q86.2328 14.2357 87.1151 13.3606Q87.9974 12.4855 87.9974 11.1893Q87.9974 9.90753 87.1151 9.03244Q86.2328 8.15735 84.9846 8.15735L53.8422 8.15735Q52.5787 8.15735 51.6792 9.03244Q50.7797 9.90753 50.7797 11.1893Q50.7797 12.4855 51.6792 13.3606Q52.5787 14.2357 53.8422 14.2357Z"/>
   <path class="hierarchical-0:secondary hierarchical-1:primary SFSymbolsPreview212121" d="M66.6695-93.1549L66.6695-52.7924L66.9914-43.5493L57.1365-54.258L53.6232-57.7187Q53.241-58.1009 52.7088-58.326Q52.1767-58.551 51.577-58.551Q50.4303-58.551 49.6994-57.7957Q48.9685-57.0404 48.9685-55.9418Q48.9685-54.7272 49.8001-53.9291L67.3973-36.2801Q68.3823-35.2798 69.413-35.2798Q70.4628-35.2798 71.3959-36.2801L89.0106-53.9291Q89.843-54.7272 89.843-55.9418Q89.843-57.0404 89.1026-57.7957Q88.3621-58.551 87.2002-58.551Q86.6005-58.551 86.0928-58.326Q85.585-58.1009 85.1692-57.7187L81.6742-54.258L71.801-43.5493L72.123-52.7924L72.123-93.1549Q72.123-94.4031 71.3078-95.1508Q70.4926-95.8984 69.413-95.8984Q68.3334-95.8984 67.5014-95.1508Q66.6695-94.4031 66.6695-93.1549Z"/>
  </g>
  <g id="Thin-M" transform="matrix(1 0 0 1 788.668 1126)">
   <path class="hierarchical-0:secondary SFSymbolsPreview4D4D4D" d="M19.1467-3.48816L116.348-3.48816Q119.441-3.48816 121.249-5.31349Q123.057-7.13882 123.057-10.1974L123.057-73.2773Q123.057-76.371 121.249-78.1895Q119.441-80.0079 116.348-80.0079L73.8503-80.0079L73.8503-76.3649L116.18-76.3649Q117.686-76.3649 118.568-75.4902Q119.45-74.6155 119.45-73.1659L119.45-24.9062Q119.45-22.2794 116.808-22.2794L18.6859-22.2794Q16.0942-22.2794 16.0942-24.9062L16.0942-73.1659Q16.0942-74.6155 16.9758-75.4902Q17.8574-76.3649 19.3283-76.3649L61.6936-76.3649L61.6936-80.0079L19.1467-80.0079Q16.1018-80.0079 14.2765-78.1895Q12.4512-76.371 12.4512-73.2773L12.4512-10.1974Q12.4512-7.13882 14.2765-5.31349Q16.1018-3.48816 19.1467-3.48816ZM53.4317 9.67941L82.0763 9.67941L82.0763-4.12292L53.4317-4.12292ZM52.4002 12.3344L83.1429 12.3344Q83.9104 12.3344 84.4425 11.8195Q84.9747 11.3045 84.9747 10.4881Q84.9747 9.70688 84.4425 9.19228Q83.9104 8.67767 83.1429 8.67767L52.4002 8.67767Q51.5976 8.67767 51.0586 9.19228Q50.5196 9.70688 50.5196 10.4881Q50.5196 11.3045 51.0586 11.8195Q51.5976 12.3344 52.4002 12.3344Z"/>
   <path class="hierarchical-0:secondary hierarchical-1:primary SFSymbolsPreview212121" d="M66.0492-92.1738L66.0492-49.7696L66.1507-41.9281L55.8556-52.6566L51.4412-57.0786Q51.1993-57.3204 50.8675-57.4551Q50.5356-57.5897 50.1762-57.5897Q49.4492-57.5897 48.9784-57.0946Q48.5077-56.5994 48.5077-55.9219Q48.5077-55.1682 49.0196-54.67L66.5764-37.1208Q67.1211-36.541 67.7719-36.541Q68.4006-36.541 68.9529-37.1208L86.4883-54.67Q87.0003-55.1682 87.0003-55.9219Q87.0003-56.5994 86.5402-57.0946Q86.0802-57.5897 85.3188-57.5897Q84.9594-57.5897 84.6516-57.4551Q84.3437-57.3204 84.0881-57.0786L79.6524-52.6566L69.3794-41.9281L69.4809-49.7696L69.4809-92.1738Q69.4809-92.9413 68.9758-93.4189Q68.4708-93.8965 67.7719-93.8965Q67.0723-93.8965 66.5607-93.4189Q66.0492-92.9413 66.0492-92.1738Z"/>
  </g>
  <g id="Ultralight-M" transform="matrix(1 0 0 1 492.803 1126)">
   <path class="hierarchical-0:secondary SFSymbolsPreview4D4D4D" d="M17.8238-4.02145L115.989-4.02145Q118.447-4.02145 119.906-5.50308Q121.365-6.98471 121.365-9.39713L121.365-73.8007Q121.365-76.2581 119.906-77.7382Q118.447-79.2183 115.989-79.2183L71.8193-79.2183L71.8193-76.8059L115.8-76.8059Q117.275-76.8059 118.137-75.9464Q118.998-75.087 118.998-73.6992L118.998-24.7932Q118.998-22.0123 116.214-22.0123L17.5987-22.0123Q14.8636-22.0123 14.8636-24.7932L14.8636-73.6992Q14.8636-75.087 15.7249-75.9464Q16.5863-76.8059 18.0161-76.8059L62.0422-76.8059L62.0422-79.2183L17.8238-79.2183Q15.4144-79.2183 13.9328-77.7382Q12.4512-76.2581 12.4512-73.8007L12.4512-9.39713Q12.4512-6.98471 13.9328-5.50308Q15.4144-4.02145 17.8238-4.02145ZM52.9091 9.59778L80.9074 9.59778L80.9074-4.65622L52.9091-4.65622ZM51.6624 11.3602L82.1991 11.3602Q82.7209 11.3602 83.0738 11.0298Q83.4267 10.6995 83.4267 10.1295Q83.4267 9.60464 83.0738 9.27467Q82.7209 8.9447 82.1991 8.9447L51.6624 8.9447Q51.0956 8.9447 50.7408 9.27467Q50.386 9.60464 50.386 10.1295Q50.386 10.6995 50.7408 11.0298Q51.0956 11.3602 51.6624 11.3602Z"/>
   <path class="hierarchical-0:secondary hierarchical-1:primary SFSymbolsPreview212121" d="M65.731-91.6718L65.731-48.2216L65.7196-41.0973L55.1994-51.8356L50.3235-56.7497Q50.1534-56.9206 49.9237-57.0091Q49.6941-57.0976 49.4583-57.0976Q48.9471-57.0976 48.6095-56.736Q48.2719-56.3744 48.2719-55.9113Q48.2719-55.3932 48.6198-55.0491L66.156-37.5519Q66.4749-37.1872 66.9304-37.1872Q67.3439-37.1872 67.7025-37.5519L85.1967-55.0491Q85.5438-55.3932 85.5438-55.9113Q85.5438-56.3744 85.2276-56.736Q84.9113-57.0976 84.3544-57.0976Q84.1179-57.0976 83.913-57.0091Q83.7082-56.9206 83.5342-56.7497L78.6171-51.8356L68.1381-41.0973L68.1267-48.2216L68.1267-91.6718Q68.1267-92.1928 67.7811-92.532Q67.4355-92.8711 66.9304-92.8711Q66.4261-92.8711 66.0786-92.532Q65.731-92.1928 65.731-91.6718Z"/>
  </g>
  <g id="Black-S" transform="matrix(1 0 0 1 2873.1 696)">
   <path class="hierarchical-0:secondary SFSymbolsPreview4D4D4D" d="M22.9004-5.81055L97.7051-5.81055Q103.906-5.81055 107.373-9.27734Q110.84-12.7441 110.84-18.9453L110.84-66.2598Q110.84-72.4609 107.373-75.9277Q103.906-79.3945 97.7051-79.3945L73.2422-79.3945L73.2422-66.2109L95.5566-66.2109Q97.6562-66.2109 97.6562-64.1113L97.6562-29.1016Q97.6562-27.6855 96.2402-27.6855L24.3652-27.6855Q22.9492-27.6855 22.9492-29.1016L22.9492-64.1113Q22.9492-66.2109 25.0488-66.2109L47.3633-66.2109L47.3633-79.3945L22.9004-79.3945Q16.6992-79.3945 13.2324-75.9277Q9.76562-72.4609 9.76562-66.2598L9.76562-18.9453Q9.76562-12.7441 13.2324-9.27734Q16.6992-5.81055 22.9004-5.81055ZM45.8984 1.17188L74.707 1.17188L74.707-8.00781L45.8984-8.00781ZM45.8984 9.22852L74.707 9.22852Q76.9531 9.22852 78.4912 7.61719Q80.0293 6.00586 80.0293 3.95508Q80.0293 1.9043 78.4912 0.292969Q76.9531-1.31836 74.707-1.31836L45.8984-1.31836Q43.6523-1.31836 42.1143 0.292969Q40.5762 1.9043 40.5762 3.95508Q40.5762 6.00586 42.1143 7.61719Q43.6523 9.22852 45.8984 9.22852Z"/>
   <path class="hierarchical-0:secondary hierarchical-1:primary SFSymbolsPreview212121" d="M54.6875-81.6406L54.6875-54.1016L55.0293-50.2441L52.4902-53.6621L50.6348-55.4199Q49.9512-56.1035 48.9258-56.5674Q47.9004-57.0312 46.8262-57.0312Q44.5801-57.0312 43.0908-55.5176Q41.6016-54.0039 41.6016-51.709Q41.6016-49.4629 43.0176-48.0469L54.7852-36.2305Q57.3242-33.6914 60.3027-33.6914Q63.2812-33.6914 65.8203-36.2305L77.5879-48.0469Q79.0039-49.4629 79.0039-51.709Q79.0039-54.0039 77.5391-55.5176Q76.0742-57.0312 73.7793-57.0312Q71.6797-57.0312 69.9707-55.4199L68.1152-53.6621L65.5762-50.2441L65.918-54.1016L65.918-81.6406Q65.918-83.9355 64.3066-85.5225Q62.6953-87.1094 60.3027-87.1094Q57.9102-87.1094 56.2988-85.5225Q54.6875-83.9355 54.6875-81.6406Z"/>
  </g>
  <g id="Heavy-S" transform="matrix(1 0 0 1 2577.41 696)">
   <path class="hierarchical-0:secondary SFSymbolsPreview4D4D4D" d="M22.1054-6.45599L96.4493-6.45599Q102.27-6.45599 105.529-9.72099Q108.788-12.986 108.788-18.7958L108.788-65.5449Q108.788-71.3661 105.529-74.6254Q102.27-77.8847 96.4493-77.8847L71.2372-77.8847L71.2372-66.153L94.7845-66.153Q97.0573-66.153 97.0573-63.8809L97.0573-28.7216Q97.0573-27.282 95.6062-27.282L22.9477-27.282Q21.4973-27.282 21.4973-28.7216L21.4973-63.8809Q21.4973-66.153 23.7694-66.153L47.3175-66.153L47.3175-77.8847L22.1054-77.8847Q16.2842-77.8847 13.0249-74.6254Q9.76562-71.3661 9.76562-65.5449L9.76562-18.7958Q9.76562-12.986 13.0249-9.72099Q16.2842-6.45599 22.1054-6.45599ZM45.3682 0.952911L73.1972 0.952911L73.1972-8.24966L45.3682-8.24966ZM45.3568 8.30688L73.2086 8.30688Q75.2594 8.30688 76.6819 6.83365Q78.1044 5.36041 78.1044 3.44772Q78.1044 1.5358 76.6819 0.056839Q75.2594-1.42212 73.2086-1.42212L45.3568-1.42212Q43.2953-1.42212 41.8724 0.056839Q40.4495 1.5358 40.4495 3.44772Q40.4495 5.36041 41.8724 6.83365Q43.2953 8.30688 45.3568 8.30688Z"/>
   <path class="hierarchical-0:secondary hierarchical-1:primary SFSymbolsPreview212121" d="M54.2496-81.6177L54.2496-53.5828L54.6257-48.6076L50.9575-53.1898L49.102-54.9591Q48.4642-55.5847 47.5426-56.0024Q46.6209-56.4201 45.639-56.4201Q43.6119-56.4201 42.2783-55.0621Q40.9447-53.7041 40.9447-51.651Q40.9447-49.6124 42.2455-48.3116L54.5082-36.0001Q56.7253-33.7837 59.2773-33.7837Q61.8523-33.7837 64.0457-36.0001L76.3084-48.3116Q77.6093-49.6124 77.6093-51.651Q77.6093-53.7041 76.2943-55.0621Q74.9794-56.4201 72.9149-56.4201Q70.9999-56.4201 69.4519-54.9591L67.5964-53.1898L63.9282-48.6076L64.3044-53.5828L64.3044-81.6177Q64.3044-83.7166 62.8487-85.125Q61.393-86.5334 59.2773-86.5334Q57.1609-86.5334 55.7053-85.125Q54.2496-83.7166 54.2496-81.6177Z"/>
  </g>
  <g id="Bold-S" transform="matrix(1 0 0 1 2281.85 696)">
   <path class="hierarchical-0:secondary SFSymbolsPreview4D4D4D" d="M21.2158-7.17773L95.0439-7.17773Q100.439-7.17773 103.467-10.2173Q106.494-13.2568 106.494-18.6279L106.494-64.7461Q106.494-70.1416 103.467-73.1689Q100.439-76.1963 95.0439-76.1963L68.9941-76.1963L68.9941-66.0889L93.9209-66.0889Q96.3867-66.0889 96.3867-63.623L96.3867-28.2959Q96.3867-26.8311 94.8975-26.8311L21.3623-26.8311Q19.873-26.8311 19.873-28.2959L19.873-63.623Q19.873-66.0889 22.3389-66.0889L47.2656-66.0889L47.2656-76.1963L21.2158-76.1963Q15.8203-76.1963 12.793-73.1689Q9.76562-70.1416 9.76562-64.7461L9.76562-18.6279Q9.76562-13.2568 12.793-10.2173Q15.8203-7.17773 21.2158-7.17773ZM44.7754 0.708008L71.5088 0.708008L71.5088-8.52051L44.7754-8.52051ZM44.751 7.27539L71.5332 7.27539Q73.3643 7.27539 74.6582 5.95703Q75.9521 4.63867 75.9521 2.88086Q75.9521 1.12305 74.6582-0.20752Q73.3643-1.53809 71.5332-1.53809L44.751-1.53809Q42.8955-1.53809 41.6016-0.20752Q40.3076 1.12305 40.3076 2.88086Q40.3076 4.63867 41.6016 5.95703Q42.8955 7.27539 44.751 7.27539Z"/>
   <path class="hierarchical-0:secondary hierarchical-1:primary SFSymbolsPreview212121" d="M53.7598-81.5918L53.7598-53.0029L54.1748-46.7773L49.2432-52.6611L47.3877-54.4434Q46.8018-55.0049 45.9961-55.3711Q45.1904-55.7373 44.3115-55.7373Q42.5293-55.7373 41.3696-54.5532Q40.21-53.3691 40.21-51.5869Q40.21-49.7803 41.3818-48.6084L54.1992-35.7422Q56.0547-33.8867 58.1299-33.8867Q60.2539-33.8867 62.0605-35.7422L74.8779-48.6084Q76.0498-49.7803 76.0498-51.5869Q76.0498-53.3691 74.9023-54.5532Q73.7549-55.7373 71.9482-55.7373Q70.2393-55.7373 68.8721-54.4434L67.0166-52.6611L62.085-46.7773L62.5-53.0029L62.5-81.5918Q62.5-83.4717 61.2183-84.6802Q59.9365-85.8887 58.1299-85.8887Q56.3232-85.8887 55.0415-84.6802Q53.7598-83.4717 53.7598-81.5918Z"/>
  </g>
  <g id="Semibold-S" transform="matrix(1 0 0 1 1985.93 696)">
   <path class="hierarchical-0:secondary SFSymbolsPreview4D4D4D" d="M20.6024-7.67517L94.075-7.67517Q99.1776-7.67517 102.045-10.5595Q104.913-13.4438 104.913-18.5127L104.913-64.1953Q104.913-69.297 102.045-72.1645Q99.1776-75.032 94.075-75.032L67.4477-75.032L67.4477-66.0446L93.3258-66.0446Q95.9244-66.0446 95.9244-63.4453L95.9244-28.0029Q95.9244-26.5198 94.4084-26.5198L20.269-26.5198Q18.7531-26.5198 18.7531-28.0029L18.7531-63.4453Q18.7531-66.0446 21.3524-66.0446L47.2298-66.0446L47.2298-75.032L20.6024-75.032Q15.5006-75.032 12.6331-72.1645Q9.76562-69.297 9.76562-64.1953L9.76562-18.5127Q9.76562-13.4438 12.6331-10.5595Q15.5006-7.67517 20.6024-7.67517ZM44.3665 0.539398L70.3445 0.539398L70.3445-8.70743L44.3665-8.70743ZM44.3336 6.56433L70.3781 6.56433Q72.0581 6.56433 73.2632 5.35278Q74.4682 4.14124 74.4682 2.48947Q74.4682 0.83847 73.2632-0.389862Q72.0581-1.61819 70.3781-1.61819L44.3336-1.61819Q42.6201-1.61819 41.415-0.389862Q40.21 0.83847 40.21 2.48947Q40.21 4.14124 41.415 5.35278Q42.6201 6.56433 44.3336 6.56433Z"/>
   <path class="hierarchical-0:secondary hierarchical-1:primary SFSymbolsPreview212121" d="M53.4218-81.5742L53.4218-52.6031L53.8635-45.5154L48.0614-52.2964L46.2059-54.0878Q45.6551-54.6051 44.9295-54.9358Q44.2039-55.2666 43.396-55.2666Q41.7831-55.2666 40.7433-54.2023Q39.7034-53.138 39.7034-51.5427Q39.7034-49.8955 40.7867-48.8129L53.9856-35.5644Q55.5923-33.9577 57.3387-33.9577Q59.1522-33.9577 60.6918-35.5644L73.8914-48.8129Q74.9748-49.8955 74.9748-51.5427Q74.9748-53.138 73.9426-54.2023Q72.9103-55.2666 71.2814-55.2666Q69.7151-55.2666 68.4723-54.0878L66.6168-52.2964L60.8139-45.5154L61.2556-52.6031L61.2556-81.5742Q61.2556-83.3031 60.0941-84.3739Q58.9325-85.4446 57.3387-85.4446Q55.7457-85.4446 54.5837-84.3739Q53.4218-83.3031 53.4218-81.5742Z"/>
  </g>
  <g id="Medium-S" transform="matrix(1 0 0 1 1689.82 696)">
   <path class="hierarchical-0:secondary SFSymbolsPreview4D4D4D" d="M20.1378-8.05283L93.3411-8.05283Q98.2208-8.05283 100.967-10.8189Q103.712-13.5849 103.712-18.425L103.712-63.7772Q103.712-68.6569 100.967-71.4031Q98.2208-74.1493 93.3411-74.1493L66.275-74.1493L66.275-66.011L92.8741-66.011Q95.5742-66.011 95.5742-63.3102L95.5742-27.7802Q95.5742-26.284 94.0384-26.284L19.4405-26.284Q17.9039-26.284 17.9039-27.7802L17.9039-63.3102Q17.9039-66.011 20.6047-66.011L47.2031-66.011L47.2031-74.1493L20.1378-74.1493Q15.258-74.1493 12.5118-71.4031Q9.76562-68.6569 9.76562-63.7772L9.76562-18.425Q9.76562-13.5849 12.5118-10.8189Q15.258-8.05283 20.1378-8.05283ZM44.0567 0.411224L69.4618 0.411224L69.4618-8.84857L44.0567-8.84857ZM44.0163 6.0257L69.5023 6.0257Q71.067 6.0257 72.205 4.89464Q73.3429 3.76358 73.3429 2.19345Q73.3429 0.623322 72.205-0.527573Q71.067-1.67847 69.5023-1.67847L44.0163-1.67847Q42.411-1.67847 41.2735-0.527573Q40.136 0.623322 40.136 2.19345Q40.136 3.76358 41.2735 4.89464Q42.411 6.0257 44.0163 6.0257Z"/>
   <path class="hierarchical-0:secondary hierarchical-1:primary SFSymbolsPreview212121" d="M53.1662-81.5605L53.1662-52.2995L53.6278-44.5587L47.1649-52.0203L45.3094-53.8185Q44.7861-54.3015 44.1212-54.6055Q43.4563-54.9095 42.7025-54.9095Q41.217-54.9095 40.2683-53.9364Q39.3196-52.9633 39.3196-51.5091Q39.3196-49.9832 40.3351-48.9677L53.8239-35.4294Q55.2422-34.0118 56.739-34.0118Q58.316-34.0118 59.6542-35.4294L73.1438-48.9677Q74.1592-49.9832 74.1592-51.5091Q74.1592-52.9633 73.2147-53.9364Q72.2702-54.9095 70.7764-54.9095Q69.3176-54.9095 68.1686-53.8185L66.3132-52.0203L59.8503-44.5587L60.3127-52.2995L60.3127-81.5605Q60.3127-83.1749 59.2419-84.1412Q58.1711-85.1074 56.739-85.1074Q55.3078-85.1074 54.237-84.1412Q53.1662-83.1749 53.1662-81.5605Z"/>
  </g>
  <g id="Regular-S" transform="matrix(1 0 0 1 1393.89 696)">
   <path class="hierarchical-0:secondary SFSymbolsPreview4D4D4D" d="M19.5312-8.54492L92.3828-8.54492Q96.9727-8.54492 99.5605-11.1572Q102.148-13.7695 102.148-18.3105L102.148-63.2324Q102.148-67.8223 99.5605-70.4102Q96.9727-72.998 92.3828-72.998L64.7461-72.998L64.7461-65.9668L92.2852-65.9668Q95.1172-65.9668 95.1172-63.1348L95.1172-27.4902Q95.1172-25.9766 93.5547-25.9766L18.3594-25.9766Q16.7969-25.9766 16.7969-27.4902L16.7969-63.1348Q16.7969-65.9668 19.6289-65.9668L47.168-65.9668L47.168-72.998L19.5312-72.998Q14.9414-72.998 12.3535-70.4102Q9.76562-67.8223 9.76562-63.2324L9.76562-18.3105Q9.76562-13.7695 12.3535-11.1572Q14.9414-8.54492 19.5312-8.54492ZM43.6523 0.244141L68.3105 0.244141L68.3105-9.0332L43.6523-9.0332ZM43.6035 5.32227L68.3594 5.32227Q69.7754 5.32227 70.8252 4.29688Q71.875 3.27148 71.875 1.80664Q71.875 0.341797 70.8252-0.708008Q69.7754-1.75781 68.3594-1.75781L43.6035-1.75781Q42.1387-1.75781 41.0889-0.708008Q40.0391 0.341797 40.0391 1.80664Q40.0391 3.27148 41.0889 4.29688Q42.1387 5.32227 43.6035 5.32227Z"/>
   <path class="hierarchical-0:secondary hierarchical-1:primary SFSymbolsPreview212121" d="M52.832-81.543L52.832-51.9043L53.3203-43.3105L45.9961-51.6602L44.1406-53.4668Q43.6523-53.9062 43.0664-54.1748Q42.4805-54.4434 41.7969-54.4434Q40.4785-54.4434 39.6484-53.5889Q38.8184-52.7344 38.8184-51.4648Q38.8184-50.0977 39.7461-49.1699L53.6133-35.2539Q54.7852-34.082 55.957-34.082Q57.2266-34.082 58.3008-35.2539L72.168-49.1699Q73.0957-50.0977 73.0957-51.4648Q73.0957-52.7344 72.2656-53.5889Q71.4355-54.4434 70.1172-54.4434Q68.7988-54.4434 67.7734-53.4668L65.918-51.6602L58.5938-43.3105L59.082-51.9043L59.082-81.543Q59.082-83.0078 58.1299-83.8379Q57.1777-84.668 55.957-84.668Q54.7363-84.668 53.7842-83.8379Q52.832-83.0078 52.832-81.543Z"/>
  </g>
  <g id="Light-S" transform="matrix(1 0 0 1 1098.27 696)">
   <path class="hierarchical-0:secondary SFSymbolsPreview4D4D4D" d="M17.8055-9.24149L91.9136-9.24149Q95.6711-9.24149 97.8123-11.3995Q99.9535-13.5574 99.9535-17.2813L99.9535-63.929Q99.9535-67.6857 97.8123-69.8273Q95.6711-71.9688 91.9136-71.9688L62.0972-71.9688L62.0972-66.5421L91.8007-66.5421Q94.5267-66.5421 94.5267-63.8313L94.5267-27.3537Q94.5267-25.6439 92.7826-25.6439L16.9365-25.6439Q15.1924-25.6439 15.1924-27.3537L15.1924-63.8313Q15.1924-66.5421 17.9184-66.5421L47.6219-66.5421L47.6219-71.9688L17.8055-71.9688Q14.048-71.9688 11.9068-69.8273Q9.76562-67.6857 9.76562-63.929L9.76562-17.2813Q9.76562-13.5574 11.9068-11.3995Q14.048-9.24149 17.8055-9.24149ZM42.971 0.138092L66.7816 0.138092L66.7816-9.72977L42.971-9.72977ZM42.6346 4.05045L67.1181 4.05045Q68.2312 4.05045 69.0388 3.26729Q69.8463 2.48413 69.8463 1.33743Q69.8463 0.205231 69.0388-0.594711Q68.2312-1.39465 67.1181-1.39465L42.6346-1.39465Q41.4879-1.39465 40.6803-0.594711Q39.8727 0.205231 39.8727 1.33743Q39.8727 2.48413 40.6803 3.26729Q41.4879 4.05045 42.6346 4.05045Z"/>
   <path class="hierarchical-0:secondary hierarchical-1:primary SFSymbolsPreview212121" d="M52.4078-80.8922L52.4078-49.8756L52.7451-42.2211L45.1485-50.5852L42.6727-53.0281Q42.2897-53.3768 41.8327-53.5847Q41.3757-53.7926 40.8585-53.7926Q39.8125-53.7926 39.164-53.1197Q38.5155-52.4467 38.5155-51.4496Q38.5155-50.3853 39.2311-49.6696L53.0533-35.8139Q53.9528-34.9144 54.8523-34.9144Q55.8342-34.9144 56.6658-35.8139L70.488-49.6696Q71.2036-50.3853 71.2036-51.4496Q71.2036-52.4467 70.5551-53.1197Q69.9066-53.7926 68.8606-53.7926Q67.8452-53.7926 67.0471-53.0281L64.5706-50.5852L56.974-42.2211L57.296-49.8756L57.296-80.8922Q57.296-82.0236 56.5556-82.6797Q55.8151-83.3359 54.8523-83.3359Q53.904-83.3359 53.1559-82.6797Q52.4078-82.0236 52.4078-80.8922Z"/>
  </g>
  <g id="Thin-S" transform="matrix(1 0 0 1 803.014 696)">
   <path class="hierarchical-0:secondary SFSymbolsPreview4D4D4D" d="M15.5235-10.1624L91.2933-10.1624Q93.9491-10.1624 95.5002-11.7199Q97.0512-13.2774 97.0512-15.9203L97.0512-64.8499Q97.0512-67.5056 95.5002-69.0567Q93.9491-70.6078 91.2933-70.6078L58.5938-70.6078L58.5938-67.3027L91.1606-67.3027Q93.7462-67.3027 93.7462-64.7522L93.7462-27.1736Q93.7462-25.2029 91.7618-25.2029L15.0551-25.2029Q13.0707-25.2029 13.0707-27.1736L13.0707-64.7522Q13.0707-67.3027 15.6563-67.3027L48.2224-67.3027L48.2224-70.6078L15.5235-70.6078Q12.867-70.6078 11.3163-69.0567Q9.76562-67.5056 9.76562-64.8499L9.76562-15.9203Q9.76562-13.2774 11.3163-11.7199Q12.867-10.1624 15.5235-10.1624ZM42.07-0.00228882L64.7598-0.00228882L64.7598-10.6506L42.07-10.6506ZM41.3536 2.36893L65.477 2.36893Q66.1896 2.36893 66.6771 1.9062Q67.1646 1.44348 67.1646 0.717163Q67.1646 0.025177 66.6771-0.444412Q66.1896-0.914001 65.477-0.914001L41.3536-0.914001Q40.6273-0.914001 40.1398-0.444412Q39.6523 0.025177 39.6523 0.717163Q39.6523 1.44348 40.1398 1.9062Q40.6273 2.36893 41.3536 2.36893Z"/>
   <path class="hierarchical-0:secondary hierarchical-1:primary SFSymbolsPreview212121" d="M51.8478-80.0316L51.8478-47.1939L51.9844-40.7791L44.0277-49.1638L40.7303-52.4475Q40.4884-52.6756 40.2012-52.8038Q39.9139-52.932 39.6172-52.932Q38.932-52.932 38.5235-52.4994Q38.1149-52.0668 38.1149-51.4297Q38.1149-50.7652 38.5506-50.3304L52.3125-36.5547Q52.8519-36.0153 53.3905-36.0153Q53.9925-36.0153 54.5044-36.5547L68.2655-50.3304Q68.7012-50.7652 68.7012-51.4297Q68.7012-52.0668 68.293-52.4994Q67.8848-52.932 67.1997-52.932Q66.584-52.932 66.0858-52.4475L62.7892-49.1638L54.8325-40.7791L54.9339-47.1939L54.9339-80.0316Q54.9339-80.7228 54.4739-81.1485Q54.0138-81.5742 53.3905-81.5742Q52.803-81.5742 52.3254-81.1485Q51.8478-80.7228 51.8478-80.0316Z"/>
  </g>
  <g id="Ultralight-S" transform="matrix(1 0 0 1 507.046 696)">
   <path class="hierarchical-0:secondary SFSymbolsPreview4D4D4D" d="M14.3547-10.6339L90.9752-10.6339Q93.0672-10.6339 94.3157-11.8839Q95.5643-13.134 95.5643-15.2229L95.5643-65.3214Q95.5643-67.4133 94.3157-68.6619Q93.0672-69.9104 90.9752-69.9104L56.7993-69.9104L56.7993-67.6926L90.8318-67.6926Q93.3464-67.6926 93.3464-65.2237L93.3464-27.0813Q93.3464-24.9779 91.2392-24.9779L14.0907-24.9779Q11.9835-24.9779 11.9835-27.0813L11.9835-65.2237Q11.9835-67.6926 14.4974-67.6926L48.5306-67.6926L48.5306-69.9104L14.3547-69.9104Q12.262-69.9104 11.0138-68.6619Q9.76562-67.4133 9.76562-65.3214L9.76562-15.2229Q9.76562-13.134 11.0138-11.8839Q12.262-10.6339 14.3547-10.6339ZM41.6092-0.0740051L63.7245-0.0740051L63.7245-11.1221L41.6092-11.1221ZM40.6975 1.50757L64.6355 1.50757Q65.1436 1.50757 65.4667 1.20888Q65.7898 0.910187 65.7898 0.399017Q65.7898-0.0671387 65.4667-0.367737Q65.1436-0.668335 64.6355-0.668335L40.6975-0.668335Q40.1863-0.668335 39.8628-0.367737Q39.5393-0.0671387 39.5393 0.399017Q39.5393 0.910187 39.8628 1.20888Q40.1863 1.50757 40.6975 1.50757Z"/>
   <path class="hierarchical-0:secondary hierarchical-1:primary SFSymbolsPreview212121" d="M51.5602-79.5906L51.5602-45.8191L51.5945-40.0414L43.4532-48.436L39.7362-52.15Q39.5653-52.317 39.3654-52.404Q39.1655-52.491 38.9816-52.491Q38.4804-52.491 38.1954-52.1812Q37.9105-51.8715 37.9105-51.4191Q37.9105-50.9605 38.2019-50.6683L51.9333-36.9339Q52.2873-36.5799 52.6421-36.5799Q53.0487-36.5799 53.3966-36.9339L67.1272-50.6683Q67.4194-50.9605 67.4194-51.4191Q67.4194-51.8715 67.1345-52.1812Q66.8495-52.491 66.3483-52.491Q65.9378-52.491 65.5937-52.15L61.8767-48.436L53.7346-40.0414L53.7239-45.8191L53.7239-79.5906Q53.7239-80.056 53.4073-80.3638Q53.0907-80.6717 52.6421-80.6717Q52.2385-80.6717 51.8993-80.3638Q51.5602-80.056 51.5602-79.5906Z"/>
  </g>
 </g>
</svg>
