<?xml version="1.0" encoding="UTF-8"?>
<!--Generator: Apple Native CoreSVG 149-->
<!DOCTYPE svg
PUBLIC "-//W3C//DTD SVG 1.1//EN"
       "http://www.w3.org/Graphics/SVG/1.1/DTD/svg11.dtd">
<svg version="1.1" xmlns="http://www.w3.org/2000/svg" xmlns:xlink="http://www.w3.org/1999/xlink" width="3300" height="2200">
 <!--glyph: "uni1001FA.medium", point size: 100.0, font version: "17.0d9e1", template writer version: "59"-->
 <style>.hierarchical-0:secondary {fill:#4D4D4D}
.hierarchical-1:primary {fill:#212121}

.SFSymbolsPreview212121 {fill:#212121;opacity:1.0}
.SFSymbolsPreview4D4D4D {fill:#4D4D4D;opacity:1.0}
</style>
 <g id="Notes">
  <rect height="2200" id="artboard" style="fill:white;opacity:1" width="3300" x="0" y="0"/>
  <line style="fill:none;stroke:black;opacity:1;stroke-width:0.5;" x1="263" x2="3036" y1="292" y2="292"/>
  <text style="stroke:none;fill:black;font-family:sans-serif;font-size:13;font-weight:bold;" transform="matrix(1 0 0 1 263 322)">Weight/Scale Variations</text>
  <text style="stroke:none;fill:black;font-family:sans-serif;font-size:13;text-anchor:middle;" transform="matrix(1 0 0 1 559.711 322)">Ultralight</text>
  <text style="stroke:none;fill:black;font-family:sans-serif;font-size:13;text-anchor:middle;" transform="matrix(1 0 0 1 856.422 322)">Thin</text>
  <text style="stroke:none;fill:black;font-family:sans-serif;font-size:13;text-anchor:middle;" transform="matrix(1 0 0 1 1153.13 322)">Light</text>
  <text style="stroke:none;fill:black;font-family:sans-serif;font-size:13;text-anchor:middle;" transform="matrix(1 0 0 1 1449.84 322)">Regular</text>
  <text style="stroke:none;fill:black;font-family:sans-serif;font-size:13;text-anchor:middle;" transform="matrix(1 0 0 1 1746.56 322)">Medium</text>
  <text style="stroke:none;fill:black;font-family:sans-serif;font-size:13;text-anchor:middle;" transform="matrix(1 0 0 1 2043.27 322)">Semibold</text>
  <text style="stroke:none;fill:black;font-family:sans-serif;font-size:13;text-anchor:middle;" transform="matrix(1 0 0 1 2339.98 322)">Bold</text>
  <text style="stroke:none;fill:black;font-family:sans-serif;font-size:13;text-anchor:middle;" transform="matrix(1 0 0 1 2636.69 322)">Heavy</text>
  <text style="stroke:none;fill:black;font-family:sans-serif;font-size:13;text-anchor:middle;" transform="matrix(1 0 0 1 2933.4 322)">Black</text>
  <line style="fill:none;stroke:black;opacity:1;stroke-width:0.5;" x1="263" x2="3036" y1="1903" y2="1903"/>
  <g transform="matrix(1 0 0 1 263 1933)">
   <path d="M9.24805 0.830078Q10.8691 0.830078 12.2949 0.214844Q13.7207-0.400391 14.8096-1.49414Q15.8984-2.58789 16.5186-4.01367Q17.1387-5.43945 17.1387-7.05078Q17.1387-8.66211 16.5186-10.0879Q15.8984-11.5137 14.8047-12.6074Q13.7109-13.7012 12.2852-14.3164Q10.8594-14.9316 9.23828-14.9316Q7.62695-14.9316 6.20117-14.3164Q4.77539-13.7012 3.69141-12.6074Q2.60742-11.5137 1.9873-10.0879Q1.36719-8.66211 1.36719-7.05078Q1.36719-5.43945 1.9873-4.01367Q2.60742-2.58789 3.69629-1.49414Q4.78516-0.400391 6.21094 0.214844Q7.63672 0.830078 9.24805 0.830078ZM9.24805-0.654297Q7.91992-0.654297 6.7627-1.14746Q5.60547-1.64062 4.73145-2.51953Q3.85742-3.39844 3.36426-4.56055Q2.87109-5.72266 2.87109-7.05078Q2.87109-8.37891 3.35938-9.54102Q3.84766-10.7031 4.72168-11.582Q5.5957-12.4609 6.75293-12.9541Q7.91016-13.4473 9.23828-13.4473Q10.5762-13.4473 11.7334-12.9541Q12.8906-12.4609 13.7695-11.582Q14.6484-10.7031 15.1465-9.54102Q15.6445-8.37891 15.6445-7.05078Q15.6445-5.72266 15.1514-4.56055Q14.6582-3.39844 13.7842-2.51953Q12.9102-1.64062 11.748-1.14746Q10.5859-0.654297 9.24805-0.654297ZM5.83984-7.04102Q5.83984-6.71875 6.04492-6.51855Q6.25-6.31836 6.5918-6.31836L8.50586-6.31836L8.50586-4.39453Q8.50586-4.0625 8.70605-3.85742Q8.90625-3.65234 9.22852-3.65234Q9.56055-3.65234 9.76562-3.85742Q9.9707-4.0625 9.9707-4.39453L9.9707-6.31836L11.8945-6.31836Q12.2266-6.31836 12.4316-6.51855Q12.6367-6.71875 12.6367-7.04102Q12.6367-7.37305 12.4316-7.57812Q12.2266-7.7832 11.8945-7.7832L9.9707-7.7832L9.9707-9.69727Q9.9707-10.0391 9.76562-10.2441Q9.56055-10.4492 9.22852-10.4492Q8.90625-10.4492 8.70605-10.2441Q8.50586-10.0391 8.50586-9.69727L8.50586-7.7832L6.5918-7.7832Q6.25-7.7832 6.04492-7.57812Q5.83984-7.37305 5.83984-7.04102Z"/>
  </g>
  <g transform="matrix(1 0 0 1 281.867 1933)">
   <path d="M11.709 2.91016Q13.75 2.91016 15.5518 2.12891Q17.3535 1.34766 18.7305-0.0292969Q20.1074-1.40625 20.8887-3.20801Q21.6699-5.00977 21.6699-7.05078Q21.6699-9.0918 20.8887-10.8936Q20.1074-12.6953 18.7305-14.0723Q17.3535-15.4492 15.5469-16.2305Q13.7402-17.0117 11.6992-17.0117Q9.6582-17.0117 7.85645-16.2305Q6.05469-15.4492 4.68262-14.0723Q3.31055-12.6953 2.5293-10.8936Q1.74805-9.0918 1.74805-7.05078Q1.74805-5.00977 2.5293-3.20801Q3.31055-1.40625 4.6875-0.0292969Q6.06445 1.34766 7.86621 2.12891Q9.66797 2.91016 11.709 2.91016ZM11.709 1.25Q9.98047 1.25 8.47656 0.605469Q6.97266-0.0390625 5.83496-1.17676Q4.69727-2.31445 4.05762-3.81836Q3.41797-5.32227 3.41797-7.05078Q3.41797-8.7793 4.05762-10.2832Q4.69727-11.7871 5.83008-12.9297Q6.96289-14.0723 8.4668-14.7119Q9.9707-15.3516 11.6992-15.3516Q13.4277-15.3516 14.9316-14.7119Q16.4355-14.0723 17.5781-12.9297Q18.7207-11.7871 19.3652-10.2832Q20.0098-8.7793 20.0098-7.05078Q20.0098-5.32227 19.3701-3.81836Q18.7305-2.31445 17.5928-1.17676Q16.4551-0.0390625 14.9463 0.605469Q13.4375 1.25 11.709 1.25ZM7.39258-7.04102Q7.39258-6.68945 7.62695-6.46484Q7.86133-6.24023 8.23242-6.24023L10.8789-6.24023L10.8789-3.57422Q10.8789-3.21289 11.1035-2.9834Q11.3281-2.75391 11.6797-2.75391Q12.0508-2.75391 12.2852-2.9834Q12.5195-3.21289 12.5195-3.57422L12.5195-6.24023L15.1758-6.24023Q15.5371-6.24023 15.7715-6.46484Q16.0059-6.68945 16.0059-7.04102Q16.0059-7.41211 15.7715-7.6416Q15.5371-7.87109 15.1758-7.87109L12.5195-7.87109L12.5195-10.5176Q12.5195-10.8984 12.2852-11.1279Q12.0508-11.3574 11.6797-11.3574Q11.3281-11.3574 11.1035-11.1279Q10.8789-10.8984 10.8789-10.5176L10.8789-7.87109L8.23242-7.87109Q7.85156-7.87109 7.62207-7.6416Q7.39258-7.41211 7.39258-7.04102Z"/>
  </g>
  <g transform="matrix(1 0 0 1 305.646 1933)">
   <path d="M14.9707 5.66406Q17.0605 5.66406 18.96 5.01465Q20.8594 4.36523 22.4512 3.19336Q24.043 2.02148 25.2197 0.429688Q26.3965-1.16211 27.0459-3.06641Q27.6953-4.9707 27.6953-7.05078Q27.6953-9.14062 27.0459-11.04Q26.3965-12.9395 25.2197-14.5312Q24.043-16.123 22.4512-17.2998Q20.8594-18.4766 18.9551-19.126Q17.0508-19.7754 14.9609-19.7754Q12.8711-19.7754 10.9717-19.126Q9.07227-18.4766 7.48535-17.2998Q5.89844-16.123 4.72168-14.5312Q3.54492-12.9395 2.90039-11.04Q2.25586-9.14062 2.25586-7.05078Q2.25586-4.9707 2.90527-3.06641Q3.55469-1.16211 4.72656 0.429688Q5.89844 2.02148 7.49023 3.19336Q9.08203 4.36523 10.9814 5.01465Q12.8809 5.66406 14.9707 5.66406ZM14.9707 3.84766Q13.1641 3.84766 11.5283 3.2959Q9.89258 2.74414 8.53516 1.74805Q7.17773 0.751953 6.17676-0.610352Q5.17578-1.97266 4.62891-3.6084Q4.08203-5.24414 4.08203-7.05078Q4.08203-8.86719 4.62891-10.5029Q5.17578-12.1387 6.17188-13.501Q7.16797-14.8633 8.52539-15.8594Q9.88281-16.8555 11.5186-17.4023Q13.1543-17.9492 14.9609-17.9492Q16.7773-17.9492 18.4131-17.4023Q20.0488-16.8555 21.4111-15.8594Q22.7734-14.8633 23.7695-13.501Q24.7656-12.1387 25.3174-10.5029Q25.8691-8.86719 25.8691-7.05078Q25.8789-5.24414 25.332-3.6084Q24.7852-1.97266 23.7842-0.610352Q22.7832 0.751953 21.4209 1.74805Q20.0586 2.74414 18.4229 3.2959Q16.7871 3.84766 14.9707 3.84766ZM9.45312-7.04102Q9.45312-6.66016 9.71191-6.41113Q9.9707-6.16211 10.3711-6.16211L14.0625-6.16211L14.0625-2.46094Q14.0625-2.06055 14.3115-1.80664Q14.5605-1.55273 14.9414-1.55273Q15.3516-1.55273 15.6055-1.80664Q15.8594-2.06055 15.8594-2.46094L15.8594-6.16211L19.5605-6.16211Q19.9609-6.16211 20.2148-6.41113Q20.4688-6.66016 20.4688-7.04102Q20.4688-7.45117 20.2148-7.70508Q19.9609-7.95898 19.5605-7.95898L15.8594-7.95898L15.8594-11.6504Q15.8594-12.0605 15.6055-12.3145Q15.3516-12.5684 14.9414-12.5684Q14.5605-12.5684 14.3115-12.3096Q14.0625-12.0508 14.0625-11.6504L14.0625-7.95898L10.3711-7.95898Q9.96094-7.95898 9.70703-7.70508Q9.45312-7.45117 9.45312-7.04102Z"/>
  </g>
  <text style="stroke:none;fill:black;font-family:sans-serif;font-size:13;font-weight:bold;" transform="matrix(1 0 0 1 263 1953)">Design Variations</text>
  <text style="stroke:none;fill:black;font-family:sans-serif;font-size:13;" transform="matrix(1 0 0 1 263 1971)">Symbols are supported in up to nine weights and three scales.</text>
  <text style="stroke:none;fill:black;font-family:sans-serif;font-size:13;" transform="matrix(1 0 0 1 263 1989)">For optimal layout with text and other symbols, vertically align</text>
  <text style="stroke:none;fill:black;font-family:sans-serif;font-size:13;" transform="matrix(1 0 0 1 263 2007)">symbols with the adjacent text.</text>
  <line style="fill:none;stroke:#00AEEF;stroke-width:0.5;opacity:1.0;" x1="776" x2="776" y1="1919" y2="1933"/>
  <g transform="matrix(1 0 0 1 776 1933)">
   <path d="M3.31055 0.15625Q3.70117 0.15625 3.91602-0.00976562Q4.13086-0.175781 4.26758-0.585938L5.52734-4.0332L11.2891-4.0332L12.5488-0.585938Q12.6855-0.175781 12.9004-0.00976562Q13.1152 0.15625 13.4961 0.15625Q13.8867 0.15625 14.1162-0.0585938Q14.3457-0.273438 14.3457-0.644531Q14.3457-0.869141 14.2383-1.17188L9.6582-13.3691Q9.48242-13.8184 9.17969-14.043Q8.87695-14.2676 8.4082-14.2676Q7.5-14.2676 7.17773-13.3789L2.59766-1.16211Q2.49023-0.859375 2.49023-0.634766Q2.49023-0.263672 2.70996-0.0537109Q2.92969 0.15625 3.31055 0.15625ZM6.00586-5.51758L8.37891-12.0898L8.42773-12.0898L10.8008-5.51758Z"/>
  </g>
  <line style="fill:none;stroke:#00AEEF;stroke-width:0.5;opacity:1.0;" x1="793.197" x2="793.197" y1="1919" y2="1933"/>
  <text style="stroke:none;fill:black;font-family:sans-serif;font-size:13;font-weight:bold;" transform="matrix(1 0 0 1 776 1953)">Margins</text>
  <text style="stroke:none;fill:black;font-family:sans-serif;font-size:13;" transform="matrix(1 0 0 1 776 1971)">Leading and trailing margins on the left and right side of each symbol</text>
  <text style="stroke:none;fill:black;font-family:sans-serif;font-size:13;" transform="matrix(1 0 0 1 776 1989)">can be adjusted by modifying the x-location of the margin guidelines.</text>
  <text style="stroke:none;fill:black;font-family:sans-serif;font-size:13;" transform="matrix(1 0 0 1 776 2007)">Modifications are automatically applied proportionally to all</text>
  <text style="stroke:none;fill:black;font-family:sans-serif;font-size:13;" transform="matrix(1 0 0 1 776 2025)">scales and weights.</text>
  <g transform="matrix(1 0 0 1 1289 1933)">
   <path d="M2.8418 1.86523L4.54102 3.57422Q5.18555 4.22852 5.90332 4.17969Q6.62109 4.13086 7.31445 3.35938L18.0078-8.42773L17.041-9.4043L6.42578 2.27539Q6.16211 2.57812 5.89355 2.61719Q5.625 2.65625 5.27344 2.30469L4.10156 1.14258Q3.75 0.791016 3.79395 0.522461Q3.83789 0.253906 4.14062-0.0195312L15.6152-10.8203L14.6387-11.7871L3.04688-0.898438Q2.30469-0.214844 2.25098 0.498047Q2.19727 1.21094 2.8418 1.86523ZM9.25781-16.3281Q8.94531-16.0254 8.90625-15.6348Q8.86719-15.2441 9.04297-14.9512Q9.21875-14.6777 9.55566-14.541Q9.89258-14.4043 10.3809-14.5215Q11.4746-14.7754 12.5977-14.7314Q13.7207-14.6875 14.7949-13.9844L14.209-12.5293Q13.9551-11.9043 14.0674-11.4404Q14.1797-10.9766 14.5801-10.5664L16.875-8.25195Q17.2363-7.88086 17.5781-7.82227Q17.9199-7.76367 18.3398-7.8418L19.4043-8.03711L20.0684-7.36328L20.0293-6.80664Q20-6.43555 20.1221-6.12305Q20.2441-5.81055 20.6055-5.44922L21.3672-4.70703Q21.7285-4.3457 22.1533-4.33105Q22.5781-4.31641 22.9297-4.66797L25.8398-7.58789Q26.1914-7.93945 26.1816-8.35449Q26.1719-8.76953 25.8105-9.13086L25.0391-9.89258Q24.6875-10.2539 24.3799-10.3857Q24.0723-10.5176 23.7109-10.4883L23.1348-10.4395L22.4902-11.0742L22.7344-12.1973Q22.832-12.6172 22.6953-12.9834Q22.5586-13.3496 22.1191-13.7891L19.9219-15.9766Q18.6719-17.2168 17.2607-17.8369Q15.8496-18.457 14.4189-18.4814Q12.9883-18.5059 11.665-17.959Q10.3418-17.4121 9.25781-16.3281ZM10.752-15.957Q11.6602-16.6211 12.7002-16.9043Q13.7402-17.1875 14.8047-17.085Q15.8691-16.9824 16.8701-16.5137Q17.8711-16.0449 18.7012-15.2051L21.1328-12.793Q21.3086-12.6172 21.3525-12.4512Q21.3965-12.2852 21.3379-12.0312L21.0156-10.5469L22.5195-9.0625L23.5059-9.12109Q23.6914-9.13086 23.7891-9.09668Q23.8867-9.0625 24.0332-8.91602L24.6094-8.33984L22.168-5.89844L21.5918-6.47461Q21.4453-6.62109 21.4062-6.71875Q21.3672-6.81641 21.377-7.01172L21.4453-7.98828L19.9512-9.47266L18.4277-9.21875Q18.1836-9.16992 18.042-9.2041Q17.9004-9.23828 17.7148-9.41406L15.7129-11.416Q15.5176-11.5918 15.4932-11.7529Q15.4688-11.9141 15.5859-12.1875L16.4648-14.2773Q15.293-15.3711 13.8281-15.791Q12.3633-16.2109 10.8398-15.7617Q10.7227-15.7324 10.6885-15.8057Q10.6543-15.8789 10.752-15.957Z"/>
  </g>
  <text style="stroke:none;fill:black;font-family:sans-serif;font-size:13;font-weight:bold;" transform="matrix(1 0 0 1 1289 1953)">Exporting</text>
  <text style="stroke:none;fill:black;font-family:sans-serif;font-size:13;" transform="matrix(1 0 0 1 1289 1971)">Symbols should be outlined when exporting to ensure the</text>
  <text style="stroke:none;fill:black;font-family:sans-serif;font-size:13;" transform="matrix(1 0 0 1 1289 1989)">design is preserved when submitting to Xcode.</text>
  <text id="template-version" style="stroke:none;fill:black;font-family:sans-serif;font-size:13;text-anchor:end;" transform="matrix(1 0 0 1 3036 1933)">Template v.3.0</text>
  <text style="stroke:none;fill:black;font-family:sans-serif;font-size:13;text-anchor:end;" transform="matrix(1 0 0 1 3036 1951)">Requires Xcode 13 or greater</text>
  <text id="descriptive-name" style="stroke:none;fill:black;font-family:sans-serif;font-size:13;text-anchor:end;" transform="matrix(1 0 0 1 3036 1969)">Generated from checkmark.seal</text>
  <text style="stroke:none;fill:black;font-family:sans-serif;font-size:13;text-anchor:end;" transform="matrix(1 0 0 1 3036 1987)">Typeset at 100 points</text>
  <text style="stroke:none;fill:black;font-family:sans-serif;font-size:13;" transform="matrix(1 0 0 1 263 726)">Small</text>
  <text style="stroke:none;fill:black;font-family:sans-serif;font-size:13;" transform="matrix(1 0 0 1 263 1156)">Medium</text>
  <text style="stroke:none;fill:black;font-family:sans-serif;font-size:13;" transform="matrix(1 0 0 1 263 1586)">Large</text>
 </g>
 <g id="Guides">
  <g id="H-reference" style="fill:#27AAE1;stroke:none;" transform="matrix(1 0 0 1 339 696)">
   <path d="M0.993347 0L3.6377 0L29.3282-67.1326L30.0301-67.1326L30.0301-70.459L28.1227-70.459ZM11.6882-24.4797L46.9818-24.4797L46.2311-26.7288L12.4382-26.7288ZM55.1193 0L57.7637 0L30.6381-70.459L29.4327-70.459L29.4327-67.1326Z"/>
  </g>
  <line id="Baseline-S" style="fill:none;stroke:#27AAE1;opacity:1;stroke-width:0.5;" x1="263" x2="3036" y1="696" y2="696"/>
  <line id="Capline-S" style="fill:none;stroke:#27AAE1;opacity:1;stroke-width:0.5;" x1="263" x2="3036" y1="625.541" y2="625.541"/>
  <g id="H-reference" style="fill:#27AAE1;stroke:none;" transform="matrix(1 0 0 1 339 1126)">
   <path d="M0.993347 0L3.6377 0L29.3282-67.1326L30.0301-67.1326L30.0301-70.459L28.1227-70.459ZM11.6882-24.4797L46.9818-24.4797L46.2311-26.7288L12.4382-26.7288ZM55.1193 0L57.7637 0L30.6381-70.459L29.4327-70.459L29.4327-67.1326Z"/>
  </g>
  <line id="Baseline-M" style="fill:none;stroke:#27AAE1;opacity:1;stroke-width:0.5;" x1="263" x2="3036" y1="1126" y2="1126"/>
  <line id="Capline-M" style="fill:none;stroke:#27AAE1;opacity:1;stroke-width:0.5;" x1="263" x2="3036" y1="1055.54" y2="1055.54"/>
  <g id="H-reference" style="fill:#27AAE1;stroke:none;" transform="matrix(1 0 0 1 339 1556)">
   <path d="M0.993347 0L3.6377 0L29.3282-67.1326L30.0301-67.1326L30.0301-70.459L28.1227-70.459ZM11.6882-24.4797L46.9818-24.4797L46.2311-26.7288L12.4382-26.7288ZM55.1193 0L57.7637 0L30.6381-70.459L29.4327-70.459L29.4327-67.1326Z"/>
  </g>
  <line id="Baseline-L" style="fill:none;stroke:#27AAE1;opacity:1;stroke-width:0.5;" x1="263" x2="3036" y1="1556" y2="1556"/>
  <line id="Capline-L" style="fill:none;stroke:#27AAE1;opacity:1;stroke-width:0.5;" x1="263" x2="3036" y1="1485.54" y2="1485.54"/>
  <line id="left-margin-Regular-M" style="fill:none;stroke:#00AEEF;stroke-width:0.5;opacity:1.0;" x1="1385.66" x2="1385.66" y1="1030.79" y2="1150.12"/>
  <line id="right-margin-Regular-M" style="fill:none;stroke:#00AEEF;stroke-width:0.5;opacity:1.0;" x1="1514.03" x2="1514.03" y1="1030.79" y2="1150.12"/>
 </g>
 <g id="Symbols">
  <g id="Black-L" transform="matrix(1 0 0 1 2848.32 1556)">
   <path class="hierarchical-0:secondary SFSymbolsPreview4D4D4D" d="M47.3633 21.582L60.2051 21.582Q61.4746 21.582 62.4023 22.5098L71.4355 31.543Q78.3203 38.3789 85.1074 38.3789Q91.8945 38.3789 98.7305 31.543L107.764 22.5098Q108.691 21.582 110.01 21.582L122.803 21.582Q132.471 21.582 137.28 16.7725Q142.09 11.9629 142.09 2.29492L142.09-10.498Q142.09-11.8164 143.018-12.7441L152.051-21.7773Q158.936-28.6133 158.911-35.4248Q158.887-42.2363 152.051-49.0723L143.018-58.1055Q142.09-59.0332 142.09-60.3516L142.09-73.1445Q142.09-82.8125 137.28-87.6221Q132.471-92.4316 122.803-92.4316L110.01-92.4316Q108.691-92.4316 107.764-93.3594L98.7305-102.393Q91.8457-109.277 85.1074-109.229Q78.3691-109.18 71.4355-102.344L62.4023-93.3594Q61.4746-92.4316 60.2051-92.4316L47.3633-92.4316Q37.6953-92.4316 32.8857-87.6709Q28.0762-82.9102 28.0762-73.1445L28.0762-60.3516Q28.0762-59.0332 27.1484-58.1055L18.1152-49.0723Q11.2793-42.2363 11.2793-35.4248Q11.2793-28.6133 18.1152-21.7773L27.1484-12.7441Q28.0762-11.8164 28.0762-10.498L28.0762 2.29492Q28.0762 11.9629 32.9102 16.7725Q37.7441 21.582 47.3633 21.582ZM51.0742 4.88281Q47.0215 4.88281 45.9229 3.78418Q44.8242 2.68555 44.7754-1.31836L44.7754-16.1133Q44.7754-18.75 43.0176-20.459L32.5195-30.957Q30.6152-32.8613 29.9805-34.1064Q29.3457-35.3516 29.9805-36.5967Q30.6152-37.8418 32.5195-39.7461L43.0176-50.2441Q44.7266-51.9531 44.8242-54.5898L44.8242-69.3848Q44.8242-72.1191 45.2637-73.4619Q45.7031-74.8047 47.0215-75.2197Q48.3398-75.6348 51.0742-75.6348L65.8691-75.6836Q68.5059-75.6836 70.2148-77.4414L80.7129-87.9395Q82.6172-89.8438 83.8379-90.5029Q85.0586-91.1621 86.3037-90.5273Q87.5488-89.8926 89.502-87.9395L100-77.4414Q101.709-75.6836 104.346-75.6836L119.141-75.6348Q123.145-75.6348 124.243-74.5361Q125.342-73.4375 125.342-69.3848L125.342-54.5898Q125.439-51.9531 127.148-50.2441L137.695-39.7461Q139.6-37.8418 140.21-36.5967Q140.82-35.3516 140.21-34.1064Q139.6-32.8613 137.695-30.957L127.148-20.459Q125.439-18.75 125.439-16.1133L125.342-1.31836Q125.342 2.68555 124.243 3.78418Q123.145 4.88281 119.141 4.88281L104.346 4.98047Q102.979 4.98047 101.978 5.32227Q100.977 5.66406 100 6.68945L89.502 17.2363Q87.5977 19.0918 86.3525 19.7266Q85.1074 20.3613 83.8623 19.7266Q82.6172 19.0918 80.7129 17.2363L70.2148 6.68945Q69.1895 5.66406 68.1885 5.32227Q67.1875 4.98047 65.8691 4.98047Z"/>
   <path class="hierarchical-1:primary SFSymbolsPreview212121" d="M78.6133-5.32227Q83.3008-5.32227 85.9863-9.47266L111.768-48.6816Q112.646-50 113.11-51.3184Q113.574-52.6367 113.574-53.8574Q113.574-57.0801 111.157-59.1797Q108.74-61.2793 105.566-61.2793Q101.367-61.2793 98.6816-56.8359L78.5645-24.2188L69.5312-34.9609Q68.2617-36.4746 66.8213-37.207Q65.3809-37.9395 63.5254-37.9395Q60.3516-37.9395 58.0322-35.7178Q55.7129-33.4961 55.7129-30.2734Q55.7129-27.3926 58.0078-24.6582L71.0449-9.27734Q72.6074-7.42188 74.4629-6.37207Q76.3184-5.32227 78.6133-5.32227Z"/>
  </g>
  <g id="Heavy-L" transform="matrix(1 0 0 1 2552.31 1556)">
   <path class="hierarchical-0:secondary SFSymbolsPreview4D4D4D" d="M46.4844 20.8496L59.6191 20.8496Q61.084 20.8496 62.1094 21.875L71.3867 31.1523Q77.9785 37.6953 84.3994 37.6953Q90.8203 37.6953 97.3633 31.1523L106.641 21.875Q107.666 20.8496 109.131 20.8496L122.266 20.8496Q131.543 20.8496 136.084 16.3086Q140.625 11.7676 140.625 2.49023L140.625-10.6445Q140.625-12.1094 141.65-13.1348L150.928-22.4121Q157.52-29.0039 157.495-35.4248Q157.471-41.8457 150.928-48.3887L141.65-57.666Q140.625-58.6914 140.625-60.1562L140.625-73.3398Q140.625-82.5684 136.084-87.1094Q131.543-91.6504 122.266-91.6504L109.131-91.6504Q107.666-91.6504 106.641-92.6758L97.3633-101.953Q90.7715-108.545 84.3994-108.521Q78.0273-108.496 71.3867-101.953L62.1094-92.6758Q61.084-91.6504 59.6191-91.6504L46.4844-91.6504Q37.207-91.6504 32.666-87.1582Q28.125-82.666 28.125-73.3398L28.125-60.1562Q28.125-58.6914 27.0996-57.666L17.8223-48.3887Q11.2793-41.8457 11.2793-35.4248Q11.2793-29.0039 17.8223-22.4121L27.0996-13.1348Q28.125-12.1094 28.125-10.6445L28.125 2.49023Q28.125 11.7676 32.6904 16.3086Q37.2559 20.8496 46.4844 20.8496ZM49.3164 6.05469Q45.2148 6.05469 44.0674 4.93164Q42.9199 3.80859 42.9199-0.292969L42.9199-15.625Q42.9199-18.2617 41.1133-20.0195L30.2246-30.8594Q28.3203-32.8125 27.6611-34.082Q27.002-35.3516 27.6611-36.6211Q28.3203-37.8906 30.2246-39.8438L41.1133-50.6836Q42.8711-52.4414 42.9199-55.0781L42.9199-70.459Q42.9199-73.1934 43.3838-74.5605Q43.8477-75.9277 45.1904-76.3672Q46.5332-76.8066 49.3164-76.8066L64.6484-76.8555Q67.334-76.8555 69.043-78.6621L79.8828-89.502Q81.8359-91.4551 83.1055-92.1143Q84.375-92.7734 85.6445-92.1143Q86.9141-91.4551 88.8672-89.502L99.7559-78.6621Q101.465-76.8555 104.15-76.8555L119.482-76.8066Q123.535-76.8066 124.683-75.6836Q125.83-74.5605 125.83-70.459L125.83-55.0781Q125.879-52.4414 127.637-50.6836L138.525-39.8438Q140.479-37.8906 141.113-36.6211Q141.748-35.3516 141.113-34.082Q140.479-32.8125 138.525-30.8594L127.637-20.0195Q125.879-18.2617 125.879-15.625L125.83-0.292969Q125.83 3.80859 124.683 4.93164Q123.535 6.05469 119.482 6.05469L104.15 6.15234Q102.783 6.15234 101.758 6.51855Q100.732 6.88477 99.7559 7.91016L88.8672 18.7988Q86.9629 20.7031 85.6689 21.3379Q84.375 21.9727 83.1055 21.3379Q81.8359 20.7031 79.8828 18.7988L69.043 7.91016Q68.0176 6.88477 66.9922 6.51855Q65.9668 6.15234 64.6484 6.15234Z"/>
   <path class="hierarchical-1:primary SFSymbolsPreview212121" d="M77.832-5.37109Q82.0801-5.37109 84.5215-9.13086L111.279-50.1465Q112.061-51.3672 112.5-52.5635Q112.939-53.7598 112.939-54.9316Q112.939-57.8125 110.767-59.668Q108.594-61.5234 105.811-61.5234Q102.051-61.5234 99.6582-57.5684L77.7344-22.2656L67.5781-34.5703Q66.4062-35.9863 65.0879-36.6699Q63.7695-37.3535 62.1094-37.3535Q59.2285-37.3535 57.1777-35.3516Q55.127-33.3496 55.127-30.4688Q55.127-27.8809 57.1777-25.3906L70.9961-8.98438Q72.4121-7.27539 74.0967-6.32324Q75.7812-5.37109 77.832-5.37109Z"/>
  </g>
  <g id="Bold-L" transform="matrix(1 0 0 1 2256.4 1556)">
   <path class="hierarchical-0:secondary SFSymbolsPreview4D4D4D" d="M45.5078 19.9707L59.0332 19.9707Q60.6445 19.9707 61.8164 21.1426L71.3867 30.6641Q77.6367 36.8652 83.6182 36.8652Q89.5996 36.8652 95.8008 30.6641L105.371 21.1426Q106.543 19.9707 108.203 19.9707L121.68 19.9707Q130.469 19.9707 134.741 15.7227Q139.014 11.4746 139.014 2.68555L139.014-10.8398Q139.014-12.5 140.137-13.6719L149.707-23.2422Q155.957-29.4434 155.933-35.4492Q155.908-41.4551 149.707-47.6562L140.137-57.2754Q139.014-58.3984 139.014-60.0586L139.014-73.584Q139.014-82.3242 134.766-86.5967Q130.518-90.8691 121.68-90.8691L108.203-90.8691Q106.543-90.8691 105.371-91.9922L95.8008-101.562Q89.5508-107.812 83.5938-107.788Q77.6367-107.764 71.3867-101.514L61.8164-91.9922Q60.6445-90.8691 59.0332-90.8691L45.5078-90.8691Q36.6699-90.8691 32.4219-86.6455Q28.1738-82.4219 28.1738-73.584L28.1738-60.0586Q28.1738-58.3984 27.0508-57.2754L17.4805-47.6562Q11.2793-41.4551 11.2793-35.4492Q11.2793-29.4434 17.4805-23.2422L27.0508-13.6719Q28.1738-12.5 28.1738-10.8398L28.1738 2.68555Q28.1738 11.4746 32.4463 15.7227Q36.7188 19.9707 45.5078 19.9707ZM47.3633 7.37305Q43.1641 7.37305 41.9922 6.20117Q40.8203 5.0293 40.8203 0.878906L40.8203-15.1367Q40.8203-17.7734 38.9648-19.5801L27.6855-30.8105Q25.7324-32.8125 25.0732-34.1064Q24.4141-35.4004 25.0732-36.7188Q25.7324-38.0371 27.6855-39.9902L38.9648-51.2695Q40.7715-53.0762 40.8203-55.7129L40.8203-71.6797Q40.8203-74.5117 41.2842-75.9033Q41.748-77.2949 43.1396-77.7344Q44.5312-78.1738 47.3633-78.1738L63.3301-78.2227Q66.0156-78.2227 67.7734-80.0293L79.0039-91.3086Q81.0059-93.2617 82.2998-93.9453Q83.5938-94.6289 84.8877-93.9697Q86.1816-93.3105 88.1836-91.3086L99.4629-80.0293Q101.221-78.2227 103.906-78.2227L119.873-78.1738Q124.023-78.1738 125.195-77.002Q126.367-75.8301 126.367-71.6797L126.367-55.7129Q126.416-53.0762 128.223-51.2695L139.502-39.9902Q141.455-38.0371 142.114-36.7188Q142.773-35.4004 142.114-34.1064Q141.455-32.8125 139.502-30.8105L128.223-19.5801Q126.416-17.7734 126.416-15.1367L126.367 0.878906Q126.367 5.0293 125.195 6.20117Q124.023 7.37305 119.873 7.37305L103.906 7.42188Q102.539 7.42188 101.489 7.78809Q100.439 8.1543 99.4629 9.22852L88.1836 20.5078Q86.2305 22.4609 84.9121 23.0957Q83.5938 23.7305 82.2998 23.0957Q81.0059 22.4609 79.0039 20.5078L67.7734 9.22852Q66.748 8.1543 65.6982 7.78809Q64.6484 7.42188 63.3301 7.42188Z"/>
   <path class="hierarchical-1:primary SFSymbolsPreview212121" d="M76.9531-5.46875Q80.6641-5.46875 82.8125-8.78906L110.693-51.8555Q111.328-52.9297 111.768-54.0283Q112.207-55.127 112.207-56.1523Q112.207-58.6426 110.327-60.2539Q108.447-61.8652 106.006-61.8652Q102.832-61.8652 100.684-58.4473L76.8066-20.166L65.4297-34.1309Q64.3066-35.5469 63.1104-36.1328Q61.9141-36.7188 60.4492-36.7188Q58.0078-36.7188 56.2256-34.9854Q54.4434-33.252 54.4434-30.7617Q54.4434-28.4668 56.25-26.2695L70.8984-8.69141Q72.168-7.12891 73.6572-6.29883Q75.1465-5.46875 76.9531-5.46875Z"/>
  </g>
  <g id="Semibold-L" transform="matrix(1 0 0 1 1960.23 1556)">
   <path class="hierarchical-0:secondary SFSymbolsPreview4D4D4D" d="M44.7754 19.3848L58.5938 19.3848Q60.3516 19.3848 61.5723 20.6055L71.3379 30.3223Q77.3438 36.3281 83.0322 36.3037Q88.7207 36.2793 94.7266 30.3223L104.492 20.6055Q105.713 19.3848 107.52 19.3848L121.289 19.3848Q129.736 19.3848 133.789 15.3564Q137.842 11.3281 137.842 2.83203L137.842-10.9375Q137.842-12.6953 139.111-13.9648L148.828-23.7305Q154.834-29.7363 154.81-35.4492Q154.785-41.1621 148.828-47.1191L139.111-56.9336Q137.842-58.1543 137.842-59.9121L137.842-73.6816Q137.842-82.1289 133.813-86.1816Q129.785-90.2344 121.289-90.2344L107.52-90.2344Q105.713-90.2344 104.492-91.4551L94.7266-101.221Q88.7207-107.227 83.0566-107.202Q77.3926-107.178 71.3379-101.172L61.5723-91.4551Q60.3516-90.2344 58.5938-90.2344L44.7754-90.2344Q36.2793-90.2344 32.251-86.2305Q28.2227-82.2266 28.2227-73.6816L28.2227-59.9121Q28.2227-58.1543 27.002-56.9336L17.2363-47.1191Q11.2793-41.1621 11.2793-35.4492Q11.2793-29.7363 17.2363-23.7305L27.002-13.9648Q28.2227-12.6953 28.2227-10.9375L28.2227 2.83203Q28.2227 11.2793 32.2754 15.332Q36.3281 19.3848 44.7754 19.3848ZM45.9961 8.25195Q41.748 8.25195 40.5518 7.05566Q39.3555 5.85938 39.3555 1.66016L39.3555-14.7461Q39.3555-17.3828 37.5-19.2383L25.9277-30.7617Q23.9746-32.7637 23.291-34.082Q22.6074-35.4004 23.291-36.7188Q23.9746-38.0371 25.9277-40.0391L37.5-51.6113Q39.3555-53.418 39.3555-56.1035L39.3555-72.5098Q39.3555-75.3418 39.8438-76.7578Q40.332-78.1738 41.7236-78.6377Q43.1152-79.1016 45.9961-79.1016L62.3535-79.1016Q65.0879-79.1016 66.8457-80.957L78.3691-92.5293Q80.3711-94.4824 81.6895-95.166Q83.0078-95.8496 84.3506-95.166Q85.6934-94.4824 87.6953-92.5293L99.2188-80.957Q101.025-79.1016 103.76-79.1016L120.117-79.1016Q124.316-79.1016 125.513-77.8809Q126.709-76.6602 126.709-72.5098L126.709-56.1035Q126.758-53.418 128.564-51.6113L140.137-40.0391Q142.139-38.0371 142.798-36.7188Q143.457-35.4004 142.798-34.082Q142.139-32.7637 140.137-30.7617L128.564-19.2383Q126.758-17.3828 126.758-14.7461L126.709 1.66016Q126.709 5.85938 125.513 7.05566Q124.316 8.25195 120.117 8.25195L103.76 8.30078Q102.344 8.30078 101.27 8.69141Q100.195 9.08203 99.2188 10.1562L87.6953 21.6797Q85.6934 23.6816 84.375 24.3164Q83.0566 24.9512 81.7139 24.3164Q80.3711 23.6816 78.3691 21.6797L66.8457 10.1562Q65.8691 9.08203 64.7949 8.69141Q63.7207 8.30078 62.3535 8.30078Z"/>
   <path class="hierarchical-1:primary SFSymbolsPreview212121" d="M76.3672-5.46875Q79.6875-5.46875 81.6895-8.49609L110.303-52.9785Q110.889-53.9062 111.304-54.9316Q111.719-55.957 111.719-56.9336Q111.719-59.1797 110.034-60.5957Q108.35-62.0117 106.201-62.0117Q103.369-62.0117 101.416-58.9355L76.1719-18.6035L63.916-33.7891Q62.8906-35.1074 61.792-35.6445Q60.6934-36.1816 59.375-36.1816Q57.1289-36.1816 55.5664-34.6436Q54.0039-33.1055 54.0039-30.8594Q54.0039-28.7598 55.6152-26.7578L70.8496-8.44727Q72.0215-6.93359 73.3643-6.20117Q74.707-5.46875 76.3672-5.46875Z"/>
  </g>
  <g id="Medium-L" transform="matrix(1 0 0 1 1663.93 1556)">
   <path class="hierarchical-0:secondary SFSymbolsPreview4D4D4D" d="M44.2871 18.9453L58.252 18.9453Q60.1074 18.9453 61.377 20.2148L71.3379 30.0293Q77.1484 35.8887 82.6172 35.8643Q88.0859 35.8398 93.9453 30.0293L103.857 20.2148Q105.127 18.9453 106.982 18.9453L120.947 18.9453Q129.199 18.9453 133.105 15.0391Q137.012 11.1328 137.012 2.88086L137.012-11.084Q137.012-12.9395 138.281-14.2578L148.145-24.1699Q154.004-29.9805 153.979-35.4736Q153.955-40.9668 148.145-46.7773L138.281-56.7383Q137.012-58.0078 137.012-59.8633L137.012-73.8281Q137.012-82.0312 133.13-85.9375Q129.248-89.8438 120.947-89.8438L106.982-89.8438Q105.127-89.8438 103.857-91.1133L93.9453-101.025Q88.0859-106.836 82.6172-106.836Q77.1484-106.836 71.3379-100.977L61.377-91.1133Q60.1074-89.8438 58.252-89.8438L44.2871-89.8438Q36.0352-89.8438 32.1289-85.9863Q28.2227-82.1289 28.2227-73.8281L28.2227-59.8633Q28.2227-58.0078 26.9531-56.7383L17.0898-46.7773Q11.2793-40.9668 11.2793-35.4736Q11.2793-29.9805 17.0898-24.1699L26.9531-14.2578Q28.2227-12.9395 28.2227-11.084L28.2227 2.88086Q28.2227 11.084 32.1289 15.0146Q36.0352 18.9453 44.2871 18.9453ZM44.9707 8.88672Q40.6738 8.88672 39.4775 7.69043Q38.2812 6.49414 38.2324 2.24609L38.2324-14.502Q38.2324-17.1875 36.377-19.043L24.6094-30.7129Q22.6074-32.7637 21.9238-34.1064Q21.2402-35.4492 21.9238-36.792Q22.6074-38.1348 24.6094-40.1855L36.377-51.9043Q38.2324-53.7598 38.2812-56.4453L38.2812-73.1445Q38.2812-76.0254 38.7451-77.4414Q39.209-78.8574 40.625-79.3457Q42.041-79.834 44.9707-79.834L61.6699-79.834Q64.4043-79.834 66.1621-81.6895L77.9297-93.5059Q79.9316-95.459 81.2744-96.1426Q82.6172-96.8262 83.96-96.1426Q85.3027-95.459 87.3535-93.5059L99.0723-81.6895Q100.879-79.834 103.613-79.834L120.312-79.834Q124.561-79.834 125.781-78.6133Q127.002-77.3926 127.002-73.1445L127.002-56.4453Q127.002-53.7598 128.857-51.9043L140.674-40.1855Q142.627-38.1348 143.311-36.792Q143.994-35.4492 143.311-34.1064Q142.627-32.7637 140.674-30.7129L128.857-19.043Q127.002-17.1875 127.002-14.502L127.002 2.24609Q127.002 6.49414 125.781 7.69043Q124.561 8.88672 120.312 8.88672L103.613 8.93555Q102.197 8.93555 101.123 9.32617Q100.049 9.7168 99.0723 10.791L87.3535 22.5586Q85.3027 24.5605 83.96 25.2197Q82.6172 25.8789 81.2744 25.2197Q79.9316 24.5605 77.9297 22.5586L66.1621 10.791Q65.1855 9.7168 64.1113 9.32617Q63.0371 8.93555 61.6699 8.93555Z"/>
   <path class="hierarchical-1:primary SFSymbolsPreview212121" d="M75.8789-5.51758Q78.9062-5.51758 80.7617-8.30078L109.961-53.8574Q110.449-54.7363 110.889-55.6885Q111.328-56.6406 111.328-57.5684Q111.328-59.5703 109.79-60.8643Q108.252-62.1582 106.25-62.1582Q103.711-62.1582 101.953-59.375L75.6836-17.4805L62.7441-33.5449Q61.7676-34.8633 60.7178-35.3516Q59.668-35.8398 58.4473-35.8398Q56.4453-35.8398 55.0293-34.4482Q53.6133-33.0566 53.6133-31.0059Q53.6133-29.0527 55.0781-27.1973L70.752-8.25195Q71.875-6.83594 73.0957-6.17676Q74.3164-5.51758 75.8789-5.51758Z"/>
  </g>
  <g id="Regular-L" transform="matrix(1 0 0 1 1367.76 1556)">
   <path class="hierarchical-0:secondary SFSymbolsPreview4D4D4D" d="M43.6035 18.3594L57.8125 18.3594Q59.8145 18.3594 61.1816 19.7266L71.2891 29.7363Q76.9043 35.3516 82.0801 35.3271Q87.2559 35.3027 92.8711 29.7363L102.979 19.7266Q104.346 18.3594 106.348 18.3594L120.557 18.3594Q128.467 18.3594 132.178 14.6729Q135.889 10.9863 135.889 3.02734L135.889-11.1816Q135.889-13.1348 137.256-14.5508L147.314-24.6582Q152.93-30.2734 152.905-35.4736Q152.881-40.6738 147.314-46.2402L137.256-56.3965Q135.889-57.7637 135.889-59.7168L135.889-73.9746Q135.889-81.8359 132.202-85.5469Q128.516-89.2578 120.557-89.2578L106.348-89.2578Q104.346-89.2578 102.979-90.625L92.8711-100.684Q87.2559-106.299 82.0801-106.299Q76.9043-106.299 71.2891-100.684L61.1816-90.625Q59.8145-89.2578 57.8125-89.2578L43.6035-89.2578Q35.6445-89.2578 31.958-85.5957Q28.2715-81.9336 28.2715-73.9746L28.2715-59.7168Q28.2715-57.7637 26.9043-56.3965L16.8457-46.2402Q11.2793-40.6738 11.2793-35.4736Q11.2793-30.2734 16.8457-24.6582L26.9043-14.5508Q28.2715-13.1348 28.2715-11.1816L28.2715 3.02734Q28.2715 10.9375 31.958 14.6484Q35.6445 18.3594 43.6035 18.3594ZM43.6035 9.81445Q39.3066 9.81445 38.0615 8.56934Q36.8164 7.32422 36.8164 3.02734L36.8164-14.1113Q36.8164-16.7969 34.9121-18.7012L22.8516-30.6641Q20.8496-32.7148 20.166-34.082Q19.4824-35.4492 20.166-36.8164Q20.8496-38.1836 22.8516-40.2344L34.9121-52.2461Q36.8164-54.1504 36.8164-56.8359L36.8164-73.9746Q36.8164-76.8555 37.3047-78.2959Q37.793-79.7363 39.2334-80.2246Q40.6738-80.7129 43.6035-80.7129L60.7422-80.7129Q63.4766-80.7129 65.2832-82.6172L77.2949-94.6777Q79.3457-96.6797 80.7129-97.3633Q82.0801-98.0469 83.4473-97.3633Q84.8145-96.6797 86.8652-94.6777L98.877-82.6172Q100.684-80.7129 103.467-80.7129L120.557-80.7129Q124.854-80.7129 126.099-79.4678Q127.344-78.2227 127.344-73.9746L127.344-56.8359Q127.344-54.1504 129.248-52.2461L141.309-40.2344Q143.311-38.1836 143.994-36.8164Q144.678-35.4492 143.994-34.082Q143.311-32.7148 141.309-30.6641L129.248-18.7012Q127.344-16.7969 127.344-14.1113L127.344 3.02734Q127.344 7.32422 126.099 8.56934Q124.854 9.81445 120.557 9.81445L103.467 9.81445Q102.051 9.81445 100.952 10.2295Q99.8535 10.6445 98.877 11.7188L86.8652 23.7305Q84.8145 25.7812 83.4473 26.4404Q82.0801 27.0996 80.7129 26.4404Q79.3457 25.7812 77.2949 23.7305L65.2832 11.7188Q64.3066 10.6445 63.208 10.2295Q62.1094 9.81445 60.7422 9.81445Z"/>
   <path class="hierarchical-1:primary SFSymbolsPreview212121" d="M75.293-5.56641Q77.9785-5.56641 79.6387-8.05664L109.57-54.9805Q110.01-55.7617 110.425-56.6406Q110.84-57.5195 110.84-58.3984Q110.84-60.1562 109.497-61.2549Q108.154-62.3535 106.445-62.3535Q104.248-62.3535 102.686-59.9609L75.0488-16.0156L61.2793-33.252Q60.3516-34.5215 59.3994-34.9609Q58.4473-35.4004 57.373-35.4004Q55.6152-35.4004 54.3945-34.1797Q53.1738-32.959 53.1738-31.1523Q53.1738-29.4434 54.4434-27.7832L70.7031-8.05664Q71.7285-6.73828 72.8271-6.15234Q73.9258-5.56641 75.293-5.56641Z"/>
  </g>
  <g id="Light-L" transform="matrix(1 0 0 1 1072.07 1556)">
   <path class="hierarchical-0:secondary SFSymbolsPreview4D4D4D" d="M42.1387 17.2852L57.1289 17.2852Q59.2773 17.2852 60.7422 18.75L71.4355 29.3457Q76.5137 34.4238 81.0791 34.4238Q85.6445 34.4238 90.7227 29.3457L101.416 18.75Q102.881 17.2852 104.98 17.2852L120.02 17.2852Q127.197 17.2852 130.469 14.0381Q133.74 10.791 133.74 3.61328L133.74-11.4258Q133.74-13.4766 135.205-15.0391L145.801-25.7324Q150.879-30.8105 150.854-35.376Q150.83-39.9414 145.801-44.9707L135.205-55.7129Q133.74-57.2266 133.74-59.2773L133.74-74.3164Q133.74-81.4941 130.493-84.7656Q127.246-88.0371 120.02-88.0371L104.98-88.0371Q102.881-88.0371 101.416-89.502L90.7227-100.098Q85.5957-105.225 81.0547-105.225Q76.5137-105.225 71.3867-100.098L60.7422-89.502Q59.2773-88.0371 57.1289-88.0371L42.1387-88.0371Q34.9121-88.0371 31.665-84.79Q28.418-81.543 28.418-74.3164L28.418-59.2773Q28.418-57.2266 26.9531-55.7129L16.3086-44.9707Q11.2793-39.9414 11.2793-35.376Q11.2793-30.8105 16.3086-25.7324L26.9531-15.0391Q28.418-13.4766 28.418-11.4258L28.418 3.61328Q28.418 10.791 31.665 14.0381Q34.9121 17.2852 42.1387 17.2852ZM42.1387 10.7422Q37.6953 10.7422 36.3281 9.375Q34.9609 8.00781 34.9609 3.61328L34.9609-13.7695Q34.9609-16.3574 33.1543-18.1152L20.8984-30.3223Q18.8477-32.4219 18.1396-33.8867Q17.4316-35.3516 18.1396-36.8164Q18.8477-38.2812 20.8984-40.3809L33.1543-52.5879Q34.9609-54.3945 34.9609-56.9336L34.9609-74.3164Q34.9609-77.2949 35.5225-78.833Q36.084-80.3711 37.5977-80.9082Q39.1113-81.4453 42.1387-81.4453L59.5215-81.4453Q62.0605-81.4453 63.8184-83.252L76.0254-95.5078Q78.125-97.5586 79.5898-98.2666Q81.0547-98.9746 82.5439-98.2666Q84.0332-97.5586 86.1328-95.5078L98.3398-83.252Q100.049-81.4453 102.686-81.4453L120.02-81.4453Q124.414-81.4453 125.806-80.0781Q127.197-78.7109 127.197-74.3164L127.197-56.9336Q127.197-54.3945 128.955-52.5879L141.211-40.3809Q143.262-38.2812 143.97-36.8164Q144.678-35.3516 143.97-33.8867Q143.262-32.4219 141.211-30.3223L128.955-18.1152Q127.197-16.3574 127.197-13.7695L127.197 3.61328Q127.197 8.00781 125.806 9.375Q124.414 10.7422 120.02 10.7422L102.686 10.7422Q101.318 10.7422 100.293 11.1572Q99.2676 11.5723 98.3398 12.5488L86.1328 24.7559Q84.0332 26.8555 82.5439 27.5391Q81.0547 28.2227 79.5898 27.5391Q78.125 26.8555 76.0254 24.7559L63.8184 12.5488Q62.8906 11.5723 61.8408 11.1572Q60.791 10.7422 59.5215 10.7422Z"/>
   <path class="hierarchical-1:primary SFSymbolsPreview212121" d="M74.3164-5.51758Q76.3184-5.51758 77.6367-7.37305L109.131-56.4941Q109.473-57.0312 109.766-57.7148Q110.059-58.3984 110.059-59.0332Q110.059-60.3516 109.033-61.2305Q108.008-62.1094 106.689-62.1094Q105.029-62.1094 103.76-60.2539L74.1211-13.6719L58.5449-32.4707Q57.8613-33.4473 57.1289-33.7891Q56.3965-34.1309 55.5176-34.1309Q54.1992-34.1309 53.2471-33.1787Q52.2949-32.2266 52.2949-30.8594Q52.2949-29.541 53.3203-28.2227L70.8496-7.37305Q71.6309-6.39648 72.4365-5.95703Q73.2422-5.51758 74.3164-5.51758Z"/>
  </g>
  <g id="Thin-L" transform="matrix(1 0 0 1 776.698 1556)">
   <path class="hierarchical-0:secondary SFSymbolsPreview4D4D4D" d="M40.1367 15.8691L56.25 15.8691Q58.5938 15.8691 60.1562 17.4805L71.582 28.8574Q76.0254 33.2031 79.7363 33.1787Q83.4473 33.1543 87.8418 28.8574L99.3164 17.4805Q100.879 15.8691 103.174 15.8691L119.287 15.8691Q125.537 15.8691 128.198 13.1836Q130.859 10.498 130.859 4.29688L130.859-11.8164Q130.859-14.0137 132.422-15.6738L143.848-27.1484Q148.193-31.543 148.193-35.2783Q148.193-39.0137 143.848-43.3594L132.422-54.8828Q130.859-56.4941 130.859-58.6914L130.859-74.8535Q130.859-81.0547 128.198-83.7402Q125.537-86.4258 119.287-86.4258L103.174-86.4258Q100.879-86.4258 99.3164-87.9883L87.8418-99.3652Q83.3984-103.76 79.6875-103.784Q75.9766-103.809 71.5332-99.3652L60.1562-87.9883Q58.5938-86.4258 56.25-86.4258L40.1367-86.4258Q33.9355-86.4258 31.25-83.7402Q28.5645-81.0547 28.5645-74.8535L28.5645-58.6914Q28.5645-56.4941 27.002-54.8828L15.625-43.3594Q11.2793-39.0137 11.2793-35.2783Q11.2793-31.543 15.625-27.1484L27.002-15.6738Q28.5645-14.0137 28.5645-11.8164L28.5645 4.29688Q28.5645 10.5469 31.25 13.208Q33.9355 15.8691 40.1367 15.8691ZM40.1367 11.9629Q35.5957 11.9629 34.0332 10.4004Q32.4707 8.83789 32.4707 4.29688L32.4707-13.3789Q32.4707-15.7715 30.8105-17.4316L18.3594-29.8828Q16.2109-32.0312 15.5029-33.6426Q14.7949-35.2539 15.5029-36.8652Q16.2109-38.4766 18.3594-40.625L30.8105-53.125Q32.4707-54.7852 32.4707-57.1289L32.4707-74.8535Q32.4707-77.8809 33.1299-79.5654Q33.7891-81.25 35.4492-81.8604Q37.1094-82.4707 40.1367-82.4707L57.8613-82.4707Q60.2539-82.4707 61.8652-84.1309L74.3652-96.6309Q76.5137-98.7793 78.125-99.4873Q79.7363-100.195 81.3477-99.4873Q82.959-98.7793 85.1074-96.6309L97.5586-84.1309Q99.2188-82.4707 101.611-82.4707L119.287-82.4707Q123.828-82.4707 125.391-80.9082Q126.953-79.3457 126.953-74.8535L126.953-57.1289Q126.953-54.7852 128.613-53.125L141.113-40.625Q143.262-38.4766 143.97-36.8652Q144.678-35.2539 143.97-33.6426Q143.262-32.0312 141.113-29.8828L128.613-17.4316Q126.953-15.7715 126.953-13.3789L126.953 4.29688Q126.953 8.83789 125.391 10.4004Q123.828 11.9629 119.287 11.9629L101.611 11.9629Q100.342 11.9629 99.3896 12.3535Q98.4375 12.7441 97.5586 13.623L85.1074 26.0742Q82.959 28.2227 81.3477 28.9551Q79.7363 29.6875 78.125 28.9551Q76.5137 28.2227 74.3652 26.0742L61.8652 13.623Q60.9863 12.7441 60.0342 12.3535Q59.082 11.9629 57.8613 11.9629Z"/>
   <path class="hierarchical-1:primary SFSymbolsPreview212121" d="M73.0469-5.41992Q74.0723-5.41992 75-6.44531L108.545-58.4473Q108.691-58.7402 108.838-59.1309Q108.984-59.5215 108.984-59.8633Q108.984-60.6445 108.374-61.2061Q107.764-61.7676 107.031-61.7676Q106.055-61.7676 105.225-60.6934L72.9492-10.5469L54.8828-31.4941Q54.541-31.9824 54.0771-32.1777Q53.6133-32.373 53.0762-32.373Q52.3438-32.373 51.7334-31.8359Q51.123-31.2988 51.123-30.4199Q51.123-29.6875 51.8066-28.7598L71.0449-6.44531Q71.4844-5.9082 71.9238-5.66406Q72.3633-5.41992 73.0469-5.41992Z"/>
  </g>
  <g id="Ultralight-L" transform="matrix(1 0 0 1 480.673 1556)">
   <path class="hierarchical-0:secondary SFSymbolsPreview4D4D4D" d="M39.1602 15.1367L55.8105 15.1367Q58.2031 15.1367 59.8633 16.7969L71.6797 28.5645Q75.7812 32.5684 79.0771 32.5684Q82.373 32.5684 86.377 28.5645L98.2422 16.7969Q99.9023 15.1367 102.246 15.1367L118.945 15.1367Q124.658 15.1367 127.026 12.7441Q129.395 10.3516 129.395 4.6875L129.395-12.0117Q129.395-14.2578 131.055-16.0156L142.822-27.8809Q146.777-31.9336 146.777-35.2295Q146.777-38.5254 142.822-42.5293L131.055-54.4434Q129.395-56.1523 129.395-58.4473L129.395-75.0977Q129.395-80.8105 127.026-83.2031Q124.658-85.5957 118.945-85.5957L102.246-85.5957Q99.9023-85.5957 98.2422-87.2559L86.377-98.9746Q82.2754-103.076 79.0039-103.101Q75.7324-103.125 71.6309-98.9746L59.8633-87.2559Q58.2031-85.5957 55.8105-85.5957L39.1602-85.5957Q33.3984-85.5957 31.0303-83.2031Q28.6621-80.8105 28.6621-75.0977L28.6621-58.4473Q28.6621-56.1523 27.0508-54.4434L15.2344-42.5293Q11.2793-38.5254 11.2793-35.2295Q11.2793-31.9336 15.2344-27.8809L27.0508-16.0156Q28.6621-14.2578 28.6621-12.0117L28.6621 4.6875Q28.6621 10.4004 31.0303 12.7686Q33.3984 15.1367 39.1602 15.1367ZM39.1602 12.5977Q34.5215 12.5977 32.8857 10.9375Q31.25 9.27734 31.25 4.6875L31.25-13.1836Q31.25-15.4785 29.6387-17.041L17.041-29.6387Q14.8438-31.8359 14.1113-33.5205Q13.3789-35.2051 14.1113-36.8896Q14.8438-38.5742 17.041-40.7715L29.6387-53.3691Q31.25-54.9316 31.25-57.2266L31.25-75.0977Q31.25-78.2227 31.9336-79.9561Q32.6172-81.6895 34.3262-82.3486Q36.0352-83.0078 39.1602-83.0078L57.0312-83.0078Q59.2773-83.0078 60.8887-84.6191L73.4863-97.2168Q75.6836-99.3652 77.3682-100.098Q79.0527-100.83 80.7373-100.098Q82.4219-99.3652 84.6191-97.2168L97.2168-84.6191Q98.7793-83.0078 101.074-83.0078L118.945-83.0078Q123.535-83.0078 125.195-81.3477Q126.855-79.6875 126.855-75.0977L126.855-57.2266Q126.855-54.9316 128.418-53.3691L141.016-40.7715Q143.213-38.5742 143.945-36.8896Q144.678-35.2051 143.945-33.5205Q143.213-31.8359 141.016-29.6387L128.418-17.041Q126.855-15.4785 126.855-13.1836L126.855 4.6875Q126.855 9.27734 125.195 10.9375Q123.535 12.5977 118.945 12.5977L101.074 12.5977Q99.8535 12.5977 98.9502 12.9639Q98.0469 13.3301 97.2168 14.1602L84.6191 26.7578Q82.4219 28.9551 80.7373 29.6875Q79.0527 30.4199 77.3682 29.6875Q75.6836 28.9551 73.4863 26.7578L60.8887 14.1602Q60.0586 13.3301 59.1309 12.9639Q58.2031 12.5977 57.0312 12.5977Z"/>
   <path class="hierarchical-1:primary SFSymbolsPreview212121" d="M72.3633-5.37109Q72.9492-5.37109 73.6328-6.00586L108.252-59.4727Q108.35-59.6191 108.423-59.8877Q108.496-60.1562 108.496-60.3027Q108.496-60.791 108.081-61.2061Q107.666-61.6211 107.227-61.6211Q106.592-61.6211 105.957-60.8887L72.3145-8.98438L53.0762-30.957Q52.832-31.25 52.5391-31.3965Q52.2461-31.543 51.8066-31.543Q51.3672-31.543 50.9521-31.1768Q50.5371-30.8105 50.5371-30.2246Q50.5371-29.7363 51.0254-29.0527L71.1426-6.00586Q71.3867-5.66406 71.6553-5.51758Q71.9238-5.37109 72.3633-5.37109Z"/>
  </g>
  <g id="Black-M" transform="matrix(1 0 0 1 2867.19 1126)">
   <path class="hierarchical-0:secondary SFSymbolsPreview4D4D4D" d="M36.9629 9.13086L46.875 9.13086Q47.8027 9.13086 48.4375 9.76562L55.4688 16.748Q60.8398 22.168 66.2109 22.168Q71.582 22.168 76.9531 16.748L83.9844 9.76562Q84.6191 9.13086 85.5469 9.13086L95.459 9.13086Q103.076 9.13086 106.86 5.29785Q110.645 1.46484 110.645-6.10352L110.645-16.0156Q110.645-16.8945 111.328-17.5781L118.311-24.5605Q123.682-29.9316 123.682-35.3027Q123.682-40.6738 118.311-46.0938L111.328-53.0762Q110.645-53.7109 110.645-54.6387L110.645-64.5508Q110.645-72.168 106.836-75.9766Q103.027-79.7852 95.459-79.7852L85.5469-79.7852Q84.6191-79.7852 83.9844-80.4199L76.9531-87.4023Q71.5332-92.8223 66.2354-92.7734Q60.9375-92.7246 55.4688-87.3535L48.4375-80.4199Q47.8027-79.7852 46.875-79.7852L36.9629-79.7852Q29.3457-79.7852 25.5615-76.001Q21.7773-72.2168 21.7773-64.5508L21.7773-54.6387Q21.7773-53.7109 21.0938-53.0762L14.1113-46.0938Q8.74023-40.6738 8.74023-35.3027Q8.74023-29.9316 14.1113-24.5605L21.0938-17.5781Q21.7773-16.8945 21.7773-16.0156L21.7773-6.10352Q21.7773 1.51367 25.5859 5.32227Q29.3945 9.13086 36.9629 9.13086ZM40.5762-4.78516Q37.5-4.78516 36.5967-5.66406Q35.6934-6.54297 35.6445-9.61914L35.6445-20.7031Q35.6445-22.6562 34.375-23.9258L26.4648-31.8359Q24.2676-34.0332 24.2676-35.2539Q24.2676-36.4746 26.4648-38.6719L34.375-46.582Q35.6445-47.8516 35.7422-49.8047L35.7422-60.8887Q35.7422-64.0137 36.5967-64.8682Q37.4512-65.7227 40.5762-65.7227L51.6602-65.8203Q53.6133-65.8203 54.8828-67.0898L62.793-75Q64.9902-77.1973 66.1865-77.2217Q67.3828-77.2461 69.6289-75L77.5391-67.0898Q78.8086-65.8203 80.7617-65.8203L91.8457-65.7227Q94.9219-65.7227 95.8008-64.8438Q96.6797-63.9648 96.6797-60.8887L96.6797-49.8047Q96.7773-47.8516 98.0469-46.582L105.908-38.6719Q108.154-36.4746 108.154-35.2539Q108.154-34.0332 105.908-31.8359L98.0469-23.9258Q96.7285-22.6562 96.7285-20.7031L96.6797-9.61914Q96.6797-6.54297 95.8008-5.66406Q94.9219-4.78516 91.8457-4.78516L80.7617-4.73633Q78.8086-4.73633 77.5391-3.41797L69.6289 4.44336Q67.4316 6.64062 66.2109 6.64062Q64.9902 6.64062 62.793 4.44336L54.8828-3.41797Q53.6133-4.73633 51.6602-4.73633Z"/>
   <path class="hierarchical-1:primary SFSymbolsPreview212121" d="M61.2793-12.0117Q65.0879-12.0117 67.2852-15.332L86.9141-44.9219Q87.6465-45.9473 87.9883-46.9971Q88.3301-48.0469 88.3301-48.9746Q88.3301-51.6602 86.3281-53.3936Q84.3262-55.127 81.7383-55.127Q78.2715-55.127 76.0254-51.4648L61.2793-27.5391L54.6387-35.1074Q53.6621-36.2305 52.5146-36.8408Q51.3672-37.4512 49.9023-37.4512Q47.2656-37.4512 45.3369-35.5957Q43.4082-33.7402 43.4082-31.1035Q43.4082-28.8086 45.2637-26.6113L55.1758-15.1367Q56.4453-13.7207 57.9346-12.8662Q59.4238-12.0117 61.2793-12.0117Z"/>
  </g>
  <g id="Heavy-M" transform="matrix(1 0 0 1 2570.96 1126)">
   <path class="hierarchical-0:secondary SFSymbolsPreview4D4D4D" d="M36.4258 8.59375L46.4844 8.59375Q47.5586 8.59375 48.2422 9.32617L55.4199 16.4062Q60.5957 21.6797 65.7227 21.6553Q70.8496 21.6309 76.0742 16.4062L83.2031 9.32617Q83.9355 8.59375 85.0098 8.59375L95.0684 8.59375Q102.441 8.59375 106.055 4.93164Q109.668 1.26953 109.668-6.05469L109.668-16.1133Q109.668-17.1387 110.449-17.9199L117.529-25Q122.754-30.1758 122.729-35.3271Q122.705-40.4785 117.529-45.7031L110.449-52.832Q109.668-53.5645 109.668-54.5898L109.668-64.6484Q109.668-72.0215 106.03-75.6836Q102.393-79.3457 95.0684-79.3457L85.0098-79.3457Q83.9355-79.3457 83.2031-80.0293L76.0742-87.1582Q70.8496-92.3828 65.7715-92.334Q60.6934-92.2852 55.4199-87.1094L48.2422-80.0293Q47.5586-79.3457 46.4844-79.3457L36.4258-79.3457Q29.0527-79.3457 25.415-75.708Q21.7773-72.0703 21.7773-64.6484L21.7773-54.5898Q21.7773-53.5645 21.0449-52.832L13.916-45.7031Q8.74023-40.4785 8.74023-35.3271Q8.74023-30.1758 13.916-25L21.0449-17.9199Q21.7773-17.1387 21.7773-16.1133L21.7773-6.05469Q21.7773 1.31836 25.4395 4.95605Q29.1016 8.59375 36.4258 8.59375ZM39.1602-3.85742Q36.0352-3.85742 35.1318-4.73633Q34.2285-5.61523 34.2285-8.74023L34.2285-20.3125Q34.2285-22.3145 32.9102-23.6328L24.6582-31.8359Q22.4121-34.082 22.4121-35.3027Q22.4121-36.5234 24.6582-38.7695L32.9102-46.9727Q34.2285-48.291 34.2773-50.293L34.2773-61.8652Q34.2773-65.0391 35.1318-65.8936Q35.9863-66.748 39.1602-66.748L50.7324-66.8457Q52.7832-66.8457 54.0527-68.1641L62.3047-76.3672Q64.502-78.6133 65.6982-78.6133Q66.8945-78.6133 69.1895-76.3672L77.3926-68.1641Q78.7109-66.8457 80.7129-66.8457L92.2852-66.748Q95.4102-66.748 96.2891-65.8691Q97.168-64.9902 97.168-61.8652L97.168-50.293Q97.2656-48.291 98.584-46.9727L106.787-38.7695Q109.033-36.5234 109.033-35.3027Q109.033-34.082 106.787-31.8359L98.584-23.6328Q97.2168-22.3145 97.2168-20.3125L97.168-8.74023Q97.168-5.61523 96.2891-4.73633Q95.4102-3.85742 92.2852-3.85742L80.7129-3.80859Q78.7109-3.80859 77.3926-2.44141L69.1895 5.71289Q66.9434 7.95898 65.7227 7.95898Q64.502 7.95898 62.3047 5.71289L54.0527-2.44141Q52.7832-3.80859 50.7324-3.80859Z"/>
   <path class="hierarchical-1:primary SFSymbolsPreview212121" d="M60.7422-12.0605Q64.209-12.0605 66.2598-15.1367L86.5234-46.0449Q87.1582-46.9727 87.5244-47.9736Q87.8906-48.9746 87.8906-49.8535Q87.8906-52.2949 86.0596-53.8574Q84.2285-55.4199 81.8848-55.4199Q78.7598-55.4199 76.709-52.0996L60.6934-26.123L53.3203-34.8633Q52.3926-35.9863 51.3184-36.5479Q50.2441-37.1094 48.877-37.1094Q46.4844-37.1094 44.751-35.4248Q43.0176-33.7402 43.0176-31.3477Q43.0176-29.248 44.6777-27.1973L55.0781-14.9902Q56.25-13.623 57.6416-12.8418Q59.0332-12.0605 60.7422-12.0605Z"/>
  </g>
  <g id="Bold-M" transform="matrix(1 0 0 1 2274.78 1126)">
   <path class="hierarchical-0:secondary SFSymbolsPreview4D4D4D" d="M35.791 8.00781L46.0449 8.00781Q47.2656 8.00781 48.0469 8.83789L55.3223 16.0645Q60.3516 21.0938 65.21 21.0938Q70.0684 21.0938 75.0977 16.0645L82.373 8.83789Q83.2031 8.00781 84.375 8.00781L94.6289 8.00781Q101.709 8.00781 105.151 4.54102Q108.594 1.07422 108.594-6.00586L108.594-16.2598Q108.594-17.4316 109.473-18.2617L116.65-25.5371Q121.68-30.5176 121.68-35.4004Q121.68-40.2832 116.65-45.3125L109.473-52.5391Q108.594-53.3691 108.594-54.541L108.594-64.7949Q108.594-71.875 105.151-75.3418Q101.709-78.8086 94.6289-78.8086L84.375-78.8086Q83.2031-78.8086 82.373-79.6387L75.0977-86.8652Q70.0684-91.8945 65.2344-91.8701Q60.4004-91.8457 55.3223-86.8164L48.0469-79.6387Q47.2656-78.8086 46.0449-78.8086L35.791-78.8086Q28.7109-78.8086 25.2686-75.3662Q21.8262-71.9238 21.8262-64.7949L21.8262-54.541Q21.8262-53.3691 20.9961-52.5391L13.7695-45.3125Q8.74023-40.2832 8.74023-35.4004Q8.74023-30.5176 13.7695-25.5371L20.9961-18.2617Q21.8262-17.4316 21.8262-16.2598L21.8262-6.00586Q21.8262 1.07422 25.293 4.54102Q28.7598 8.00781 35.791 8.00781ZM37.5977-2.83203Q34.4238-2.83203 33.5449-3.71094Q32.666-4.58984 32.6172-7.76367L32.6172-19.873Q32.6172-21.9238 31.25-23.3398L22.6562-31.8848Q20.4102-34.1309 20.4102-35.3516Q20.4102-36.5723 22.6562-38.8672L31.25-47.4121Q32.6172-48.8281 32.666-50.8789L32.666-62.9883Q32.666-66.1621 33.5205-67.041Q34.375-67.9199 37.5977-67.9199L49.707-67.9688Q51.8066-67.9688 53.1738-69.3359L61.7188-77.9297Q64.0137-80.1758 65.21-80.1758Q66.4062-80.1758 68.7012-77.9297L77.2461-69.3359Q78.6133-67.9688 80.7129-67.9688L92.8223-67.9199Q95.9961-67.9199 96.875-67.0166Q97.7539-66.1133 97.7539-62.9883L97.7539-50.8789Q97.8027-48.8281 99.2188-47.4121L107.764-38.8672Q110.01-36.5723 110.01-35.3516Q110.01-34.1309 107.764-31.8848L99.2188-23.3398Q97.7539-21.9238 97.7539-19.873L97.7539-7.76367Q97.7539-4.58984 96.875-3.71094Q95.9961-2.83203 92.8223-2.83203L80.7129-2.83203Q78.6133-2.83203 77.2461-1.36719L68.7012 7.17773Q66.4062 9.42383 65.21 9.42383Q64.0137 9.42383 61.7188 7.17773L53.1738-1.36719Q51.8066-2.83203 49.707-2.83203Z"/>
   <path class="hierarchical-1:primary SFSymbolsPreview212121" d="M60.1074-12.1582Q63.2812-12.1582 65.0879-14.9414L86.084-47.3145Q86.6699-48.1934 87.0117-49.1211Q87.3535-50.0488 87.3535-50.9277Q87.3535-53.0762 85.7422-54.4189Q84.1309-55.7617 82.0801-55.7617Q79.3457-55.7617 77.5391-52.832L60.0098-24.6094L51.9043-34.6191Q50.9766-35.791 49.9756-36.3037Q48.9746-36.8164 47.7051-36.8164Q45.6055-36.8164 44.0918-35.3027Q42.5781-33.7891 42.5781-31.6895Q42.5781-29.7852 44.0918-27.9297L54.9805-14.8438Q56.1035-13.5742 57.3486-12.8662Q58.5938-12.1582 60.1074-12.1582Z"/>
  </g>
  <g id="Semibold-M" transform="matrix(1 0 0 1 1978.44 1126)">
   <path class="hierarchical-0:secondary SFSymbolsPreview4D4D4D" d="M35.3516 7.56836L45.7031 7.56836Q47.0215 7.56836 47.9004 8.49609L55.2734 15.8203Q60.1562 20.7031 64.8438 20.6787Q69.5312 20.6543 74.3652 15.8203L81.7383 8.49609Q82.666 7.56836 83.9355 7.56836L94.2871 7.56836Q101.172 7.56836 104.517 4.24805Q107.861 0.927734 107.861-6.00586L107.861-16.3086Q107.861-17.627 108.74-18.5059L116.064-25.8789Q120.947-30.7129 120.923-35.4248Q120.898-40.1367 116.064-45.0195L108.74-52.3438Q107.861-53.2715 107.861-54.541L107.861-64.8926Q107.861-71.7285 104.517-75.0977Q101.172-78.4668 94.2871-78.4668L83.9355-78.4668Q82.666-78.4668 81.7383-79.3457L74.3652-86.6699Q69.4824-91.5527 64.8193-91.5283Q60.1562-91.5039 55.2734-86.6211L47.9004-79.3457Q47.0215-78.4668 45.7031-78.4668L35.3516-78.4668Q28.4668-78.4668 25.1465-75.1465Q21.8262-71.8262 21.8262-64.8926L21.8262-54.541Q21.8262-53.2715 20.9473-52.3438L13.623-45.0195Q8.74023-40.1367 8.74023-35.4248Q8.74023-30.7129 13.623-25.8789L20.9473-18.5059Q21.8262-17.627 21.8262-16.3086L21.8262-6.00586Q21.8262 0.878906 25.1709 4.22363Q28.5156 7.56836 35.3516 7.56836ZM36.5234-2.14844Q33.3008-2.14844 32.4219-3.02734Q31.543-3.90625 31.4941-7.08008L31.4941-19.5801Q31.4941-21.6797 30.0781-23.0957L21.2891-31.8848Q18.9941-34.1797 18.9941-35.4004Q18.9941-36.6211 21.2891-38.916L30.0781-47.7051Q31.4941-49.1699 31.543-51.2695L31.543-63.7207Q31.543-66.9434 32.3975-67.8223Q33.252-68.7012 36.5234-68.7012L48.9746-68.75Q51.1719-68.75 52.5391-70.166L61.3281-78.9551Q63.623-81.25 64.8193-81.25Q66.0156-81.25 68.3105-78.9551L77.1484-70.166Q78.5645-68.75 80.6641-68.75L93.1641-68.7012Q96.3379-68.7012 97.2168-67.7979Q98.0957-66.8945 98.0957-63.7207L98.0957-51.2695Q98.1445-49.1699 99.6094-47.7051L108.398-38.916Q110.693-36.6211 110.693-35.4004Q110.693-34.1797 108.398-31.8848L99.6094-23.0957Q98.1445-21.6797 98.1445-19.5801L98.0957-7.08008Q98.0957-3.90625 97.2168-3.02734Q96.3379-2.14844 93.1641-2.14844L80.6641-2.09961Q78.5645-2.09961 77.1484-0.634766L68.3105 8.1543Q66.0156 10.4004 64.8193 10.4004Q63.623 10.4004 61.3281 8.1543L52.5391-0.634766Q51.1719-2.09961 48.9746-2.09961Z"/>
   <path class="hierarchical-1:primary SFSymbolsPreview212121" d="M59.6191-12.207Q62.5488-12.207 64.2578-14.7949L85.6934-48.1934Q86.2305-48.9746 86.5967-49.8779Q86.9629-50.7812 86.9629-51.6113Q86.9629-53.5645 85.498-54.7852Q84.0332-56.0059 82.1777-56.0059Q79.6875-56.0059 78.0273-53.3691L59.5215-23.584L50.8301-34.4727Q49.9023-35.5957 48.9746-36.084Q48.0469-36.5723 46.875-36.5723Q44.9707-36.5723 43.6035-35.2051Q42.2363-33.8379 42.2363-31.8848Q42.2363-30.127 43.6035-28.418L54.8828-14.7461Q55.9082-13.5254 57.0557-12.8662Q58.2031-12.207 59.6191-12.207Z"/>
  </g>
  <g id="Medium-M" transform="matrix(1 0 0 1 1682.01 1126)">
   <path class="hierarchical-0:secondary SFSymbolsPreview4D4D4D" d="M35.0586 7.32422L45.459 7.32422Q46.875 7.32422 47.8027 8.25195L55.2246 15.625Q60.0098 20.4102 64.5508 20.3857Q69.0918 20.3613 73.877 15.625L81.2988 8.25195Q82.2754 7.32422 83.6426 7.32422L94.043 7.32422Q100.781 7.32422 104.028 4.07715Q107.275 0.830078 107.275-5.9082L107.275-16.3574Q107.275-17.7246 108.252-18.7012L115.576-26.123Q120.41-30.8594 120.386-35.4248Q120.361-39.9902 115.576-44.7754L108.252-52.1973Q107.275-53.125 107.275-54.4434L107.275-64.9414Q107.275-71.6309 104.053-74.9023Q100.83-78.1738 94.043-78.1738L83.6426-78.1738Q82.2754-78.1738 81.2988-79.1016L73.877-86.4746Q69.0918-91.2598 64.5508-91.2354Q60.0098-91.2109 55.2246-86.4746L47.8027-79.1016Q46.875-78.1738 45.459-78.1738L35.0586-78.1738Q28.3203-78.1738 25.0732-74.9512Q21.8262-71.7285 21.8262-64.9414L21.8262-54.4434Q21.8262-53.125 20.8984-52.1973L13.5254-44.7754Q8.74023-39.9902 8.74023-35.4248Q8.74023-30.8594 13.5254-26.123L20.8984-18.7012Q21.8262-17.7246 21.8262-16.3574L21.8262-5.9082Q21.8262 0.830078 25.0732 4.07715Q28.3203 7.32422 35.0586 7.32422ZM35.6934-1.5625Q32.4707-1.5625 31.5674-2.44141Q30.6641-3.32031 30.6641-6.54297L30.6641-19.3359Q30.6641-21.4355 29.1992-22.9004L20.2148-31.8848Q17.9199-34.1797 17.9199-35.4004Q17.9199-36.6211 20.2148-38.916L29.1992-47.9004Q30.6641-49.4141 30.7129-51.5137L30.7129-64.2578Q30.7129-67.5293 31.5674-68.4082Q32.4219-69.2871 35.6934-69.2871L48.4375-69.2871Q50.6348-69.2871 52.0996-70.752L61.0352-79.7363Q63.3301-82.0312 64.5264-82.0312Q65.7227-82.0312 68.0664-79.7363L77.0508-70.752Q78.4668-69.2871 80.6641-69.2871L93.4082-69.2871Q96.6309-69.2871 97.5098-68.3838Q98.3887-67.4805 98.3887-64.2578L98.3887-51.5137Q98.4375-49.4141 99.9512-47.9004L108.936-38.916Q111.182-36.6211 111.182-35.4004Q111.182-34.1797 108.936-31.8848L99.9512-22.9004Q98.3887-21.4355 98.3887-19.3359L98.3887-6.54297Q98.3887-3.32031 97.5098-2.44141Q96.6309-1.5625 93.4082-1.5625L80.6641-1.5625Q78.4668-1.5625 77.0508-0.0488281L68.0664 8.93555Q65.7715 11.2305 64.5508 11.2305Q63.3301 11.2305 61.0352 8.93555L52.0996-0.0488281Q50.6348-1.5625 48.4375-1.5625Z"/>
   <path class="hierarchical-1:primary SFSymbolsPreview212121" d="M59.3262-12.2559Q62.0117-12.2559 63.623-14.6973L85.4492-48.8281Q85.9375-49.5605 86.3037-50.415Q86.6699-51.2695 86.6699-52.0996Q86.6699-53.9062 85.3027-55.0293Q83.9355-56.1523 82.2266-56.1523Q79.9316-56.1523 78.418-53.7109L59.1309-22.7051L50.0488-34.2773Q49.1699-35.4492 48.2666-35.9131Q47.3633-36.377 46.2402-36.377Q44.4824-36.377 43.2373-35.083Q41.9922-33.7891 41.9922-32.0312Q41.9922-30.3711 43.2617-28.7109L54.7852-14.6484Q55.8105-13.4277 56.8848-12.8418Q57.959-12.2559 59.3262-12.2559Z"/>
  </g>
  <g id="Regular-M" transform="matrix(1 0 0 1 1385.66 1126)">
   <path class="hierarchical-0:secondary SFSymbolsPreview4D4D4D" d="M34.6191 6.88477L45.166 6.88477Q46.6797 6.88477 47.6562 7.91016L55.1758 15.3809Q59.8145 20.0195 64.1846 19.9951Q68.5547 19.9707 73.1934 15.3809L80.7129 7.91016Q81.7383 6.88477 83.2031 6.88477L93.75 6.88477Q100.293 6.88477 103.418 3.78418Q106.543 0.683594 106.543-5.9082L106.543-16.4551Q106.543-17.9199 107.568-18.9453L114.99-26.4648Q119.678-31.0547 119.653-35.4492Q119.629-39.8438 114.99-44.4824L107.568-52.002Q106.543-53.0273 106.543-54.4434L106.543-65.0391Q106.543-71.5332 103.442-74.6826Q100.342-77.832 93.75-77.832L83.2031-77.832Q81.7383-77.832 80.7129-78.8086L73.1934-86.2793Q68.5547-90.918 64.1846-90.918Q59.8145-90.918 55.1758-86.2793L47.6562-78.8086Q46.6797-77.832 45.166-77.832L34.6191-77.832Q28.0762-77.832 24.9512-74.7314Q21.8262-71.6309 21.8262-65.0391L21.8262-54.4434Q21.8262-53.0273 20.8496-52.002L13.3789-44.4824Q8.74023-39.8438 8.74023-35.4492Q8.74023-31.0547 13.3789-26.4648L20.8496-18.9453Q21.8262-17.9199 21.8262-16.4551L21.8262-5.9082Q21.8262 0.634766 24.9512 3.75977Q28.0762 6.88477 34.6191 6.88477ZM34.6191-0.878906Q31.3477-0.878906 30.4688-1.75781Q29.5898-2.63672 29.5898-5.9082L29.5898-19.043Q29.5898-21.1914 28.0762-22.7051L18.8477-31.8848Q16.5039-34.2285 16.5039-35.4492Q16.5039-36.6699 18.8477-39.0137L28.0762-48.1934Q29.5898-49.7559 29.5898-51.9043L29.5898-65.0391Q29.5898-68.3105 30.4443-69.1895Q31.2988-70.0684 34.6191-70.0684L47.7539-70.0684Q50-70.0684 51.4648-71.582L60.6445-80.8105Q62.9883-83.1055 64.1846-83.1055Q65.3809-83.1055 67.7246-80.8105L76.9531-71.582Q78.418-70.0684 80.6152-70.0684L93.75-70.0684Q97.0215-70.0684 97.9004-69.165Q98.7793-68.2617 98.7793-65.0391L98.7793-51.9043Q98.7793-49.7559 100.342-48.1934L109.57-39.0137Q111.865-36.6699 111.865-35.4492Q111.865-34.2285 109.57-31.8848L100.342-22.7051Q98.7793-21.1914 98.7793-19.043L98.7793-5.9082Q98.7793-2.63672 97.9004-1.75781Q97.0215-0.878906 93.75-0.878906L80.6152-0.878906Q78.418-0.878906 76.9531 0.683594L67.7246 9.91211Q65.3809 12.207 64.1846 12.207Q62.9883 12.207 60.6445 9.91211L51.4648 0.683594Q50-0.878906 47.7539-0.878906Z"/>
   <path class="hierarchical-1:primary SFSymbolsPreview212121" d="M58.8867-12.3047Q61.377-12.3047 62.8418-14.5508L85.1562-49.707Q85.5957-50.3906 85.9619-51.1963Q86.3281-52.002 86.3281-52.832Q86.3281-54.4434 85.1074-55.4199Q83.8867-56.3965 82.373-56.3965Q80.3223-56.3965 78.9551-54.1992L58.6914-21.6797L49.0723-34.1309Q48.1934-35.3027 47.3389-35.7178Q46.4844-36.1328 45.459-36.1328Q43.8965-36.1328 42.7979-34.9854Q41.6992-33.8379 41.6992-32.2266Q41.6992-30.7129 42.8223-29.1992L54.7363-14.5508Q55.6641-13.3789 56.665-12.8418Q57.666-12.3047 58.8867-12.3047Z"/>
  </g>
  <g id="Light-M" transform="matrix(1 0 0 1 1089.86 1126)">
   <path class="hierarchical-0:secondary SFSymbolsPreview4D4D4D" d="M33.3008 5.9082L44.5801 5.9082Q46.1914 5.9082 47.2656 6.98242L55.2734 14.9902Q59.4727 19.1406 63.2812 19.1162Q67.0898 19.0918 71.2402 14.9902L79.2969 6.98242Q80.3711 5.9082 81.9824 5.9082L93.2617 5.9082Q99.1699 5.9082 101.88 3.19824Q104.59 0.488281 104.59-5.41992L104.59-16.748Q104.59-18.2617 105.713-19.3848L113.672-27.4414Q117.822-31.5918 117.822-35.4004Q117.822-39.209 113.672-43.4082L105.713-51.416Q104.59-52.5879 104.59-54.0527L104.59-65.3809Q104.59-71.2402 101.88-73.999Q99.1699-76.7578 93.2617-76.7578L81.9824-76.7578Q80.3711-76.7578 79.2969-77.832L71.2402-85.791Q67.0898-89.9902 63.2812-89.9902Q59.4727-89.9902 55.2734-85.791L47.2656-77.832Q46.1914-76.7578 44.5801-76.7578L33.3008-76.7578Q27.3926-76.7578 24.6582-74.0479Q21.9238-71.3379 21.9238-65.3809L21.9238-54.0527Q21.9238-52.5879 20.8984-51.416L12.8906-43.4082Q8.74023-39.209 8.74023-35.4004Q8.74023-31.5918 12.8906-27.4414L20.8984-19.3848Q21.9238-18.2617 21.9238-16.748L21.9238-5.41992Q21.9238 0.439453 24.6582 3.17383Q27.3926 5.9082 33.3008 5.9082ZM33.3008-0.0488281Q29.9316-0.0488281 28.9307-1.0498Q27.9297-2.05078 27.9297-5.41992L27.9297-18.7988Q27.9297-20.8008 26.5137-22.2656L17.0898-31.5918Q14.6973-34.0332 14.6973-35.4004Q14.6973-36.7676 17.0898-39.209L26.5137-48.5352Q27.9297-50 27.9297-52.0508L27.9297-65.3809Q27.9297-68.7988 28.9062-69.7754Q29.8828-70.752 33.3008-70.752L46.6309-70.752Q48.7305-70.752 50.1465-72.2168L59.4727-81.5918Q61.9141-83.9844 63.2812-83.9844Q64.6484-83.9844 67.041-81.5918L76.4648-72.2168Q77.832-70.752 79.8828-70.752L93.2617-70.752Q96.6309-70.752 97.6318-69.751Q98.6328-68.75 98.6328-65.3809L98.6328-52.0508Q98.6328-50 100.098-48.5352L109.473-39.209Q111.865-36.7676 111.865-35.4004Q111.865-34.0332 109.473-31.5918L100.098-22.2656Q98.6328-20.8008 98.6328-18.7988L98.6328-5.41992Q98.6328-2.05078 97.6318-1.0498Q96.6309-0.0488281 93.2617-0.0488281L79.8828-0.0488281Q77.832-0.0488281 76.4648 1.41602L67.041 10.791Q64.6484 13.1836 63.2812 13.1836Q61.9141 13.1836 59.4727 10.791L50.1465 1.41602Q48.7305-0.0488281 46.6309-0.0488281Z"/>
   <path class="hierarchical-1:primary SFSymbolsPreview212121" d="M58.0078-12.2559Q59.8633-12.2559 61.084-13.9648L84.7656-51.0742Q85.1074-51.5625 85.376-52.1729Q85.6445-52.7832 85.6445-53.418Q85.6445-54.6387 84.6924-55.4199Q83.7402-56.2012 82.5684-56.2012Q81.0547-56.2012 79.9316-54.541L57.8613-19.6289L46.6309-33.4961Q45.9473-34.375 45.2881-34.668Q44.6289-34.9609 43.8477-34.9609Q42.627-34.9609 41.7725-34.1064Q40.918-33.252 40.918-31.9824Q40.918-30.8594 41.7969-29.5898L54.8828-13.9648Q55.5664-13.0859 56.3232-12.6709Q57.0801-12.2559 58.0078-12.2559Z"/>
  </g>
  <g id="Thin-M" transform="matrix(1 0 0 1 794.347 1126)">
   <path class="hierarchical-0:secondary SFSymbolsPreview4D4D4D" d="M31.543 4.63867L43.7988 4.63867Q45.5566 4.63867 46.7285 5.85938L55.4688 14.502Q58.9844 18.0176 62.0605 18.0176Q65.1367 18.0176 68.7012 14.502L77.3926 5.85938Q78.6133 4.63867 80.3711 4.63867L92.5781 4.63867Q97.6562 4.63867 99.8535 2.44141Q102.051 0.244141 102.051-4.78516L102.051-17.041Q102.051-18.7012 103.223-19.9707L111.914-28.7109Q115.43-32.2266 115.43-35.3027Q115.43-38.3789 111.914-41.9434L103.223-50.6836Q102.051-51.9531 102.051-53.5645L102.051-65.8203Q102.051-70.8496 99.8535-73.0713Q97.6562-75.293 92.5781-75.293L80.3711-75.293Q78.6133-75.293 77.3926-76.4648L68.7012-85.1074Q65.0879-88.7207 62.0361-88.7207Q58.9844-88.7207 55.4199-85.1074L46.7285-76.4648Q45.5566-75.293 43.7988-75.293L31.543-75.293Q26.5137-75.293 24.3164-73.0957Q22.1191-70.8984 22.1191-65.8203L22.1191-53.5645Q22.1191-51.9531 20.8984-50.6836L12.2559-41.9434Q8.74023-38.3789 8.74023-35.3027Q8.74023-32.2266 12.2559-28.7109L20.8984-19.9707Q22.1191-18.7012 22.1191-17.041L22.1191-4.78516Q22.1191 0.244141 24.3164 2.44141Q26.5137 4.63867 31.543 4.63867ZM31.543 1.07422Q28.0273 1.07422 26.8799-0.12207Q25.7324-1.31836 25.7324-4.78516L25.7324-18.457Q25.7324-20.3125 24.4141-21.6309L14.7949-31.2012Q12.3047-33.6914 12.3047-35.3027Q12.3047-36.9141 14.7949-39.4043L24.4141-48.9746Q25.7324-50.293 25.7324-52.1973L25.7324-65.8203Q25.7324-69.3359 26.8555-70.5078Q27.9785-71.6797 31.543-71.6797L45.166-71.6797Q47.0703-71.6797 48.3887-72.998L57.959-82.6172Q60.4492-85.0586 62.0605-85.0586Q63.6719-85.0586 66.1621-82.6172L75.7812-72.998Q77.0996-71.6797 78.9551-71.6797L92.5781-71.6797Q96.0938-71.6797 97.2656-70.4834Q98.4375-69.2871 98.4375-65.8203L98.4375-52.1973Q98.4375-50.293 99.7559-48.9746L109.375-39.4043Q111.816-36.9141 111.816-35.3027Q111.816-33.6914 109.375-31.2012L99.7559-21.6309Q98.4375-20.3125 98.4375-18.457L98.4375-4.78516Q98.4375-1.31836 97.2656-0.12207Q96.0938 1.07422 92.5781 1.07422L78.9551 1.07422Q77.0996 1.07422 75.7812 2.39258L66.1621 12.0117Q63.6719 14.4531 62.0605 14.4531Q60.4492 14.4531 57.959 12.0117L48.3887 2.39258Q47.0703 1.07422 45.166 1.07422Z"/>
   <path class="hierarchical-1:primary SFSymbolsPreview212121" d="M56.8848-12.207Q57.9102-12.207 58.6914-13.1348L84.2773-52.832Q84.4238-53.125 84.5703-53.4912Q84.7168-53.8574 84.7168-54.1504Q84.7168-54.8828 84.1553-55.3955Q83.5938-55.9082 82.9102-55.9082Q81.9824-55.9082 81.25-54.8828L56.8359-16.8457L43.3594-32.5684Q43.0176-33.0566 42.6025-33.252Q42.1875-33.4473 41.6992-33.4473Q40.9668-33.4473 40.4297-32.9346Q39.8926-32.4219 39.8926-31.6406Q39.8926-30.957 40.4785-30.127L55.0293-13.1348Q55.4199-12.6465 55.8594-12.4268Q56.2988-12.207 56.8848-12.207Z"/>
  </g>
  <g id="Ultralight-M" transform="matrix(1 0 0 1 498.251 1126)">
   <path class="hierarchical-0:secondary SFSymbolsPreview4D4D4D" d="M30.6641 4.00391L43.4082 4.00391Q45.2148 4.00391 46.4844 5.22461L55.5176 14.2578Q58.7891 17.4316 61.4746 17.4316Q64.1602 17.4316 67.3828 14.2578L76.4648 5.22461Q77.6855 4.00391 79.541 4.00391L92.2363 4.00391Q96.875 4.00391 98.8037 2.0752Q100.732 0.146484 100.732-4.44336L100.732-17.2363Q100.732-18.9453 102.002-20.2637L110.986-29.3457Q114.16-32.5684 114.16-35.2539Q114.16-37.9395 110.986-41.2109L102.002-50.2441Q100.732-51.6113 100.732-53.2715L100.732-66.0645Q100.732-70.6543 98.7793-72.6074Q96.8262-74.5605 92.2363-74.5605L79.541-74.5605Q77.6855-74.5605 76.4648-75.7812L67.3828-84.7656Q64.1113-88.0371 61.4502-88.0615Q58.7891-88.0859 55.5176-84.7656L46.4844-75.7812Q45.2148-74.5605 43.4082-74.5605L30.6641-74.5605Q26.0742-74.5605 24.1211-72.6074Q22.168-70.6543 22.168-66.0645L22.168-53.2715Q22.168-51.6113 20.9473-50.2441L11.9141-41.2109Q8.74023-37.9395 8.74023-35.2539Q8.74023-32.5684 11.9141-29.3457L20.9473-20.2637Q22.168-18.9453 22.168-17.2363L22.168-4.44336Q22.168 0.146484 24.1211 2.0752Q26.0742 4.00391 30.6641 4.00391ZM30.6641 1.61133Q27.0996 1.61133 25.8545 0.366211Q24.6094-0.878906 24.6094-4.44336L24.6094-18.2617Q24.6094-20.0195 23.3398-21.2891L13.623-31.0059Q11.084-33.5449 11.084-35.2539Q11.084-36.9629 13.623-39.502L23.3398-49.2188Q24.6094-50.4883 24.6094-52.2949L24.6094-66.0645Q24.6094-69.6777 25.8301-70.8984Q27.0508-72.1191 30.6641-72.1191L44.4336-72.1191Q46.2402-72.1191 47.4609-73.3887L57.1777-83.1055Q59.7168-85.6445 61.4502-85.6445Q63.1836-85.6445 65.7227-83.1055L75.4395-73.3887Q76.709-72.1191 78.4668-72.1191L92.2363-72.1191Q95.8496-72.1191 97.0947-70.874Q98.3398-69.6289 98.3398-66.0645L98.3398-52.2949Q98.3398-50.4883 99.5605-49.2188L109.277-39.502Q111.816-36.9629 111.816-35.2539Q111.816-33.5449 109.277-31.0059L99.5605-21.2891Q98.3398-20.0195 98.3398-18.2617L98.3398-4.44336Q98.3398-0.878906 97.0947 0.366211Q95.8496 1.61133 92.2363 1.61133L78.4668 1.61133Q76.709 1.61133 75.4395 2.88086L65.7227 12.5977Q63.1836 15.1367 61.4502 15.1367Q59.7168 15.1367 57.1777 12.5977L47.4609 2.88086Q46.2402 1.61133 44.4336 1.61133Z"/>
   <path class="hierarchical-1:primary SFSymbolsPreview212121" d="M56.3477-12.1582Q56.9336-12.1582 57.5684-12.7441L84.0332-53.7598Q84.1309-53.9062 84.2041-54.126Q84.2773-54.3457 84.2773-54.541Q84.2773-54.9805 83.9111-55.3711Q83.5449-55.7617 83.0566-55.7617Q82.5195-55.7617 81.9336-55.127L56.2988-15.4297L41.748-32.1289Q41.5527-32.4219 41.2598-32.5195Q40.9668-32.6172 40.625-32.6172Q40.1367-32.6172 39.7705-32.2998Q39.4043-31.9824 39.4043-31.4453Q39.4043-31.0547 39.8438-30.3711L55.1758-12.7441Q55.4199-12.4023 55.6885-12.2803Q55.957-12.1582 56.3477-12.1582Z"/>
  </g>
  <g id="Black-S" transform="matrix(1 0 0 1 2881.45 696)">
   <path class="hierarchical-0:secondary SFSymbolsPreview4D4D4D" d="M29.0527-0.390625L36.8164-0.390625Q37.5-0.390625 37.9883 0.0976562L43.457 5.56641Q47.7051 9.81445 51.9531 9.81445Q56.2012 9.81445 60.4492 5.56641L65.918 0.0976562Q66.4062-0.390625 67.0898-0.390625L74.8535-0.390625Q80.8594-0.390625 83.8623-3.41797Q86.8652-6.44531 86.8652-12.4023L86.8652-20.166Q86.8652-20.8496 87.3535-21.3379L92.8223-26.8066Q97.0703-31.0547 97.0703-35.3027Q97.0703-39.5508 92.8223-43.7988L87.3535-49.2676Q86.8652-49.7559 86.8652-50.4395L86.8652-58.2031Q86.8652-64.209 83.8379-67.2119Q80.8105-70.2148 74.8535-70.2148L67.0898-70.2148Q66.4062-70.2148 65.918-70.7031L60.4492-76.1719Q56.1523-80.4688 51.9775-80.4199Q47.8027-80.3711 43.457-76.123L37.9883-70.7031Q37.5-70.2148 36.8164-70.2148L29.0527-70.2148Q23.0469-70.2148 20.0439-67.2363Q17.041-64.2578 17.041-58.2031L17.041-50.4395Q17.041-49.7559 16.5527-49.2676L11.084-43.7988Q6.83594-39.5508 6.83594-35.3027Q6.83594-31.0547 11.084-26.8066L16.5527-21.3379Q17.041-20.8496 17.041-20.166L17.041-12.4023Q17.041-6.39648 20.0684-3.39355Q23.0957-0.390625 29.0527-0.390625ZM32.1289-11.6211Q29.7363-11.6211 29.0283-12.3291Q28.3203-13.0371 28.2715-15.4297L28.2715-23.9746Q28.2715-25.4883 27.2949-26.4648L21.1914-32.5684Q19.4824-34.2773 19.4824-35.2539Q19.4824-36.2305 21.1914-37.9395L27.2949-44.043Q28.2715-45.0195 28.3203-46.5332L28.3203-55.0781Q28.3203-57.5195 29.0039-58.2031Q29.6875-58.8867 32.1289-58.8867L40.6738-58.9355Q42.1875-58.9355 43.1641-59.9121L49.2676-66.0156Q50.9766-67.7246 51.9287-67.749Q52.8809-67.7734 54.6387-66.0156L60.7422-59.9121Q61.7188-58.9355 63.2324-58.9355L71.7773-58.8867Q74.2188-58.8867 74.9023-58.2031Q75.5859-57.5195 75.5859-55.0781L75.5859-46.5332Q75.6836-45.0195 76.6113-44.043L82.7148-37.9395Q84.4238-36.2305 84.4238-35.2539Q84.4238-34.2773 82.7148-32.5684L76.6113-26.4648Q75.6348-25.4883 75.6348-23.9746L75.5859-15.4297Q75.5859-13.0371 74.9023-12.3291Q74.2188-11.6211 71.7773-11.6211L63.2324-11.5723Q61.7188-11.5723 60.7422-10.5957L54.6387-4.49219Q52.9297-2.7832 51.9531-2.7832Q50.9766-2.7832 49.2676-4.49219L43.1641-10.5957Q42.1875-11.5723 40.6738-11.5723Z"/>
   <path class="hierarchical-1:primary SFSymbolsPreview212121" d="M48.1445-16.9922Q51.1719-16.9922 52.9297-19.6289L68.2129-42.5293Q68.7988-43.3594 69.043-44.1895Q69.2871-45.0195 69.2871-45.752Q69.2871-47.9004 67.7002-49.292Q66.1133-50.6836 64.0137-50.6836Q61.2305-50.6836 59.4238-47.7539L48.1445-29.4922L43.0664-35.1562Q42.2852-35.9863 41.3818-36.4746Q40.4785-36.9629 39.3066-36.9629Q37.207-36.9629 35.6445-35.498Q34.082-34.0332 34.082-31.8848Q34.082-30.0293 35.5957-28.2715L43.2617-19.4824Q44.2383-18.3594 45.4346-17.6758Q46.6309-16.9922 48.1445-16.9922Z"/>
  </g>
  <g id="Heavy-S" transform="matrix(1 0 0 1 2585.03 696)">
   <path class="hierarchical-0:secondary SFSymbolsPreview4D4D4D" d="M28.7598-0.732422L36.5723-0.732422Q37.3047-0.732422 37.8906-0.146484L43.4082 5.32227Q47.5586 9.47266 51.6846 9.47266Q55.8105 9.47266 59.9121 5.32227L65.4297-0.146484Q66.0156-0.732422 66.7969-0.732422L74.5605-0.732422Q80.4688-0.732422 83.374-3.66211Q86.2793-6.5918 86.2793-12.4512L86.2793-20.2148Q86.2793-20.9961 86.8164-21.582L92.334-27.0508Q96.4844-31.2012 96.4844-35.3271Q96.4844-39.4531 92.334-43.6035L86.8164-49.1211Q86.2793-49.6582 86.2793-50.4395L86.2793-58.252Q86.2793-64.1113 83.3496-67.041Q80.4199-69.9707 74.5605-69.9707L66.7969-69.9707Q66.0156-69.9707 65.4297-70.5078L59.9121-76.0254Q55.7617-80.2246 51.6846-80.1758Q47.6074-80.127 43.4082-75.9766L37.8906-70.5078Q37.3047-69.9707 36.5723-69.9707L28.7598-69.9707Q22.8516-69.9707 19.9463-67.0654Q17.041-64.1602 17.041-58.252L17.041-50.4395Q17.041-49.6582 16.5039-49.1211L10.9863-43.6035Q6.83594-39.4531 6.83594-35.3271Q6.83594-31.2012 10.9863-27.0508L16.5039-21.582Q17.041-20.9961 17.041-20.2148L17.041-12.4512Q17.041-6.54297 19.9707-3.6377Q22.9004-0.732422 28.7598-0.732422ZM31.1035-10.9375Q28.6621-10.9375 27.9785-11.6211Q27.2949-12.3047 27.2461-14.7461L27.2461-23.6816Q27.2461-25.2441 26.2207-26.2695L19.873-32.6172Q18.1641-34.3262 18.1641-35.3027Q18.1641-36.2793 19.873-37.9883L26.2207-44.3359Q27.2461-45.3613 27.2949-46.9238L27.2949-55.8594Q27.2949-58.3496 27.9541-59.0088Q28.6133-59.668 31.1035-59.668L40.0391-59.7168Q41.6016-59.7168 42.627-60.7422L48.9746-67.0898Q50.7324-68.7988 51.6602-68.8232Q52.5879-68.8477 54.3457-67.0898L60.6934-60.7422Q61.7188-59.7168 63.2812-59.7168L72.2168-59.668Q74.6582-59.668 75.3418-59.0088Q76.0254-58.3496 76.0254-55.8594L76.0254-46.9238Q76.0742-45.3613 77.0996-44.3359L83.4473-37.9883Q85.2051-36.2793 85.2051-35.3027Q85.2051-34.3262 83.4473-32.6172L77.0996-26.2695Q76.0742-25.2441 76.0742-23.6816L76.0254-14.7461Q76.0254-12.3047 75.3418-11.6211Q74.6582-10.9375 72.2168-10.9375L63.2812-10.8887Q61.7188-10.8887 60.6934-9.86328L54.3457-3.51562Q52.6367-1.80664 51.6846-1.80664Q50.7324-1.80664 48.9746-3.51562L42.627-9.86328Q41.6016-10.8887 40.0391-10.8887Z"/>
   <path class="hierarchical-1:primary SFSymbolsPreview212121" d="M47.7539-17.0898Q50.5859-17.0898 52.2461-19.5801L67.9199-43.3594Q68.457-44.1406 68.7256-44.9219Q68.9941-45.7031 68.9941-46.4844Q68.9941-48.4375 67.5049-49.707Q66.0156-50.9766 64.1113-50.9766Q61.5723-50.9766 59.9121-48.291L47.7051-28.6133L42.2363-35.0586Q41.4551-35.9375 40.6006-36.4014Q39.7461-36.8652 38.623-36.8652Q36.6699-36.8652 35.2539-35.498Q33.8379-34.1309 33.8379-32.1777Q33.8379-30.4199 35.2051-28.7598L43.1641-19.4824Q44.0918-18.3594 45.2148-17.7246Q46.3379-17.0898 47.7539-17.0898Z"/>
  </g>
  <g id="Bold-S" transform="matrix(1 0 0 1 2288.65 696)">
   <path class="hierarchical-0:secondary SFSymbolsPreview4D4D4D" d="M28.418-1.07422L36.2793-1.07422Q37.1582-1.07422 37.7441-0.488281L43.3105 5.07812Q47.3633 9.13086 51.3428 9.13086Q55.3223 9.13086 59.375 5.07812L64.9414-0.488281Q65.5273-1.07422 66.4551-1.07422L74.2676-1.07422Q79.9805-1.07422 82.8125-3.90625Q85.6445-6.73828 85.6445-12.4512L85.6445-20.3125Q85.6445-21.1914 86.2793-21.8262L91.7969-27.3438Q95.8496-31.3965 95.8496-35.376Q95.8496-39.3555 91.7969-43.4082L86.2793-48.9746Q85.6445-49.6094 85.6445-50.4883L85.6445-58.3008Q85.6445-64.0625 82.8125-66.8701Q79.9805-69.6777 74.2676-69.6777L66.4551-69.6777Q65.5273-69.6777 64.9414-70.3125L59.375-75.8301Q55.3223-79.9316 51.3672-79.8828Q47.4121-79.834 43.3105-75.8301L37.7441-70.3125Q37.1582-69.6777 36.2793-69.6777L28.418-69.6777Q22.7051-69.6777 19.873-66.8945Q17.041-64.1113 17.041-58.3008L17.041-50.4883Q17.041-49.6094 16.4551-48.9746L10.8887-43.4082Q6.83594-39.3555 6.83594-35.376Q6.83594-31.3965 10.8887-27.3438L16.4551-21.8262Q17.041-21.1914 17.041-20.3125L17.041-12.4512Q17.041-6.73828 19.873-3.90625Q22.7051-1.07422 28.418-1.07422ZM29.9316-10.2051Q27.4902-10.2051 26.8311-10.8643Q26.1719-11.5234 26.123-13.9648L26.123-23.3398Q26.123-24.9512 25.0488-26.0742L18.4082-32.666Q16.6504-34.4238 16.6504-35.3516Q16.6504-36.2793 18.4082-38.0371L25.0488-44.6289Q26.123-45.752 26.1719-47.4121L26.1719-56.7383Q26.1719-59.2285 26.8066-59.8877Q27.4414-60.5469 29.9316-60.5469L39.3066-60.5469Q40.9668-60.5469 42.041-61.6699L48.6816-68.3105Q50.4395-70.0684 51.3428-70.0684Q52.2461-70.0684 54.0039-68.3105L60.6445-61.6699Q61.7188-60.5469 63.3789-60.5469L72.7539-60.5469Q75.1953-60.5469 75.8545-59.8877Q76.5137-59.2285 76.5137-56.7383L76.5137-47.4121Q76.5625-45.752 77.6855-44.6289L84.2773-38.0371Q86.0352-36.2793 86.0352-35.3516Q86.0352-34.4238 84.2773-32.666L77.6855-26.0742Q76.5625-24.9512 76.5625-23.3398L76.5137-13.9648Q76.5137-11.5234 75.8545-10.8643Q75.1953-10.2051 72.7539-10.2051L63.3789-10.1562Q61.7188-10.1562 60.6445-9.0332L54.0039-2.39258Q52.2949-0.683594 51.3672-0.683594Q50.4395-0.683594 48.6816-2.39258L42.041-9.0332Q40.9668-10.1562 39.3066-10.1562Z"/>
   <path class="hierarchical-1:primary SFSymbolsPreview212121" d="M47.4121-17.1387Q50-17.1387 51.5625-19.4824L67.5781-44.2383Q68.0664-44.9707 68.3594-45.7275Q68.6523-46.4844 68.6523-47.2656Q68.6523-49.0723 67.3096-50.1953Q65.9668-51.3184 64.2578-51.3184Q61.9629-51.3184 60.4492-48.877L47.3145-27.5879L41.4062-34.9609Q40.625-35.8887 39.7705-36.3037Q38.916-36.7188 37.8906-36.7188Q36.1328-36.7188 34.8633-35.4736Q33.5938-34.2285 33.5938-32.4707Q33.5938-30.8105 34.8633-29.2969L43.0664-19.4336Q43.9941-18.3105 45.0439-17.7246Q46.0938-17.1387 47.4121-17.1387Z"/>
  </g>
  <g id="Semibold-S" transform="matrix(1 0 0 1 1992.16 696)">
   <path class="hierarchical-0:secondary SFSymbolsPreview4D4D4D" d="M28.1738-1.31836L36.0352-1.31836Q37.0117-1.31836 37.6465-0.683594L43.2617 4.88281Q47.2168 8.88672 51.0986 8.8623Q54.9805 8.83789 58.9355 4.88281L64.5508-0.683594Q65.1855-1.31836 66.2109-1.31836L74.0723-1.31836Q79.6387-1.31836 82.3975-4.07715Q85.1562-6.83594 85.1562-12.5L85.1562-20.3613Q85.1562-21.2891 85.8398-21.9727L91.4062-27.5391Q95.4102-31.543 95.3857-35.4248Q95.3613-39.3066 91.4062-43.2617L85.8398-48.8281Q85.1562-49.5117 85.1562-50.4883L85.1562-58.3496Q85.1562-63.9648 82.4219-66.7236Q79.6875-69.4824 74.0723-69.4824L66.2109-69.4824Q65.1855-69.4824 64.5508-70.166L58.9355-75.7324Q54.9805-79.7363 51.123-79.6875Q47.2656-79.6387 43.2617-75.6836L37.6465-70.166Q37.0117-69.4824 36.0352-69.4824L28.1738-69.4824Q22.5586-69.4824 19.7998-66.748Q17.041-64.0137 17.041-58.3496L17.041-50.4883Q17.041-49.5117 16.4062-48.8281L10.8398-43.2617Q6.83594-39.3066 6.83594-35.4248Q6.83594-31.543 10.8398-27.5391L16.4062-21.9727Q17.041-21.2891 17.041-20.3613L17.041-12.5Q17.041-6.83594 19.7998-4.07715Q22.5586-1.31836 28.1738-1.31836ZM29.1504-9.66797Q26.6602-9.66797 26.001-10.3027Q25.3418-10.9375 25.3418-13.4277L25.3418-23.0957Q25.3418-24.7559 24.2188-25.9277L17.3828-32.7148Q15.625-34.4727 15.625-35.4004Q15.625-36.3281 17.3828-38.0859L24.2188-44.873Q25.3418-46.0449 25.3418-47.7051L25.3418-57.373Q25.3418-59.8633 25.9766-60.498Q26.6113-61.1328 29.1504-61.1328L38.8184-61.1328Q40.5273-61.1328 41.6504-62.3047L48.4375-69.1406Q50.1953-70.8984 51.0986-70.8984Q52.002-70.8984 53.7598-69.1406L60.5957-62.3047Q61.6699-61.1328 63.3789-61.1328L73.0957-61.1328Q75.5371-61.1328 76.1963-60.498Q76.8555-59.8633 76.8555-57.373L76.8555-47.7051Q76.9043-46.0449 78.0273-44.873L84.8633-38.0859Q86.6211-36.3281 86.6211-35.4004Q86.6211-34.4727 84.8633-32.7148L78.0273-25.9277Q76.8555-24.7559 76.8555-23.0957L76.8555-13.4277Q76.8555-10.9375 76.1963-10.3027Q75.5371-9.66797 73.0957-9.66797L63.3789-9.66797Q61.6699-9.66797 60.5957-8.49609L53.7598-1.66016Q52.0508 0.0976562 51.123 0.0976562Q50.1953 0.0976562 48.4375-1.66016L41.6504-8.49609Q40.5273-9.66797 38.8184-9.66797Z"/>
   <path class="hierarchical-1:primary SFSymbolsPreview212121" d="M47.0703-17.1875Q49.5605-17.1875 51.0254-19.4336L67.334-44.8242Q67.7734-45.5566 68.0908-46.2891Q68.4082-47.0215 68.4082-47.8027Q68.4082-49.4629 67.1631-50.4883Q65.918-51.5137 64.3066-51.5137Q62.1582-51.5137 60.791-49.2676L46.9727-26.8555L40.7715-34.8633Q39.9902-35.8398 39.1602-36.2305Q38.3301-36.6211 37.3535-36.6211Q35.7422-36.6211 34.5703-35.4736Q33.3984-34.3262 33.3984-32.666Q33.3984-31.1035 34.5215-29.6875L42.9688-19.3848Q43.8477-18.2617 44.8486-17.7246Q45.8496-17.1875 47.0703-17.1875Z"/>
  </g>
  <g id="Medium-S" transform="matrix(1 0 0 1 1695.62 696)">
   <path class="hierarchical-0:secondary SFSymbolsPreview4D4D4D" d="M27.9785-1.51367L35.8887-1.51367Q36.9141-1.51367 37.5977-0.830078L43.2129 4.78516Q47.168 8.69141 50.9521 8.66699Q54.7363 8.64258 58.6426 4.78516L64.2578-0.830078Q64.9414-1.51367 66.0156-1.51367L73.877-1.51367Q79.3945-1.51367 82.1045-4.22363Q84.8145-6.93359 84.8145-12.4512L84.8145-20.3613Q84.8145-21.3379 85.5469-22.0703L91.1133-27.6855Q95.0684-31.5918 95.0439-35.4004Q95.0195-39.209 91.1133-43.1641L85.5469-48.7305Q84.8145-49.4629 84.8145-50.4883L84.8145-58.3496Q84.8145-63.916 82.1289-66.626Q79.4434-69.3359 73.877-69.3359L66.0156-69.3359Q64.9414-69.3359 64.2578-70.0195L58.6426-75.5859Q54.7363-79.541 50.9521-79.5166Q47.168-79.4922 43.2129-75.5859L37.5977-70.0195Q36.9141-69.3359 35.8887-69.3359L27.9785-69.3359Q22.4609-69.3359 19.751-66.6504Q17.041-63.9648 17.041-58.3496L17.041-50.4883Q17.041-49.4629 16.3574-48.7305L10.7422-43.1641Q6.83594-39.209 6.83594-35.4004Q6.83594-31.5918 10.7422-27.6855L16.3574-22.0703Q17.041-21.3379 17.041-20.3613L17.041-12.4512Q17.041-6.88477 19.751-4.19922Q22.4609-1.51367 27.9785-1.51367ZM28.5156-9.22852Q26.0742-9.22852 25.415-9.86328Q24.7559-10.498 24.7559-13.0371L24.7559-22.9004Q24.7559-24.6094 23.584-25.8301L16.6016-32.7148Q14.8438-34.5215 14.8438-35.4004Q14.8438-36.2793 16.6016-38.0859L23.584-44.9707Q24.7559-46.1914 24.7559-47.9004L24.7559-57.7637Q24.7559-60.3027 25.3906-60.9375Q26.0254-61.5723 28.5156-61.5723L38.4277-61.5723Q40.1855-61.5723 41.3086-62.793L48.2422-69.7754Q50.0488-71.5332 50.9521-71.5332Q51.8555-71.5332 53.6133-69.7754L60.5469-62.793Q61.6699-61.5723 63.4277-61.5723L73.3398-61.5723Q75.8301-61.5723 76.4648-60.9375Q77.0996-60.3027 77.0996-57.7637L77.0996-47.9004Q77.1484-46.1914 78.3203-44.9707L85.2539-38.0859Q87.0605-36.2793 87.0605-35.4004Q87.0605-34.5215 85.2539-32.7148L78.3203-25.8301Q77.0996-24.6094 77.0996-22.9004L77.0996-13.0371Q77.0996-10.498 76.4648-9.86328Q75.8301-9.22852 73.3398-9.22852L63.4277-9.22852Q61.6699-9.22852 60.5469-8.00781L53.6133-1.02539Q51.8555 0.732422 50.9521 0.732422Q50.0488 0.732422 48.2422-1.02539L41.3086-8.00781Q40.1855-9.22852 38.4277-9.22852Z"/>
   <path class="hierarchical-1:primary SFSymbolsPreview212121" d="M46.875-17.2363Q49.2188-17.2363 50.6348-19.3848L67.1387-45.2637Q67.5781-45.9473 67.8955-46.6797Q68.2129-47.4121 68.2129-48.1934Q68.2129-49.7559 67.0166-50.708Q65.8203-51.6602 64.3555-51.6602Q62.3535-51.6602 61.084-49.5605L46.7285-26.3184L40.2832-34.7656Q39.502-35.791 38.6963-36.1816Q37.8906-36.5723 36.9629-36.5723Q35.4004-36.5723 34.3262-35.4492Q33.252-34.3262 33.252-32.8125Q33.252-31.2988 34.3262-29.9316L42.9199-19.3359Q43.75-18.2129 44.7266-17.7246Q45.7031-17.2363 46.875-17.2363Z"/>
  </g>
  <g id="Regular-S" transform="matrix(1 0 0 1 1399.14 696)">
   <path class="hierarchical-0:secondary SFSymbolsPreview4D4D4D" d="M27.7344-1.75781L35.6934-1.75781Q36.7676-1.75781 37.5-1.02539L43.1641 4.58984Q47.0215 8.44727 50.7324 8.42285Q54.4434 8.39844 58.252 4.58984L63.916-1.02539Q64.6484-1.75781 65.7715-1.75781L73.6816-1.75781Q79.1016-1.75781 81.7383-4.39453Q84.375-7.03125 84.375-12.5L84.375-20.4102Q84.375-21.4844 85.1562-22.2656L90.7227-27.8809Q94.6289-31.7383 94.6045-35.4492Q94.5801-39.1602 90.7227-43.0176L85.1562-48.6328Q84.375-49.4141 84.375-50.4883L84.375-58.3984Q84.375-63.8672 81.7627-66.5039Q79.1504-69.1406 73.6816-69.1406L65.7715-69.1406Q64.6484-69.1406 63.916-69.873L58.252-75.4883Q54.4434-79.3457 50.7324-79.3213Q47.0215-79.2969 43.1641-75.4883L37.5-69.873Q36.7676-69.1406 35.6934-69.1406L27.7344-69.1406Q22.3145-69.1406 19.6777-66.5283Q17.041-63.916 17.041-58.3984L17.041-50.4883Q17.041-49.4141 16.3086-48.6328L10.6934-43.0176Q6.83594-39.1602 6.83594-35.4492Q6.83594-31.7383 10.6934-27.8809L16.3086-22.2656Q17.041-21.4844 17.041-20.4102L17.041-12.5Q17.041-7.03125 19.6777-4.39453Q22.3145-1.75781 27.7344-1.75781ZM27.7344-8.74023Q25.2441-8.74023 24.6094-9.35059Q23.9746-9.96094 23.9746-12.5L23.9746-22.6562Q23.9746-24.4141 22.7539-25.6836L15.5762-32.7637Q13.8184-34.5703 13.8184-35.4492Q13.8184-36.3281 15.5762-38.1348L22.7539-45.2148Q23.9746-46.4844 23.9746-48.2422L23.9746-58.3984Q23.9746-60.9375 24.585-61.5479Q25.1953-62.1582 27.7344-62.1582L37.9395-62.1582Q39.7461-62.1582 40.918-63.4277L48.0469-70.6055Q49.8535-72.3633 50.7324-72.3633Q51.6113-72.3633 53.3691-70.6055L60.498-63.4277Q61.6699-62.1582 63.4766-62.1582L73.6816-62.1582Q76.1719-62.1582 76.8066-61.5479Q77.4414-60.9375 77.4414-58.3984L77.4414-48.2422Q77.4414-46.4844 78.7109-45.2148L85.8398-38.1348Q87.6465-36.3281 87.6465-35.4492Q87.6465-34.5703 85.8398-32.7637L78.7109-25.6836Q77.4414-24.4141 77.4414-22.6562L77.4414-12.5Q77.4414-9.96094 76.8066-9.35059Q76.1719-8.74023 73.6816-8.74023L63.4766-8.74023Q61.6699-8.74023 60.498-7.4707L53.3691-0.292969Q51.6113 1.46484 50.7324 1.46484Q49.8535 1.46484 48.0469-0.292969L40.918-7.4707Q39.7461-8.74023 37.9395-8.74023Z"/>
   <path class="hierarchical-1:primary SFSymbolsPreview212121" d="M46.582-17.2852Q48.7793-17.2852 50.0977-19.3359L66.8945-45.8984Q67.2852-46.5332 67.627-47.2412Q67.9688-47.9492 67.9688-48.7305Q67.9688-50.1953 66.8701-51.0498Q65.7715-51.9043 64.4043-51.9043Q62.5977-51.9043 61.4258-49.9512L46.3867-25.6348L39.6484-34.7168Q38.8672-35.7422 38.0859-36.1084Q37.3047-36.4746 36.4258-36.4746Q35.0098-36.4746 34.0332-35.4492Q33.0566-34.4238 33.0566-33.0078Q33.0566-31.5918 34.0332-30.3223L42.8223-19.3359Q43.6523-18.2129 44.5557-17.749Q45.459-17.2852 46.582-17.2852Z"/>
  </g>
  <g id="Light-S" transform="matrix(1 0 0 1 1103.23 696)">
   <path class="hierarchical-0:secondary SFSymbolsPreview4D4D4D" d="M26.5625-2.63672L35.1562-2.63672Q36.3281-2.63672 37.1582-1.80664L43.2617 4.24805Q46.7285 7.71484 49.9268 7.69043Q53.125 7.66602 56.543 4.24805L62.6465-1.80664Q63.4766-2.63672 64.6973-2.63672L73.2422-2.63672Q78.125-2.63672 80.3955-4.90723Q82.666-7.17773 82.666-12.0605L82.666-20.6543Q82.666-21.7773 83.4961-22.6562L89.5508-28.7598Q93.0176-32.1777 92.9932-35.4004Q92.9688-38.623 89.5508-42.041L83.4961-48.1445Q82.666-49.0234 82.666-50.1465L82.666-58.7402Q82.666-63.623 80.3955-65.8936Q78.125-68.1641 73.2422-68.1641L64.6973-68.1641Q63.4766-68.1641 62.6465-68.9941L56.543-75.0488Q53.125-78.5156 49.9268-78.4912Q46.7285-78.4668 43.2617-75.0488L37.1582-68.9941Q36.3281-68.1641 35.1562-68.1641L26.5625-68.1641Q21.7285-68.1641 19.4336-65.8936Q17.1387-63.623 17.1387-58.7402L17.1387-50.1465Q17.1387-49.0234 16.3574-48.1445L10.2539-42.041Q6.83594-38.623 6.83594-35.4004Q6.83594-32.1777 10.2539-28.7598L16.3574-22.6562Q17.1387-21.7773 17.1387-20.6543L17.1387-12.0605Q17.1387-7.17773 19.4336-4.90723Q21.7285-2.63672 26.5625-2.63672ZM26.5625-8.00781Q23.9746-8.00781 23.2422-8.74023Q22.5098-9.47266 22.5098-12.0605L22.5098-22.4609Q22.5098-24.0723 21.3379-25.2441L14.0625-32.5195Q12.207-34.375 12.207-35.4004Q12.207-36.4258 14.0625-38.2812L21.3379-45.5566Q22.5098-46.7285 22.5098-48.3398L22.5098-58.7402Q22.5098-61.3281 23.2178-62.0605Q23.9258-62.793 26.5625-62.793L36.9629-62.793Q38.623-62.793 39.7461-63.9648L47.0215-71.2891Q48.877-73.0957 49.9023-73.0957Q50.9277-73.0957 52.7832-71.2891L60.0586-63.9648Q61.1816-62.793 62.8418-62.793L73.2422-62.793Q75.8301-62.793 76.5869-62.0605Q77.3438-61.3281 77.3438-58.7402L77.3438-48.3398Q77.3438-46.7285 78.4668-45.5566L85.791-38.2812Q87.6465-36.4258 87.6465-35.4004Q87.6465-34.375 85.791-32.5195L78.4668-25.2441Q77.3438-24.0723 77.3438-22.4609L77.3438-12.0605Q77.3438-9.47266 76.5869-8.74023Q75.8301-8.00781 73.2422-8.00781L62.8418-8.00781Q61.1816-8.00781 60.0586-6.83594L52.7832 0.488281Q50.9277 2.29492 49.9023 2.29492Q48.877 2.29492 47.0215 0.488281L39.7461-6.83594Q38.623-8.00781 36.9629-8.00781Z"/>
   <path class="hierarchical-1:primary SFSymbolsPreview212121" d="M45.8008-17.2363Q47.4609-17.2363 48.5352-18.7988L66.5527-47.0703Q66.8457-47.5586 67.1143-48.0957Q67.3828-48.6328 67.3828-49.2188Q67.3828-50.3418 66.5283-51.0254Q65.6738-51.709 64.5996-51.709Q63.2324-51.709 62.3047-50.1953L45.6543-23.7793L37.5-34.082Q36.8652-34.8633 36.2793-35.1562Q35.6934-35.4492 35.0098-35.4492Q33.8867-35.4492 33.1299-34.668Q32.373-33.8867 32.373-32.7637Q32.373-31.6895 33.1543-30.6641L42.9199-18.7988Q43.5547-17.9199 44.2383-17.5781Q44.9219-17.2363 45.8008-17.2363Z"/>
  </g>
  <g id="Thin-S" transform="matrix(1 0 0 1 807.577 696)">
   <path class="hierarchical-0:secondary SFSymbolsPreview4D4D4D" d="M25.0488-3.71094L34.4727-3.71094Q35.791-3.71094 36.6699-2.83203L43.4082 3.80859Q46.3379 6.73828 48.8525 6.73828Q51.3672 6.73828 54.2969 3.80859L60.9863-2.83203Q61.9141-3.71094 63.2324-3.71094L72.6562-3.71094Q76.7578-3.71094 78.5889-5.54199Q80.4199-7.37305 80.4199-11.4746L80.4199-20.8984Q80.4199-22.168 81.3477-23.1934L87.9883-29.834Q90.8691-32.7637 90.8691-35.3027Q90.8691-37.8418 87.9883-40.7715L81.3477-47.4121Q80.4199-48.4375 80.4199-49.707L80.4199-59.1309Q80.4199-63.2324 78.6133-65.0635Q76.8066-66.8945 72.6562-66.8945L63.2324-66.8945Q61.9141-66.8945 60.9863-67.7734L54.2969-74.4141Q51.3672-77.3438 48.8525-77.3438Q46.3379-77.3438 43.3594-74.4141L36.6699-67.7734Q35.791-66.8945 34.4727-66.8945L25.0488-66.8945Q20.9473-66.8945 19.1162-65.0635Q17.2852-63.2324 17.2852-59.1309L17.2852-49.707Q17.2852-48.4375 16.3574-47.4121L9.7168-40.7715Q6.83594-37.8418 6.83594-35.3027Q6.83594-32.7637 9.7168-29.834L16.3574-23.1934Q17.2852-22.168 17.2852-20.8984L17.2852-11.4746Q17.2852-7.37305 19.1162-5.54199Q20.9473-3.71094 25.0488-3.71094ZM25.0488-7.03125Q22.3145-7.03125 21.4355-7.88574Q20.5566-8.74023 20.5566-11.4746L20.5566-22.1191Q20.5566-23.6328 19.5312-24.6582L12.0117-32.1777Q10.1074-34.082 10.1074-35.3027Q10.1074-36.5234 12.0117-38.4277L19.5312-45.9473Q20.5566-46.9727 20.5566-48.4863L20.5566-59.1309Q20.5566-61.8652 21.4111-62.7197Q22.2656-63.5742 25.0488-63.5742L35.6445-63.5742Q37.1582-63.5742 38.2324-64.6484L45.7031-72.168Q47.6562-74.0723 48.8525-74.0723Q50.0488-74.0723 52.002-72.168L59.4727-64.6484Q60.498-63.5742 62.0117-63.5742L72.6562-63.5742Q75.3418-63.5742 76.2451-62.7197Q77.1484-61.8652 77.1484-59.1309L77.1484-48.4863Q77.1484-46.9727 78.1738-45.9473L85.6934-38.4277Q87.5977-36.5234 87.5977-35.3027Q87.5977-34.082 85.6934-32.1777L78.1738-24.6582Q77.1484-23.6328 77.1484-22.1191L77.1484-11.4746Q77.1484-8.74023 76.2451-7.88574Q75.3418-7.03125 72.6562-7.03125L62.0117-7.03125Q60.498-7.03125 59.4727-5.95703L52.002 1.5625Q50.0488 3.4668 48.8525 3.4668Q47.6562 3.4668 45.7031 1.5625L38.2324-5.95703Q37.1582-7.03125 35.6445-7.03125Z"/>
   <path class="hierarchical-1:primary SFSymbolsPreview212121" d="M44.7754-17.1387Q45.7031-17.1387 46.4355-18.0664L66.1133-48.6816Q66.2598-48.9258 66.4062-49.2432Q66.5527-49.5605 66.5527-49.9023Q66.5527-50.5859 66.0156-51.0254Q65.4785-51.4648 64.8438-51.4648Q64.0625-51.4648 63.3789-50.5859L44.7266-21.3379L34.5703-33.3008Q34.2285-33.7402 33.8623-33.9111Q33.4961-34.082 33.0566-34.082Q32.4219-34.082 31.9336-33.6182Q31.4453-33.1543 31.4453-32.4707Q31.4453-31.8359 31.9824-31.1035L43.0664-18.0664Q43.457-17.5781 43.8477-17.3584Q44.2383-17.1387 44.7754-17.1387Z"/>
  </g>
  <g id="Ultralight-S" transform="matrix(1 0 0 1 511.41 696)">
   <path class="hierarchical-0:secondary SFSymbolsPreview4D4D4D" d="M24.2188-4.29688L34.082-4.29688Q35.498-4.29688 36.4746-3.32031L43.5059 3.61328Q46.0938 6.25 48.291 6.25Q50.4883 6.25 53.125 3.61328L60.1562-3.32031Q61.084-4.29688 62.5-4.29688L72.3633-4.29688Q76.123-4.29688 77.6855-5.88379Q79.248-7.4707 79.248-11.1816L79.248-21.0449Q79.248-22.3633 80.2246-23.4375L87.1582-30.4199Q89.7461-33.0566 89.7461-35.2539Q89.7461-37.4512 87.1582-40.0879L80.2246-47.0703Q79.248-48.1445 79.248-49.4629L79.248-59.3262Q79.248-63.0371 77.6855-64.624Q76.123-66.2109 72.3633-66.2109L62.5-66.2109Q61.084-66.2109 60.1562-67.1875L53.125-74.1211Q50.4883-76.7578 48.291-76.7822Q46.0938-76.8066 43.457-74.1211L36.4746-67.1875Q35.498-66.2109 34.082-66.2109L24.2188-66.2109Q20.5566-66.2109 18.9697-64.624Q17.3828-63.0371 17.3828-59.3262L17.3828-49.4629Q17.3828-48.1445 16.4062-47.0703L9.42383-40.0879Q6.83594-37.4512 6.83594-35.2539Q6.83594-33.0566 9.42383-30.4199L16.4062-23.4375Q17.3828-22.3633 17.3828-21.0449L17.3828-11.1816Q17.3828-7.4707 18.9697-5.88379Q20.5566-4.29688 24.2188-4.29688ZM24.2188-6.49414Q21.4844-6.49414 20.5322-7.44629Q19.5801-8.39844 19.5801-11.1816L19.5801-21.9727Q19.5801-23.3887 18.5547-24.3652L10.9863-31.9824Q8.98438-33.9355 8.98438-35.2539Q8.98438-36.5723 10.9863-38.5254L18.5547-46.1426Q19.5801-47.1191 19.5801-48.5352L19.5801-59.3262Q19.5801-62.1094 20.5078-63.0615Q21.4355-64.0137 24.2188-64.0137L35.0098-64.0137Q36.4258-64.0137 37.4023-64.9902L45.0195-72.6074Q46.9727-74.5605 48.291-74.5605Q49.6094-74.5605 51.6113-72.6074L59.1797-64.9902Q60.1562-64.0137 61.6211-64.0137L72.3633-64.0137Q75.1465-64.0137 76.123-63.0615Q77.0996-62.1094 77.0996-59.3262L77.0996-48.5352Q77.0996-47.1191 78.0273-46.1426L85.6445-38.5254Q87.5977-36.5723 87.5977-35.2539Q87.5977-33.9355 85.6445-31.9824L78.0273-24.3652Q77.0996-23.3887 77.0996-21.9727L77.0996-11.1816Q77.0996-8.39844 76.123-7.44629Q75.1465-6.49414 72.3633-6.49414L61.6211-6.49414Q60.1562-6.49414 59.1797-5.51758L51.6113 2.09961Q49.6094 4.05273 48.291 4.05273Q46.9727 4.05273 45.0195 2.09961L37.4023-5.51758Q36.4258-6.49414 35.0098-6.49414Z"/>
   <path class="hierarchical-1:primary SFSymbolsPreview212121" d="M44.2383-17.1387Q44.8242-17.1387 45.3613-17.7246L65.8691-49.5117Q65.9668-49.6582 66.04-49.8779Q66.1133-50.0977 66.1133-50.293Q66.1133-50.6836 65.7471-51.0254Q65.3809-51.3672 64.9902-51.3672Q64.4531-51.3672 63.9648-50.7812L44.1895-20.1172L33.1055-32.9102Q32.8613-33.2031 32.6172-33.3252Q32.373-33.4473 32.0801-33.4473Q31.6406-33.4473 31.2988-33.1299Q30.957-32.8125 30.957-32.3242Q30.957-31.9336 31.3477-31.3965L43.1152-17.7246Q43.3594-17.4316 43.6035-17.2852Q43.8477-17.1387 44.2383-17.1387Z"/>
  </g>
 </g>
</svg>
